<svg xmlns="http://www.w3.org/2000/svg" xmlns:xlink="http://www.w3.org/1999/xlink" viewBox="0 0 163.15 177.3"><defs><style>.cls-1{fill:#5240ab;}.cls-2{fill:url(#linear-gradient);}.cls-3{fill:url(#linear-gradient-3);}.cls-4{fill:url(#linear-gradient-4);}.cls-5{fill:url(#linear-gradient-5);}.cls-6{fill:url(#linear-gradient-6);}.cls-7{fill:url(#linear-gradient-7);}.cls-8{fill:url(#linear-gradient-8);}.cls-9{fill:url(#linear-gradient-9);}</style><linearGradient id="linear-gradient" x1="-8.89" y1="134.55" x2="128.14" y2="-2.48" gradientUnits="userSpaceOnUse"><stop offset="0.1" stop-color="#8155e5"/><stop offset="0.2" stop-color="#7860e7"/><stop offset="0.39" stop-color="#5f7dec"/><stop offset="0.64" stop-color="#36acf4"/><stop offset="0.93" stop-color="#00ebff"/></linearGradient><linearGradient id="linear-gradient-3" x1="68.02" y1="16.78" x2="167.56" y2="116.32" gradientUnits="userSpaceOnUse"><stop offset="0.15" stop-color="#fd2eb2"/><stop offset="0.25" stop-color="#f42bb8"/><stop offset="0.4" stop-color="#da22c7"/><stop offset="0.59" stop-color="#b113e0"/><stop offset="0.81" stop-color="#7d00ff"/></linearGradient><linearGradient id="linear-gradient-4" x1="37.96" y1="19.28" x2="153.33" y2="134.65" gradientUnits="userSpaceOnUse"><stop offset="0.02" stop-color="#fe8fd6" stop-opacity="0"/><stop offset="0.06" stop-color="#fe90dc" stop-opacity="0.17"/><stop offset="0.12" stop-color="#fe91e5" stop-opacity="0.39"/><stop offset="0.17" stop-color="#fd92ec" stop-opacity="0.57"/><stop offset="0.23" stop-color="#fd93f2" stop-opacity="0.73"/><stop offset="0.28" stop-color="#fd94f6" stop-opacity="0.85"/><stop offset="0.33" stop-color="#fd95f9" stop-opacity="0.93"/><stop offset="0.38" stop-color="#fd95fb" stop-opacity="0.98"/><stop offset="0.43" stop-color="#fd95fc"/><stop offset="0.52" stop-color="#f48efc"/><stop offset="0.67" stop-color="#da7bfd"/><stop offset="0.86" stop-color="#b15cff"/><stop offset="0.9" stop-color="#a956ff"/><stop offset="0.94" stop-color="#a147ff" stop-opacity="0.49"/><stop offset="0.99" stop-color="#9a38ff" stop-opacity="0"/></linearGradient><linearGradient id="linear-gradient-5" x1="25.36" y1="23.73" x2="94.66" y2="93.35" gradientUnits="userSpaceOnUse"><stop offset="0.03" stop-color="#004ead"/><stop offset="0.93" stop-color="#3fafea" stop-opacity="0"/></linearGradient><linearGradient id="linear-gradient-6" x1="45.1" y1="182.96" x2="143.19" y2="84.87" gradientUnits="userSpaceOnUse"><stop offset="0.11" stop-color="#fd5d85"/><stop offset="0.28" stop-color="#fd6a7d"/><stop offset="0.61" stop-color="#fe8b68"/><stop offset="1" stop-color="#ffbb49"/></linearGradient><linearGradient id="linear-gradient-7" x1="98.57" y1="93.58" x2="26.98" y2="165.17" gradientUnits="userSpaceOnUse"><stop offset="0.28" stop-color="#4637d2"/><stop offset="0.34" stop-color="#4839d2" stop-opacity="0.97"/><stop offset="0.42" stop-color="#4d3ed4" stop-opacity="0.9"/><stop offset="0.5" stop-color="#5547d6" stop-opacity="0.78"/><stop offset="0.59" stop-color="#6053d8" stop-opacity="0.6"/><stop offset="0.69" stop-color="#6f63dc" stop-opacity="0.38"/><stop offset="0.79" stop-color="#8076e0" stop-opacity="0.12"/><stop offset="0.83" stop-color="#887fe2" stop-opacity="0"/></linearGradient><linearGradient id="linear-gradient-8" x1="95.56" y1="82.01" x2="150.62" y2="137.07" gradientUnits="userSpaceOnUse"><stop offset="0.04" stop-color="#e14534"/><stop offset="0.22" stop-color="#e14735" stop-opacity="0.99"/><stop offset="0.35" stop-color="#e34c38" stop-opacity="0.94"/><stop offset="0.47" stop-color="#e5543d" stop-opacity="0.87"/><stop offset="0.58" stop-color="#e86044" stop-opacity="0.77"/><stop offset="0.68" stop-color="#eb704e" stop-opacity="0.64"/><stop offset="0.78" stop-color="#f08359" stop-opacity="0.48"/><stop offset="0.88" stop-color="#f69a67" stop-opacity="0.29"/><stop offset="0.97" stop-color="#fcb377" stop-opacity="0.07"/><stop offset="1" stop-color="#febc7c" stop-opacity="0"/></linearGradient><linearGradient id="linear-gradient-9" x1="40.4" y1="155.54" x2="109.18" y2="86.76" gradientUnits="userSpaceOnUse"><stop offset="0.05" stop-color="#fe85a3" stop-opacity="0"/><stop offset="0.05" stop-color="#fe85a3" stop-opacity="0.03"/><stop offset="0.11" stop-color="#fe85a3" stop-opacity="0.32"/><stop offset="0.16" stop-color="#fe85a3" stop-opacity="0.56"/><stop offset="0.2" stop-color="#fe85a3" stop-opacity="0.75"/><stop offset="0.24" stop-color="#fe85a3" stop-opacity="0.89"/><stop offset="0.28" stop-color="#fe85a3" stop-opacity="0.97"/><stop offset="0.3" stop-color="#fe85a3"/><stop offset="0.38" stop-color="#fe91a0"/><stop offset="0.52" stop-color="#ffb298"/><stop offset="0.65" stop-color="#ffd58f"/><stop offset="1" stop-color="#ffd58f" stop-opacity="0"/></linearGradient></defs><g id="Layer_2" data-name="Layer 2"><g id="OBJECTS"><path class="cls-1" d="M145.24,31.2,99.52,4.8a35.94,35.94,0,0,0-35.89,0L17.92,31.2A35.84,35.84,0,0,0,0,62.26v52.79a35.87,35.87,0,0,0,17.92,31.06L63.63,172.5a35.9,35.9,0,0,0,35.89,0l45.72-26.39c.36-.23.73-.45,1.06-.68a35.74,35.74,0,0,0,16.85-30.38V62.26A35.85,35.85,0,0,0,145.24,31.2ZM104.91,78.29a14.64,14.64,0,0,1,0,20.72l-13,13a14.65,14.65,0,0,1-20.73,0l-13-13a14.64,14.64,0,0,1,0-20.72l13-13a14.65,14.65,0,0,1,20.73,0Z"/><path class="cls-2" d="M63.86,37.24,91.94,65.32a14.65,14.65,0,0,0-20.73,0l-13,13a14.64,14.64,0,0,0,0,20.72l13,13a14.65,14.65,0,0,0,20.73,0L63.86,140.07a38,38,0,0,1-45.94,6A35.87,35.87,0,0,1,0,115.05V62.26A35.84,35.84,0,0,1,17.92,31.2,38,38,0,0,1,63.86,37.24Z"/><path class="cls-2" d="M63.86,37.24,91.94,65.32a14.65,14.65,0,0,0-20.73,0l-13,13a14.64,14.64,0,0,0,0,20.72l13,13a14.65,14.65,0,0,0,20.73,0L63.86,140.07a38,38,0,0,1-45.94,6A35.87,35.87,0,0,1,0,115.05V62.26A35.84,35.84,0,0,1,17.92,31.2,38,38,0,0,1,63.86,37.24Z"/><path class="cls-3" d="M163.15,62.26v52.79a35.74,35.74,0,0,1-16.85,30.38,15.49,15.49,0,0,0,2.14-23.7L91.94,65.32,63.86,37.24a38,38,0,0,0-45.94-6L63.63,4.8a35.94,35.94,0,0,1,35.89,0l45.72,26.4A35.85,35.85,0,0,1,163.15,62.26Z"/><path class="cls-4" d="M154.91,134.24a17.41,17.41,0,0,0-5.06-13.92L93.35,63.9,65.27,35.82A39.74,39.74,0,0,0,37,24.09c-1,0-2,0-2.92.11v2c1-.07,2-.12,2.92-.12a38,38,0,0,1,26.9,11.15L91.94,65.32l56.5,56.41a15.34,15.34,0,0,1,4.37,13h2Z"/><path class="cls-5" d="M91.94,65.32,63.86,37.24a38,38,0,0,0-40-8.83l-.42.16h0a37.82,37.82,0,0,0-5.54,2.63,35.82,35.82,0,0,0-4.83,3.36c-.39.32-.78.64-1.15,1a39,39,0,0,1,43.23,8.12L74.41,62.91a14.63,14.63,0,0,1,17.53,2.41Z"/><path class="cls-6" d="M148.44,121.73a15.49,15.49,0,0,1-2.14,23.7c-.33.23-.7.45-1.06.68L99.52,172.5a35.9,35.9,0,0,1-35.89,0L17.92,146.11a38,38,0,0,0,45.94-6L91.94,112l13-13a14.64,14.64,0,0,0,0-20.72Z"/><path class="cls-7" d="M91.94,112a14.6,14.6,0,0,1-16.85,2.71L49.72,140.07a37.83,37.83,0,0,1-19.88,10.47,38,38,0,0,0,34-10.47Z"/><path class="cls-8" d="M104.91,78.29a14.61,14.61,0,0,1,2.39,17.47l34.61,34.56a15.78,15.78,0,0,1,4.1,15.3l.29-.19a15.49,15.49,0,0,0,2.14-23.7Z"/><path class="cls-9" d="M111.14,87.34h-2A14.58,14.58,0,0,1,104.91,99l-13,13L63.86,140.07A38,38,0,0,1,37,151.22c-1,0-1.94-.05-2.92-.13v2c1,.07,2,.11,2.92.11a39.71,39.71,0,0,0,28.31-11.74L93.35,113.4l13-13A16.61,16.61,0,0,0,111.14,87.34Z"/></g></g></svg>