<svg id="Capa_1" enable-background="new 0 0 512 512" height="512" viewBox="0 0 512 512" width="512" xmlns="http://www.w3.org/2000/svg"><g><g><path d="m53.248 67.032h7.161c1.251 0 2.236-1.126 2.004-2.355-.378-1.999-.491-4.091-.296-6.241.975-10.733 9.728-19.382 20.473-20.224 5.5-.431 10.619 1.134 14.719 4.042.865.613 2.047.47 2.725-.345 6.376-7.662 16.286-12.279 27.232-11.333 15.032 1.299 27.235 13.312 28.757 28.323.211 2.08.22 4.125.044 6.117-.097 1.103.7 2.062 1.799 2.191 12.096 1.42 21.482 11.7 21.482 24.178 0 13.449-10.903 24.352-24.352 24.352h-101.748c-13.449 0-24.352-10.903-24.352-24.352 0-13.45 10.903-24.353 24.352-24.353z" fill="#e4f6ff"/></g><g><path d="m157.867 67.207c-1.099-.129-1.896-1.089-1.799-2.191.175-1.992.167-4.037-.044-6.117-1.522-15.011-13.725-27.024-28.757-28.323-6.183-.534-12.035.709-17.108 3.271 9.417 4.768 16.204 14.111 17.314 25.052.211 2.08.22 4.125.044 6.117-.097 1.102.7 2.062 1.799 2.191 12.096 1.42 21.482 11.7 21.482 24.178 0 13.45-10.903 24.353-24.352 24.353h28.551c13.449 0 24.352-10.903 24.352-24.353 0-12.478-9.386-22.758-21.482-24.178z" fill="#cbe2ff"/></g><g><circle cx="244.59" cy="140.467" fill="#ffe07d" r="125.24"/></g><g><path d="m311.914 34.846c12.419 19.443 19.619 42.543 19.619 67.324 0 69.168-56.072 125.24-125.24 125.24-24.782 0-47.881-7.2-67.324-19.619 22.244 34.824 61.235 57.916 105.621 57.916 69.168 0 125.24-56.072 125.24-125.24 0-44.386-23.092-83.378-57.916-105.621z" fill="#ffd064"/></g><g><g><path d="m244.59 280.935c-77.454 0-140.467-63.013-140.467-140.467s63.013-140.468 140.467-140.468 140.467 63.013 140.467 140.467-63.013 140.468-140.467 140.468zm0-250.481c-60.661 0-110.013 49.351-110.013 110.013s49.352 110.013 110.013 110.013 110.013-49.351 110.013-110.013-49.352-110.013-110.013-110.013z" fill="#ffc250"/></g></g><g><g><path d="m335.67 33.623c20.953 24.542 33.624 56.358 33.624 91.081 0 77.454-63.013 140.467-140.467 140.467-34.723 0-66.539-12.671-91.081-33.623 25.784 30.201 64.113 49.386 106.844 49.386 77.454 0 140.467-63.013 140.467-140.467 0-42.73-19.185-81.059-49.387-106.844z" fill="#ebb044"/></g></g><g><path d="m423.642 512h-356.307c-16.369 0-29.638-13.27-29.638-29.638v-217.534c0-16.369 13.27-29.638 29.638-29.638h356.307c16.369 0 29.638 13.27 29.638 29.638v217.534c0 16.368-13.269 29.638-29.638 29.638z" fill="#ce9875"/></g><path d="m423.642 235.19h-28.226v189.308c0 16.369-13.27 29.638-29.638 29.638h-328.081v28.226c0 16.369 13.27 29.638 29.638 29.638h356.307c16.369 0 29.638-13.27 29.638-29.638v-217.534c0-16.369-13.269-29.638-29.638-29.638z" fill="#c6865c"/><g><path d="m412.674 302.189c-4.205 0-7.614-3.408-7.614-7.614v-.508c0-5.878-4.782-10.659-10.659-10.659h-.508c-4.205 0-7.614-3.408-7.614-7.614 0-4.205 3.409-7.614 7.614-7.614h.508c14.273 0 25.886 11.613 25.886 25.886v.508c.001 4.207-3.408 7.615-7.613 7.615z" fill="#eab680"/></g><g><path d="m412.674 431.762c-4.205 0-7.614-3.408-7.614-7.614v-36.32c0-4.205 3.409-7.614 7.614-7.614s7.614 3.408 7.614 7.614v36.32c0 4.205-3.409 7.614-7.614 7.614zm0-64.787c-4.205 0-7.614-3.408-7.614-7.614v-36.319c0-4.205 3.409-7.614 7.614-7.614s7.614 3.408 7.614 7.614v36.319c0 4.206-3.409 7.614-7.614 7.614z" fill="#ce9875"/></g><g><path d="m394.402 479.007h-.508c-4.205 0-7.614-3.408-7.614-7.614 0-4.205 3.409-7.614 7.614-7.614h.508c5.877 0 10.659-4.781 10.659-10.659v-.508c0-4.205 3.409-7.614 7.614-7.614s7.614 3.408 7.614 7.614v.508c-.001 14.275-11.614 25.887-25.887 25.887z" fill="#ce9875"/></g><g><path d="m364.517 479.007h-37.481c-4.205 0-7.614-3.408-7.614-7.614 0-4.205 3.409-7.614 7.614-7.614h37.481c4.205 0 7.614 3.408 7.614 7.614s-3.409 7.614-7.614 7.614zm-66.858 0h-37.481c-4.205 0-7.614-3.408-7.614-7.614 0-4.205 3.409-7.614 7.614-7.614h37.481c4.205 0 7.614 3.408 7.614 7.614-.001 4.206-3.41 7.614-7.614 7.614zm-66.859 0h-37.481c-4.205 0-7.614-3.408-7.614-7.614 0-4.205 3.409-7.614 7.614-7.614h37.481c4.205 0 7.614 3.408 7.614 7.614s-3.409 7.614-7.614 7.614zm-66.859 0h-37.481c-4.205 0-7.614-3.408-7.614-7.614 0-4.205 3.409-7.614 7.614-7.614h37.481c4.205 0 7.614 3.408 7.614 7.614s-3.409 7.614-7.614 7.614z" fill="#ce9875"/></g><g><path d="m97.083 479.007h-.508c-14.273 0-25.886-11.613-25.886-25.886v-.508c0-4.205 3.409-7.614 7.614-7.614s7.614 3.408 7.614 7.614v.508c0 5.878 4.782 10.659 10.659 10.659h.508c4.205 0 7.614 3.408 7.614 7.614-.002 4.205-3.41 7.613-7.615 7.613z" fill="#eab680"/></g><path d="m96.575 479.007h.508c4.205 0 7.614-3.408 7.614-7.614s-3.409-7.614-7.614-7.614h-.508c-5.535 0-10.095-4.241-10.608-9.645h-15.252c.535 13.806 11.927 24.873 25.86 24.873z" fill="#ce9875"/><g><path d="m78.303 431.761c-4.205 0-7.614-3.408-7.614-7.614v-36.319c0-4.205 3.409-7.614 7.614-7.614s7.614 3.408 7.614 7.614v36.319c-.001 4.205-3.41 7.614-7.614 7.614zm0-64.786c-4.205 0-7.614-3.408-7.614-7.614v-36.32c0-4.205 3.409-7.614 7.614-7.614s7.614 3.408 7.614 7.614v36.32c-.001 4.206-3.41 7.614-7.614 7.614z" fill="#eab680"/></g><g><path d="m78.303 302.189c-4.205 0-7.614-3.408-7.614-7.614v-.508c0-14.273 11.613-25.886 25.886-25.886h.508c4.205 0 7.614 3.408 7.614 7.614 0 4.205-3.409 7.614-7.614 7.614h-.508c-5.877 0-10.659 4.781-10.659 10.659v.508c0 4.205-3.409 7.613-7.613 7.613z" fill="#eab680"/></g><g><path d="m364.517 283.409h-37.481c-4.205 0-7.614-3.408-7.614-7.614 0-4.205 3.409-7.614 7.614-7.614h37.481c4.205 0 7.614 3.408 7.614 7.614s-3.409 7.614-7.614 7.614zm-66.858 0h-37.481c-4.205 0-7.614-3.408-7.614-7.614 0-4.205 3.409-7.614 7.614-7.614h37.481c4.205 0 7.614 3.408 7.614 7.614-.001 4.206-3.41 7.614-7.614 7.614zm-66.859 0h-37.481c-4.205 0-7.614-3.408-7.614-7.614 0-4.205 3.409-7.614 7.614-7.614h37.481c4.205 0 7.614 3.408 7.614 7.614s-3.409 7.614-7.614 7.614zm-66.859 0h-37.481c-4.205 0-7.614-3.408-7.614-7.614 0-4.205 3.409-7.614 7.614-7.614h37.481c4.205 0 7.614 3.408 7.614 7.614s-3.409 7.614-7.614 7.614z" fill="#eab680"/></g><g><path d="m461.136 411.372h-106.517c-7.18 0-13-5.82-13-13v-51.381c0-7.18 5.82-13 13-13h106.518c7.18 0 13 5.82 13 13v51.381c-.001 7.18-5.821 13-13.001 13z" fill="#c6865c"/></g><path d="m461.136 333.991h-25.369v26.011c0 7.18-5.82 13-13 13h-81.149v25.369c0 7.18 5.82 13 13 13h106.518c7.18 0 13-5.82 13-13v-51.381c0-7.178-5.82-12.999-13-12.999z" fill="#b16e3d"/><g><circle cx="376.095" cy="372.682" fill="#f9f6f9" r="10.217"/></g><g><path d="m242.228 187.503-36.837 19.366c-3.724 1.958-8.076-1.204-7.365-5.351l7.035-41.018c.282-1.647-.263-3.327-1.46-4.493l-29.801-29.049c-3.013-2.936-1.35-8.053 2.813-8.658l41.185-5.984c1.653-.24 3.082-1.279 3.822-2.777l18.418-37.32c1.862-3.772 7.241-3.772 9.103 0l18.418 37.32c.739 1.498 2.168 2.536 3.822 2.777l41.185 5.984c4.163.605 5.826 5.721 2.813 8.658l-29.801 29.049c-1.196 1.166-1.742 2.846-1.46 4.493l7.035 41.018c.711 4.146-3.641 7.308-7.365 5.351l-36.837-19.366c-1.478-.778-3.245-.778-4.723 0z" fill="#ffc250"/></g><path d="m283.788 206.869c3.724 1.958 8.076-1.204 7.365-5.351l-1.075-6.268c-3.567 3.213-7.316 6.227-11.236 9.018z" fill="#ebb044"/><g><path d="m458.751 149.672h-10.051c-.817 0-1.485-.668-1.485-1.485v-.015c0-17.533-14.214-31.747-31.747-31.747-9.935 0-18.801 4.567-24.622 11.713-.402.494-1.059.671-1.659.458-2.342-.833-4.862-1.29-7.49-1.29-11.897 0-21.625 9.289-22.326 21.011-.046.765-.691 1.355-1.457 1.355h-.911c-13.449 0-24.353 10.903-24.353 24.353 0 13.45 10.903 24.352 24.353 24.352h57.065c1.252 0 2.422.586 3.197 1.569 4.095 5.198 10.443 8.538 17.574 8.538s13.479-3.34 17.574-8.538c.775-.983 1.945-1.569 3.197-1.569h3.142c13.449 0 24.352-10.903 24.352-24.352 0-13.45-10.903-24.353-24.353-24.353z" fill="#e4f6ff"/></g><g><path d="m458.751 149.672h-10.051c-.817 0-1.485-.668-1.485-1.486v-.015c0-17.534-14.214-31.747-31.747-31.747-4.536 0-8.845.961-12.747 2.676 11.179 4.913 18.989 16.077 18.989 29.071v.015c0 .817.668 1.486 1.485 1.486h10.051c13.45 0 24.353 10.903 24.353 24.353s-10.903 24.353-24.353 24.353h-3.143c-1.252 0-2.422.586-3.197 1.569-1.371 1.741-3 3.267-4.821 4.535 3.618 2.519 8.01 4.003 12.753 4.003 7.131 0 13.479-3.34 17.574-8.538.775-.983 1.945-1.569 3.197-1.569h3.143c13.45 0 24.353-10.903 24.353-24.353-.001-13.451-10.904-24.353-24.354-24.353z" fill="#cbe2ff"/></g><path d="m395.416 268.208v15.253c5.403.513 9.645 5.072 9.645 10.608v.508c0 4.205 3.409 7.614 7.614 7.614s7.614-3.408 7.614-7.614v-.508c-.001-13.934-11.068-25.326-24.873-25.861z" fill="#ce9875"/></g></svg>