<?xml version="1.0" encoding="UTF-8"?>
<!-- Generator: Adobe Illustrator 25.4.1, SVG Export Plug-In . SVG Version: 6.00 Build 0)  -->
<svg xmlns="http://www.w3.org/2000/svg" xmlns:xlink="http://www.w3.org/1999/xlink" version="1.1" id="Capa_1" x="0px" y="0px" viewBox="0 0 512 512" style="enable-background:new 0 0 512 512;" xml:space="preserve" width="512" height="512">
<g>
	<g>
		<g>
			<g>
				<path style="fill:#FF8EDE;" d="M125.729,240.004c1.001,0.054,1.207-0.253,0.778-1.127c-2.655-5.409-4.761-11.366-4.756-18.562      c0.001-1.3-0.195-2.594-0.054-3.904c3.93-36.358,44.916-50.627,71.185-31.774c0.883,0.634,1.723,1.33,2.608,1.963      c2.95,2.11-0.726-9.224,11.457-22.242c20.338-21.731,59.456-15.004,67.492,13.243c2.665,9.367,0.715-8.629,20.848-17.521      c24.696-10.907,55.578,5.881,57.416,32.93c0.089,1.306,0.06,2.603,0.091,3.904c0.09,3.742,5.174-3.9,19.891-5.336      c37.917-3.698,62.867,36.218,43.933,65.271c-1.596,2.449-2.751,3.54-0.815,3.786c4.129,0.523,18.149-1.087,31.326,12.161      c22.059,22.178,11.735,59.155-15.015,69.937c-1.738,0.7-2.511,0.943-1.517,2.189c2.02,2.533,7.288,7.528,9.82,19.105      c7.115,32.532-26.95,60.539-57.762,46.299c-8.022-3.707-7.805-6.824-9.429-3.615c-12.717,25.132-37.721,34.137-58.665,22.403      c-16.587-9.293-20.846-24.674-21.859-24.85c-1.569-0.271-2.186,12.337-17.121,21.058c-20.234,11.814-44.729-2.652-47.892-25.119      c-0.448-3.183-2.91,4.677-11.264,11.982c-14.964,13.085-32.574,14.268-46.17,7.287c-18.369-9.433-22.814-28.369-23.701-29.866      c-0.585-0.987-1.475-0.212-3.456,0.787c-11.904,6.002-25.393,5.172-35.851-0.036c-26.147-13.021-31.299-49.319-9.303-68.211      c2.174-1.867,2.314-1.654-0.375-3.256c-33.756-20.111-26.052-74.557,15.79-79.397      C117.001,239.073,119.716,239.68,125.729,240.004z"/>
				<path style="opacity:0.5;fill:#FC09B2;" d="M396.787,413.829c-5.789-0.076-11.116-1.878-16.175-4.539      c-7.34-3.861-5.438-6.446-8.794,0.006c-7.156,13.756-21.953,24.734-37.153,24.738c-33.347,0.007-40.965-32.226-42.411-29.535      c-0.982,1.828-2.144,7.886-8.887,14.79c-14.547,14.892-36.017,12.525-47.465-1.253c-10.476-12.609-6.812-21.884-9.758-17.352      c-23.661,36.394-67.763,26.784-78.92-9.385c-1.527-4.951-1.373-0.241-13.015,2.327c-11.852,2.614-24.208-0.802-29.344-4.612      c-1.988-1.475,14.581-23.591,40.299-21.085c23.533,2.292,30.935,18.038,45.089,21.583c11.401,2.857,18.458-7.865,38.887-6.816      c9.809,0.504,15.356,5.564,22.418,12.077c7.592,7.002,17.812,11.273,25.888,5.561c8.494-6.008,16.346-16.544,31.433-14.564      c10.265,1.347,16.113,8.09,24.28,13.016c6.718,4.052,14.551,5.155,20.806,0.305c9.048-7.014,14.063-29.95,39.003-32.268      c9.334-0.867,16.185-3.331,18.402-12.975c2.822-12.278,0.659-30.085,8.001-40.347c6.397-8.941,17.332-14.123,21.653-24.617      c6.01-14.597-6.66-27.842,4.474-17.691c23.287,21.232,15.152,59.697-13.282,71.501c-2.617,1.087-2.642,1.116-0.697,3.304      C454.215,371.516,434.858,416.536,396.787,413.829z"/>
				<g style="opacity:0.5;">
					<path style="fill:#FFFFFF;" d="M169.448,193.674c-3.358-0.691-6.907-0.635-10.36,0.015c-3.451,0.693-6.766,2.117-9.715,4.073       c-2.896,2.036-5.394,4.614-7.309,7.54c-1.863,2.955-3.25,6.189-3.906,9.539c-1.423,6.694-0.35,13.527,2.319,19.258       c0.405,0.866,1.331,1.421,2.333,1.305c1.254-0.145,2.153-1.278,2.008-2.532l-0.007-0.062       c-0.651-5.644-0.464-11.088,1.148-15.931c1.611-4.808,4.545-8.979,8.521-11.696c3.944-2.762,8.84-4.004,13.879-3.671       c5.071,0.338,10.177,2.334,15.156,5.134l0.056,0.032c0.781,0.438,1.786,0.354,2.488-0.278c0.882-0.794,0.953-2.153,0.159-3.035       C182.013,198.695,176.21,194.959,169.448,193.674z"/>
					<path style="fill:#FFFFFF;" d="M258.752,179.891c-2.717-4.587-6.701-8.731-11.948-11.34       c-5.166-2.687-11.729-3.448-17.609-1.611c-5.895,1.764-10.92,5.899-13.805,11.109c-2.966,5.153-3.841,11.429-2.235,16.84       c0.259,0.87,1.024,1.54,1.982,1.632c1.262,0.121,2.383-0.805,2.504-2.066l0.007-0.074c0.44-4.599,2.024-8.674,4.523-11.97       c2.51-3.28,5.908-5.712,9.664-6.856c3.752-1.178,7.832-1.051,11.875,0.28c2.009,0.684,4.024,1.62,5.986,2.79       c1.987,1.153,3.852,2.594,5.834,4.041l0.095,0.07c0.676,0.491,1.606,0.565,2.37,0.112       C259.02,182.24,259.359,180.917,258.752,179.891z"/>
				</g>
				<g style="opacity:0.55;">
					<path style="fill:#FC09B2;" d="M132.257,349.486c-3.015-3.304-7.022-5.773-11.372-6.767c-4.33-1.043-8.862-0.643-12.734,0.925       c-0.664,0.27-1.137,0.918-1.146,1.68c-0.012,1.013,0.8,1.844,1.814,1.856l0.091,0.001c3.679,0.042,7.066,0.523,10.118,1.715       c3.03,1.203,5.742,3.033,7.893,5.434c2.2,2.353,3.826,5.256,4.819,8.387c0.968,3.15,1.242,6.535,0.703,10.087l-0.01,0.061       c-0.1,0.663,0.193,1.352,0.799,1.728c0.812,0.503,1.878,0.254,2.382-0.558c2.263-3.649,2.999-8.284,2.315-12.65       C137.287,356.985,135.236,352.826,132.257,349.486z"/>
					<path style="fill:#FC09B2;" d="M431.653,325.255c3.52-2.459,6.025-6.427,7.12-10.708c3.604-13.507-6.218-27.757-20.357-28.053       c-1.996-0.04-2.607,2.703-0.783,3.512l0.083,0.037c15.685,6.954,18.211,22.05,11.509,32.831       c-0.057,0.199-0.667,0.973,0.019,1.955C429.792,325.611,430.87,325.803,431.653,325.255z"/>
					<path style="fill:#FC09B2;" d="M369.516,219.287l0.088-0.021c16.742-3.9,27.82,6.679,28.956,19.283       c0.081,0.209,0.054,1.179,1.192,1.549c0.908,0.296,1.884-0.201,2.18-1.109c5.63-17.286-17.018-35.167-33.907-22.978       c-0.581,0.42-0.886,1.162-0.713,1.904C367.543,218.903,368.53,219.517,369.516,219.287z"/>
					<path style="fill:#FC09B2;" d="M102.905,291.419c-1.028-3.533-1.552-6.913-1.298-10.18c0.271-3.249,1.234-6.375,2.906-9.131       c1.613-2.789,3.918-5.188,6.625-7.047c2.734-1.841,5.893-3.087,9.448-3.603l0.061-0.008c0.663-0.097,1.237-0.578,1.421-1.266       c0.246-0.923-0.303-1.871-1.226-2.117c-4.149-1.106-8.798-0.463-12.776,1.459c-4.023,1.893-7.406,5.062-9.738,8.883       c-2.286,3.845-3.484,8.397-3.172,12.847c0.259,4.447,1.959,8.667,4.584,11.916c0.451,0.557,1.209,0.822,1.94,0.609       c0.973-0.283,1.532-1.301,1.249-2.274L102.905,291.419z"/>
					<path style="fill:#FC09B2;" d="M314.782,193.069c-2.525-1.74-5.497-2.839-8.52-3.289c-6.099-0.938-12.26,0.862-17.204,4.254       c-1.976,1.365-3.753,3.052-5.27,4.96c-0.33-0.634-0.687-1.259-1.104-1.864c-2.584-3.8-7.027-6.558-11.701-6.829       c-4.67-0.352-9.218,1.633-12.235,4.745c-3.05,3.141-4.631,7.172-5.17,11.076c-0.107,0.773,0.329,1.546,1.09,1.832       c0.883,0.332,1.868-0.114,2.201-0.996l0.018-0.049c1.215-3.225,2.959-6.138,5.398-8.007c2.383-1.907,5.351-2.703,8.059-2.305       c2.701,0.466,5.082,2.018,6.541,4.404c1.513,2.351,2.14,5.425,2.126,8.595l-0.001,0.025c-0.008,1.692,1.183,3.207,2.905,3.546       c1.951,0.384,3.843-0.885,4.228-2.836c0.826-4.194,3.423-7.979,6.989-10.553c3.524-2.635,8.047-3.989,12.331-3.595       c4.288,0.381,8.267,2.655,10.918,6.399c2.727,3.704,4.186,8.509,5.049,13.444l0.007,0.04c0.15,0.866,0.914,1.517,1.82,1.499       c1.001-0.019,1.796-0.846,1.777-1.847c-0.104-5.397-1.136-11.041-4.14-16.119C319.38,197.093,317.313,194.8,314.782,193.069z"/>
					<path style="fill:#FC09B2;" d="M298.285,310.941c-13.235-7.702-25.643,5.115-17.619,20.235c0.914,1.723,3.35,0.912,2.811-0.93       c-0.063-0.611-3.563-11.262,3.885-14.702c4.952-2.122,9.949,1.144,13.381,6.085c0.206,0.155,1.658,2.37,4.049,1.419       c1.605-0.639,2.254-2.557,1.449-4.285c-6.418-13.77,7.905-33.827,28.34-12.553l0.026,0.028c1.48,1.544,3.641-0.271,2.376-2.013       c-3.061-4.215-6.921-8.177-11.875-10.739C311.518,286.602,298.459,296.641,298.285,310.941z"/>
					<path style="fill:#FC09B2;" d="M191.517,231.32c-2.221-1.367-4.82-2.415-7.66-2.726c-2.835-0.312-5.824,0.256-8.383,1.487       c-2.578,1.222-4.751,3.028-6.484,5.082c-1.747,2.053-3.125,4.336-4.173,6.748c-0.964,2.319-1.669,4.769-2.01,7.304       c-0.469-0.229-0.92-0.481-1.424-0.668c-3.339-1.264-7.563-1.237-10.821,0.735c-3.318,1.846-5.374,5.211-6.028,8.531       c-0.651,3.364-0.039,6.683,1.281,9.446c0.317,0.662,1.039,1.071,1.803,0.956c0.936-0.141,1.58-1.015,1.439-1.951l-0.01-0.064       c-0.381-2.521-0.292-4.978,0.535-7.012c0.774-2.038,2.231-3.596,3.913-4.3c1.684-0.701,3.545-0.667,5.353,0.154       c1.821,0.761,3.559,2.249,5.03,4.08c0.854,1.061,2.28,1.59,3.687,1.234c1.924-0.488,3.089-2.444,2.6-4.368l-0.007-0.026       c-0.88-3.47-0.32-7.67,1.159-11.345c1.438-3.708,3.959-7.023,7.066-8.776c3.092-1.762,6.859-1.644,10.488,0.197       c3.65,1.771,6.924,4.846,9.942,8.141l0.02,0.022c0.585,0.639,1.562,0.785,2.316,0.301c0.843-0.54,1.089-1.662,0.549-2.506       C199.124,237.979,195.947,234.138,191.517,231.32z"/>
				</g>
				<g>
					<path style="fill:#FC09B2;" d="M219.26,268.123c-6.346-3.308-7.388-8.803-4.214-12.484c9.328-10.816,36.158-4.054,30.544,8.159       C242.86,269.735,229.378,273.397,219.26,268.123z"/>
					<path style="fill:#FC09B2;" d="M318.795,274.214c6.702-2.51,8.407-7.837,5.705-11.877c-7.94-11.873-35.394-8.432-31.31,4.374       C295.175,272.936,308.11,278.215,318.795,274.214z"/>
				</g>
			</g>
			<g>
				<path style="fill:#000E3F;" d="M269.661,239.344c-10.425,0.398-16.557,10.21-17.034,19.241c-0.047,0.89,0.636,1.648,1.526,1.696      c0.894,0.053,1.65-0.636,1.696-1.526c0.402-7.605,5.421-15.862,13.934-16.185c4.431-0.205,7.461,1.991,9.21,3.834      c3.324,3.499,5.1,8.869,4.637,14.019c-0.079,0.886,0.575,1.67,1.463,1.751c0.049,0.004,0.096,0.006,0.146,0.006      c0.825,0,1.53-0.63,1.605-1.469c0.544-6.044-1.569-12.377-5.512-16.528C278.168,240.849,274.129,239.181,269.661,239.344z"/>
				<path style="fill:#000E3F;" d="M233.313,225.509c-5.462-0.506-11.194,4.604-10.891,9.701      c-0.752,5.561,4.081,10.483,9.251,10.961c6.34,0.585,11.104-4.518,11.376-9.559      C243.385,230.424,238.867,226.024,233.313,225.509z"/>
				<path style="fill:#000E3F;" d="M309.993,230.237c-5.697-0.332-10.659,3.996-10.995,10.025c-0.284,5.099,4.2,10.652,9.929,10.572      c4.807,0.757,10.629-4.041,10.846-9.813C319.982,235.425,315.527,230.559,309.993,230.237z"/>
				<path style="fill:#000E3F;" d="M448.28,271.653c-11.725-11.789-24.094-12.265-30.038-12.494      c-0.435-0.018-0.833-0.032-1.191-0.05c0.059-0.087,0.117-0.174,0.175-0.256c0.231-0.337,0.486-0.709,0.752-1.12      c8.85-13.58,8.932-30.947,0.213-45.324c-9.506-15.667-27.033-24.272-45.663-22.446c-8.643,0.842-14.19,3.802-17.169,5.391      c-0.318,0.168-0.652,0.347-0.957,0.504c-0.001-0.095-0.003-0.19-0.004-0.286c-0.007-0.89-0.016-1.779-0.076-2.675      c-0.872-12.831-8.076-24.242-19.764-31.305c-12.354-7.465-27.279-8.583-39.926-2.998c-12.157,5.37-16.577,13.845-18.723,18.249      c-3.756-12.768-14.215-22.368-28.037-25.716c-15.464-3.739-31.605,0.9-42.11,12.121c-8.027,8.578-9.485,16.641-10.183,20.516      c-0.046,0.254-0.095,0.518-0.143,0.769c-0.086-0.066-0.173-0.132-0.261-0.201c-0.446-0.343-0.891-0.686-1.348-1.015      c-13.438-9.645-31.401-11.339-46.884-4.42c-15.24,6.81-25.031,20.421-26.859,37.34c-0.103,0.958-0.053,1.862-0.005,2.733      c0.024,0.448,0.049,0.894,0.051,1.342c-0.007,7.396,2.141,13.347,4.297,17.986c-1.402-0.092-2.611-0.195-3.697-0.289      c-2.897-0.248-4.996-0.424-7.557-0.13c-19.054,2.205-33.356,15.079-37.325,33.604c-4.131,19.282,4.263,38.892,20.891,48.798      l0.311,0.187c0.07,0.041,0.142,0.084,0.214,0.126l-0.377,0.319c-10.553,9.064-15.798,22.955-14.032,37.157      c1.824,14.653,10.672,27.264,23.668,33.738c11.77,5.861,25.717,5.871,37.305,0.032c0.382-0.192,0.726-0.378,1.035-0.544      c0.167-0.089,0.351-0.188,0.521-0.276c0.061,0.17,0.131,0.368,0.21,0.591c1.837,5.153,7.423,20.834,23.918,29.304      c15.313,7.859,33.695,4.979,47.979-7.51c4.468-3.907,7.308-7.971,9.034-10.468c2.307,10.848,9.437,20.035,19.451,24.887      c9.907,4.801,20.996,4.399,30.423-1.102c11.049-6.453,14.595-14.932,16.297-19.214c2.484,5.012,8.078,15.741,21.072,23.021      c7.07,3.96,14.846,5.719,22.552,5.186c2.944-0.204,5.878-0.742,8.759-1.621c12.282-3.744,22.793-13.208,29.595-26.65      c0.019-0.036,0.036-0.071,0.053-0.104c0.134,0.1,0.276,0.209,0.412,0.31c1.222,0.935,3.268,2.5,6.834,4.147      c14.707,6.796,31.822,4.606,44.674-5.714c12.922-10.376,18.804-26.625,15.355-42.403c-2.311-10.574-6.862-15.91-9.306-18.777      c-0.146-0.172-0.284-0.335-0.415-0.49c0.081-0.032,0.16-0.064,0.237-0.094l0.204-0.081      c13.632-5.496,24.011-18.219,27.086-33.206C462.814,296.395,458.611,282.04,448.28,271.653z M456.632,310.381      c-2.86,13.935-12.487,25.753-25.121,30.847l-0.199,0.081c-1.279,0.512-2.383,0.954-2.703,2.165      c-0.309,1.168,0.468,2.14,0.723,2.46c0.253,0.318,0.556,0.674,0.898,1.074c2.26,2.65,6.465,7.585,8.603,17.365      c3.186,14.568-2.261,29.58-14.216,39.18c-12.064,9.688-27.495,11.671-41.281,5.3c-3.242-1.499-5.038-2.871-6.227-3.779      c-1.121-0.857-2.013-1.524-3.172-1.266c-1.105,0.253-1.672,1.212-2.157,2.171c-6.399,12.646-16.216,21.528-27.644,25.012      c-9.7,2.96-19.655,1.819-28.78-3.292c-12.54-7.025-17.756-17.589-19.983-22.1c-0.989-2.005-1.36-2.753-2.395-2.934      c-0.189-0.033-0.366-0.043-0.531-0.032c-1.343,0.093-1.932,1.579-2.658,3.406c-1.526,3.848-4.702,11.855-15.025,17.882      c-8.475,4.948-18.452,5.305-27.372,0.984c-9.801-4.75-16.565-14.069-18.095-24.93c-0.205-1.457-0.963-1.932-1.56-2.073      c-1.45-0.351-2.22,0.785-3.769,3.031c-1.626,2.359-4.35,6.305-8.609,10.03c-13.465,11.772-30.049,14.416-44.361,7.065      c-15.353-7.884-20.616-22.654-22.345-27.506c-0.335-0.938-0.503-1.41-0.701-1.744c-1.27-2.142-3.368-1.014-4.625-0.338      c-0.286,0.154-0.602,0.324-0.957,0.502c-10.681,5.388-23.538,5.37-34.398-0.039c-12.021-5.985-20.207-17.663-21.896-31.233      c-1.632-13.121,3.201-25.942,12.928-34.295l0.467-0.396c1.018-0.863,1.825-1.545,1.729-2.697      c-0.099-1.182-0.999-1.718-2.49-2.603l-0.309-0.183c-17.821-10.619-22.574-30.419-19.379-45.333      c3.669-17.119,16.897-29.021,34.525-31.058c2.254-0.265,4.1-0.1,6.908,0.139c1.457,0.125,3.132,0.266,5.189,0.378      c0.423,0.025,1.686,0.09,2.368-0.945c0.682-1.03,0.134-2.148-0.047-2.516c-2.14-4.358-4.596-10.324-4.589-17.846      c0-0.508-0.026-1.016-0.054-1.522c-0.043-0.779-0.083-1.512-0.01-2.208c1.703-15.741,10.799-28.398,24.959-34.726      c14.427-6.449,31.16-4.881,43.668,4.096c0.427,0.306,0.843,0.628,1.26,0.948c0.445,0.343,0.891,0.686,1.349,1.016      c0.997,0.711,1.805,0.616,2.32,0.406c1.28-0.519,1.529-1.897,1.905-3.982c0.695-3.845,1.987-10.999,9.362-18.877      c9.704-10.372,24.639-14.655,38.977-11.185c12.783,3.095,22.417,11.979,25.768,23.761c0.536,1.882,1.042,3.661,2.638,3.801      c1.525,0.14,2.144-1.177,3.104-3.158c1.898-3.912,5.847-12.056,17.322-17.124c11.681-5.161,25.492-4.109,36.938,2.807      c10.77,6.509,17.406,16.987,18.204,28.749c0.057,0.831,0.063,1.656,0.071,2.483c0.003,0.45,0.008,0.901,0.018,1.35      c0.027,1.106,0.413,1.882,1.144,2.31c1.252,0.732,2.499,0.058,4.568-1.045c2.976-1.587,7.958-4.243,15.958-5.025      c17.394-1.691,33.722,6.311,42.573,20.901c8.189,13.502,8.131,29.153-0.157,41.871c-0.252,0.386-0.493,0.738-0.71,1.058      c-0.984,1.439-1.761,2.574-1.196,3.832c0.526,1.172,1.821,1.337,2.249,1.39c0.632,0.08,1.481,0.116,2.516,0.155      c5.53,0.214,17.038,0.657,27.862,11.54C455.53,283.543,459.414,296.826,456.632,310.381z"/>
			</g>
		</g>
		<g>
			<g>
				<g>
					<path style="fill:#00D5FE;" d="M180.254,404.773c-2.097,0-2.56-1.812-2.934-3.269c-14.442-56.204-17.688-69.187-18.339-71.829       c-0.079-0.173-0.126-0.327-0.158-0.427c-0.311-0.949-0.282-1.816,0.097-2.55c0.38-0.738,1.081-1.274,2.083-1.589       c0.023-0.006,0.242-0.065,0.268-0.071c2.625-0.666,5.232-1.337,7.838-2.009c5.092-1.313,10.358-2.67,15.575-3.923       c0.695-0.165,1.404-0.252,2.109-0.252c2.233,0,4.48,0.861,6.494,2.485c4.297,3.45,0.977,7.769-1.006,10.35       c-0.772,0.992-1.605,2.481-1.221,3.968c0.382,1.471,1.816,2.359,2.95,2.846c1.9,0.807,3.883,1.219,5.888,1.219       c6.38,0,12.052-4.297,13.153-8.155c0.449-1.579,0.041-2.735-1.249-3.537c-0.488-0.299-1.115-0.597-1.78-0.918       c-2.326-1.118-5.219-2.509-5.973-5.207c-0.431-1.538-0.071-3.212,1.073-4.97c2.601-4,3.966-4.336,17.038-7.546       c3.066-0.752,6.81-1.672,11.408-2.842c0.896-0.228,1.475-0.37,2.036-0.37c2.028,0,2.471,1.725,2.899,3.395       c1.209,4.693,2.148,8.472,2.91,11.538c2.856,11.498,3.129,12.414,5.514,14.192c0.737,0.549,1.4,0.839,1.914,0.839       c1.376,0,2.466-2.432,3.117-3.885c0.228-0.512,0.433-0.961,0.618-1.29c1.51-2.651,3.771-4.104,6.372-4.104       c4.261,0,8.921,3.883,11.335,9.444c2.455,5.663,2.15,12.203-0.776,16.664c-1.666,2.538-3.942,3.936-6.412,3.936       c-1.26,0-2.513-0.368-3.72-1.095c-1.091-0.646-2.202-1.437-3.596-2.564c-0.571-0.455-1.122-0.689-1.633-0.689       c-0.805,0-1.434,0.593-1.819,1.091c-0.955,1.235-1.638,3.558-1.014,5.965c0.929,3.551,1.695,6.544,2.337,9.045       c1.804,6.922,2.899,11.25,3.168,12.538c0.029,0.079,0.171,0.524,0.171,0.524c0.327,1.093,0.274,1.959-0.15,2.69       c-0.666,1.15-1.908,1.441-3.224,1.751l-0.729,0.177l-70.177,17.969C181.622,404.588,180.902,404.773,180.254,404.773z"/>
					<g style="opacity:0.5;">
						<path style="fill:#322BBF;" d="M259.549,333.075c-4.746,1.215-7.61,6.048-6.396,10.795l0.001,0.005        c1.217,4.746,6.049,7.608,10.795,6.393l0.002-0.001c3.218-0.825,5.532-3.324,6.334-6.319c-0.025-2.257-0.464-4.65-1.484-6.999        c-0.209-0.482-0.442-0.951-0.69-1.408C265.969,333.321,262.753,332.255,259.549,333.075z"/>
						<path style="fill:#322BBF;" d="M213.864,322.011l0.002,0.007c1.217,4.746,6.049,7.607,10.795,6.393l0.002-0.001        c4.747-1.216,7.61-6.049,6.394-10.797c-1.025-4.003-4.627-6.633-8.576-6.643c-1.564,0.384-2.949,0.726-4.184,1.034        C214.771,313.883,212.831,317.968,213.864,322.011z"/>
						<path style="fill:#322BBF;" d="M244.655,336.527c0.291-0.074,0.557-0.192,0.827-0.303c-2.23-1.8-2.84-3.539-4.906-11.789        c-2.874,1.214-4.519,4.358-3.722,7.472C237.733,335.336,241.225,337.405,244.655,336.527z"/>
						<path style="fill:#322BBF;" d="M238.727,347.566c-1.216-4.747-6.05-7.611-10.797-6.395c-4.746,1.215-7.609,6.047-6.396,10.794        l0.002,0.007c1.217,4.745,6.049,7.607,10.795,6.393l0.002-0.001C237.08,357.147,239.942,352.313,238.727,347.566z"/>
						<path style="fill:#322BBF;" d="M250.32,353.881c-0.39,0.025-0.783,0.078-1.175,0.178c-3.43,0.878-5.499,4.371-4.621,7.801        c0.804,3.141,3.802,5.112,6.936,4.751c-0.5-1.948-1.062-4.126-1.707-6.591C249.189,357.853,249.489,355.603,250.32,353.881z"/>
						<path style="fill:#322BBF;" d="M246.396,377.52c-1.216-4.747-6.05-7.611-10.797-6.395c-4.746,1.215-7.609,6.048-6.396,10.793        l0.002,0.008c1.02,3.977,4.586,6.596,8.507,6.635l4.414-1.13C245.546,385.51,247.415,381.499,246.396,377.52z"/>
						<path style="fill:#322BBF;" d="M182.245,330.108l0.001,0.005c0.933,3.641,3.997,6.152,7.515,6.586        c-0.759-1.777-0.396-3.888,1.239-5.993c2.092-2.721,4.34-5.649,1.274-8.111c-1.842-1.485-3.987-2.328-6.262-2.084        C182.919,322.53,181.279,326.331,182.245,330.108z"/>
						<path style="fill:#322BBF;" d="M214.346,332.724c-1.206,3.027-4.576,6.164-8.964,7.68c1.044,3.179,4.365,5.061,7.654,4.219        c3.43-0.878,5.499-4.371,4.62-7.801C217.181,334.966,215.928,333.531,214.346,332.724z"/>
						<path style="fill:#322BBF;" d="M207.107,355.662c-1.215-4.747-6.05-7.611-10.798-6.395c-4.747,1.216-7.61,6.048-6.396,10.795        l0.001,0.005c1.217,4.746,6.049,7.608,10.796,6.393l0.002-0.001C205.461,365.243,208.323,360.409,207.107,355.662z"/>
						<path style="fill:#322BBF;" d="M217.525,362.155c-3.43,0.878-5.499,4.371-4.62,7.801c0.878,3.43,4.371,5.499,7.801,4.62        s5.499-4.371,4.62-7.801C224.447,363.346,220.955,361.277,217.525,362.155z"/>
						<path style="fill:#322BBF;" d="M214.777,385.615c-1.216-4.747-6.05-7.611-10.797-6.395c-4.747,1.215-7.61,6.048-6.396,10.795        l0.001,0.005c1.02,3.978,4.586,6.597,8.507,6.636l4.414-1.13C213.927,393.606,215.796,389.595,214.777,385.615z"/>
						<path style="fill:#322BBF;" d="M160.363,328.767c0.197,0.629,0.099,0.183,0.053-0.016c0.115,0.476,0.808,3.307,3.686,14.623        c3.062-2.029,4.679-5.811,3.717-9.57c-0.912-3.563-3.86-6.063-7.281-6.577C160.225,327.588,160.134,328.07,160.363,328.767z"/>
						<path style="fill:#322BBF;" d="M178.236,340.298c-3.43,0.878-5.499,4.371-4.621,7.801c0.878,3.43,4.371,5.499,7.801,4.62        c3.43-0.878,5.499-4.371,4.621-7.801C185.159,341.488,181.666,339.419,178.236,340.298z"/>
						<path style="fill:#322BBF;" d="M175.488,363.758c-0.963-3.763-4.207-6.304-7.873-6.606c1.179,4.612,2.555,9.989,4.142,16.184        C174.827,371.31,176.452,367.523,175.488,363.758z"/>
						<path style="fill:#322BBF;" d="M185.905,370.251c-3.43,0.878-5.498,4.371-4.62,7.801c0.878,3.43,4.371,5.499,7.801,4.62        c3.43-0.878,5.499-4.371,4.621-7.801C192.828,371.441,189.335,369.373,185.905,370.251z"/>
						<path style="fill:#322BBF;" d="M183.157,393.711c-0.963-3.762-4.205-6.302-7.869-6.606c1.117,4.35,2.307,8.985,3.596,13.999        c0.301,1.176,0.482,1.75,0.915,1.956C182.635,400.98,184.083,397.326,183.157,393.711z"/>
					</g>
					<g style="opacity:0.25;">
						<path style="fill:#322BBF;" d="M255.28,381.689c0.045,0.093,0.085,0.25,0.179,0.538c0.588,1.973-0.859,2.01-2.969,2.55        l-69.837,17.881c-3.067,0.785-3.139,0.908-3.77-1.553c-15.909-61.908-18.248-71.439-18.468-72.352        c0.046,0.199,0.144,0.645-0.053,0.016c-0.383-1.172,0.044-1.781,1.122-2.12c2.444,0.52,4.817,1.577,6.796,3.048        c5.339,4.024,8.378,10.365,10.581,16.691c2.217,6.302,3.805,12.91,7.178,18.686c3.354,5.782,8.963,10.778,15.636,11.234        c8.371,0.583,15.417-5.8,23.18-8.974c8.709-3.542,19.038-2.876,27.231,1.728c2.31,8.859,3.001,11.721,3.167,12.532        C255.284,381.626,255.289,381.645,255.28,381.689z"/>
					</g>
				</g>
				<path style="fill:#000E3F;" d="M235.603,307.791c0.768,0,0.917,0.547,1.335,2.181c5.746,22.279,5.344,23.88,9.023,26.624      c1.107,0.823,2.058,1.159,2.88,1.159c2.998,0,4.28-4.458,5.142-6.003c1.312-2.301,3.08-3.276,4.965-3.276      c3.666,0,7.777,3.686,9.855,8.474c3.824,8.815-0.198,18.345-5.708,18.345c-0.931,0-1.903-0.272-2.888-0.865      c-1.202-0.713-2.337-1.566-3.413-2.437c-0.913-0.728-1.81-1.048-2.645-1.048c-3.214,0-5.527,4.723-4.396,9.075      c0.93,3.55,1.695,6.539,2.335,9.039c2.31,8.859,3.001,11.721,3.167,12.532c0.03,0.034,0.034,0.053,0.025,0.097      c0.045,0.093,0.085,0.25,0.179,0.538c0.588,1.973-0.859,2.01-2.969,2.55l-69.837,17.881c-1.17,0.3-1.905,0.503-2.4,0.503      c-0.804,0-0.98-0.534-1.369-2.056c-15.909-61.908-18.248-71.439-18.468-72.352c0.028,0.123,0.076,0.34,0.063,0.34      c-0.008,0-0.04-0.083-0.116-0.324c-0.383-1.172,0.044-1.781,1.122-2.12l0.196-0.05c7.799-1.976,15.554-4.044,23.379-5.923      c0.585-0.141,1.163-0.207,1.731-0.207c1.986,0,3.853,0.813,5.484,2.127c3.065,2.462,0.818,5.39-1.274,8.111      c-2.865,3.689-1.949,7.431,2.376,9.279c2.215,0.943,4.42,1.35,6.524,1.35c10.831,0,19.033-10.775,12.754-14.674      c-2.841-1.749-9.718-3.403-6.178-8.847c2.793-4.295,3.687-3.65,27.49-9.702C234.72,307.918,235.233,307.791,235.603,307.791       M235.603,304.564c-0.793,0-1.556,0.195-2.439,0.421c-4.586,1.166-8.322,2.084-11.384,2.836      c-13.347,3.278-15.062,3.699-18.011,8.233c-1.408,2.166-1.837,4.281-1.276,6.286c0.952,3.401,4.348,5.034,6.827,6.226      c0.642,0.309,1.249,0.601,1.64,0.842c0.49,0.304,0.847,0.628,0.537,1.717c-0.832,2.916-5.647,6.983-11.599,6.983      c-1.788,0-3.557-0.367-5.26-1.092c-1.114-0.476-1.851-1.12-2.018-1.764c-0.17-0.655,0.168-1.591,0.926-2.567      c2.044-2.658,6.278-8.164,0.746-12.605c-2.302-1.855-4.898-2.838-7.504-2.838c-0.83,0-1.666,0.1-2.484,0.296      c-5.234,1.256-10.512,2.617-15.616,3.933c-2.598,0.67-5.197,1.34-7.801,2l-0.204,0.052c-0.056,0.014-0.112,0.03-0.168,0.048      c-1.427,0.449-2.448,1.253-3.032,2.39c-0.4,0.778-0.758,2.071-0.188,3.811c0.045,0.145,0.095,0.282,0.148,0.412      c0.717,2.903,4.059,16.252,18.315,71.725c0.372,1.452,1.147,4.48,4.494,4.48c0.854,0,1.654-0.206,2.865-0.517l0.336-0.086      l69.837-17.881c0.244-0.063,0.478-0.117,0.701-0.17c1.44-0.339,3.232-0.761,4.246-2.513c0.649-1.12,0.754-2.438,0.314-3.915      l-0.095-0.299c-0.027-0.088-0.053-0.167-0.078-0.239c-0.312-1.442-1.377-5.651-3.168-12.521      c-0.638-2.491-1.405-5.486-2.336-9.043c-0.484-1.861,0.039-3.672,0.73-4.566c0.294-0.38,0.516-0.466,0.545-0.466      c0.056,0,0.28,0.062,0.633,0.343c1.436,1.161,2.607,1.995,3.781,2.69c1.443,0.869,2.975,1.316,4.533,1.316      c2.987,0,5.815-1.7,7.761-4.665c3.217-4.903,3.573-12.043,0.906-18.19c-2.662-6.133-7.931-10.416-12.814-10.416      c-3.205,0-5.964,1.742-7.767,4.904c-0.25,0.447-0.467,0.931-0.696,1.444c-0.314,0.7-1.127,2.515-1.703,2.917      c-0.117-0.034-0.41-0.146-0.895-0.507c-1.884-1.405-2.114-2.026-4.911-13.288c-0.762-3.068-1.702-6.851-2.914-11.553      C239.622,307.448,238.884,304.564,235.603,304.564L235.603,304.564z"/>
			</g>
			<g>
				<g>
					<polygon style="fill:#FF8EDE;" points="128.869,277.38 174.331,281.408 177.692,294.044 195.372,293.62 219.416,304.155        225.9,313.441 226.574,321.683 220.737,326.941 213.182,326.824 217.812,332.616 217.322,339.515 211.291,344.55        200.096,344.01 205.276,352.316 205.102,360.671 194.274,365.192 184.917,363.815 172.065,361.091 154.594,349.973        140.463,335.941 129.108,315.383 124.922,300.377 126.037,284.697      "/>
					<path style="opacity:0.5;fill:#FC09B2;" d="M167.878,358.509c-3.58-1.608-7.014-3.49-10.185-5.817       c-2.277-1.671-10.392-8.388-13.407-11.421c-3.901-3.925-9.688-11.893-13.486-21.167c-4.221-10.308-5.983-17.56-4.754-29.914       c0.557-5.591,2.141-11.019,2.484-11.658c1.166-2.173,3.103-0.645,4.861,1.184c9.758,10.15,12.202,33.544,25.97,48.404       c20.159,21.756,34.024-9.344,51.377-2.644c2.808,1.084,5.806,5.448,6.871,8.144c0.648,1.639,0.555,3.272,0.268,4.924       c-0.351,2.014-3.254,4.095-5.562,4.772c-4.289,1.259-9.152,1.129-9.243,1.137c-1.029,0.09-1.937-0.62-2.977-0.441       c0.264,1.233,1.467,1.638,2.207,2.446c4.033,4.4,5.449,11.349,0.536,14.731c-3.186,2.193-6.637,3.557-10.619,3.107       C185.462,363.53,182.364,365.017,167.878,358.509z"/>
				</g>
				<path style="fill:#000E3F;" d="M227.923,313.476l0-0.002c-3.577-10.569-24.756-24.58-48.662-21.554      c-1.296,0.162-2.221,0.694-2.539,1.455c-0.203,0.483-0.133,1.004,0.19,1.425c0.504,0.657,1.55,0.951,2.745,0.786      c13.729-1.825,28.242,2.352,38.867,11.208c4.994,4.164,7.299,8.816,6.325,12.764c-0.697,2.82-3.057,4.921-6.315,5.617      c-2.718,0.58-4.348,0.184-5.784-0.166c-0.912-0.221-1.779-0.442-2.7-0.295c-0.735,0.109-1.295,0.605-1.46,1.294      c-0.153,0.649,0.1,1.316,0.647,1.702c0.393,0.278,0.837,0.544,1.313,0.827c1.535,0.915,3.276,1.952,4.75,4.294      c1.229,1.954,1.203,4.322-0.068,6.18c-2.307,3.371-8.081,4.45-15.841,2.944c-1.69-0.329-2.325,0.443-2.523,0.788      c-0.345,0.603-0.243,1.384,0.251,1.945c0.205,0.229,0.776,0.707,1.691,1.466c0.638,0.529,1.299,1.076,1.646,1.403      c3.267,3.055,4.486,6.637,3.26,9.58c-1.626,3.906-7.001,5.982-14.74,5.699c-8.647-0.313-17.568-3.429-26.518-9.26      c-10.736-6.991-19.918-16.785-26.557-28.322c-13.237-23.006-8.694-37.154-6.512-43.955c0.856-2.667,1.422-4.428-0.103-4.947      c-0.385-0.129-0.785-0.096-1.159,0.099c-1.27,0.667-2.056,3.135-2.693,5.395c-0.076,0.272-0.137,0.491-0.184,0.634      c-4.698,14.321-0.109,33.983,11.979,51.311c13.792,19.776,33.505,31.991,52.73,32.68c1.028,0.037,2.032,0.02,3.01-0.048      c6.463-0.448,11.701-3.114,13.758-7.163c1.329-2.615,1.959-6.926-2.442-12.774c0.273-0.014,0.614-0.02,0.934-0.024      c2.815-0.043,8.057-0.118,12.083-4.346c3.376-3.547,3.489-8.114,0.301-12.216c-0.172-0.221-0.358-0.432-0.529-0.629      c-0.08-0.092-0.17-0.195-0.255-0.294c2.771-0.287,7.474-1.29,9.872-4.759C228.705,321.308,229.178,317.191,227.923,313.476z"/>
			</g>
		</g>
		<g>
			<g>
				<g>
					<path style="fill:#322BBF;" d="M371.222,451.724c-4.275,0-6.495-1.658-7.603-3.048c-1.386-1.737-1.843-4.037-1.288-6.477       c0.154-0.64,0.341-1.254,0.53-1.869c0.155-0.506,0.313-1.014,0.443-1.53c0.278-1.071,0.201-1.891-0.23-2.448       c-0.475-0.614-1.422-0.969-2.598-0.969c-1.359,0-2.798,0.473-3.946,1.294c-3.617,2.58-6.587,4.716-9.035,6.477       c-9.175,6.601-10.829,7.792-12.467,7.792c-1.343,0-2.007-0.963-2.402-1.538l-0.165-0.238c-1.341-1.869-3.003-4.23-4.748-6.709       l-2.495-3.549c-2.438-3.472-4.765-6.786-6.26-8.858c-1.786-2.491-2.367-5.303-1.733-8.357c0.664-3.161,2.609-4.899,5.476-4.899       c1.443,0,2.891,0.425,4.055,0.768c0.39,0.114,0.754,0.222,1.075,0.299c0.589,0.138,1.142,0.209,1.648,0.209       c1.396,0,2.404-0.514,3.086-1.573c1.288-2.003,1.158-5.532-0.323-8.783c-2.93-6.414-7.973-9.334-11.42-9.334       c-1.256,0-3.409,0.394-3.718,3.027c-0.059,0.48-0.093,1.01-0.13,1.562c-0.189,2.877-0.54,8.233-5.939,8.233       c-0.372,0-0.772-0.027-1.201-0.085c-4.982-0.691-6.148-2.387-13.735-13.424c-1.784-2.597-3.944-5.742-6.619-9.555       c-0.148-0.209-0.296-0.384-0.425-0.54c-0.435-0.526-1.032-1.243-0.888-2.3c0.213-1.558,1.341-2.341,8.688-7.438       c2.942-2.042,6.89-4.781,12.14-8.509c1.727-1.227,3.984-1.932,6.187-1.932c2.442,0,4.555,0.861,5.801,2.359       c0.762,0.918,1.573,2.521,1.12,4.949c-0.203,1.103-0.512,2.15-0.811,3.163l-0.303,1.046c-0.347,1.256-0.219,2.3,0.384,3.09       c0.869,1.138,2.722,1.82,4.958,1.82c1.857,0,3.769-0.471,5.382-1.323c6.94-3.665,9.45-8.791,8.848-12.002       c-0.331-1.768-1.581-2.863-3.523-3.088c-0.323-0.037-0.73-0.049-1.185-0.063c-2.105-0.071-5.287-0.177-7.005-2.379       c-1.028-1.319-1.308-3.111-0.829-5.329c1.014-4.655,2.182-5.461,13.363-13.174c2.574-1.776,5.709-3.936,9.531-6.618       c1.044-0.735,1.798-1.264,2.735-1.264c1.351,0,2.062,1.008,2.962,2.284c2.684,3.795,4.844,6.922,6.62,9.494       c1.105,1.599,2.06,2.981,2.901,4.177c4.598,6.57,5.386,7.123,8.204,7.588c0.282,0.045,0.54,0.069,0.776,0.069       c1.426,0,1.845-0.851,2.036-4.135c0.023-0.425,0.047-0.827,0.085-1.188c0.429-4.61,3.358-7.599,7.463-7.599       c1.018,0,2.087,0.185,3.18,0.549c9.679,3.23,14.415,12.958,13.253,20.118c-0.695,4.279-3.513,6.938-7.353,6.938       c-0.467,0-0.955-0.038-1.465-0.118c-0.986-0.158-1.902-0.451-2.786-0.733l-0.798-0.25c-0.534-0.155-1.034-0.236-1.471-0.236       c-0.922,0-1.53,0.347-1.914,1.095c-0.839,1.629-0.38,4.545,1.02,6.502c4.027,5.654,8.013,11.351,12,17.048l0.534,0.76       c2.33,3.312,2.135,4.386-1.235,6.758c-4.531,3.218-8.068,5.668-10.837,7.586c-8.988,6.228-9.358,6.561-9.882,8.946       c-0.148,0.672-0.23,1.609,0.215,2.249c0.433,0.626,1.312,0.871,1.969,0.965c0.514,0.067,1.053,0.085,1.591,0.106       c0.449,0.018,0.896,0.036,1.341,0.075c4.762,0.469,7.603,3.279,7.625,7.52c0.031,6.774-7.152,15.429-16.465,16.435       C372.515,451.686,371.85,451.724,371.222,451.724z"/>
					<g style="opacity:0.5;">
						<path style="fill:#6280FF;" d="M377.024,356.884c-0.033,0.35-0.055,0.739-0.078,1.151c-0.027,0.503-0.061,1.105-0.136,1.685        l13.151-9.257c-0.646-0.294-1.311-0.573-2.019-0.809c-2.837-0.948-5.515-0.684-7.54,0.742        C378.492,351.74,377.291,354.044,377.024,356.884z"/>
						<path style="fill:#6280FF;" d="M334.299,380.713c-0.823,0.579-1.724,1.129-2.675,1.633c-1.174,0.62-2.489,1.014-3.786,1.191        l-28.09,19.772c2.529,3.564,4.125,5.484,5.788,6.579l11.745-8.267c0.007-0.06,0.008-0.134,0.016-0.191        c0.116-0.995,0.52-1.739,1.196-2.215c0.746-0.526,1.821-0.725,3.044-0.59l52.251-36.778c-2.079-0.401-3.016-1.111-6.537-6.053        l-28.03,19.73C338.242,377.246,336.661,379.05,334.299,380.713z"/>
						<path style="fill:#6280FF;" d="M350.786,339.704c-3.817,2.679-6.948,4.837-9.52,6.612c-1.95,1.346-3.582,2.471-4.951,3.434        c-5.857,4.122-7.346,5.59-8.211,8.741l27.374-19.268C354.136,337.977,352.94,338.194,350.786,339.704z"/>
						<path style="fill:#6280FF;" d="M328.727,365.155c1.775,2.235,4.984,2.347,7.111,2.421c0.451,0.015,0.856,0.026,1.182,0.064        c0.874,0.1,1.593,0.379,2.145,0.822l24.761-17.429c-0.085-0.124-0.159-0.23-0.246-0.357c-1.329-1.923-2.887-4.179-4.722-6.8        L328.727,365.155z"/>
						<path style="fill:#6280FF;" d="M321.164,381.132c-0.199-0.61-0.203-1.316,0.026-2.149l0.324-1.127        c0.292-0.991,0.592-2.016,0.791-3.088c0.319-1.722,0.037-3.29-0.767-4.553l-30.053,21.153c1.723,2.477,3.21,4.64,4.492,6.505        c0.161,0.234,0.302,0.44,0.457,0.665L321.164,381.132z"/>
						<path style="fill:#6280FF;" d="M333.786,450.95c0.298,0.224,0.301,0.075,0.754,0.156c1.467,0.261,2.916-0.564,7.138-3.536        c1.557-1.096,3.53-2.516,6.047-4.328c2.426-1.746,5.363-3.859,8.956-6.422c2.1-1.478,4.667-1.515,5.844-0.701        c0.265,0.184,1.072,0.743,0.588,2.621c-0.123,0.472-0.266,0.939-0.411,1.407c-0.066,0.216-0.119,0.435-0.183,0.651        l19.004-13.376c-0.282-0.017-0.563-0.038-0.844-0.049c-0.514-0.022-1.027-0.039-1.533-0.108        c-0.615-0.083-1.428-0.3-1.818-0.859c-0.405-0.582-0.323-1.465-0.184-2.105c0.407-1.864,0.7-2.443,5.915-6.114        c1.061-0.747,2.306-1.609,3.768-2.621c2.09-1.447,4.624-3.202,7.701-5.368l3.264-2.307c2.397-1.705,3.54-2.469,3.024-4.12        L333.786,450.95z"/>
						<path style="fill:#6280FF;" d="M385.148,378.704l-52.343,36.843c-0.283,0.741-0.694,1.353-1.255,1.748        c-0.537,0.378-1.223,0.549-2.018,0.556l-12.401,8.729c0.323,1.255,0.853,2.46,1.666,3.591        c0.752,1.042,1.712,2.398,2.789,3.927l67.451-47.477c-0.843-1.191-1.677-2.388-2.524-3.577        C385.634,381.813,385.149,380.173,385.148,378.704z"/>
						<path style="fill:#6280FF;" d="M388.887,376.073l0.585,0.179c0.892,0.278,1.817,0.566,2.812,0.725        c2.183,0.347,4.164-0.051,5.731-1.154c2.384-1.678,3.628-4.828,3.472-8.618L388.887,376.073z"/>
						<path style="fill:#6280FF;" d="M363.694,449.082c1.274,1.437,3.748,3.002,8.292,2.806l16.77-11.804        c1.039-2.451,1.419-4.928,0.86-7.047c-0.226-0.857-0.717-1.994-1.684-3.027l-25.169,17.716        C363.019,448.211,363.326,448.668,363.694,449.082z"/>
						<path style="fill:#6280FF;" d="M325.124,439.138c1.63,2.324,3.302,4.71,4.807,6.841l67.475-47.493l-1.535-2.185        c-1.158-1.648-2.325-3.289-3.484-4.936l-67.464,47.486C324.989,438.947,325.056,439.041,325.124,439.138z"/>
						<path style="fill:#6280FF;" d="M318.368,418.607l2.438-1.716c-0.47,0.15-0.933,0.346-1.367,0.652        C319.03,417.831,318.685,418.2,318.368,418.607z"/>
						<path style="fill:#6280FF;" d="M332.048,407.796c0.141,0.308,0.247,0.618,0.361,0.928l67.691-47.645        c-1.02-2.489-2.646-5.022-4.955-7.166l-67.656,47.621C329.301,403.126,330.89,405.26,332.048,407.796z"/>
					</g>
					<path style="opacity:0.25;fill:#000E3F;" d="M392.561,375.189c-1.14-0.183-2.241-0.592-3.369-0.932       c-6.555-1.922-7.146,5.647-4.142,9.844c4.2,5.897,8.362,11.846,12.523,17.793c1.811,2.572,1.846,2.622-0.842,4.515       c-19.103,13.569-20.471,13.447-21.364,17.503c-0.627,2.858,0.651,4.745,3.531,5.157c1.005,0.132,2.023,0.106,3.02,0.192       c12.479,1.228,4.165,19.336-8.873,20.746c-7.375,0.801-10.112-3.19-9.14-7.45c0.268-1.126,0.677-2.227,0.961-3.364       c1.479-5.677-5.129-6.796-9.277-3.826c-21.443,15.289-20.223,15.097-21.818,12.865c-1.339-1.869-2.999-4.226-4.74-6.7       c0.159-1.42,0.5-2.794,1.076-4.111c1.805-4.058,5.496-6.73,9.046-9.254c9.078-6.439,18.174-12.891,27.253-19.331       c3.65-2.593,7.671-5.917,7.428-10.678c-0.169-3.604-2.788-6.693-4.829-9.769c-6.206-9.342-8.022-21.38-4.724-31.444       c0.173-0.491,0.345-0.982,0.529-1.457c4.672,6.674,5.8,7.68,9.261,8.253c4.967,0.819,4.501-4.081,4.765-6.683       c0.448-4.828,3.89-7.226,8.528-5.682C402.125,356.3,403.323,376.886,392.561,375.189z"/>
				</g>
				<path style="fill:#000E3F;" d="M353.649,340.219c0.499,0,0.866,0.501,1.641,1.603c4.357,6.155,7.327,10.55,9.521,13.667      c4.672,6.674,5.8,7.68,9.261,8.253c0.376,0.062,0.72,0.091,1.036,0.091c3.864,0,3.485-4.369,3.728-6.774      c0.357-3.844,2.612-6.147,5.856-6.148c0.831,0,1.726,0.151,2.671,0.466c14.178,4.73,15.841,23.912,6.413,23.912      c-0.387,0-0.792-0.032-1.216-0.099c-1.14-0.183-2.241-0.592-3.369-0.932c-0.717-0.21-1.362-0.307-1.94-0.307      c-4.702,0-4.878,6.412-2.203,10.151c4.2,5.897,8.362,11.846,12.524,17.793c1.811,2.572,1.846,2.622-0.843,4.515      c-19.102,13.569-20.471,13.447-21.363,17.503c-0.627,2.858,0.651,4.745,3.531,5.157c1.005,0.132,2.023,0.106,3.02,0.192      c12.479,1.228,4.165,19.336-8.873,20.746c-0.643,0.07-1.251,0.103-1.824,0.103c-6.001,0-8.203-3.665-7.317-7.554      c0.268-1.126,0.677-2.227,0.961-3.364c0.953-3.656-1.45-5.422-4.389-5.422c-1.624,0-3.412,0.539-4.888,1.596      c-15.373,10.961-19.098,13.965-20.562,13.965c-0.578,0-0.804-0.468-1.255-1.1c-1.34-1.869-2.999-4.226-4.74-6.7      c-3.262-4.634-6.763-9.642-8.768-12.421c-1.549-2.164-1.994-4.514-1.46-7.085c0.596-2.838,2.164-3.616,3.897-3.616      c1.677,0,3.508,0.729,4.759,1.025c0.726,0.172,1.399,0.252,2.018,0.252c5.686,0,6.886-6.814,4.231-12.64      c-3.182-6.965-8.739-10.277-12.888-10.277c-2.81,0-4.974,1.519-5.32,4.45c-0.378,3.111,0.17,8.371-4.466,8.371      c-0.305,0-0.633-0.023-0.985-0.07c-5.299-0.734-5.425-2.593-19.25-22.305c-1.962-2.787-3.575-0.419,19.128-16.546      c1.523-1.081,3.454-1.632,5.255-1.632c3.215,0,6.015,1.758,5.336,5.397c-0.255,1.389-0.703,2.714-1.083,4.066      c-1.266,4.605,2.472,6.959,6.898,6.959c2.04,0,4.225-0.5,6.136-1.51c12.063-6.37,12.162-17.265,4.756-18.118      c-2.441-0.279-9.025,0.631-7.627-5.827c1.082-4.978,2.151-4.72,22.242-18.813C352.735,340.562,353.237,340.219,353.649,340.219       M353.649,336.993c-1.448,0-2.476,0.724-3.667,1.562c-3.812,2.674-6.941,4.832-9.513,6.606      c-11.412,7.872-12.878,8.883-14.025,14.16c-0.586,2.708-0.206,4.949,1.13,6.663c2.179,2.796,5.961,2.924,8.221,3      c0.406,0.014,0.77,0.022,1.061,0.055c1.635,0.188,1.993,1.106,2.119,1.781c0.415,2.211-1.377,6.773-8.015,10.279      c-1.387,0.733-3.03,1.136-4.629,1.136c-1.916,0-3.227-0.595-3.676-1.185c-0.105-0.137-0.423-0.555-0.11-1.693      c0.092-0.326,0.193-0.668,0.294-1.01c0.311-1.052,0.633-2.139,0.852-3.328c0.441-2.366-0.079-4.595-1.467-6.266      c-1.553-1.869-4.12-2.941-7.042-2.941c-2.532,0-5.128,0.812-7.122,2.228c-5.241,3.723-9.219,6.483-12.124,8.498      c-7.853,5.448-9.06,6.285-9.368,8.547c-0.24,1.761,0.764,2.968,1.246,3.548c0.105,0.127,0.227,0.269,0.348,0.441      c2.667,3.803,4.825,6.942,6.607,9.535c7.758,11.288,9.156,13.322,14.839,14.109c0.498,0.067,0.975,0.101,1.428,0.101      c6.907,0,7.357-6.824,7.549-9.738c0.035-0.522,0.065-1.021,0.12-1.47c0.063-0.531,0.19-1.613,2.117-1.613      c2.947,0,7.319,2.626,9.953,8.392c1.386,3.04,1.268,5.944,0.434,7.24c-0.265,0.412-0.677,0.833-1.731,0.833      c-0.381,0-0.809-0.056-1.275-0.166c-0.297-0.07-0.632-0.171-0.991-0.277c-1.263-0.372-2.834-0.835-4.51-0.835      c-3.658,0-6.23,2.253-7.054,6.18c-0.731,3.52-0.059,6.756,1.994,9.626c1.501,2.079,3.827,5.391,6.29,8.897l2.463,3.504      c1.747,2.482,3.412,4.847,4.756,6.722l0.147,0.211c0.461,0.669,1.54,2.235,3.73,2.235c2.16,0,3.659-1.079,13.412-8.096      c2.446-1.76,5.413-3.895,9.023-6.469c0.873-0.625,1.999-0.996,3.015-0.996c0.797,0,1.233,0.229,1.319,0.341      c0.053,0.069,0.111,0.415-0.052,1.041c-0.13,0.518-0.279,0.999-0.426,1.478c-0.199,0.649-0.396,1.297-0.552,1.951      c-0.675,2.959-0.107,5.744,1.591,7.873c1.33,1.667,3.947,3.655,8.864,3.655c0.695,0,1.426-0.041,2.172-0.122      c10.125-1.095,17.938-10.601,17.902-18.048c-0.024-5.076-3.496-8.569-9.061-9.117c-0.504-0.044-0.975-0.064-1.446-0.082      c-0.53-0.021-1.031-0.041-1.471-0.098c-0.645-0.093-0.835-0.283-0.837-0.284l0,0c0.001,0-0.12-0.26,0.038-0.983      c0.377-1.714,0.408-1.854,9.214-7.956c2.814-1.95,6.317-4.377,10.866-7.608c1.648-1.16,3.081-2.168,3.417-4.071      c0.335-1.892-0.609-3.233-1.805-4.931l-0.207-0.296c-4.026-5.754-8.19-11.703-12.327-17.511c-1.13-1.58-1.408-3.853-0.903-4.834      c0.084-0.164,0.113-0.219,0.478-0.219c0.196,0,0.535,0.031,1.032,0.176c0.237,0.072,0.496,0.154,0.755,0.237      c0.896,0.285,1.911,0.609,3.009,0.785c0.592,0.094,1.171,0.14,1.728,0.14c4.686,0,8.113-3.178,8.944-8.293      c1.269-7.812-3.851-18.408-14.335-21.906c-1.259-0.419-2.5-0.631-3.692-0.631c-4.921,0-8.565,3.648-9.07,9.076      c-0.036,0.354-0.062,0.778-0.088,1.227c-0.04,0.694-0.12,2.072-0.354,2.618c-0.022,0.001-0.047,0.002-0.074,0.002      c-0.145,0-0.318-0.016-0.511-0.048c-2.1-0.348-2.599-0.43-7.143-6.92c-0.843-1.198-1.796-2.577-2.897-4.171      c-1.779-2.576-3.943-5.707-6.633-9.509C356.948,338.572,355.837,336.993,353.649,336.993L353.649,336.993z"/>
			</g>
			<g>
				<g>
					<polygon style="fill:#FF8EDE;" points="391.644,283.066 350.637,303.105 352.024,316.106 335.364,322.04 316.685,340.485        313.956,351.477 316.278,359.415 323.61,362.235 330.623,359.42 328.373,366.486 331.301,372.752 338.735,375.293        348.994,370.781 347.132,380.391 350.286,388.13 362.014,388.475 370.258,383.839 381.283,376.694 393.615,360.058        401.785,341.897 405.027,318.635 403.562,303.126 396.908,288.885      "/>
					<path style="opacity:0.55;fill:#FC09B2;" d="M379.449,278.575c-1.061,4.79-3.827,8.688-5.633,11.582       c-1.237,1.822,1.274,3.867,2.808,2.276c19.277-19.994,4.443-38.216-16.032-36.161c2.929-13.018-11.232-20.635-21.49-12.35       c-1.524,1.234-0.102,3.658,1.719,2.923c1.441-0.436,3.857-1.611,7.005-1.128c5.81,0.754,8.986,6.67,3.376,13.892       c-2.362,3.051,1.106,7.169,4.506,5.39c0.206-0.058,4.306-2.566,11.328-1.513C370.977,264.026,381.479,270.126,379.449,278.575z       "/>
					<path style="opacity:0.5;fill:#FC09B2;" d="M384.268,372.783c2.767-2.784,5.3-5.77,7.427-9.078       c1.528-2.376,6.7-11.552,8.429-15.465c2.237-5.062,4.788-14.573,5.013-24.592c0.251-11.136-0.701-18.538-6.272-29.633       c-2.521-5.021-5.944-9.522-6.493-9.996c-1.866-1.611-3.128,0.509-4.115,2.846c-5.477,12.971,0.617,35.69-6.918,54.493       c-11.033,27.531-35.114,3.457-48.918,15.926c-2.234,2.017-3.47,7.166-3.5,10.064c-0.018,1.762,0.653,3.253,1.513,4.693       c1.049,1.755,4.505,2.658,6.902,2.465c4.456-0.36,8.949-2.223,9.038-2.248c0.993-0.284,1.587-1.273,2.622-1.478       c0.195,1.246-0.783,2.055-1.185,3.074c-2.19,5.552-1.024,12.548,4.774,13.947c3.76,0.907,7.471,0.945,11.027-0.901       C369.648,383.768,373.072,384.047,384.268,372.783z"/>
				</g>
				<path style="fill:#000E3F;" d="M396.846,286.531c-0.094-0.115-0.232-0.301-0.402-0.528c-1.404-1.881-3.02-3.902-4.442-4.07      c-0.42-0.052-0.809,0.073-1.118,0.321c-1.237,1.032-0.079,2.475,1.676,4.66c4.472,5.567,13.779,17.152,9.659,43.371      c-2.068,13.147-7.136,25.581-14.657,35.955c-6.265,8.644-13.48,14.746-21.443,18.139c-7.127,3.037-12.889,3.021-15.805-0.043      c-2.197-2.31-2.343-6.091-0.388-10.113c0.208-0.423,0.623-1.16,1.023-1.876c0.592-1.049,0.959-1.708,1.065-1.996      c0.262-0.7,0.079-1.465-0.457-1.905c-0.309-0.252-1.183-0.742-2.64,0.165c-6.708,4.182-12.484,5.246-15.845,2.923      c-1.852-1.279-2.723-3.482-2.276-5.746c0.537-2.713,1.791-4.304,2.897-5.705c0.344-0.436,0.664-0.844,0.932-1.245      c0.372-0.558,0.369-1.272-0.007-1.823c-0.401-0.583-1.1-0.847-1.824-0.685c-0.919,0.208-1.649,0.706-2.415,1.243      c-1.215,0.84-2.59,1.794-5.343,2.226c-3.291,0.517-6.246-0.599-7.905-2.982c-2.325-3.338-1.84-8.508,1.334-14.184      c6.75-12.077,18.816-21.189,32.276-24.381c1.192-0.285,2.046-0.923,2.281-1.716c0.15-0.508,0.03-1.019-0.333-1.398      c-0.569-0.596-1.623-0.76-2.891-0.449c-23.351,5.737-38.163,26.396-37.717,37.549c0.157,3.918,2.072,7.594,4.995,9.592      c3.484,2.379,8.232,1.633,10.922,0.909c-0.044,0.123-0.091,0.254-0.134,0.368c-0.089,0.243-0.185,0.505-0.267,0.773      c-1.508,4.971,0.232,9.194,4.655,11.298c5.275,2.507,10.193,0.703,12.836-0.267c0.3-0.11,0.622-0.229,0.882-0.312      c-2.024,7.023,0.112,10.835,2.295,12.803c3.879,3.502,11.038,3.786,18.235,0.727c2.707-1.152,5.325-2.557,7.844-4.197      c13.957-9.09,24.78-25.374,29.692-45.198C409.116,318.223,406.361,298.222,396.846,286.531z"/>
			</g>
		</g>
	</g>
	<g>
		<g>
			<g>
				<path style="fill:#FFCF00;" d="M475.549,222.598c-0.15,0-0.301-0.02-0.453-0.065l-0.309-0.09      c-0.043-0.012-1.487-0.419-16.073-4.309c-0.429-0.116-0.792-0.402-1.004-0.792c-0.211-0.392-0.252-0.851-0.112-1.272      c0.116-0.356,2.903-8.755,5.792-12.981c0.565-0.825,1.211-1.664,1.975-2.57c3.263-3.913,7.375-7.221,11.004-10.139      c7.384-5.937,11.427-9.511,8.669-13.93c-0.934-1.493-2.718-2.46-4.543-2.46c-1.02,0-1.952,0.311-2.696,0.902      c-0.924,0.732-1.615,1.359-2.182,1.875c-1.432,1.298-2.466,2.233-4.417,2.235c-1.686,0-3.856-0.713-8.609-2.274      c-1.983-0.652-4.417-1.451-7.44-2.404c-0.837-0.262-1.31-1.146-1.065-1.987c0.008-0.025,0.055-0.185,0.063-0.211      c4.049-11.817,15.569-20.395,27.39-20.395c2.052,0,4.118,0.246,6.142,0.735c14.143,2.723,23.887,14.442,22.591,27.242      c-0.709,7.231-4.901,13.926-11.804,18.848c-0.908,0.648-1.997,1.306-3.257,2.066c-5.73,3.46-14.389,8.686-18.119,20.838      C476.879,222.151,476.241,222.598,475.549,222.598z"/>
				<path style="fill:#FFCF00;" d="M466.676,249.567c-0.15,0-0.303-0.02-0.453-0.065l-0.272-0.079      c-15.514-4.474-15.514-4.474-15.382-5.918c0.006-0.061,0.016-0.12,0.027-0.177c0.392-3.119,2.099-8.414,3.233-11.935      c0.347-1.073,0.63-1.953,0.79-2.507c0.203-0.703,0.845-1.166,1.548-1.166c0.116,0,0.234,0.012,0.35,0.038      c3.663,0.811,15.07,4.068,15.555,4.206c0.412,0.118,0.76,0.396,0.967,0.77c0.209,0.374,0.258,0.815,0.14,1.229      c-0.414,1.436-4.795,13.989-4.982,14.523C467.968,249.147,467.345,249.567,466.676,249.567z"/>
			</g>
			<g style="opacity:0.5;">
				<path style="fill:#FD8A02;" d="M497.531,197.24c-4.964,3.545-17.256,8.339-21.982,23.744l-0.309-0.089      c0,0-1.202-0.346-16.11-4.321c0,0,2.799-8.489,5.591-12.575c0.577-0.841,1.208-1.646,1.877-2.439      c4.557,0.933,9.364,1.582,15.175-4.027c3.394-3.262,5.662-7.058,9.473-9.948c5.087-3.824,11.081-6.57,17.421-8.039      C508.047,185.851,504.554,192.232,497.531,197.24z"/>
			</g>
			<path style="opacity:0.75;fill:#FFFFFF;" d="M476.74,159.635c11.776-3.665,22.934,5.08,23.058,14.957     c0.025,1.769-2.227,2.547-3.304,1.153c-4.01-5.191-7.271-8.516-13.577-10.759c-4.651-1.716-8.196-1.765-7.307-4.267     C475.802,160.184,476.236,159.796,476.74,159.635z"/>
		</g>
		<g>
			<path style="fill:#000E3F;" d="M487.984,150.877c-2.123-0.505-4.29-0.76-6.444-0.76h0c-12.692,0.001-24.584,8.837-28.917,21.487     c-0.018,0.051-0.034,0.103-0.049,0.155l-0.039,0.136c-0.483,1.682,0.463,3.442,2.131,3.968c3.016,0.95,5.445,1.748,7.422,2.397     c4.921,1.616,7.167,2.354,9.111,2.354c2.574,0,3.995-1.288,5.5-2.651c0.576-0.522,1.228-1.113,2.103-1.808     c0.46-0.365,1.031-0.551,1.692-0.551c1.263,0,2.54,0.685,3.177,1.703c1.839,2.945-0.347,5.411-8.312,11.816     c-3.688,2.966-7.868,6.327-11.24,10.371c-0.793,0.941-1.471,1.822-2.059,2.68c-3.018,4.417-5.874,13.026-5.994,13.391     c-0.278,0.843-0.196,1.764,0.226,2.545c0.422,0.781,1.149,1.354,2.007,1.582c14.466,3.857,15.997,4.289,16.055,4.306l0.302,0.087     c0.298,0.086,0.598,0.127,0.894,0.127c1.382,0,2.658-0.895,3.083-2.281c3.548-11.563,11.89-16.597,17.41-19.929     c1.289-0.778,2.403-1.451,3.363-2.135c7.285-5.196,11.715-12.301,12.471-20.006C513.254,166.254,502.987,153.801,487.984,150.877     z M508.665,179.545c-0.619,6.306-4.111,12.686-11.134,17.695c-4.964,3.545-17.256,8.339-21.982,23.744l-0.309-0.089     c0,0-1.202-0.346-16.11-4.321c0,0,2.799-8.489,5.591-12.575c0.577-0.841,1.208-1.646,1.877-2.439     c9.227-11.068,25.368-17.063,19.809-25.965c-1.255-2.007-3.602-3.218-5.912-3.218c-1.314,0-2.615,0.391-3.699,1.251     c-3.101,2.463-3.672,3.759-5.596,3.759c-2.057,0-5.661-1.481-15.564-4.602l0.039-0.136c3.62-10.566,13.966-19.306,25.864-19.307     c1.889,0,3.816,0.22,5.763,0.688C501.437,156.755,509.828,168.067,508.665,179.545z"/>
			<path style="fill:#000E3F;" d="M472.516,230.413c-0.486-0.139-11.94-3.41-15.65-4.23c-0.234-0.052-0.468-0.077-0.699-0.077     c-1.409,0-2.693,0.928-3.098,2.335c-0.156,0.542-0.435,1.406-0.775,2.458c-1.147,3.557-2.867,8.894-3.291,12.171     c-0.017,0.095-0.031,0.191-0.04,0.288c-0.244,2.659,1.872,3.3,4.113,3.98c1.127,0.342,2.657,0.794,4.266,1.266     c3.201,0.938,6.716,1.953,7.967,2.314l0.455,0.131c0.302,0.088,0.608,0.131,0.909,0.131c1.34,0,2.587-0.838,3.049-2.162     c0.468-1.342,4.59-13.155,5.008-14.61c0.237-0.823,0.137-1.707-0.279-2.456C474.036,231.202,473.34,230.648,472.516,230.413z      M466.676,247.954c-0.195-0.058-14.838-4.27-14.493-4.303c0.446-3.871,3.313-11.979,3.987-14.318     c3.656,0.809,15.46,4.182,15.46,4.182C471.224,234.925,466.676,247.954,466.676,247.954z"/>
		</g>
	</g>
	<g>
		<path style="fill:#000E3F;" d="M110.842,139.622c2.359,3.316,4.045,5.91,5.88,9.362l-0.031,0.024    c-1.103,0.867-2.458,2.05-3.813,2.529l-0.039,0.022c-2.525-2.648-4.265-5.866-6.814-8.855c-1.607,0.486-2.973,2.186-4.58,2.824    l-0.071,0.047l-0.036,0.023l0.024,0.036c4.569,7.337,13.694,20.602,16.585,24.43c0.551-1.016,3.958-1.916,4.691-3.352    c-1.477-3.283-4.135-6.205-5.971-9.657c1.174-1.219,2.525-2.097,4.068-2.747l0.063,0.012c2.371,2.8,4.384,6.595,6.9,9.456    l0.035-0.023c1.103-0.869,3.383-2.097,4.832-3.444l-17.113-24.237C113.966,136.885,111.796,138.447,110.842,139.622z"/>
		<path style="fill:#000E3F;" d="M147.474,145.686c-3.308,1.981-6.546,3.389-9.803,5.195l-0.059-0.016    c-0.768-1.124-2.025-3.04-2.568-4.63c0.295-0.695,2.966-1.642,4.258-2.891c-1.048-1.794-1.749-3.584-2.93-5.106l-0.02-0.037    c-1.536,0.803-3.076,1.703-4.616,2.414l-0.059-0.016c-1.075-1.15-1.599-2.889-2.442-4.313l0.02-0.057l0.11-0.063    c3.092-2.103,6.703-3.375,9.452-5.823l-0.016-0.037c-0.965-1.741-1.69-3.663-2.914-5.26c-0.126-0.221-9.633,5.246-15.21,8.724    c4.222,8.747,9.244,16.76,14.009,25.352c5.006-2.243,10.169-5.591,15.222-8.345c-0.414-1.707-1.394-3.486-2.391-5.016    L147.474,145.686z"/>
		<path style="fill:#000E3F;" d="M166,137.13c-0.091-0.286-0.236-0.591-0.362-0.859c-1.15,0.733-9.169,3.683-10.027,4.46    l-0.016-0.037c-3.001-6.64-6.896-13.982-9.838-20.695c-1.745,0.077-5.345,1.873-6.179,2.783    c5.242,10.687,7.337,14.616,12.312,26.319l0.327,0.689c12.422-5.642,13.978-6.8,15.1-7.193c1.075-0.508,1.284-0.37-0.65-3.954    C166.43,138.238,166.193,137.645,166,137.13z"/>
		<path style="fill:#000E3F;" d="M179.356,115.374l-0.012-0.039c-4.025-8.745-14.978-5.349-20.787-1.036    c3.789,8.611,7.704,19.497,11.055,27.008c1.847-0.506,5.211-1.798,6.51-2.769c0.035-0.016,0.063-0.071,0.102-0.087l-0.016-0.039    c-3.23-7.558-3.387-8.407-4.08-9.817c5.325-1.16,8.956-6.932,7.597-12.182C179.643,116.082,179.501,115.728,179.356,115.374z     M174.055,120.035c-0.76,1.758-3.135,2.43-4.742,3.206l-0.114,0.047c-1.142-1.373-1.835-3.921-2.706-5.764    c0.028-0.055,0.063-0.071,0.106-0.087c1.52-1.105,3.478-1.566,5.199-1.018C173.503,116.699,174.452,118.508,174.055,120.035z"/>
		<path style="fill:#000E3F;" d="M183.83,104.389c-1.635,0.069-3.537,1.17-4.899,1.77l-0.122,0.041    c2.056,7.442,4.892,14.261,7.188,21.35l0.043-0.012c1.548-0.577,3.749-1.333,5.096-1.973    C188.469,118.826,186.055,111.281,183.83,104.389z"/>
		<path style="fill:#000E3F;" d="M191.92,127.715c-1.564,0.536-3.757,0.796-4.864,1.757l0.02,0.04    c0.508,1.483,1.126,4.852,1.485,4.728l2.993-1.071l0.079-0.028c0.602-0.205,0.894-0.262,1.536-0.48l0.276-0.097    C192.912,131.001,192.388,129.209,191.92,127.715z"/>
		<path style="fill:#000E3F;" d="M80.016,122.75c-2.288-1.814-10.232-8.229-11.996-9.649c-2.718,2.57-3.411,2.788-3.966,3.385    c5.175,13.172,12.725,26.147,13.166,27.256c0.059,0.006,0.059,0.006,0.09-0.02c3.005-2.414,4.399-3.241,4.691-3.629    c0.035-0.026,0.043-0.085,0.075-0.112c-0.386-2.066-2.402-4.844-2.903-6.713c1-0.786,0.827-0.866,2.091-1.589    c1.623,0.829,4.171,3.186,5.829,4.2l0.035-0.025c1.666-0.825,3.446-2.06,4.569-3.372l-0.028-0.035L80.016,122.75z M75.849,129.52    c-4.427-7.562-7.889-12.384,2.469-1.938C77.484,128.237,76.645,128.951,75.849,129.52z"/>
		<path style="fill:#000E3F;" d="M104.505,118.245c-0.508-3.182-2.576-6.18-5.648-7.176c-2.718-1.081-5.876-0.996-8.562,0.402    c-1.079,0.522-2.158,0.89-3.3,0.027c-0.248-0.293-0.532-0.563-0.638-0.949c-1.386-2.897,3.82-5.022,4.986-2.08    c1.958-0.654,3.828-2.119,5.289-3.513l0.039-0.024c-1.697-3.962-4.679-5.276-7.704-4.923c-2.938,0.496-6.42,2.379-8.066,4.866    c-3.241,4.89-1.079,12.727,6.01,13.928c1.044,0.112,2.123,0.049,3.19-0.414c2.233-0.937,5.218-2.491,7.014-0.431    c2.761,2.889-2.414,6.272-4.604,3.405c-1.556,1.099-3.864,2.296-5.348,3.653l0.067,0.107l0.075,0.104    c2.718,4.653,8.96,4.283,13.139,1.623C103.399,125.015,105.325,121.882,104.505,118.245z"/>
		<path style="fill:#000E3F;" d="M115.604,116.89c-1.572-2.761-4.013-6.534-5.522-9.431c3.103,1.841,7.148,5.528,10.555,6.709    c1.603-0.866,3.679-1.757,5.073-2.989l-13.737-9.476c-0.583-5.128,0.378-11.136-0.792-15.927    c-1.729,0.644-3.423,1.949-5.069,2.741c-0.402,4.082,0.311,7.723-0.225,11.583c-0.047,0.173-0.035,0.362-0.055,0.325    c-1.702-2.733-3.403-6.055-5.104-8.789c-1.583,0.902-3.375,1.778-4.974,2.737c4.923,8.552,9.275,17.382,14.482,25.576    C111.689,119.511,114.493,118.012,115.604,116.89z"/>
		<path style="fill:#000E3F;" d="M136.238,105.959l0.055,0.022c0.528,0.041,4.805-1.914,6.727-3.005    c-1.272-2.954-2.741-6.243-3.919-9.61l0.039-0.018c1.426-0.961,3.226-1.812,4.691-2.79c0.075-0.034,0.094-0.091,0.079-0.128    c-1.016-1.77-2.288-5.656-2.946-6.29c-1.111,0.634-3.316,1.711-4.868,2.174c-0.043,0.018-0.043,0.018-0.098-0.004    c-0.827-0.605-1.607-1.833-1.631-3.444c3.072-1.743,7.349-3.793,10.047-5.228c-0.469-1.367-1.949-4.37-2.552-5.724    c-4.817,0.853-14.789,6.14-17.251,7.794l0.016,0.039C129.995,91.772,132.059,96.601,136.238,105.959z"/>
		<path style="fill:#000E3F;" d="M152.523,91.105c0.614,1.534,1.347,3.025,2.587,4.057c1.725,1.753,4.005,1.453,6.262,0.845    c1.595-0.453,3.076-1.089,4.387-2.068c1.465-1.038,2.749-2.326,3.194-3.934c0.382-1.9,0.098-4.007-0.469-5.919l-0.366-1.355    c-0.811-2.814-1.926-5.339-2.808-8.218c-0.441-1.325-0.926-2.637-1.528-3.903c-0.429-0.791-0.894-1.568-1.544-2.229    c-0.658-0.796-1.52-1.426-2.524-1.822c-3.923-1.215-8.881,0.524-11.745,3.523c-0.284,0.331-0.473,0.67-0.65,1.052    c-0.937,2.467-0.441,5.171,0.398,7.57C148.982,82.976,150.841,87.03,152.523,91.105z M153.287,73.85    c0.599-0.943,1.662-1.741,2.899-1.701c1.445,0.142,2.643,1.189,3.308,2.615c0.378,0.9,0.981,2.166,0.993,2.206l1.075,2.672    l0.709,1.908c0.043,0.118,0.323,1.006,0.685,2.093c0.646,2.379,1.044,2.231,0.536,3.909c-0.953,2.428-4.383,3.423-6.191,1.698    c-1.162-1.558-1.855-3.559-2.824-5.323c-0.933-2.18-1.733-4.46-2.044-6.646C152.338,76.05,152.637,74.902,153.287,73.85z"/>
		<path style="fill:#000E3F;" d="M173.637,90.918c0.492-0.274,5.348-1.166,6.963-2.462c-0.717-2.042-2.654-7.347-3.025-9.886    l0.118,0.1c3.131,2.194,6.802,6.436,8.562,8.621l0.043-0.012c2.489-0.531,4.829-1.457,6.739-2.001l-0.039,0.01    c-2.899-4.019-7.318-6.861-10.744-10.248L182.246,75l0.036-0.012l0.165-0.045c2.56-0.904,3.828-2.804,4.289-5.049    c1.776-6.624-4.379-12.495-10.909-10.994c-4.084,0.674-7.629,2.296-10.559,3.612C166.45,65.127,173.96,90.825,173.637,90.918z     M172.838,66.529c1.698-1.317,3.635-2.087,5.128-1.323c1.843,0.754,2.603,4.061,0.654,5.098c-1.245,0.575-2.816,0.931-4.116,1.168    l-0.039,0.012C173.913,70.319,173.35,67.88,172.838,66.529z"/>
	</g>
	<g>
		<path style="fill:#FD8A02;" d="M49.573,381.996c-2.228-2.346-4.228-4.268-5.06-6.283c-0.825-1.999,1.549-3.782,3.121-2.573    c2.574,1.976,5.395,6.442,6.178,6.146c0.773-0.292,0.428-1.348,0.438-2.083c0.054-4.09-0.25-6.587,0.269-9.258    c0.394-2.028,3.708-1.744,4.116,0.012c0.393,1.694,0.18,3.596,0.304,12.357c0.042,2.904,2.372,0.712,5.54-1.373    c1.798-1.183,4.573-2.001,5.459-0.049c0.731,1.61-0.689,2.589-2.146,3.609c-7.672,5.372-7.836,3.858,3.158,6.909    c2.02,0.56,4.454,1.425,3.744,3.465c-0.724,2.081-3.078,1.209-7.836,0.136c-0.626-0.141-1.212-0.488-1.84-0.579    c-1.389-0.2-2.686-0.921-4.141-0.724c-0.238,1.711,1.262,2.624,1.852,3.958c0.946,2.137,2.736,3.137,2.24,5.571    c-0.193,0.948-1.161,1.546-2.04,1.186c-4.29-1.757-5.266-8.874-7.095-4.921c-2.362,5.108-2.72,6.377-4.127,8.288    c-1.327,1.803-3.871,0.621-3.451-1.559c0.695-3.615,4.279-9.738,3.579-10.418c-0.729-0.709-7.172,5.045-9.675,5.13    c-1.809,0.061-2.621-1.509-1.769-2.846c1.295-2.032,2.433-2.425,7.522-5.975c0.395-0.276,0.972-0.549,0.755-1.159    c-0.194-0.546-0.802-0.587-1.297-0.66c-2.502-0.367-8.153-1.112-8.412-1.185c-2.446-0.692-2.106-4.631,0.685-4.34    c9.699,1.008,12.27,2.261,9.871-0.727C49.535,382.032,49.554,382.014,49.573,381.996z"/>
		<path style="fill:#FD8A02;" d="M10.069,302.205c-2.27-2.529-5.476-5.642-3.415-7.22c1.435-1.101,2.486,0.219,3.803,1.735    c0.755,0.869,2.625,3.55,3.132,3.374c0.694-0.241,0.265-0.604,0.521-6.738c0.075-1.795,0.23-3.857,2.006-3.6    c2.424,0.35,1.772,1.217,1.631,11.295c-0.034,2.369,1.918,0.636,4.55-0.991c1.494-0.924,3.776-1.526,4.454,0.086    c0.56,1.333-0.629,2.1-1.834,2.894c-6.38,4.204-6.48,2.965,2.416,5.708c1.634,0.504,3.6,1.265,2.973,2.913    c-1.081,2.846-8.698-1.542-11.242-1.271c-0.234,1.39,0.968,2.169,1.419,3.271c0.722,1.765,2.16,2.618,1.698,4.595    c-0.481,2.061-2.834,0.664-4.045-1.117c-3.12-4.588-2.068-4.372-5.682,2.673c-0.724,1.41-1.751,3.085-3.15,2.369    c-1.507-0.771-0.736-2.546-0.005-4.249c3.247-7.556,4.325-7.576-3.607-2.796c-3.502,2.111-5.688-0.953-1.149-3.781    c6.743-4.202,6.254-3.617-1.702-4.946c-0.748-0.125-3.294-0.158-2.771-2.525c0.193-0.872,0.871-1.404,1.883-1.27    c7.879,1.046,9.955,2.133,8.067-0.365C10.037,302.234,10.053,302.219,10.069,302.205z"/>
		<path style="fill:#FD8A02;" d="M45.822,209.138c-3.002-0.28-5.585-0.402-7.404-1.306c-1.805-0.897-1.233-3.604,0.612-3.72    c3.017-0.191,7.738,1.212,8.106,0.524c0.362-0.679-0.526-1.208-0.97-1.73c-2.47-2.903-4.216-4.47-5.489-6.663    c-0.967-1.665,1.533-3.498,2.896-2.516c1.314,0.947,2.32,2.4,7.793,8.486c1.81,2.012,2.102-0.955,3.047-4.362    c0.536-1.934,1.982-4.209,3.801-3.383c1.504,0.683,1.102,2.249,0.708,3.849c-2.089,8.475-3.134,7.513,6.454,2.912    c1.761-0.845,4-1.732,4.753,0.136c0.789,1.956-1.593,2.832-5.417,4.902c-0.526,0.285-1.15,0.401-1.647,0.723    c-1.098,0.711-2.45,1.001-3.351,2.031c0.882,1.348,2.495,1.068,3.727,1.642c1.975,0.92,3.844,0.524,4.989,2.536    c0.446,0.784,0.133,1.797-0.704,2.083c-4.085,1.397-9.139-2.999-7.998,0.898c1.756,5.992,3.391,9.616,0.949,10.301    c-1.862,0.523-2.592-1.564-3.3-3.559c-3.147-8.877-2.236-9.757-5.195,0.454c-1.261,4.352-5.541,3.73-3.897-2.279    c2.397-8.764,2.429-7.878-5.264-2.827c-0.5,0.328-0.971,0.719-1.507,0.973c-2.14,1.014-4.32-1.957-2.181-3.466    c7.396-5.221,10.02-5.93,6.482-6.565C45.817,209.187,45.82,209.162,45.822,209.138z"/>
		<path style="fill:#FD8A02;" d="M356.343,92.094c1.524,2.854,2.941,5.239,3.207,7.402c0.264,2.146-2.499,3.234-3.693,1.65    c-1.956-2.59-3.487-7.645-4.321-7.568c-0.822,0.076-0.771,1.185-0.976,1.891c-1.14,3.928-1.51,6.416-2.722,8.853    c-0.919,1.85-4.038,0.695-3.965-1.106c0.071-1.738,0.783-3.514,2.993-11.993c0.732-2.81-2.097-1.317-5.706-0.15    c-2.048,0.662-4.94,0.713-5.276-1.404c-0.277-1.746,1.353-2.312,3.028-2.908c8.824-3.138,8.58-1.636-1.207-7.5    c-1.798-1.077-3.915-2.558-2.688-4.336c1.251-1.814,3.289-0.347,7.591,1.953c0.565,0.302,1.039,0.793,1.62,1.048    c1.285,0.562,2.345,1.602,3.799,1.799c0.685-1.586-0.518-2.865-0.733-4.308c-0.343-2.312-1.803-3.752-0.677-5.966    c0.439-0.862,1.53-1.181,2.281-0.601c3.669,2.834,2.717,9.955,5.531,6.631c3.636-4.297,4.319-5.424,6.182-6.892    c1.759-1.385,3.896,0.431,2.912,2.421c-1.632,3.3-6.714,8.249-6.221,9.091c0.515,0.877,8.255-2.956,10.69-2.372    c1.76,0.422,2.126,2.151,0.948,3.214c-1.789,1.615-2.99,1.691-8.84,3.759c-0.455,0.161-1.083,0.271-1.036,0.917    c0.042,0.577,0.617,0.779,1.075,0.981c2.315,1.019,7.564,3.24,7.794,3.38c2.174,1.318,0.799,5.024-1.814,4.002    c-9.082-3.551-11.227-5.443-9.709-1.924C356.389,92.069,356.366,92.081,356.343,92.094z"/>
		<path style="fill:#FD8A02;" d="M255.969,109.708c1.516,3.042,3.778,6.895,1.372,7.869c-1.676,0.679-2.339-0.872-3.205-2.684    c-0.497-1.038-1.586-4.12-2.122-4.085c-0.733,0.048-0.416,0.512-2.294,6.357c-0.55,1.711-1.247,3.656-2.891,2.937    c-2.244-0.982-1.384-1.645,1.432-11.322c0.662-2.275-1.68-1.123-4.65-0.254c-1.686,0.493-4.046,0.466-4.27-1.267    c-0.186-1.434,1.165-1.857,2.537-2.302c7.269-2.356,7.035-1.135-0.811-6.145c-1.441-0.92-3.134-2.177-2.092-3.598    c1.799-2.456,7.974,3.799,10.499,4.215c0.595-1.278-0.356-2.349-0.498-3.53c-0.227-1.893-1.386-3.098-0.414-4.882    c1.012-1.858,2.909,0.114,3.602,2.152c1.787,5.252,0.831,4.765,6.188-1.066c1.073-1.167,2.508-2.509,3.667-1.446    c1.248,1.145,0.032,2.65-1.125,4.097c-5.14,6.42-6.184,6.153,2.734,3.655c3.938-1.103,5.229,2.431,0.102,3.95    c-7.617,2.257-6.99,1.824,0.325,5.22c0.688,0.32,3.134,1.028,2,3.171c-0.418,0.789-1.213,1.122-2.153,0.723    c-7.318-3.103-9.029-4.704-7.874-1.794C256.008,109.688,255.988,109.698,255.969,109.708z"/>
		<path style="fill:#FD8A02;" d="M416.31,152.419c2.82,1.068,5.277,1.873,6.791,3.228c1.501,1.345,0.23,3.802-1.58,3.423    c-2.959-0.618-7.137-3.226-7.675-2.661c-0.53,0.558,0.186,1.305,0.475,1.926c1.609,3.456,2.876,5.43,3.519,7.883    c0.49,1.862-2.408,2.964-3.46,1.655c-1.015-1.262-1.598-2.931-5.255-10.253c-1.21-2.421-2.28,0.362-4.097,3.394    c-1.031,1.721-3.03,3.53-4.564,2.251c-1.268-1.059-0.464-2.461,0.342-3.899c4.268-7.614,5.019-6.41-5.448-4.523    c-1.922,0.346-4.317,0.606-4.546-1.395c-0.24-2.095,2.289-2.306,6.525-3.285c0.582-0.135,1.216-0.08,1.78-0.258    c1.247-0.394,2.628-0.314,3.77-1.067c-0.492-1.534-2.121-1.693-3.156-2.574c-1.659-1.412-3.567-1.527-4.135-3.772    c-0.221-0.874,0.349-1.768,1.233-1.821c4.31-0.26,8.013,5.321,7.949,1.261c-0.099-6.244-0.711-10.172,1.824-10.182    c1.934-0.009,2.083,2.197,2.235,4.308c0.673,9.394-0.439,10,5.128,0.944c2.372-3.86,6.333-2.122,3.15,3.233    c-4.641,7.811-4.436,6.948,4.323,4.125c0.569-0.184,1.127-0.435,1.711-0.537c2.332-0.408,3.645,3.035,1.181,3.921    c-8.518,3.066-11.236,3.052-7.994,4.605C416.328,152.373,416.319,152.396,416.31,152.419z"/>
	</g>
</g>















</svg>
