<svg id="Layer_1" enable-background="new 0 0 512 512" height="512" viewBox="0 0 512 512" width="512" xmlns="http://www.w3.org/2000/svg" xmlns:xlink="http://www.w3.org/1999/xlink"><linearGradient id="SVGID_1_" gradientUnits="userSpaceOnUse" x1="0" x2="512" y1="256" y2="256"><stop offset="0" stop-color="#87f1fc"/><stop offset=".2557" stop-color="#7fd4fb"/><stop offset=".5295" stop-color="#78bcfb"/><stop offset=".7844" stop-color="#74aefa"/><stop offset="1" stop-color="#73a9fa"/></linearGradient><path d="m353 139c0 11.046-8.954 20-20 20-26.53-1.054-26.522-38.951 0-40 11.046 0 20 8.954 20 20zm-20 58c-11.046 0-20 8.954-20 20 1.053 26.53 38.951 26.522 40 0 0-11.046-8.954-20-20-20zm0 156c-11.046 0-20 8.954-20 20 1.053 26.53 38.951 26.522 40 0 0-11.046-8.954-20-20-20zm-153-78c-11.046 0-20 8.954-20 20 1.053 26.53 38.951 26.522 40 0 0-11.046-8.954-20-20-20zm-140 111v-260c0-22.056 17.944-40 40-40h272c22.056 0 40 17.944 40 40v240c1.056 26.536 38.953 26.516 40 0v-240c0-44.112-35.888-80-80-80h-272c-44.112 0-80 35.888-80 80v260c0 20.962 8.05 40.776 22.668 55.795 7.71 7.921 20.372 8.08 28.282.382 7.916-7.704 8.086-20.366.382-28.282-7.308-7.507-11.332-17.415-11.332-27.895zm293-111c-11.046 0-20 8.954-20 20 1.053 26.53 38.951 26.522 40 0 0-11.046-8.954-20-20-20zm156.131-205.001c-7.733-7.887-20.395-8.013-28.283-.281s-8.014 20.396-.281 28.283c7.372 7.52 11.433 17.465 11.433 27.999v160c1.056 26.536 38.953 26.516 40 0v-160c0-21.069-8.122-40.957-22.869-56.001zm2.869 296.001c-11.046 0-20 8.954-20 20 0 22.056-17.944 40-40 40h-272c-22.056 0-40-17.944-40-40v-240c-1.056-26.536-38.953-26.516-40 0v240c0 44.112 35.888 80 80 80h272c44.112 0 80-35.888 80-80 0-11.046-8.954-20-20-20zm-312-247c-11.046 0-20 8.954-20 20 1.053 26.53 38.951 26.522 40 0 0-11.046-8.954-20-20-20zm0 78c-11.046 0-20 8.954-20 20 1.053 26.53 38.951 26.522 40 0 0-11.046-8.954-20-20-20zm0 156c-11.046 0-20 8.954-20 20 1.053 26.53 38.951 26.522 40 0 0-11.046-8.954-20-20-20z" fill="url(#SVGID_1_)"/></svg>