<svg width="505" height="599" viewBox="0 0 505 599" fill="none" xmlns="http://www.w3.org/2000/svg">
<mask id="path-1-inside-1_606_6447" fill="white">
<path d="M502.661 326.403C487.369 305.72 467.304 289.081 444.193 277.918L241.238 159.504C237.945 157.055 234.021 155.61 229.933 155.343C225.845 155.075 221.767 155.995 218.185 157.993C217.851 158.189 217.517 158.385 217.197 158.594C214.222 160.238 211.757 162.675 210.075 165.637C208.392 168.6 207.557 171.972 207.661 175.381C207.512 168.678 207.796 161.973 208.51 155.307C210.991 132.856 218.209 111.195 229.684 91.7701C251.106 55.7411 285.868 29.7143 326.352 19.3923C338.965 16.1731 351.926 14.5333 364.941 14.5102C379.198 14.7237 393.379 16.6587 407.177 20.2736C413.654 22.0851 420.011 24.3091 426.207 26.9322C426.248 26.9423 426.291 26.9423 426.332 26.9322C430.982 29.1005 438.611 32.7795 447.604 38.0113C467.73 49.8036 486.35 64.0185 503.051 80.3413"/>
<path d="M234.292 6.20091C296.849 -7.78973 362.222 -1.28444 420.833 24.764C398.275 16.2673 374.076 13.0877 350.102 15.4703C326.128 17.8529 303.017 25.734 282.552 38.5065C262.087 51.279 244.813 68.6019 232.06 89.1406C219.308 109.679 211.417 132.886 208.997 156.972C208.06 166.269 207.935 175.63 208.621 184.949C208.287 263.538 207.949 342.127 207.605 420.716C207.132 424.804 207.842 428.943 209.649 432.638C211.456 436.332 214.284 439.424 217.795 441.545C218.129 441.741 218.464 441.936 218.812 442.104C221.703 443.891 225.03 444.837 228.424 444.837C231.818 444.837 235.146 443.891 238.037 442.104C232.328 445.577 226.398 448.671 220.287 451.365C184.772 466.892 144.81 468.738 108.027 456.55C71.2434 444.361 40.2127 418.992 20.8546 385.282C13.9296 372.755 8.53119 359.435 4.77584 345.61C3.10372 339.068 1.85746 332.423 1.04499 325.718C1.04499 325.718 1.04499 325.634 1.04499 325.578C0.585599 320.444 -0.0269258 311.967 0.000916214 301.531C0.18189 204.645 54.098 95.8968 150.348 39.2004C176.487 23.9544 204.797 12.8253 234.292 6.20091Z"/>
<path d="M505 511.531C504.318 512.482 503.608 513.475 502.842 514.51L505 511.531Z"/>
<path d="M502.842 514.468C497.869 521.309 492.367 527.745 486.388 533.717C481.571 538.44 476.456 542.847 471.074 546.908L470.963 546.992C466.787 549.958 459.826 554.728 450.764 559.932C367.154 608.193 246.5 615.607 149.527 560.239C123.339 545.067 99.6166 525.956 79.1837 503.571C35.8607 456.112 8.7953 395.962 1.94987 331.929C5.9014 355.81 15.256 378.461 29.2929 398.137C43.3299 417.812 61.6745 433.987 82.9133 445.415C104.152 456.843 127.718 463.219 151.796 464.051C175.874 464.884 199.82 460.151 221.791 450.218C230.25 446.391 238.36 441.827 246.027 436.579L449.761 319.619C453.534 317.991 456.758 315.301 459.043 311.873C461.328 308.445 462.576 304.426 462.638 300.3C462.638 299.909 462.638 299.517 462.638 299.139C462.703 295.873 461.916 292.647 460.355 289.781C458.647 286.668 456.08 284.118 452.963 282.437C458.813 285.679 464.44 289.31 469.808 293.306C482.565 302.741 493.829 314.06 503.218 326.879"/>
<path d="M449.761 319.619L247.029 436.089C246.445 436.439 245.568 436.97 244.496 437.642C237.897 441.755 236.436 443.237 233.275 444.147C231.563 444.622 229.788 444.825 228.013 444.748C222.663 444.474 217.604 442.216 213.814 438.411C210.796 435.378 208.708 431.537 207.8 427.346C207.56 425.82 207.458 424.275 207.494 422.73C207.494 422.002 207.494 421.331 207.619 420.66C207.907 341.987 208.194 263.319 208.482 184.655L208.232 174.15C208.232 173.842 208.162 173.45 208.162 172.975C208.149 172.084 208.223 171.193 208.385 170.317C208.641 169.089 209.078 167.906 209.679 166.806C210.608 164.874 211.85 163.11 213.355 161.588C214.642 160.338 216.088 159.266 217.656 158.398C221 156.323 224.863 155.245 228.793 155.293C231.661 155.289 234.5 155.86 237.146 156.972C238.693 157.629 240.152 158.48 241.489 159.504L444.736 278.086C447.628 279.334 450.42 280.802 453.089 282.479C454.413 283.232 455.658 284.117 456.805 285.123C458.905 287.057 460.534 289.45 461.566 292.117C462.36 294.271 462.77 296.549 462.777 298.846C462.858 301.088 462.619 303.33 462.068 305.504C460.911 309.686 458.547 313.429 455.274 316.262C453.615 317.653 451.756 318.785 449.761 319.619Z"/>
</mask>
<path d="M444.193 277.918L443.185 279.646L443.253 279.685L443.323 279.719L444.193 277.918ZM241.238 159.504L240.045 161.109L240.134 161.175L240.23 161.231L241.238 159.504ZM218.185 157.993L217.211 156.246L217.192 156.257L217.174 156.267L218.185 157.993ZM217.197 158.594L218.164 160.345L218.23 160.308L218.293 160.267L217.197 158.594ZM207.661 175.381L205.662 175.442L209.66 175.337L207.661 175.381ZM208.51 155.307L206.522 155.087L206.521 155.094L208.51 155.307ZM229.684 91.7701L227.965 90.7479L227.962 90.7528L229.684 91.7701ZM326.352 19.3923L326.846 21.3303L326.846 21.3302L326.352 19.3923ZM364.941 14.5102L364.971 12.5104L364.954 12.5102L364.937 12.5102L364.941 14.5102ZM407.177 20.2736L407.716 18.3475L407.7 18.343L407.684 18.3389L407.177 20.2736ZM426.207 26.9322L425.427 28.774L425.575 28.8366L425.731 28.8748L426.207 26.9322ZM426.332 26.9322L427.178 25.1196L426.54 24.8222L425.856 24.9897L426.332 26.9322ZM447.604 38.0113L448.615 36.2857L448.609 36.2826L447.604 38.0113ZM234.292 6.20091L233.855 4.24912L233.854 4.24952L234.292 6.20091ZM420.833 24.764L420.129 26.6356L421.646 22.9363L420.833 24.764ZM208.997 156.972L210.987 157.172L210.987 157.172L208.997 156.972ZM208.621 184.949L210.621 184.958L210.622 184.88L210.616 184.802L208.621 184.949ZM207.605 420.716L209.592 420.945L209.605 420.835L209.605 420.724L207.605 420.716ZM217.795 441.545L216.761 443.257L216.773 443.264L216.784 443.27L217.795 441.545ZM218.812 442.104L219.863 440.403L219.774 440.348L219.68 440.303L218.812 442.104ZM238.037 442.104L239.088 443.806L236.997 440.396L238.037 442.104ZM220.287 451.365L221.088 453.197L221.094 453.195L220.287 451.365ZM20.8546 385.282L19.1042 386.25L19.1121 386.264L19.1202 386.278L20.8546 385.282ZM4.77584 345.61L2.83813 346.105L2.84185 346.12L2.84578 346.134L4.77584 345.61ZM1.04499 325.718V323.718H-1.21198L-0.940484 325.959L1.04499 325.718ZM1.04499 325.578H3.04499V325.489L3.03703 325.4L1.04499 325.578ZM0.000916214 301.531L2.00091 301.537L2.00091 301.535L0.000916214 301.531ZM150.348 39.2004L149.34 37.4727L149.333 37.4771L150.348 39.2004ZM486.388 533.717L487.788 535.145L487.794 535.138L487.801 535.132L486.388 533.717ZM471.074 546.908L472.278 548.505L472.279 548.505L471.074 546.908ZM470.963 546.992L472.121 548.623L472.144 548.606L472.167 548.589L470.963 546.992ZM450.764 559.932L449.768 558.197L449.764 558.199L450.764 559.932ZM149.527 560.239L148.524 561.97L148.535 561.976L149.527 560.239ZM79.1837 503.571L80.6609 502.223L80.6608 502.223L79.1837 503.571ZM1.94987 331.929L3.92304 331.602L-0.0387989 332.142L1.94987 331.929ZM221.791 450.218L222.615 452.04L222.615 452.04L221.791 450.218ZM246.027 436.579L245.031 434.844L244.963 434.884L244.897 434.928L246.027 436.579ZM449.761 319.619L448.969 317.782L448.864 317.828L448.766 317.884L449.761 319.619ZM462.638 300.3L464.638 300.33L464.638 300.315V300.3H462.638ZM462.638 299.139L460.639 299.1L460.638 299.12V299.139H462.638ZM460.355 289.781L462.112 288.824L462.108 288.818L460.355 289.781ZM452.963 282.437L453.913 280.677L451.994 284.186L452.963 282.437ZM469.808 293.306L468.613 294.91L468.618 294.914L469.808 293.306ZM247.029 436.089L246.033 434.355L246.018 434.364L246.003 434.373L247.029 436.089ZM244.496 437.642L245.554 439.339L245.558 439.337L244.496 437.642ZM233.275 444.147L233.811 446.074L233.82 446.071L233.829 446.069L233.275 444.147ZM228.013 444.748L227.911 446.746L227.919 446.746L227.927 446.746L228.013 444.748ZM213.814 438.411L212.396 439.822L212.397 439.823L213.814 438.411ZM207.8 427.346L205.824 427.656L205.833 427.713L205.845 427.77L207.8 427.346ZM207.494 422.73L209.493 422.776L209.494 422.753V422.73H207.494ZM207.619 420.66L209.585 421.026L209.618 420.848L209.619 420.667L207.619 420.66ZM208.482 184.655L210.482 184.663L210.482 184.635L210.482 184.608L208.482 184.655ZM208.232 174.15H206.232V174.174L206.232 174.198L208.232 174.15ZM208.162 172.975H210.162V172.96L210.162 172.945L208.162 172.975ZM208.385 170.317L206.427 169.908L206.422 169.931L206.418 169.955L208.385 170.317ZM209.679 166.806L211.434 167.766L211.459 167.719L211.482 167.672L209.679 166.806ZM213.355 161.588L211.961 160.153L211.947 160.167L211.932 160.182L213.355 161.588ZM217.656 158.398L218.624 160.149L218.668 160.124L218.711 160.098L217.656 158.398ZM228.793 155.293L228.769 157.293L228.782 157.293L228.796 157.293L228.793 155.293ZM237.146 156.972L237.928 155.131L237.921 155.128L237.146 156.972ZM241.489 159.504L240.273 161.091L240.373 161.168L240.481 161.231L241.489 159.504ZM444.736 278.086L443.728 279.814L443.833 279.875L443.944 279.923L444.736 278.086ZM453.089 282.479L452.024 284.172L452.062 284.196L452.1 284.218L453.089 282.479ZM456.805 285.123L458.16 283.652L458.142 283.635L458.124 283.618L456.805 285.123ZM461.566 292.117L463.443 291.426L463.437 291.41L463.431 291.395L461.566 292.117ZM462.777 298.846L460.777 298.852L460.778 298.885L460.779 298.917L462.777 298.846ZM462.068 305.504L463.995 306.038L464.001 306.017L464.006 305.996L462.068 305.504ZM455.274 316.262L456.559 317.794L456.571 317.784L456.583 317.774L455.274 316.262ZM504.269 325.214C488.785 304.271 468.467 287.422 445.063 276.117L443.323 279.719C466.141 290.741 485.953 307.169 501.053 327.592L504.269 325.214ZM445.201 276.191L242.246 157.776L240.23 161.231L443.185 279.646L445.201 276.191ZM242.432 157.899C238.83 155.221 234.537 153.64 230.064 153.347L229.802 157.338C233.505 157.581 237.061 158.889 240.045 161.109L242.432 157.899ZM230.064 153.347C225.591 153.054 221.129 154.061 217.211 156.246L219.16 159.739C222.405 157.929 226.099 157.096 229.802 157.338L230.064 153.347ZM217.174 156.267C216.847 156.459 216.47 156.68 216.1 156.922L218.293 160.267C218.564 160.089 218.855 159.919 219.197 159.718L217.174 156.267ZM216.23 156.844C212.932 158.666 210.2 161.367 208.336 164.649L211.814 166.625C213.315 163.982 215.513 161.809 218.164 160.345L216.23 156.844ZM208.336 164.649C206.471 167.931 205.546 171.666 205.662 175.442L209.66 175.32C209.567 172.277 210.312 169.268 211.814 166.625L208.336 164.649ZM209.66 175.337C209.514 168.72 209.794 162.1 210.499 155.52L206.521 155.094C205.798 161.845 205.511 168.637 205.661 175.425L209.66 175.337ZM210.498 155.527C212.947 133.357 220.075 111.968 231.406 92.7873L227.962 90.7528C216.343 110.422 209.034 132.355 206.522 155.087L210.498 155.527ZM231.403 92.7922C252.555 57.2171 286.877 31.5209 326.846 21.3303L325.857 17.4543C284.858 27.9077 249.657 54.2652 227.965 90.7479L231.403 92.7922ZM326.846 21.3302C339.299 18.1519 352.096 16.533 364.944 16.5102L364.937 12.5102C351.757 12.5336 338.631 14.1943 325.857 17.4544L326.846 21.3302ZM364.911 16.51C379.007 16.7211 393.028 18.6342 406.67 22.2083L407.684 18.3389C393.73 14.6832 379.389 12.7263 364.971 12.5104L364.911 16.51ZM406.638 22.1997C413.034 23.9882 419.309 26.1841 425.427 28.774L426.987 25.0905C420.712 22.4342 414.275 20.1819 407.716 18.3475L406.638 22.1997ZM425.731 28.8748C426.085 28.9615 426.454 28.9615 426.808 28.8748L425.856 24.9897C426.128 24.9232 426.411 24.9232 426.683 24.9897L425.731 28.8748ZM425.487 28.7448C430.107 30.8994 437.677 34.55 446.598 39.7401L448.609 36.2826C439.545 31.009 431.857 27.3016 427.178 25.1196L425.487 28.7448ZM446.593 39.7369C466.578 51.4468 485.068 65.5625 501.653 81.7716L504.449 78.9109C487.632 62.4745 468.882 48.1604 448.615 36.2857L446.593 39.7369ZM234.728 8.15269C296.867 -5.74423 361.801 0.717369 420.021 26.5916L421.646 22.9363C362.642 -3.28625 296.832 -9.83523 233.855 4.24912L234.728 8.15269ZM421.538 22.8923C398.692 14.2873 374.185 11.0671 349.904 13.4801L350.3 17.4605C373.968 15.1083 397.857 18.2472 420.129 26.6356L421.538 22.8923ZM349.904 13.4801C325.624 15.8931 302.219 23.8749 281.493 36.8098L283.611 40.2032C303.816 27.5932 326.632 19.8127 350.3 17.4605L349.904 13.4801ZM281.493 36.8098C260.768 49.7447 243.275 67.2874 230.361 88.0856L233.759 90.1956C246.351 69.9163 263.406 52.8132 283.611 40.2032L281.493 36.8098ZM230.361 88.0856C217.447 108.884 209.458 132.383 207.007 156.772L210.987 157.172C213.377 133.389 221.168 110.475 233.759 90.1956L230.361 88.0856ZM207.007 156.771C206.059 166.184 205.932 175.661 206.627 185.096L210.616 184.802C209.938 175.599 210.062 166.354 210.987 157.172L207.007 156.771ZM206.621 184.941C206.287 263.529 205.949 342.118 205.605 420.707L209.605 420.724C209.949 342.135 210.287 263.547 210.621 184.958L206.621 184.941ZM205.618 420.486C205.101 424.954 205.877 429.478 207.852 433.516L211.445 431.759C209.806 428.409 209.163 424.654 209.592 420.945L205.618 420.486ZM207.852 433.516C209.828 437.555 212.921 440.937 216.761 443.257L218.829 439.833C215.648 437.911 213.084 435.109 211.445 431.759L207.852 433.516ZM216.784 443.27C217.106 443.459 217.51 443.697 217.943 443.906L219.68 440.303C219.417 440.176 219.153 440.022 218.807 439.819L216.784 443.27ZM217.76 443.806C220.967 445.787 224.658 446.837 228.424 446.837V442.837C225.402 442.837 222.439 441.995 219.863 440.403L217.76 443.806ZM228.424 446.837C232.19 446.837 235.882 445.787 239.088 443.806L236.985 440.403C234.41 441.995 231.446 442.837 228.424 442.837V446.837ZM236.997 440.396C231.363 443.823 225.511 446.876 219.48 449.535L221.094 453.195C227.285 450.465 233.292 447.331 239.076 443.813L236.997 440.396ZM219.486 449.532C184.423 464.862 144.971 466.684 108.656 454.651L107.398 458.448C144.65 470.792 185.121 468.923 221.088 453.197L219.486 449.532ZM108.656 454.651C72.341 442.618 41.703 417.571 22.589 384.286L19.1202 386.278C38.7224 420.413 70.1459 446.105 107.398 458.448L108.656 454.651ZM22.605 384.314C15.7575 371.927 10.4193 358.756 6.7059 345.086L2.84578 346.134C6.64304 360.113 12.1018 373.582 19.1042 386.25L22.605 384.314ZM6.71355 345.115C5.06284 338.656 3.83254 332.097 3.03047 325.477L-0.940484 325.959C-0.117619 332.749 1.14459 339.479 2.83813 346.105L6.71355 345.115ZM1.04499 325.718C3.04499 325.718 3.04499 325.718 3.04499 325.718V325.718V325.718C3.04499 325.718 3.04499 325.718 3.04499 325.718C3.04499 325.718 3.04499 325.717 3.04499 325.717C3.04499 325.716 3.04499 325.715 3.04499 325.714C3.04499 325.713 3.04499 325.707 3.04499 325.704C3.04499 325.696 3.04499 325.682 3.04499 325.669C3.04499 325.638 3.04499 325.609 3.04499 325.578H-0.955007C-0.955007 325.605 -0.955007 325.642 -0.955007 325.669C-0.955007 325.682 -0.955007 325.696 -0.955007 325.704C-0.955007 325.708 -0.955007 325.712 -0.955007 325.714C-0.955007 325.715 -0.955007 325.716 -0.955007 325.717C-0.955007 325.717 -0.955007 325.718 -0.955007 325.718C-0.955007 325.718 -0.955007 325.718 -0.955007 325.718V325.718C-0.955007 325.718 -0.955007 325.718 -0.955007 325.718C-0.955007 325.718 -0.955007 325.718 1.04499 325.718ZM3.03703 325.4C2.58114 320.305 1.97328 311.892 2.00091 301.537L-1.99908 301.526C-2.02713 312.042 -1.40995 320.583 -0.947047 325.756L3.03703 325.4ZM2.00091 301.535C2.18066 205.303 55.7665 97.2352 151.363 40.9236L149.333 37.4771C52.4296 94.5584 -1.81689 203.987 -1.99908 301.528L2.00091 301.535ZM151.356 40.928C177.317 25.7853 205.435 14.7317 234.73 8.15229L233.854 4.24952C204.158 10.9189 175.656 22.1236 149.34 37.4728L151.356 40.928ZM503.375 510.365C502.69 511.32 501.989 512.3 501.234 513.321L504.45 515.699C505.227 514.65 505.946 513.643 506.625 512.696L503.375 510.365ZM501.225 513.292C496.313 520.048 490.88 526.404 484.974 532.301L487.801 535.132C493.855 529.086 499.425 522.57 504.46 515.644L501.225 513.292ZM484.987 532.289C480.232 536.952 475.183 541.302 469.87 545.312L472.279 548.505C477.73 544.391 482.91 539.929 487.788 535.145L484.987 532.289ZM469.871 545.311L469.76 545.395L472.167 548.589L472.278 548.505L469.871 545.311ZM469.805 545.361C465.661 548.304 458.757 553.036 449.768 558.197L451.76 561.666C460.896 556.42 467.912 551.611 472.121 548.623L469.805 545.361ZM449.764 558.199C366.727 606.13 246.833 613.493 150.518 558.503L148.535 561.976C246.168 617.72 367.581 610.256 451.763 561.664L449.764 558.199ZM150.529 558.509C124.519 543.439 100.956 524.457 80.6609 502.223L77.7065 504.919C98.277 527.455 122.159 546.695 148.524 561.97L150.529 558.509ZM80.6608 502.223C37.6256 455.078 10.7388 395.327 3.93854 331.716L-0.0387989 332.142C6.85178 396.597 34.0959 457.145 77.7066 504.919L80.6608 502.223ZM-0.0233012 332.255C3.97796 356.437 13.4504 379.374 27.6648 399.298L30.9211 396.975C17.0616 377.549 7.82484 355.183 3.92304 331.602L-0.0233012 332.255ZM27.6648 399.298C41.8793 419.223 60.4565 435.603 81.9657 447.176L83.861 443.654C62.8925 432.371 44.7805 416.402 30.9211 396.975L27.6648 399.298ZM81.9657 447.176C103.475 458.75 127.342 465.207 151.727 466.05L151.865 462.053C128.095 461.231 104.829 454.936 83.861 443.654L81.9657 447.176ZM151.727 466.05C176.112 466.894 200.364 462.1 222.615 452.04L220.967 448.395C199.276 458.202 175.635 462.875 151.865 462.053L151.727 466.05ZM222.615 452.04C231.181 448.165 239.393 443.544 247.157 438.229L244.897 434.928C237.327 440.111 229.319 444.617 220.966 448.396L222.615 452.04ZM247.023 438.313L450.757 321.353L448.766 317.884L245.031 434.844L247.023 438.313ZM450.554 321.455C454.682 319.674 458.208 316.731 460.707 312.982L457.378 310.764C455.307 313.871 452.386 316.308 448.969 317.782L450.554 321.455ZM460.707 312.982C463.205 309.234 464.57 304.84 464.638 300.33L460.639 300.27C460.582 304.012 459.45 307.656 457.378 310.764L460.707 312.982ZM464.638 300.3C464.638 299.952 464.638 299.474 464.638 299.139H460.638C460.638 299.474 460.638 299.952 460.638 300.3H464.638ZM464.638 299.179C464.71 295.566 463.839 291.996 462.112 288.824L458.599 290.737C459.993 293.298 460.697 296.181 460.639 299.1L464.638 299.179ZM462.108 288.818C460.215 285.369 457.369 282.541 453.913 280.677L452.014 284.197C454.79 285.695 457.078 287.968 458.602 290.743L462.108 288.818ZM451.994 284.186C457.765 287.385 463.317 290.968 468.613 294.91L471.002 291.702C465.563 287.653 459.86 283.973 453.933 280.688L451.994 284.186ZM468.618 294.914C481.213 304.229 492.334 315.404 501.605 328.061L504.832 325.697C495.323 312.716 483.916 301.253 470.997 291.698L468.618 294.914ZM246.003 434.373C245.408 434.728 244.519 435.267 243.434 435.947L245.558 439.337C246.616 438.674 247.481 438.149 248.056 437.806L246.003 434.373ZM243.438 435.945C241.77 436.984 240.427 437.857 239.306 438.594C238.174 439.337 237.302 439.917 236.53 440.403C235.03 441.348 234.053 441.842 232.722 442.225L233.829 446.069C235.658 445.542 236.992 444.84 238.662 443.788C239.476 443.275 240.404 442.657 241.501 441.937C242.608 441.21 243.922 440.356 245.554 439.339L243.438 435.945ZM232.74 442.22C231.23 442.639 229.665 442.818 228.1 442.75L227.927 446.746C229.911 446.832 231.896 446.605 233.811 446.074L232.74 442.22ZM228.116 442.751C223.262 442.502 218.671 440.454 215.231 437L212.397 439.823C216.536 443.979 222.064 446.446 227.911 446.746L228.116 442.751ZM215.232 437.001C212.484 434.239 210.582 430.741 209.755 426.923L205.845 427.77C206.834 432.334 209.108 436.517 212.396 439.822L215.232 437.001ZM209.776 427.036C209.555 425.628 209.46 424.202 209.493 422.776L205.494 422.684C205.456 424.348 205.566 426.012 205.824 427.656L209.776 427.036ZM209.494 422.73C209.494 421.969 209.5 421.485 209.585 421.026L205.653 420.293C205.488 421.177 205.494 422.035 205.494 422.73H209.494ZM209.619 420.667C209.907 341.994 210.194 263.326 210.482 184.663L206.482 184.648C206.194 263.311 205.907 341.98 205.619 420.652L209.619 420.667ZM210.482 184.608L210.231 174.102L206.232 174.198L206.483 184.703L210.482 184.608ZM210.232 174.15C210.232 173.884 210.202 173.595 210.189 173.448C210.172 173.262 210.162 173.119 210.162 172.975H206.162C206.162 173.306 206.186 173.597 206.205 173.802C206.226 174.047 206.232 174.108 206.232 174.15H210.232ZM210.162 172.945C210.151 172.185 210.214 171.426 210.352 170.679L206.418 169.955C206.233 170.961 206.147 171.982 206.162 173.004L210.162 172.945ZM210.342 170.726C210.559 169.69 210.927 168.693 211.434 167.766L207.925 165.846C207.229 167.118 206.724 168.487 206.427 169.908L210.342 170.726ZM211.482 167.672C212.315 165.939 213.428 164.358 214.777 162.994L211.932 160.182C210.271 161.862 208.901 163.808 207.877 165.94L211.482 167.672ZM214.748 163.023C215.908 161.897 217.212 160.93 218.624 160.149L216.688 156.648C214.965 157.602 213.376 158.78 211.961 160.153L214.748 163.023ZM218.711 160.098C221.732 158.222 225.22 157.25 228.769 157.293L228.817 153.293C224.505 153.241 220.268 154.423 216.601 156.699L218.711 160.098ZM228.796 157.293C231.396 157.289 233.971 157.807 236.37 158.815L237.921 155.128C235.029 153.912 231.925 153.289 228.79 153.293L228.796 157.293ZM236.363 158.812C237.756 159.404 239.07 160.17 240.273 161.091L242.705 157.916C241.235 156.79 239.63 155.854 237.928 155.131L236.363 158.812ZM240.481 161.231L443.728 279.814L445.744 276.359L242.497 157.776L240.481 161.231ZM443.944 279.923C446.741 281.129 449.443 282.55 452.024 284.172L454.152 280.785C451.397 279.054 448.514 277.538 445.528 276.25L443.944 279.923ZM452.1 284.218C453.307 284.903 454.442 285.711 455.487 286.627L458.124 283.618C456.875 282.524 455.519 281.56 454.077 280.74L452.1 284.218ZM455.45 286.594C457.324 288.32 458.779 290.457 459.701 292.839L463.431 291.395C462.289 288.443 460.485 285.793 458.16 283.652L455.45 286.594ZM459.69 292.808C460.402 294.743 460.77 296.789 460.777 298.852L464.777 298.839C464.769 296.308 464.317 293.799 463.443 291.426L459.69 292.808ZM460.779 298.917C460.852 300.97 460.634 303.022 460.129 305.013L464.006 305.996C464.604 303.638 464.863 301.206 464.776 298.774L460.779 298.917ZM460.14 304.971C459.088 308.773 456.939 312.176 453.965 314.749L456.583 317.774C460.155 314.682 462.733 310.598 463.995 306.038L460.14 304.971ZM453.989 314.729C452.484 315.991 450.799 317.017 448.99 317.774L450.533 321.464C452.714 320.552 454.746 319.315 456.559 317.794L453.989 314.729ZM448.765 317.885L246.033 434.355L248.026 437.823L450.758 321.353L448.765 317.885Z" fill="#262626" mask="url(#path-1-inside-1_606_6447)"/>
</svg>
