<?xml version="1.0" encoding="UTF-8"?>
<!-- Generator: Adobe Illustrator 25.3.1, SVG Export Plug-In . SVG Version: 6.00 Build 0)  -->
<svg xmlns="http://www.w3.org/2000/svg" xmlns:xlink="http://www.w3.org/1999/xlink" version="1.1" id="Capa_1" x="0px" y="0px" viewBox="0 0 512 512" style="enable-background:new 0 0 512 512;" xml:space="preserve" width="512" height="512">
<g>
	<g>
		<polygon style="fill:#45D895;" points="37.618,323.326 198.083,288.929 184.9,111.798 0.799,135.892   "/>
		<path style="fill:#FFFFFF;" d="M40.532,317.586l-0.169-0.913L7.151,139.655l174.95-21.754l12.917,167.25L40.532,317.586z     M9.295,141.22l32.681,174.208L193.082,283.7l-12.646-163.758L9.295,141.22z"/>
		<g>
			<polygon style="fill:#FFFFFF;" points="51.449,301.238 46.517,298.911 71.936,245.048 88.981,264.633 112.485,203.765      129.318,230.375 162.357,145.807 167.439,147.793 130.474,242.405 113.67,215.84 90.806,275.042 73.304,254.928    "/>
			<polygon style="fill:#FFFFFF;" points="174.285,155.893 151.26,146.802 174.285,130.108    "/>
		</g>
		<g>
			
				<rect x="30.498" y="161.824" transform="matrix(0.9846 -0.1746 0.1746 0.9846 -30.9318 8.5686)" style="fill:#FF6700;" width="5.454" height="36.458"/>
			
				<rect x="41.331" y="141.203" transform="matrix(0.9836 -0.1801 0.1801 0.9836 -29.6386 10.6929)" style="fill:#FF486B;" width="5.456" height="54.685"/>
			
				<rect x="54.438" y="167.286" transform="matrix(0.9848 -0.1735 0.1735 0.9848 -30.4275 12.653)" style="fill:#0090BC;" width="5.454" height="26.191"/>
			
				<rect x="63.833" y="143.974" transform="matrix(0.9834 -0.1814 0.1814 0.9834 -29.4046 14.8625)" style="fill:#001B42;" width="5.454" height="48.459"/>
		</g>
		<g>
			<path style="fill:#FF486B;" d="M189.136,249.637c0,12.714-9.803,23.148-22.257,24.148l-1.983-24.148     c0,0-11.945,7.149-20.854,12.331c-2.164-3.616-3.384-7.818-3.384-12.331c0-13.379,10.855-24.235,24.238-24.235     S189.136,236.258,189.136,249.637z"/>
			<path style="fill:#FFFFFF;" d="M164.896,278.551c-0.654,0.074-1.307,0.093-1.98,0.093c-8.874,0-16.639-4.783-20.858-11.912     c8.913-5.181,20.858-12.329,20.858-12.329L164.896,278.551z"/>
		</g>
		<g>
			<path style="fill:#FFFFFF;" d="M104.66,190.206c6.169,5.744,17.849,2.897,24.669-0.114c6.287-2.777,16.732-12.08,11.133-19.548     c-5.044-6.727-18.282-4.682-25.457-5.771c-15.188-2.305-2.561-26.638,7.945-15.552c2.073,2.184,12.768-2.003,10.9-3.973     c-6.174-6.512-18.39-4.226-25.601-0.754c-7.012,3.374-16.186,13.035-10.267,21.047c4.94,6.69,18.661,4.151,25.806,5.737     c14.23,3.156,1.05,23.594-8.231,14.955C113.282,184.112,102.801,188.475,104.66,190.206L104.66,190.206z"/>
			
				<rect x="114.061" y="134.223" transform="matrix(0.9827 -0.185 0.185 0.9827 -28.667 24.3051)" style="fill:#FFFFFF;" width="3.636" height="63.021"/>
			
				<rect x="119.854" y="134.23" transform="matrix(0.983 -0.1838 0.1838 0.983 -28.3934 25.1914)" style="fill:#FFFFFF;" width="3.633" height="63.007"/>
		</g>
	</g>
	<g>
		<g>
			<g>
				<path style="fill:#FFD8BD;" d="M196.034,402.948l-13.41-22.728c0,0-21.818,6.364-27.272-6.818      c-5.456-13.181,48.182-40.228,60.685-29.547c12.501,10.683-14.775,22.501-14.775,22.501l4.773,33.183L196.034,402.948z"/>
				<path style="fill:#FFD8BD;" d="M196.143,357.668c0,0-33.291-60.911-23.886-68.184c9.402-7.274,31.442,67.048,31.442,67.048      L196.143,357.668z"/>
				<path style="fill:#001B42;" d="M180.005,348.978c0,0.129-0.007,3.868,2.703,5.439c2.76,1.595,8.81,1.921,21.968-5.567      l3.055-1.74l-1.827,3.001c-0.162,0.266-15.95,26.129-48.123,27.554l-1.201-1.661c24.419-1.086,40.101-16.833,45.484-23.67      c-9.367,4.815-16.182,6.035-20.292,3.638c-3.611-2.107-3.638-6.164-3.638-6.336L180.005,348.978z"/>
				
					<rect x="166.788" y="357.979" transform="matrix(0.7146 -0.6995 0.6995 0.7146 -208.7925 222.0211)" style="fill:#001B42;" width="1.819" height="17.827"/>
				<polygon style="fill:#001B42;" points="187.491,367.779 174.301,351.822 175.973,350.987 188.892,366.62     "/>
			</g>
			<polygon style="fill:#FFCF00;" points="189.445,415.224 174.285,389.995 212.626,372.182 216.717,400.449    "/>
			<path style="fill:#001B42;" d="M302.857,393.631c0,0-22.044,52.958-45.683,54.094c-23.637,1.137-40.683-62.96-40.683-62.96     l-38.412,19.547c0,0,31.593,82.732,75.459,74.325c43.867-8.412,56.82-70.233,56.82-70.233L302.857,393.631z"/>
		</g>
		<g>
			<polygon style="fill:#FFCF00;" points="428.319,470.68 410.136,449.089 391.271,454.998 395.472,460.764 395.472,460.764      395.636,473.892 406.563,475.985 406.563,475.985 411.728,483.075    "/>
			<path style="fill:#001B42;" d="M393.092,478.637l-86.975-6.066l-5.455-52.727l-26.668-35.151l65.153-43.032     c0,0,107.278,38.486,133.341,70.003c26.061,31.515-54.547,69.397-54.547,69.397l-21.519-29.095l44.547-20.909l-55.758-50.001     c0,0-23.031,24.846-23.031,42.73C362.18,441.667,398.24,450.453,393.092,478.637z"/>
			<polygon style="fill:#FFFFFF;" points="325.245,421.134 305.539,387.036 317.046,378.133 305.539,372.624 311.191,359.625      313.353,358.319 307.908,371.741 320.489,377.768 307.908,387.5 326.821,420.222    "/>
			<polygon style="fill:#FFFFFF;" points="326.694,428.576 325.374,427.327 362.503,388.191 350.69,376.321 366.787,371.506      366.787,351.897 368.606,352.712 368.606,372.86 354.125,377.192 365.038,388.161    "/>
		</g>
		<g>
			<g>
				<path style="fill:#FF6700;" d="M485.822,133.856C527.19,72.47,473.312-21.169,350.815,4.288      c-122.497,25.454-115.459,91.147-102.966,107.51c12.508,16.365-50.441,34.786-53.64,42.731      c-3.165,7.945,42.056,17.273,42.056,17.273l-22.966,12.275c0,0,9.965,0.271,24.747-1.129l14.358,23.172l153.187,54.094      l64.557-15.79C552.26,203.476,485.822,133.856,485.822,133.856z"/>
				<g style="opacity:0.2;">
					<path style="fill:#FFFFFF;" d="M428.007,141.371c0,0,4.05,3.533,4.109,3.584c-0.15-0.128-4.928,8.637-5.285,9.344       c-3.416,6.762-4.511,14.266-5.097,21.732c-0.633,8.064-0.03,16.368,1.159,24.355c1.225,8.231,3.211,16.346,5.686,24.289       c-1.658-4.005-2.522-7.145-3.623-10.746c-3.49-11.418-5.86-23.211-6.392-35.156c-0.057-1.29-0.094-2.58-0.109-3.871       c-0.07-5.984,0.721-12.047,2.344-17.812c0.84-2.988,1.908-5.913,3.201-8.734c0.642-1.401,1.34-2.777,2.094-4.122       C426.094,144.234,426.86,142.732,428.007,141.371z"/>
					<path style="fill:#FFFFFF;" d="M435.622,159.289c-0.466-0.33-3.351,7.468-3.527,8.156c-3.423,13.361,3.008,27.904,9.834,39.171       c4.431,7.313,10.024,13.55,15.707,19.884c-5.534-6.168-11.86-11.319-16.817-18.114c-9.539-13.075-17.177-29.212-12.468-45.644       c0.229-0.798,1.76-6.609,2.819-6.609C431.171,156.133,435.617,159.285,435.622,159.289z"/>
					<path style="fill:#FFFFFF;" d="M481.273,135.905c0.153-0.307-9.201-4.109-10.062-4.417c-12.841-4.599-26.894-6.046-40.217-2.72       c-1.541,0.385-3.066,0.83-4.571,1.337c2.777-1.224,5.615-2.198,8.515-3.074c6.546-1.976,13.135-2.244,19.912-2.269       c5.165-0.018,10.359,0.546,15.341,1.885c3.188,0.857,13.517,4.419,13.516,4.377       C483.707,131.025,481.342,135.768,481.273,135.905z"/>
					<path style="fill:#FFFFFF;" d="M211.29,153.23c22.841,7.631,49.506,12.008,72.721,3.424       c22.497-8.318,18.548-32.644,10.035-50.137c-4.315-8.866-8.96-17.556-11.989-26.977c-1.428-4.442-2.176-9.075-1.529-13.721       c1.262-9.065,12.08-11.129,19.532-12.015c32.519-3.862,67.528,6.454,97.602,17.602c1.593,0.592,6.383-1.738,4.195-2.552       c-27.717-10.273-55.636-16.916-85.216-18.257c-13.486-0.613-42.147-0.275-41.689,19.477       c0.446,19.204,15.112,34.222,19.422,52.327c1.604,6.738,2.093,13.536,0.133,20.249c-3.11,10.69-16.512,13.736-25.982,14.995       c-17.671,2.356-36.318-1.381-53.044-6.969C213.878,150.141,209.11,152.502,211.29,153.23L211.29,153.23z"/>
					<path style="fill:#FFFFFF;" d="M269.652,167.449c-0.306,0-0.609,0-0.912,0c-1.008,0-5.54,2.043-2.796,2.338       c14.9,1.61,31.343-0.156,41.798-11.993c13.43-15.206,4.326-37.26-3.295-52.752c-4.742-9.638-15.637-24.794,3.549-26.56       c13.019-1.197,26.218-0.655,39.2,0.699c25.799,2.697,50.82,10.746,74.355,21.431c1.224,0.557,6.051-1.373,4.295-2.172       c-22.01-9.992-44.91-17.172-68.83-20.77c-10.982-1.65-22.088-2.182-33.183-2.12c-7.339,0.042-16.814-0.439-23.805,2.506       c-17.686,7.436-1.38,26.486,3.622,38.034c4.502,10.392,7.238,21.693,4.192,32.861c-4.698,17.202-23.312,20.144-38.527,18.5       c-0.933,0.781-1.866,1.558-2.797,2.338c0.303,0,0.605,0,0.912,0C268.976,169.791,273.169,167.449,269.652,167.449       L269.652,167.449z"/>
				</g>
			</g>
			<path style="fill:#FFCF00;" d="M328.086,417.722c0,0,2.258-24.546-2.054-50.217l10.7-9.895l12.302,9.054L328.086,417.722z"/>
			<g>
				<path style="fill:#FFD8BD;" d="M465.82,263.624c-22.508,27.273-83.185,21.148-83.185,21.148l-33.602,81.892l-23.002,0.84      c-3.309-19.674-10.471-40.021-25.454-50.476c-33.93-23.637-90.641-52.349-62.532-134.08c18.71-1.745,45.146-6.145,68.893-17.055      c42.513-19.545,2.968-65.003,34.112-67.493c31.131-2.51,83.86,32.037,83.86,32.037      c-26.821,44.766-19.312,108.405-19.312,108.405c25.221-12.364,57.387-8.093,64.549,5.583      C472.877,249.606,472.003,256.135,465.82,263.624z"/>
				<g>
					<path style="fill:#FF486B;" d="M363.932,282.933c2.597,7.237,0.549,14.588-4.58,16.426c-5.121,1.843-11.38-2.532-13.976-9.765       c-2.596-7.231-0.545-14.586,4.579-16.423C355.078,271.332,361.336,275.701,363.932,282.933z"/>
					<path style="fill:#FF486B;" d="M351.005,261.644c0,5.309-5.479,9.615-12.238,9.615c-6.759,0-12.237-4.306-12.237-9.615       c0-5.314,5.478-9.62,12.237-9.62C345.526,252.024,351.005,256.33,351.005,261.644z"/>
					<path style="fill:#001B42;" d="M308.76,193.278l1.883,51.01c0,0-16.097-6.69-15.678-2.091       c0.416,4.6,13.587,16.094,25.711,6.482v19.649c0,0,27.797,3.136,25.709-25.921c0,0,12.756,12.963,13.8,33.656       c1.046,20.696-12.541,26.759-24.038,20.068c0,0,7.526,8.363,19.547,0.733c14.195-9.011,1.775-50.275-12.021-56.965       c0,0,6.48,28.848-21.114,26.129l-1.257-19.569c0,0-6.687,7.447-18.395,2.012c-11.706-5.436-3.346-8.781,8.782-2.927       C311.689,245.542,314.406,199.341,308.76,193.278z"/>
					<path style="fill:#FFFFFF;" d="M349.568,298.022l-20.686-30.138c8.027-1.505,18.847-6.942,17.508-25.469       c0,0,12.76,12.941,13.796,33.646C360.822,288.69,356.026,295.864,349.568,298.022z"/>
					<polygon style="fill:#001B42;" points="357.417,260.488 344.561,278.363 358.41,263.102      "/>
					<path style="fill:#001B42;" d="M340.223,240.21l1.88,2.206c0,0,2.98-4.295,9.381-2.206       C351.485,240.21,344.718,236.552,340.223,240.21z"/>
				</g>
				<path style="fill:#001B42;" d="M463.548,248.449c0,0-7.273-11.726-28.409-9.608c-21.139,2.12-30.685,12.118-28.183,22.119      c2.498,10.003,33.634,12.692,28.104-4.318l10.079,0.274l-14.32-3.153c0,0,7.044,9.927-4.545,12.881      c-11.592,2.956-25.911-7.957-10.002-20.684C432.185,233.23,463.548,248.449,463.548,248.449z"/>
				<path style="fill:#FFCF00;" d="M418.384,284.219c0,4.773-2.646,8.638-5.907,8.638c-3.266,0-5.912-3.865-5.912-8.638      c0-4.77,2.646-8.635,5.912-8.635C415.739,275.584,418.384,279.449,418.384,284.219z"/>
				<g>
					<path style="fill:#001B42;" d="M272.113,189.136c0,0-2.174,18.171-2.224,22.933c-0.054,5.252,1.347,11.413,5.709,15.005       c8.232,6.779,18.073-1.03,21.992-8.554c4.787-9.191,6.478-19.655,7.553-29.961c-0.51,10.485-1.733,21.147-6.067,30.708       c-2.906,6.412-7.922,12.639-15.477,13.105c-11.479,0.707-17.66-7.817-17.881-19.912c-0.117-6.404,1.063-24.476,1.063-24.476       S272.097,189.133,272.113,189.136z"/>
					
						<rect x="262.402" y="185.557" transform="matrix(0.4331 -0.9014 0.9014 0.4331 -23.806 346.2126)" style="fill:#001B42;" width="1.819" height="12.946"/>
					
						<rect x="262.559" y="193.465" transform="matrix(0.1637 -0.9865 0.9865 0.1637 25.0028 425.4996)" style="fill:#001B42;" width="1.819" height="9.075"/>
				</g>
				<g>
					<path style="fill:#001B42;" d="M322.421,189.136c0,0-0.416,1.655-0.962,4.713c-1.237,6.926-1.95,14.167-1.47,21.202       c0.641,9.398,4.495,20.041,15.664,19.932c13.36-0.131,19.107-18.235,21.518-28.599c1.355-5.824,2.406-11.848,2.753-17.825       c-0.351,6.057-0.82,12.021-1.92,17.999c-2.172,11.811-7.63,30.274-22.322,31.151c-13.091,0.782-18.587-11.158-19.867-22.269       c-0.854-7.415-0.474-14.995,0.485-22.38c0.416-3.202,0.787-5.075,0.787-5.075L322.421,189.136z"/>
					<polygon style="fill:#001B42;" points="359.254,196.384 359.385,194.509 370.646,192.386 370.986,194.172      "/>
					
						<rect x="361.47" y="196.997" transform="matrix(0.0015 -1 1 0.0015 161.108 562.8209)" style="fill:#001B42;" width="1.818" height="7.482"/>
				</g>
				<polygon style="fill:#FF6700;" points="268.358,178.86 305.963,174.227 269.932,185.96     "/>
				<polygon style="fill:#FF6700;" points="324.678,158.604 361.975,172.862 322.71,165.605     "/>
			</g>
		</g>
		<g>
			<path style="fill:#FFD8BD;" d="M416.945,500.452c-13.856,19.094-43.4,13.86-45.675-10.906     c-1.306-14.202,12.331-23.474,24.202-28.782l11.092,15.219c-1.926,1.144-3.257,1.962-3.257,1.962s7.929,6.871,3.438,12.873     L416.945,500.452z"/>
			<path style="fill:#001B42;" d="M396.353,497.468l-0.475-1.753c6.689-1.805,10.461-4.38,11.215-7.651     c1.063-4.631-4.316-9.377-4.371-9.424l1.192-1.371c0.254,0.217,6.255,5.497,4.949,11.196     C407.953,492.443,403.742,495.472,396.353,497.468z"/>
			<polygon style="fill:#001B42;" points="400.685,506.727 399.727,505.182 413.445,496.663 414.744,497.997    "/>
			<polygon style="fill:#001B42;" points="399.657,501.709 398.649,500.198 409.375,493.023 410.728,494.31    "/>
		</g>
	</g>
</g>















</svg>
