<svg id="visual"  width="100%" height="100%" xmlns="http://www.w3.org/2000/svg" xmlns:xlink="http://www.w3.org/1999/xlink" version="1.1"><path d="M0 53L24.2 58.3C48.3 63.7 96.7 74.3 145.2 75.7C193.7 77 242.3 69 290.8 59.7C339.3 50.3 387.7 39.7 436.2 37C484.7 34.3 533.3 39.7 581.8 39.7C630.3 39.7 678.7 34.3 727.2 33C775.7 31.7 824.3 34.3 872.8 43C921.3 51.7 969.7 66.3 1018.2 74.3C1066.7 82.3 1115.3 83.7 1163.8 85C1212.3 86.3 1260.7 87.7 1309.2 81.7C1357.7 75.7 1406.3 62.3 1454.8 56.3C1503.3 50.3 1551.7 51.7 1575.8 52.3L1600 53L1600 0L1575.8 0C1551.7 0 1503.3 0 1454.8 0C1406.3 0 1357.7 0 1309.2 0C1260.7 0 1212.3 0 1163.8 0C1115.3 0 1066.7 0 1018.2 0C969.7 0 921.3 0 872.8 0C824.3 0 775.7 0 727.2 0C678.7 0 630.3 0 581.8 0C533.3 0 484.7 0 436.2 0C387.7 0 339.3 0 290.8 0C242.3 0 193.7 0 145.2 0C96.7 0 48.3 0 24.2 0L0 0Z" fill="#004cbb"></path><path d="M0 145L24.2 145C48.3 145 96.7 145 145.2 142.3C193.7 139.7 242.3 134.3 290.8 125.7C339.3 117 387.7 105 436.2 100.3C484.7 95.7 533.3 98.3 581.8 97.7C630.3 97 678.7 93 727.2 95.7C775.7 98.3 824.3 107.7 872.8 116.3C921.3 125 969.7 133 1018.2 143C1066.7 153 1115.3 165 1163.8 172.3C1212.3 179.7 1260.7 182.3 1309.2 178.3C1357.7 174.3 1406.3 163.7 1454.8 159C1503.3 154.3 1551.7 155.7 1575.8 156.3L1600 157L1600 51L1575.8 50.3C1551.7 49.7 1503.3 48.3 1454.8 54.3C1406.3 60.3 1357.7 73.7 1309.2 79.7C1260.7 85.7 1212.3 84.3 1163.8 83C1115.3 81.7 1066.7 80.3 1018.2 72.3C969.7 64.3 921.3 49.7 872.8 41C824.3 32.3 775.7 29.7 727.2 31C678.7 32.3 630.3 37.7 581.8 37.7C533.3 37.7 484.7 32.3 436.2 35C387.7 37.7 339.3 48.3 290.8 57.7C242.3 67 193.7 75 145.2 73.7C96.7 72.3 48.3 61.7 24.2 56.3L0 51Z" fill="#0059dd"></path><path d="M0 173L24.2 174.3C48.3 175.7 96.7 178.3 145.2 175.7C193.7 173 242.3 165 290.8 155C339.3 145 387.7 133 436.2 130.3C484.7 127.7 533.3 134.3 581.8 133.7C630.3 133 678.7 125 727.2 129.7C775.7 134.3 824.3 151.7 872.8 163.7C921.3 175.7 969.7 182.3 1018.2 187.7C1066.7 193 1115.3 197 1163.8 201C1212.3 205 1260.7 209 1309.2 209C1357.7 209 1406.3 205 1454.8 203.7C1503.3 202.3 1551.7 203.7 1575.8 204.3L1600 205L1600 155L1575.8 154.3C1551.7 153.7 1503.3 152.3 1454.8 157C1406.3 161.7 1357.7 172.3 1309.2 176.3C1260.7 180.3 1212.3 177.7 1163.8 170.3C1115.3 163 1066.7 151 1018.2 141C969.7 131 921.3 123 872.8 114.3C824.3 105.7 775.7 96.3 727.2 93.7C678.7 91 630.3 95 581.8 95.7C533.3 96.3 484.7 93.7 436.2 98.3C387.7 103 339.3 115 290.8 123.7C242.3 132.3 193.7 137.7 145.2 140.3C96.7 143 48.3 143 24.2 143L0 143Z" fill="#0066ff"></path><path d="M0 269L24.2 276.3C48.3 283.7 96.7 298.3 145.2 300.3C193.7 302.3 242.3 291.7 290.8 285.7C339.3 279.7 387.7 278.3 436.2 275.7C484.7 273 533.3 269 581.8 259.7C630.3 250.3 678.7 235.7 727.2 244.3C775.7 253 824.3 285 872.8 301C921.3 317 969.7 317 1018.2 319C1066.7 321 1115.3 325 1163.8 329C1212.3 333 1260.7 337 1309.2 330.3C1357.7 323.7 1406.3 306.3 1454.8 296.3C1503.3 286.3 1551.7 283.7 1575.8 282.3L1600 281L1600 203L1575.8 202.3C1551.7 201.7 1503.3 200.3 1454.8 201.7C1406.3 203 1357.7 207 1309.2 207C1260.7 207 1212.3 203 1163.8 199C1115.3 195 1066.7 191 1018.2 185.7C969.7 180.3 921.3 173.7 872.8 161.7C824.3 149.7 775.7 132.3 727.2 127.7C678.7 123 630.3 131 581.8 131.7C533.3 132.3 484.7 125.7 436.2 128.3C387.7 131 339.3 143 290.8 153C242.3 163 193.7 171 145.2 173.7C96.7 176.3 48.3 173.7 24.2 172.3L0 171Z" fill="#3c80ff"></path><path d="M0 401L24.2 401C48.3 401 96.7 401 145.2 401C193.7 401 242.3 401 290.8 401C339.3 401 387.7 401 436.2 401C484.7 401 533.3 401 581.8 401C630.3 401 678.7 401 727.2 401C775.7 401 824.3 401 872.8 401C921.3 401 969.7 401 1018.2 401C1066.7 401 1115.3 401 1163.8 401C1212.3 401 1260.7 401 1309.2 401C1357.7 401 1406.3 401 1454.8 401C1503.3 401 1551.7 401 1575.8 401L1600 401L1600 279L1575.8 280.3C1551.7 281.7 1503.3 284.3 1454.8 294.3C1406.3 304.3 1357.7 321.7 1309.2 328.3C1260.7 335 1212.3 331 1163.8 327C1115.3 323 1066.7 319 1018.2 317C969.7 315 921.3 315 872.8 299C824.3 283 775.7 251 727.2 242.3C678.7 233.7 630.3 248.3 581.8 257.7C533.3 267 484.7 271 436.2 273.7C387.7 276.3 339.3 277.7 290.8 283.7C242.3 289.7 193.7 300.3 145.2 298.3C96.7 296.3 48.3 281.7 24.2 274.3L0 267Z" fill="#6198ff"></path></svg>