<svg id="visual"  width="100%" height="600" xmlns="http://www.w3.org/2000/svg" xmlns:xlink="http://www.w3.org/1999/xlink" version="1.1"><rect x="0" y="0" width="1440" height="600" fill="#7B00F7"></rect><defs><linearGradient id="grad1_0" x1="58.3%" y1="0%" x2="100%" y2="100%"><stop offset="2.0000000000000036%" stop-color="#0066ff" stop-opacity="1"></stop><stop offset="98%" stop-color="#0066ff" stop-opacity="1"></stop></linearGradient></defs><defs><linearGradient id="grad2_0" x1="0%" y1="0%" x2="41.7%" y2="100%"><stop offset="2.0000000000000036%" stop-color="#0066ff" stop-opacity="1"></stop><stop offset="98%" stop-color="#0066ff" stop-opacity="1"></stop></linearGradient></defs><g transform="translate(1440, 0)"><path d="M0 540C-64.4 503.5 -128.7 466.9 -177.6 428.7C-226.4 390.4 -259.7 350.5 -317.5 317.5C-375.3 284.5 -457.7 258.4 -498.9 206.6C-540.1 154.9 -540 77.4 -540 0L0 0Z" fill="#001220"></path></g><g transform="translate(0, 600)"><path d="M0 -540C68.1 -519.4 136.3 -498.8 193.6 -467.5C251 -436.2 297.6 -394.1 351.4 -351.4C405.2 -308.7 466.3 -265.3 498.9 -206.6C531.5 -148 535.8 -74 540 0L0 0Z" fill="#001220"></path></g></svg>