<svg id="visual"  width="1440" height="600" xmlns="http://www.w3.org/2000/svg" xmlns:xlink="http://www.w3.org/1999/xlink" version="1.1"><rect x="0" y="0" width="1440" height="600" fill="#001220"></rect><defs><linearGradient id="grad1_0" x1="58.3%" y1="0%" x2="100%" y2="100%"><stop offset="2.0000000000000036%" stop-color="#001220" stop-opacity="1"></stop><stop offset="98%" stop-color="#001220" stop-opacity="1"></stop></linearGradient></defs><defs><linearGradient id="grad2_0" x1="0%" y1="0%" x2="41.7%" y2="100%"><stop offset="2.0000000000000036%" stop-color="#001220" stop-opacity="1"></stop><stop offset="98%" stop-color="#001220" stop-opacity="1"></stop></linearGradient></defs><g transform="translate(1440, 0)"><path d="M0 540C-57.1 502.8 -114.1 465.7 -184.8 446.2C-255.5 426.8 -339.9 425.1 -381.8 381.8C-423.8 338.6 -423.3 253.9 -442.5 183.3C-461.8 112.7 -500.9 56.4 -540 0L0 0Z" fill="#c0003a"></path></g><g transform="translate(0, 600)"><path d="M0 -540C78 -540 156 -539.9 206.6 -498.9C257.3 -457.9 280.6 -375.8 321 -321C361.4 -266.3 418.9 -238.8 458.2 -189.8C497.6 -140.9 518.8 -70.4 540 0L0 0Z" fill="#c0003a"></path></g></svg>