<svg id="visual"  width="1440" height="600" xmlns="http://www.w3.org/2000/svg" xmlns:xlink="http://www.w3.org/1999/xlink" version="1.1"><rect x="0" y="0" width="1440" height="600" fill="#001220"></rect><defs><linearGradient id="grad1_0" x1="58.3%" y1="0%" x2="100%" y2="100%"><stop offset="2.0000000000000036%" stop-color="#001220" stop-opacity="1"></stop><stop offset="98%" stop-color="#001220" stop-opacity="1"></stop></linearGradient></defs><defs><linearGradient id="grad2_0" x1="0%" y1="0%" x2="41.7%" y2="100%"><stop offset="2.0000000000000036%" stop-color="#001220" stop-opacity="1"></stop><stop offset="98%" stop-color="#001220" stop-opacity="1"></stop></linearGradient></defs><g transform="translate(1440, 0)"><path d="M0 540C-55.8 491.9 -111.5 443.9 -173.7 419.4C-236 395 -304.7 394.2 -363.5 363.5C-422.2 332.8 -471.1 272.2 -498.9 206.6C-526.7 141.1 -533.3 70.5 -540 0L0 0Z" fill="#7B00F7"></path></g><g transform="translate(0, 600)"><path d="M0 -540C70.2 -532.7 140.5 -525.3 206.6 -498.9C272.8 -472.4 335 -426.9 369.8 -369.8C404.7 -312.7 412.3 -244.2 436.1 -180.6C459.9 -117.1 499.9 -58.5 540 0L0 0Z" fill="#7B00F7"></path></g></svg>