<svg id="visual" viewBox="0 0 1440 600" width="1440" height="600" xmlns="http://www.w3.org/2000/svg" xmlns:xlink="http://www.w3.org/1999/xlink" version="1.1"><rect width="1440" height="600" fill="#001220"></rect><g><g transform="translate(35 354)"><path d="M78.9 -17C91.5 12.9 83.3 58.2 58.6 74.7C34 91.2 -7.2 78.9 -39.2 55.4C-71.1 31.8 -93.8 -3 -85.8 -26.8C-77.7 -50.5 -38.8 -63.2 -2.8 -62.2C33.2 -61.3 66.4 -46.8 78.9 -17Z" fill="#00CD74"></path></g><g transform="translate(1216 239)"><path d="M87.6 -28.5C98.5 5.3 82.1 47.9 53.9 66.6C25.7 85.3 -14.3 80.1 -34.8 61.9C-55.3 43.7 -56.2 12.6 -47.2 -18.6C-38.1 -49.8 -19.1 -81 9.6 -84.1C38.3 -87.2 76.6 -62.3 87.6 -28.5Z" fill="#00CD74"></path></g><g transform="translate(584 306)"><path d="M89.7 -26.6C101.8 8 87.1 53.8 57.7 73.9C28.3 93.9 -15.7 88.1 -39 67.9C-62.2 47.6 -64.6 12.9 -54.6 -18.8C-44.6 -50.5 -22.3 -79.3 8.3 -82C38.8 -84.6 77.6 -61.2 89.7 -26.6Z" fill="#00CD74"></path></g><g transform="translate(977 453)"><path d="M75.7 -22C83.8 0.1 66 33.2 44.8 44.6C23.6 56 -1.1 45.7 -21 30.7C-41 15.8 -56.4 -3.8 -52.1 -20.7C-47.8 -37.6 -23.9 -52 5 -53.6C33.8 -55.2 67.7 -44.1 75.7 -22Z" fill="#00CD74"></path></g><g transform="translate(158 73)"><path d="M77.4 -13.3C89.5 11.8 80.8 55.5 56.3 72.1C31.7 88.7 -8.6 78.1 -39.6 55.4C-70.5 32.7 -91.9 -2.1 -83.7 -21.9C-75.6 -41.7 -37.8 -46.7 -2.5 -45.8C32.7 -45 65.4 -38.5 77.4 -13.3Z" fill="#00CD74"></path></g><g transform="translate(848 137)"><path d="M76.3 -30.1C84.8 1.3 67.8 35.6 39.9 56.2C12 76.8 -26.9 83.7 -49.8 67.3C-72.7 51 -79.5 11.5 -68.6 -23.4C-57.6 -58.2 -28.8 -88.4 2.6 -89.2C33.9 -90 67.8 -61.6 76.3 -30.1Z" fill="#00CD74"></path></g><g transform="translate(300 545)"><path d="M70.4 -23.3C83.5 17.3 80.9 62.6 60.4 75.8C39.8 89 1.3 70.2 -23.3 48.5C-47.8 26.8 -58.3 2.2 -52.1 -29C-45.9 -60.1 -22.9 -97.9 2.9 -98.8C28.7 -99.7 57.4 -63.8 70.4 -23.3Z" fill="#00CD74"></path></g><g transform="translate(1439 535)"><path d="M43.1 -14.2C49 4.4 42.4 26.8 26.9 38.4C11.4 50.1 -13.1 50.9 -31.9 38.5C-50.6 26.1 -63.7 0.6 -57.5 -18.4C-51.2 -37.4 -25.6 -49.9 -3.5 -48.8C18.6 -47.6 37.1 -32.8 43.1 -14.2Z" fill="#00CD74"></path></g><g transform="translate(456 1)"><path d="M76.6 -16.8C88 10.2 78.2 52.2 52.9 70C27.6 87.7 -13.3 81.1 -41.6 60C-69.8 38.8 -85.5 3 -76.5 -20.8C-67.4 -44.6 -33.7 -56.4 -0.6 -56.2C32.6 -56 65.2 -43.9 76.6 -16.8Z" fill="#00CD74"></path></g></g></svg>