<svg id="visual" viewBox="0 0 1440 540" width="1440" height="540" xmlns="http://www.w3.org/2000/svg" xmlns:xlink="http://www.w3.org/1999/xlink" version="1.1"><path d="M0 44L21.8 51.2C43.7 58.3 87.3 72.7 131 70.8C174.7 69 218.3 51 262 44.8C305.7 38.7 349.3 44.3 393 46.2C436.7 48 480.3 46 524 43.2C567.7 40.3 611.3 36.7 654.8 42.2C698.3 47.7 741.7 62.3 785.2 67.8C828.7 73.3 872.3 69.7 916 68.7C959.7 67.7 1003.3 69.3 1047 68.3C1090.7 67.3 1134.3 63.7 1178 58.3C1221.7 53 1265.3 46 1309 41.5C1352.7 37 1396.3 35 1418.2 34L1440 33L1440 0L1418.2 0C1396.3 0 1352.7 0 1309 0C1265.3 0 1221.7 0 1178 0C1134.3 0 1090.7 0 1047 0C1003.3 0 959.7 0 916 0C872.3 0 828.7 0 785.2 0C741.7 0 698.3 0 654.8 0C611.3 0 567.7 0 524 0C480.3 0 436.7 0 393 0C349.3 0 305.7 0 262 0C218.3 0 174.7 0 131 0C87.3 0 43.7 0 21.8 0L0 0Z" fill="#56de9a"></path><path d="M0 147L21.8 149.7C43.7 152.3 87.3 157.7 131 155C174.7 152.3 218.3 141.7 262 138C305.7 134.3 349.3 137.7 393 146.7C436.7 155.7 480.3 170.3 524 161.3C567.7 152.3 611.3 119.7 654.8 119.7C698.3 119.7 741.7 152.3 785.2 170.3C828.7 188.3 872.3 191.7 916 185.3C959.7 179 1003.3 163 1047 160.3C1090.7 157.7 1134.3 168.3 1178 169.2C1221.7 170 1265.3 161 1309 161C1352.7 161 1396.3 170 1418.2 174.5L1440 179L1440 31L1418.2 32C1396.3 33 1352.7 35 1309 39.5C1265.3 44 1221.7 51 1178 56.3C1134.3 61.7 1090.7 65.3 1047 66.3C1003.3 67.3 959.7 65.7 916 66.7C872.3 67.7 828.7 71.3 785.2 65.8C741.7 60.3 698.3 45.7 654.8 40.2C611.3 34.7 567.7 38.3 524 41.2C480.3 44 436.7 46 393 44.2C349.3 42.3 305.7 36.7 262 42.8C218.3 49 174.7 67 131 68.8C87.3 70.7 43.7 56.3 21.8 49.2L0 42Z" fill="#39d687"></path><path d="M0 271L21.8 271C43.7 271 87.3 271 131 285.3C174.7 299.7 218.3 328.3 262 328.3C305.7 328.3 349.3 299.7 393 292.5C436.7 285.3 480.3 299.7 524 289.8C567.7 280 611.3 246 654.8 247C698.3 248 741.7 284 785.2 296.5C828.7 309 872.3 298 916 289C959.7 280 1003.3 273 1047 289.2C1090.7 305.3 1134.3 344.7 1178 359C1221.7 373.3 1265.3 362.7 1309 355.5C1352.7 348.3 1396.3 344.7 1418.2 342.8L1440 341L1440 177L1418.2 172.5C1396.3 168 1352.7 159 1309 159C1265.3 159 1221.7 168 1178 167.2C1134.3 166.3 1090.7 155.7 1047 158.3C1003.3 161 959.7 177 916 183.3C872.3 189.7 828.7 186.3 785.2 168.3C741.7 150.3 698.3 117.7 654.8 117.7C611.3 117.7 567.7 150.3 524 159.3C480.3 168.3 436.7 153.7 393 144.7C349.3 135.7 305.7 132.3 262 136C218.3 139.7 174.7 150.3 131 153C87.3 155.7 43.7 150.3 21.8 147.7L0 145Z" fill="#00cd74"></path><path d="M0 363L21.8 360.3C43.7 357.7 87.3 352.3 131 365.8C174.7 379.3 218.3 411.7 262 410.7C305.7 409.7 349.3 375.3 393 369C436.7 362.7 480.3 384.3 524 378C567.7 371.7 611.3 337.3 654.8 335.5C698.3 333.7 741.7 364.3 785.2 369.8C828.7 375.3 872.3 355.7 916 342.2C959.7 328.7 1003.3 321.3 1047 340.2C1090.7 359 1134.3 404 1178 417.5C1221.7 431 1265.3 413 1309 404C1352.7 395 1396.3 395 1418.2 395L1440 395L1440 339L1418.2 340.8C1396.3 342.7 1352.7 346.3 1309 353.5C1265.3 360.7 1221.7 371.3 1178 357C1134.3 342.7 1090.7 303.3 1047 287.2C1003.3 271 959.7 278 916 287C872.3 296 828.7 307 785.2 294.5C741.7 282 698.3 246 654.8 245C611.3 244 567.7 278 524 287.8C480.3 297.7 436.7 283.3 393 290.5C349.3 297.7 305.7 326.3 262 326.3C218.3 326.3 174.7 297.7 131 283.3C87.3 269 43.7 269 21.8 269L0 269Z" fill="#00b165"></path><path d="M0 541L21.8 541C43.7 541 87.3 541 131 541C174.7 541 218.3 541 262 541C305.7 541 349.3 541 393 541C436.7 541 480.3 541 524 541C567.7 541 611.3 541 654.8 541C698.3 541 741.7 541 785.2 541C828.7 541 872.3 541 916 541C959.7 541 1003.3 541 1047 541C1090.7 541 1134.3 541 1178 541C1221.7 541 1265.3 541 1309 541C1352.7 541 1396.3 541 1418.2 541L1440 541L1440 393L1418.2 393C1396.3 393 1352.7 393 1309 402C1265.3 411 1221.7 429 1178 415.5C1134.3 402 1090.7 357 1047 338.2C1003.3 319.3 959.7 326.7 916 340.2C872.3 353.7 828.7 373.3 785.2 367.8C741.7 362.3 698.3 331.7 654.8 333.5C611.3 335.3 567.7 369.7 524 376C480.3 382.3 436.7 360.7 393 367C349.3 373.3 305.7 407.7 262 408.7C218.3 409.7 174.7 377.3 131 363.8C87.3 350.3 43.7 355.7 21.8 358.3L0 361Z" fill="#009656"></path></svg>