<svg id="visual"  width="100%" xmlns="http://www.w3.org/2000/svg" xmlns:xlink="http://www.w3.org/1999/xlink" version="1.1"><path d="M0 121L21.8 114C43.7 107 87.3 93 131 82C174.7 71 218.3 63 262 66C305.7 69 349.3 83 393 81C436.7 79 480.3 61 524 56C567.7 51 611.3 59 654.8 71C698.3 83 741.7 99 785.2 108C828.7 117 872.3 119 916 117C959.7 115 1003.3 109 1047 102C1090.7 95 1134.3 87 1178 88C1221.7 89 1265.3 99 1309 100C1352.7 101 1396.3 93 1418.2 89L1440 85L1440 0L1418.2 0C1396.3 0 1352.7 0 1309 0C1265.3 0 1221.7 0 1178 0C1134.3 0 1090.7 0 1047 0C1003.3 0 959.7 0 916 0C872.3 0 828.7 0 785.2 0C741.7 0 698.3 0 654.8 0C611.3 0 567.7 0 524 0C480.3 0 436.7 0 393 0C349.3 0 305.7 0 262 0C218.3 0 174.7 0 131 0C87.3 0 43.7 0 21.8 0L0 0Z" fill="#8d002f"></path><path d="M0 259L21.8 246C43.7 233 87.3 207 131 207C174.7 207 218.3 233 262 245C305.7 257 349.3 255 393 248C436.7 241 480.3 229 524 241C567.7 253 611.3 289 654.8 302C698.3 315 741.7 305 785.2 306C828.7 307 872.3 319 916 308C959.7 297 1003.3 263 1047 266C1090.7 269 1134.3 309 1178 315C1221.7 321 1265.3 293 1309 274C1352.7 255 1396.3 245 1418.2 240L1440 235L1440 83L1418.2 87C1396.3 91 1352.7 99 1309 98C1265.3 97 1221.7 87 1178 86C1134.3 85 1090.7 93 1047 100C1003.3 107 959.7 113 916 115C872.3 117 828.7 115 785.2 106C741.7 97 698.3 81 654.8 69C611.3 57 567.7 49 524 54C480.3 59 436.7 77 393 79C349.3 81 305.7 67 262 64C218.3 61 174.7 69 131 80C87.3 91 43.7 105 21.8 112L0 119Z" fill="#a60035"></path><path d="M0 325L21.8 325C43.7 325 87.3 325 131 330C174.7 335 218.3 345 262 341C305.7 337 349.3 319 393 307C436.7 295 480.3 289 524 317C567.7 345 611.3 407 654.8 422C698.3 437 741.7 405 785.2 390C828.7 375 872.3 377 916 369C959.7 361 1003.3 343 1047 355C1090.7 367 1134.3 409 1178 416C1221.7 423 1265.3 395 1309 373C1352.7 351 1396.3 335 1418.2 327L1440 319L1440 233L1418.2 238C1396.3 243 1352.7 253 1309 272C1265.3 291 1221.7 319 1178 313C1134.3 307 1090.7 267 1047 264C1003.3 261 959.7 295 916 306C872.3 317 828.7 305 785.2 304C741.7 303 698.3 313 654.8 300C611.3 287 567.7 251 524 239C480.3 227 436.7 239 393 246C349.3 253 305.7 255 262 243C218.3 231 174.7 205 131 205C87.3 205 43.7 231 21.8 244L0 257Z" fill="#c0003a"></path><path d="M0 523L21.8 526C43.7 529 87.3 535 131 540C174.7 545 218.3 549 262 542C305.7 535 349.3 517 393 512C436.7 507 480.3 515 524 526C567.7 537 611.3 551 654.8 549C698.3 547 741.7 529 785.2 526C828.7 523 872.3 535 916 541C959.7 547 1003.3 547 1047 550C1090.7 553 1134.3 559 1178 552C1221.7 545 1265.3 525 1309 523C1352.7 521 1396.3 537 1418.2 545L1440 553L1440 317L1418.2 325C1396.3 333 1352.7 349 1309 371C1265.3 393 1221.7 421 1178 414C1134.3 407 1090.7 365 1047 353C1003.3 341 959.7 359 916 367C872.3 375 828.7 373 785.2 388C741.7 403 698.3 435 654.8 420C611.3 405 567.7 343 524 315C480.3 287 436.7 293 393 305C349.3 317 305.7 335 262 339C218.3 343 174.7 333 131 328C87.3 323 43.7 323 21.8 323L0 323Z" fill="#a60035"></path><path d="M0 601L21.8 601C43.7 601 87.3 601 131 601C174.7 601 218.3 601 262 601C305.7 601 349.3 601 393 601C436.7 601 480.3 601 524 601C567.7 601 611.3 601 654.8 601C698.3 601 741.7 601 785.2 601C828.7 601 872.3 601 916 601C959.7 601 1003.3 601 1047 601C1090.7 601 1134.3 601 1178 601C1221.7 601 1265.3 601 1309 601C1352.7 601 1396.3 601 1418.2 601L1440 601L1440 551L1418.2 543C1396.3 535 1352.7 519 1309 521C1265.3 523 1221.7 543 1178 550C1134.3 557 1090.7 551 1047 548C1003.3 545 959.7 545 916 539C872.3 533 828.7 521 785.2 524C741.7 527 698.3 545 654.8 547C611.3 549 567.7 535 524 524C480.3 513 436.7 505 393 510C349.3 515 305.7 533 262 540C218.3 547 174.7 543 131 538C87.3 533 43.7 527 21.8 524L0 521Z" fill="#8d002f"></path></svg>