<svg id="visual"  width="1440" height="600" xmlns="http://www.w3.org/2000/svg" xmlns:xlink="http://www.w3.org/1999/xlink" version="1.1"><rect x="0" y="0" width="1440" height="600" fill="#c0003a"></rect><g transform="translate(1473.2446857884452 539.725108454034)"><path d="M241.1 -260.2C335.6 -208 451.4 -154 505.6 -57.9C559.7 38.2 552.2 176.3 488.6 277.9C424.9 379.4 305.2 444.4 186.1 469.6C67 494.9 -51.3 480.5 -178.8 451.4C-306.2 422.2 -442.8 378.4 -525.3 281.1C-607.8 183.9 -636.3 33.4 -575.9 -65.5C-515.5 -164.3 -366.2 -211.4 -255.4 -260.7C-144.6 -310 -72.3 -361.5 0.5 -362.1C73.3 -362.7 146.6 -312.3 241.1 -260.2" fill="#001220"></path></g></svg>