<svg id="visual"  width="1440" height="100%" xmlns="http://www.w3.org/2000/svg" xmlns:xlink="http://www.w3.org/1999/xlink" version="1.1"><rect x="0" y="0" width="1440" height="450" fill="#001220"></rect><g fill="none" stroke="#0066FF" stroke-width="2"><circle r="46" cx="562" cy="316"></circle><circle r="16" cx="1149" cy="275"></circle><circle r="43" cx="1350" cy="315"></circle><circle r="36" cx="297" cy="159"></circle><circle r="27" cx="245" cy="267"></circle><circle r="28" cx="854" cy="269"></circle><circle r="23" cx="412" cy="160"></circle><circle r="33" cx="1141" cy="75"></circle><circle r="40" cx="790" cy="194"></circle><circle r="20" cx="1049" cy="222"></circle><circle r="30" cx="668" cy="263"></circle><circle r="19" cx="704" cy="367"></circle><circle r="23" cx="208" cy="394"></circle><circle r="33" cx="340" cy="293"></circle><circle r="42" cx="1138" cy="406"></circle><circle r="38" cx="1344" cy="70"></circle><circle r="27" cx="968" cy="64"></circle><circle r="44" cx="58" cy="159"></circle><circle r="15" cx="150" cy="180"></circle><circle r="26" cx="1245" cy="276"></circle><circle r="18" cx="547" cy="136"></circle><circle r="27" cx="158" cy="77"></circle><circle r="33" cx="553" cy="435"></circle><circle r="43" cx="375" cy="31"></circle><circle r="32" cx="134" cy="276"></circle><circle r="15" cx="270" cy="48"></circle><circle r="24" cx="1415" cy="216"></circle><circle r="18" cx="672" cy="157"></circle><circle r="16" cx="20" cy="344"></circle><circle r="42" cx="769" cy="38"></circle><circle r="32" cx="361" cy="398"></circle><circle r="22" cx="1230" cy="5"></circle><circle r="21" cx="848" cy="419"></circle><circle r="44" cx="56" cy="56"></circle><circle r="29" cx="611" cy="64"></circle><circle r="24" cx="1004" cy="440"></circle><circle r="23" cx="1399" cy="440"></circle><circle r="29" cx="441" cy="334"></circle><circle r="39" cx="1268" cy="136"></circle><circle r="21" cx="1297" cy="443"></circle><circle r="33" cx="1438" cy="33"></circle><circle r="35" cx="508" cy="35"></circle><circle r="25" cx="988" cy="305"></circle><circle r="41" cx="114" cy="410"></circle><circle r="20" cx="511" cy="227"></circle><circle r="24" cx="19" cy="247"></circle><circle r="34" cx="906" cy="144"></circle></g></svg>