<svg id="visual"  width="1440px" height="100%" xmlns="http://www.w3.org/2000/svg" xmlns:xlink="http://www.w3.org/1999/xlink" version="1.1">
<rect x="0" y="0" width="100%" height="450" fill="#001220"></rect>
<g fill="none" stroke="#A7233A" stroke-width="2"><circle r="24" cx="637" cy="183"></circle><circle r="0" cx="81" cy="193"></circle><circle r="3" cx="4" cy="248"></circle><circle r="-1" cx="240" cy="150"></circle><circle r="21" cx="113" cy="80"></circle><circle r="6" cx="381" cy="417"></circle><circle r="21" cx="159" cy="19"></circle><circle r="10" cx="464" cy="297"></circle><circle r="6" cx="6" cy="305"></circle><circle r="20" cx="644" cy="93"></circle><circle r="17" cx="509" cy="339"></circle><circle r="16" cx="664" cy="400"></circle><circle r="17" cx="44" cy="96"></circle><circle r="8" cx="799" cy="199"></circle><circle r="4" cx="452" cy="28"></circle><circle r="0" cx="323" cy="63"></circle><circle r="19" cx="215" cy="6"></circle><circle r="19" cx="753" cy="386"></circle><circle r="-1" cx="704" cy="174"></circle><circle r="11" cx="278" cy="368"></circle><circle r="2" cx="431" cy="389"></circle><circle r="18" cx="262" cy="444"></circle><circle r="14" cx="495" cy="133"></circle><circle r="20" cx="874" cy="152"></circle><circle r="22" cx="532" cy="444"></circle><circle r="19" cx="729" cy="279"></circle><circle r="-1" cx="366" cy="329"></circle><circle r="10" cx="209" cy="228"></circle><circle r="4" cx="440" cy="143"></circle><circle r="8" cx="593" cy="313"></circle><circle r="18" cx="224" cy="56"></circle><circle r="17" cx="538" cy="209"></circle><circle r="21" cx="636" cy="36"></circle><circle r="7" cx="772" cy="55"></circle><circle r="8" cx="779" cy="333"></circle><circle r="15" cx="363" cy="200"></circle><circle r="0" cx="237" cy="305"></circle><circle r="-1" cx="174" cy="181"></circle><circle r="11" cx="623" cy="435"></circle><circle r="22" cx="758" cy="446"></circle><circle r="17" cx="63" cy="312"></circle></g></svg>