<?xml version="1.0" encoding="UTF-8"?>
<svg width="100%"   version="1.1" xmlns="http://www.w3.org/2000/svg" xmlns:xlink="http://www.w3.org/1999/xlink">
    <title>Artboard</title>
    <g id="Artboard" stroke="none" stroke-width="1" fill="none" fill-rule="evenodd">
        <g id="svg-14" fill-rule="nonzero">
            <path d="M0,115 L20.9370833,108.347107 C41.9702083,101.694215 83.844375,88.3884298 125.814583,77.9338843 C167.784792,67.4793388 209.658958,59.8760331 251.629167,62.7272727 C293.599375,65.5785124 335.473542,78.8842975 377.44375,76.9834711 C419.413958,75.0826446 461.288125,57.9752066 503.258333,53.2231405 C545.228542,48.4710744 587.102708,56.0743802 628.880833,67.4793388 C670.658958,78.8842975 712.341042,94.0909091 754.119167,102.644628 C795.897292,111.198347 837.771458,113.099174 879.741667,111.198347 C921.711875,109.297521 963.586042,103.595041 1005.55625,96.9421488 C1047.52646,90.2892562 1089.40062,82.6859504 1131.37083,83.6363636 C1173.34104,84.5867769 1215.21521,94.0909091 1257.18542,95.0413223 C1299.15563,95.9917355 1341.02979,88.3884298 1362.06292,84.5867769 L1383,80.785124 L1383,0 L1362.06292,0 C1341.02979,0 1299.15563,0 1257.18542,0 C1215.21521,0 1173.34104,0 1131.37083,0 C1089.40062,0 1047.52646,0 1005.55625,0 C963.586042,0 921.711875,0 879.741667,0 C837.771458,0 795.897292,0 754.119167,0 C712.341042,0 670.658958,0 628.880833,0 C587.102708,0 545.228542,0 503.258333,0 C461.288125,0 419.413958,0 377.44375,0 C335.473542,0 293.599375,0 251.629167,0 C209.658958,0 167.784792,0 125.814583,0 C83.844375,0 41.9702083,0 20.9370833,0 L0,0 L0,115 Z" id="Path" fill="#8D002F"></path>
            <path d="M0,245.268032 L20.9370833,232.975946 C41.9702083,220.68386 83.844375,196.099687 125.814583,196.099687 C167.784792,196.099687 209.658958,220.68386 251.629167,232.030401 C293.599375,243.376942 335.473542,241.485852 377.44375,234.867036 C419.413958,228.24822 461.288125,216.901679 503.258333,228.24822 C545.228542,239.594762 587.102708,273.634385 628.880833,285.926471 C670.658958,298.218557 712.341042,288.763106 754.119167,289.708652 C795.897292,290.654197 837.771458,302.000738 879.741667,291.599742 C921.711875,281.198746 963.586042,249.050213 1005.55625,251.886848 C1047.52646,254.723483 1089.40062,292.545287 1131.37083,298.218557 C1173.34104,303.891828 1215.21521,277.416565 1257.18542,259.451209 C1299.15563,241.485852 1341.02979,232.030401 1362.06292,227.302675 L1383,222.57495 L1383,78.8520959 L1362.06292,82.6342763 C1341.02979,86.4164566 1299.15563,93.9808174 1257.18542,93.0352723 C1215.21521,92.0897272 1173.34104,82.6342763 1131.37083,81.6887312 C1089.40062,80.7431861 1047.52646,88.3075468 1005.55625,94.9263625 C963.586042,101.545178 921.711875,107.218449 879.741667,109.109539 C837.771458,111.000629 795.897292,109.109539 754.119167,100.599633 C712.341042,92.0897272 670.658958,76.9610057 628.880833,65.6144646 C587.102708,54.2679235 545.228542,46.7035628 503.258333,51.4312882 C461.288125,56.1590137 419.413958,73.1788254 377.44375,75.0699155 C335.473542,76.9610057 293.599375,63.7233744 251.629167,60.8867392 C209.658958,58.0501039 167.784792,65.6144646 125.814583,76.0154606 C83.844375,86.4164566 41.9702083,99.6540879 20.9370833,106.272904 L0,112.891719 L0,245.268032 Z" id="Path" fill="#A60035"></path>
        </g>
    </g>
</svg>