<svg width="28" height="28" viewBox="0 0 28 28" fill="none" xmlns="http://www.w3.org/2000/svg">
<g clip-path="url(#clip0_2503_37837)">
<path d="M10.2422 20.6094C11.5312 20.2578 12.5703 19.6953 13.3438 18.9453C13.9844 20.7422 15.5 22.0156 17.75 22.625C21.5938 23.6484 24.5156 21.8672 25.5938 17.8516L27.0625 12.3906C27.4531 10.9141 26.8984 9.95312 25.3906 9.54688L17.6562 7.47656C16.1562 7.07812 15.2109 7.61719 14.8047 9.10938L14.2656 11.0859L13.1875 7.08594C12.7891 5.60938 11.8281 5.07031 10.3281 5.47656L2.58594 7.53125C1.07812 7.92969 0.53125 8.875 0.929688 10.375L2.38281 15.8438C3.45312 19.8594 6.375 21.6328 10.2422 20.6094ZM9.90625 19.3672C6.83594 20.1719 4.50781 18.7422 3.64062 15.5078L2.1875 10.0938C2 9.39844 2.25 8.96094 2.9375 8.76562L10.6406 6.70312C11.3281 6.51562 11.7812 6.78125 11.9609 7.48438L13.4062 12.8984C14.2734 16.1406 12.9766 18.5469 9.90625 19.3672ZM18.0703 21.3828C15.9375 20.7969 14.6406 19.4375 14.3828 17.5312C14.9219 16.4609 15.1016 15.1719 14.8984 13.7188L16.0312 9.49219C16.2188 8.79688 16.6562 8.53906 17.3438 8.72656L25.0469 10.7812C25.7422 10.9688 25.9844 11.4141 25.7969 12.125L24.3438 17.5312C23.4844 20.7734 21.1562 22.1953 18.0703 21.3828ZM10.2891 11.5312C10.8516 11.3828 11.1172 11.6484 11.3594 11.5938C11.5312 11.5469 11.6016 11.3281 11.5234 11.0469C11.3516 10.3516 10.6172 9.9375 9.92969 10.1406C9.21875 10.3125 8.78906 11.0391 8.98438 11.7188C9.07031 12.0078 9.23438 12.1641 9.40625 12.1172C9.64062 12.0469 9.73438 11.6797 10.2891 11.5312ZM5.66406 12.7891C6.22656 12.6406 6.5 12.8984 6.73438 12.8438C6.89844 12.8047 6.97656 12.5859 6.89844 12.3047C6.72656 11.6094 5.98438 11.1875 5.29688 11.3906C4.59375 11.5625 4.16406 12.2969 4.35938 12.9766C4.44531 13.2656 4.61719 13.4141 4.78125 13.375C5.01562 13.3047 5.10938 12.9375 5.66406 12.7891ZM17.5 14.375C18.0781 14.5391 18.6719 14.1953 18.8359 13.6094C18.9922 13.0234 18.6484 12.4219 18.0547 12.2578C17.4844 12.1016 16.8828 12.4531 16.7188 13.0391C16.5703 13.625 16.9141 14.2188 17.5 14.375ZM22.0859 15.6016C22.6641 15.75 23.2578 15.4062 23.4219 14.8203C23.5781 14.2344 23.2344 13.6406 22.6484 13.4844C22.0625 13.3203 21.4688 13.6719 21.3203 14.25C21.1562 14.8359 21.5 15.4375 22.0859 15.6016ZM9.48438 17.7656C11.1328 17.3125 12.1875 16.0625 12.2422 14.5156C12.25 14.1172 11.9141 13.9688 11.5781 14.2266C10.5156 14.9766 9.39062 15.2734 8.85938 15.4219C8.32031 15.5625 7.20312 15.875 5.89062 15.75C5.47656 15.6953 5.25 16 5.46875 16.3203C6.29688 17.6484 7.82812 18.1953 9.48438 17.7656ZM18.7969 18.5938C19.6641 18.8203 20.3594 19.2109 21.1719 19.9453C21.4766 20.2344 21.8828 20.0469 21.8594 19.6328C21.8125 18.2578 20.7891 17.1172 19.2891 16.7266C17.7891 16.3203 16.3359 16.8047 15.6016 17.9609C15.3828 18.2969 15.6406 18.6719 16.0547 18.5781C17.0938 18.3516 17.9375 18.3516 18.7969 18.5938Z" fill="#A0A0A0"/>
</g>
<defs>
<clipPath id="clip0_2503_37837">
<rect width="28" height="28" fill="white"/>
</clipPath>
</defs>
</svg>
