<svg xmlns="http://www.w3.org/2000/svg" xmlns:xlink="http://www.w3.org/1999/xlink" viewBox="0 0 83.78 50"><defs><style>.cls-1{isolation:isolate;}.cls-2{fill:url(#New_Gradient_Swatch_copy_42);}.cls-3{fill:url(#New_Gradient_Swatch_copy_35);}.cls-10,.cls-20,.cls-25,.cls-31,.cls-34,.cls-4,.cls-40,.cls-46,.cls-49,.cls-52,.cls-55,.cls-58,.cls-61,.cls-7{mix-blend-mode:color-dodge;}.cls-4{fill:url(#Radial_Gradient_1);}.cls-5{fill:url(#New_Gradient_Swatch_copy_42-2);}.cls-6{fill:url(#New_Gradient_Swatch_copy_35-2);}.cls-7{fill:url(#Radial_Gradient_1-2);}.cls-8{fill:url(#New_Gradient_Swatch_copy_42-3);}.cls-9{fill:url(#New_Gradient_Swatch_copy_35-3);}.cls-10{fill:url(#Radial_Gradient_1-3);}.cls-11{fill:url(#New_Gradient_Swatch_copy_35-4);}.cls-12{fill:url(#New_Gradient_Swatch_copy_35-5);}.cls-13{fill:url(#New_Gradient_Swatch_copy_35-6);}.cls-14{fill:url(#New_Gradient_Swatch_copy_35-7);}.cls-15{fill:url(#New_Gradient_Swatch_copy_35-8);}.cls-16{fill:url(#New_Gradient_Swatch_copy_35-9);}.cls-17{fill:url(#New_Gradient_Swatch_copy_42-4);}.cls-18{fill:url(#New_Gradient_Swatch_copy_23);}.cls-19{fill:url(#New_Gradient_Swatch_copy_35-10);}.cls-20{fill:url(#Radial_Gradient_1-4);}.cls-21{mix-blend-mode:multiply;fill:url(#radial-gradient);}.cls-22{fill:url(#New_Gradient_Swatch_copy_23-2);}.cls-23{fill:url(#New_Gradient_Swatch_copy_35-11);}.cls-24{fill:url(#New_Gradient_Swatch_copy_7);}.cls-25{fill:url(#Radial_Gradient_1-5);}.cls-26{fill:url(#New_Gradient_Swatch_copy_35-12);}.cls-27{fill:url(#New_Gradient_Swatch_copy_35-13);}.cls-28{fill:url(#New_Gradient_Swatch_copy_35-14);}.cls-29{fill:url(#New_Gradient_Swatch_copy_23-3);}.cls-30{fill:url(#New_Gradient_Swatch_copy_35-15);}.cls-31{fill:url(#Radial_Gradient_1-6);}.cls-32{fill:url(#New_Gradient_Swatch_copy_23-4);}.cls-33{fill:url(#New_Gradient_Swatch_copy_35-16);}.cls-34{fill:url(#Radial_Gradient_1-7);}.cls-35{opacity:0.2;}.cls-36,.cls-37{fill:#a56ef4;mix-blend-mode:screen;}.cls-37{opacity:0.5;}.cls-38{fill:url(#New_Gradient_Swatch_copy_42-5);}.cls-39{fill:url(#New_Gradient_Swatch_copy_35-17);}.cls-40{fill:url(#Radial_Gradient_1-8);}.cls-41{fill:url(#New_Gradient_Swatch_copy_35-18);}.cls-42{fill:url(#New_Gradient_Swatch_copy_35-19);}.cls-43{fill:url(#New_Gradient_Swatch_copy_35-20);}.cls-44{fill:url(#New_Gradient_Swatch_copy_23-5);}.cls-45{fill:url(#New_Gradient_Swatch_copy_35-21);}.cls-46{fill:url(#Radial_Gradient_1-9);}.cls-47{fill:url(#New_Gradient_Swatch_copy_23-6);}.cls-48{fill:url(#New_Gradient_Swatch_copy_35-22);}.cls-49{fill:url(#Radial_Gradient_1-10);}.cls-50{fill:url(#New_Gradient_Swatch_copy_23-7);}.cls-51{fill:url(#New_Gradient_Swatch_copy_35-23);}.cls-52{fill:url(#Radial_Gradient_1-11);}.cls-53{fill:url(#New_Gradient_Swatch_copy_23-8);}.cls-54{fill:url(#New_Gradient_Swatch_copy_35-24);}.cls-55{fill:url(#Radial_Gradient_1-12);}.cls-56{fill:url(#New_Gradient_Swatch_copy_23-9);}.cls-57{fill:url(#New_Gradient_Swatch_copy_35-25);}.cls-58{fill:url(#Radial_Gradient_1-13);}.cls-59{fill:url(#New_Gradient_Swatch_copy_23-10);}.cls-60{fill:url(#New_Gradient_Swatch_copy_35-26);}.cls-61{fill:url(#Radial_Gradient_1-14);}</style><linearGradient id="New_Gradient_Swatch_copy_42" x1="119.82" y1="17.95" x2="125.39" y2="17.95" gradientTransform="translate(-54.82)" gradientUnits="userSpaceOnUse"><stop offset="0" stop-color="#25054d"/><stop offset="0.5" stop-color="#45108a"/><stop offset="1" stop-color="#25054d"/></linearGradient><linearGradient id="New_Gradient_Swatch_copy_35" x1="5486.28" y1="11.59" x2="5490.77" y2="16.4" gradientTransform="matrix(-1, 0, 0, 1, 5557.41, 0)" gradientUnits="userSpaceOnUse"><stop offset="0" stop-color="#9f79c8"/><stop offset="0.14" stop-color="#a580cb"/><stop offset="0.33" stop-color="#b492d3"/><stop offset="0.55" stop-color="#cdb0e1"/><stop offset="0.58" stop-color="#d1b4e3"/><stop offset="0.76" stop-color="#dbc4e9"/><stop offset="1" stop-color="#ebdef3"/></linearGradient><radialGradient id="Radial_Gradient_1" cx="66.89" cy="16.58" r="2.09" gradientUnits="userSpaceOnUse"><stop offset="0" stop-color="#fff"/><stop offset="1"/></radialGradient><linearGradient id="New_Gradient_Swatch_copy_42-2" x1="10412.7" y1="17.95" x2="10418.28" y2="17.95" gradientTransform="matrix(-1, 0, 0, 1, 10431.48, 0)" xlink:href="#New_Gradient_Swatch_copy_42"/><linearGradient id="New_Gradient_Swatch_copy_35-2" x1="-4806.6" y1="11.59" x2="-4802.11" y2="16.4" gradientTransform="translate(4819.25)" xlink:href="#New_Gradient_Swatch_copy_35"/><radialGradient id="Radial_Gradient_1-2" cx="10359.78" cy="16.58" r="2.09" gradientTransform="matrix(-1, 0, 0, 1, 10376.66, 0)" xlink:href="#Radial_Gradient_1"/><linearGradient id="New_Gradient_Swatch_copy_42-3" x1="119.82" y1="47.19" x2="125.39" y2="47.19" xlink:href="#New_Gradient_Swatch_copy_42"/><linearGradient id="New_Gradient_Swatch_copy_35-3" x1="5486.28" y1="40.84" x2="5490.77" y2="45.65" xlink:href="#New_Gradient_Swatch_copy_35"/><radialGradient id="Radial_Gradient_1-3" cx="66.89" cy="45.82" r="2.09" xlink:href="#Radial_Gradient_1"/><linearGradient id="New_Gradient_Swatch_copy_35-4" x1="8655.9" y1="24.95" x2="8664.83" y2="22.27" gradientTransform="matrix(-1, 0, 0, 1, 8707.02, 0)" xlink:href="#New_Gradient_Swatch_copy_35"/><linearGradient id="New_Gradient_Swatch_copy_35-5" x1="8621.27" y1="26.03" x2="8671.51" y2="14.76" gradientTransform="matrix(-1, 0, 0, 1, 8707.02, 0)" xlink:href="#New_Gradient_Swatch_copy_35"/><linearGradient id="New_Gradient_Swatch_copy_35-6" x1="8652.04" y1="9.53" x2="8647.19" y2="18.76" gradientTransform="matrix(-1, 0, 0, 1, 8707.02, 0)" xlink:href="#New_Gradient_Swatch_copy_35"/><linearGradient id="New_Gradient_Swatch_copy_35-7" x1="-309.06" y1="24.95" x2="-300.13" y2="22.27" gradientTransform="translate(341.8)" xlink:href="#New_Gradient_Swatch_copy_35"/><linearGradient id="New_Gradient_Swatch_copy_35-8" x1="-343.69" y1="26.03" x2="-293.45" y2="14.76" gradientTransform="translate(341.8)" xlink:href="#New_Gradient_Swatch_copy_35"/><linearGradient id="New_Gradient_Swatch_copy_35-9" x1="-312.93" y1="9.53" x2="-317.77" y2="18.76" gradientTransform="translate(341.8)" xlink:href="#New_Gradient_Swatch_copy_35"/><linearGradient id="New_Gradient_Swatch_copy_42-4" x1="85.04" y1="37.93" x2="108.18" y2="37.93" xlink:href="#New_Gradient_Swatch_copy_42"/><linearGradient id="New_Gradient_Swatch_copy_23" x1="83.41" y1="34.17" x2="109.79" y2="34.17" gradientTransform="translate(-54.82)" gradientUnits="userSpaceOnUse"><stop offset="0.01" stop-color="#c1a1d5"/><stop offset="0.05" stop-color="#c8abda"/><stop offset="0.11" stop-color="#dac6e6"/><stop offset="0.2" stop-color="#f7f2f9"/><stop offset="0.22" stop-color="#fff"/><stop offset="0.25" stop-color="#f9f5fb"/><stop offset="0.3" stop-color="#e9dbf2"/><stop offset="0.36" stop-color="#d1b4e3"/><stop offset="0.43" stop-color="#b395d6"/><stop offset="0.49" stop-color="#9c7dcb"/><stop offset="0.56" stop-color="#8e6ec5"/><stop offset="0.61" stop-color="#8969c3"/><stop offset="0.76" stop-color="#9471c6"/><stop offset="1" stop-color="#b086cc"/></linearGradient><linearGradient id="New_Gradient_Swatch_copy_35-10" x1="5499.81" y1="10.09" x2="5521.05" y2="32.87" xlink:href="#New_Gradient_Swatch_copy_35"/><radialGradient id="Radial_Gradient_1-4" cx="37.56" cy="33.7" r="9.89" xlink:href="#Radial_Gradient_1"/><radialGradient id="radial-gradient" cx="883.03" cy="-3458.12" r="5.74" gradientTransform="translate(-999.98 2108.89) scale(1.18 0.6)" gradientUnits="userSpaceOnUse"><stop offset="0.19" stop-color="#5f5c5d"/><stop offset="1" stop-color="#fff"/></radialGradient><linearGradient id="New_Gradient_Swatch_copy_23-2" x1="91.37" y1="27.01" x2="101.93" y2="27.01" xlink:href="#New_Gradient_Swatch_copy_23"/><linearGradient id="New_Gradient_Swatch_copy_35-11" x1="5509.25" y1="17.65" x2="5517.75" y2="26.77" xlink:href="#New_Gradient_Swatch_copy_35"/><linearGradient id="New_Gradient_Swatch_copy_7" x1="5512.75" y1="21.46" x2="5516.52" y2="25.51" gradientTransform="matrix(-1, 0, 0, 1, 5557.41, 0)" gradientUnits="userSpaceOnUse"><stop offset="0.04" stop-color="#138bbd"/><stop offset="0.23" stop-color="#169ac7"/><stop offset="0.59" stop-color="#1fc3df"/><stop offset="1" stop-color="#2af6ff"/></linearGradient><radialGradient id="Radial_Gradient_1-5" cx="40.14" cy="27.1" r="3.96" xlink:href="#Radial_Gradient_1"/><linearGradient id="New_Gradient_Swatch_copy_35-12" x1="-272.98" y1="45.13" x2="-264.61" y2="42.62" gradientTransform="translate(341.8)" xlink:href="#New_Gradient_Swatch_copy_35"/><linearGradient id="New_Gradient_Swatch_copy_35-13" x1="-309.87" y1="46.4" x2="-256.45" y2="34.43" gradientTransform="translate(341.8)" xlink:href="#New_Gradient_Swatch_copy_35"/><linearGradient id="New_Gradient_Swatch_copy_35-14" x1="-277.08" y1="29.78" x2="-282.06" y2="39.27" gradientTransform="translate(341.8)" xlink:href="#New_Gradient_Swatch_copy_35"/><linearGradient id="New_Gradient_Swatch_copy_23-3" x1="120.09" y1="41.3" x2="125.12" y2="41.3" xlink:href="#New_Gradient_Swatch_copy_23"/><linearGradient id="New_Gradient_Swatch_copy_35-15" x1="5486.61" y1="35.57" x2="5490.66" y2="39.91" xlink:href="#New_Gradient_Swatch_copy_35"/><radialGradient id="Radial_Gradient_1-6" cx="66.98" cy="40.06" r="1.88" xlink:href="#Radial_Gradient_1"/><linearGradient id="New_Gradient_Swatch_copy_23-4" x1="121.27" y1="38" x2="123.96" y2="38" xlink:href="#New_Gradient_Swatch_copy_23"/><linearGradient id="New_Gradient_Swatch_copy_35-16" x1="5488.01" y1="34.94" x2="5490.17" y2="37.26" xlink:href="#New_Gradient_Swatch_copy_35"/><radialGradient id="Radial_Gradient_1-7" cx="67.36" cy="37.34" r="1.01" xlink:href="#Radial_Gradient_1"/><linearGradient id="New_Gradient_Swatch_copy_42-5" x1="10412.7" y1="47.19" x2="10418.28" y2="47.19" gradientTransform="matrix(-1, 0, 0, 1, 10431.48, 0)" xlink:href="#New_Gradient_Swatch_copy_42"/><linearGradient id="New_Gradient_Swatch_copy_35-17" x1="-4806.6" y1="40.84" x2="-4802.11" y2="45.65" gradientTransform="translate(4819.25)" xlink:href="#New_Gradient_Swatch_copy_35"/><radialGradient id="Radial_Gradient_1-8" cx="10359.78" cy="45.82" r="2.09" gradientTransform="matrix(-1, 0, 0, 1, 10376.66, 0)" xlink:href="#Radial_Gradient_1"/><linearGradient id="New_Gradient_Swatch_copy_35-18" x1="10019.91" y1="45.13" x2="10028.27" y2="42.62" gradientTransform="matrix(-1, 0, 0, 1, 10034.86, 0)" xlink:href="#New_Gradient_Swatch_copy_35"/><linearGradient id="New_Gradient_Swatch_copy_35-19" x1="9983.01" y1="46.4" x2="10036.43" y2="34.43" gradientTransform="matrix(-1, 0, 0, 1, 10034.86, 0)" xlink:href="#New_Gradient_Swatch_copy_35"/><linearGradient id="New_Gradient_Swatch_copy_35-20" x1="10015.81" y1="29.78" x2="10010.83" y2="39.27" gradientTransform="matrix(-1, 0, 0, 1, 10034.86, 0)" xlink:href="#New_Gradient_Swatch_copy_35"/><linearGradient id="New_Gradient_Swatch_copy_23-5" x1="10412.98" y1="41.3" x2="10418" y2="41.3" gradientTransform="matrix(-1, 0, 0, 1, 10431.48, 0)" xlink:href="#New_Gradient_Swatch_copy_23"/><linearGradient id="New_Gradient_Swatch_copy_35-21" x1="-4806.27" y1="35.57" x2="-4802.23" y2="39.91" gradientTransform="translate(4819.25)" xlink:href="#New_Gradient_Swatch_copy_35"/><radialGradient id="Radial_Gradient_1-9" cx="10359.87" cy="40.06" r="1.88" gradientTransform="matrix(-1, 0, 0, 1, 10376.66, 0)" xlink:href="#Radial_Gradient_1"/><linearGradient id="New_Gradient_Swatch_copy_23-6" x1="10414.16" y1="38" x2="10416.84" y2="38" gradientTransform="matrix(-1, 0, 0, 1, 10431.48, 0)" xlink:href="#New_Gradient_Swatch_copy_23"/><linearGradient id="New_Gradient_Swatch_copy_35-22" x1="-4804.88" y1="34.94" x2="-4802.72" y2="37.26" gradientTransform="translate(4819.25)" xlink:href="#New_Gradient_Swatch_copy_35"/><radialGradient id="Radial_Gradient_1-10" cx="10360.25" cy="37.34" r="1.01" gradientTransform="matrix(-1, 0, 0, 1, 10376.66, 0)" xlink:href="#Radial_Gradient_1"/><linearGradient id="New_Gradient_Swatch_copy_23-7" x1="120.09" y1="12.05" x2="125.12" y2="12.05" xlink:href="#New_Gradient_Swatch_copy_23"/><linearGradient id="New_Gradient_Swatch_copy_35-23" x1="5486.61" y1="6.32" x2="5490.66" y2="10.66" xlink:href="#New_Gradient_Swatch_copy_35"/><radialGradient id="Radial_Gradient_1-11" cx="66.98" cy="10.82" r="1.88" xlink:href="#Radial_Gradient_1"/><linearGradient id="New_Gradient_Swatch_copy_23-8" x1="121.27" y1="8.76" x2="123.96" y2="8.76" xlink:href="#New_Gradient_Swatch_copy_23"/><linearGradient id="New_Gradient_Swatch_copy_35-24" x1="5488.01" y1="5.7" x2="5490.17" y2="8.01" xlink:href="#New_Gradient_Swatch_copy_35"/><radialGradient id="Radial_Gradient_1-12" cx="67.36" cy="8.1" r="1.01" xlink:href="#Radial_Gradient_1"/><linearGradient id="New_Gradient_Swatch_copy_23-9" x1="10412.98" y1="12.05" x2="10418" y2="12.05" gradientTransform="matrix(-1, 0, 0, 1, 10431.48, 0)" xlink:href="#New_Gradient_Swatch_copy_23"/><linearGradient id="New_Gradient_Swatch_copy_35-25" x1="-4806.27" y1="6.32" x2="-4802.23" y2="10.66" gradientTransform="translate(4819.25)" xlink:href="#New_Gradient_Swatch_copy_35"/><radialGradient id="Radial_Gradient_1-13" cx="10359.87" cy="10.82" r="1.88" gradientTransform="matrix(-1, 0, 0, 1, 10376.66, 0)" xlink:href="#Radial_Gradient_1"/><linearGradient id="New_Gradient_Swatch_copy_23-10" x1="10414.16" y1="8.76" x2="10416.84" y2="8.76" gradientTransform="matrix(-1, 0, 0, 1, 10431.48, 0)" xlink:href="#New_Gradient_Swatch_copy_23"/><linearGradient id="New_Gradient_Swatch_copy_35-26" x1="-4804.88" y1="5.7" x2="-4802.72" y2="8.01" gradientTransform="translate(4819.25)" xlink:href="#New_Gradient_Swatch_copy_35"/><radialGradient id="Radial_Gradient_1-14" cx="10360.25" cy="8.1" r="1.01" gradientTransform="matrix(-1, 0, 0, 1, 10376.66, 0)" xlink:href="#Radial_Gradient_1"/></defs><g class="cls-1"><g id="Layer_2" data-name="Layer 2"><g id="Layer_1-2" data-name="Layer 1"><path class="cls-2" d="M70.63,15.14H65v4c0,.91,1.27,1.65,2.83,1.65s2.83-.74,2.83-1.65h0Z"/><path class="cls-3" d="M65,15.15c0,.92,1.27,1.65,2.83,1.65s2.83-.73,2.83-1.65-1.26-1.64-2.83-1.64S65,14.24,65,15.15Z"/><path class="cls-4" d="M67.8,16.8c-1.55,0-2.8-.72-2.83-1.62v0c0,.91,1.27,1.65,2.83,1.65s2.83-.74,2.83-1.65v0C70.61,16.08,69.35,16.8,67.8,16.8Z"/><path class="cls-5" d="M13.14,15.14h5.67v4c0,.91-1.27,1.65-2.84,1.65S13.14,20,13.14,19.1h0Z"/><path class="cls-6" d="M18.81,15.15c0,.92-1.27,1.65-2.84,1.65s-2.83-.73-2.83-1.65,1.27-1.64,2.83-1.64S18.81,14.24,18.81,15.15Z"/><path class="cls-7" d="M16,16.8c1.55,0,2.81-.72,2.83-1.62v0c0,.91-1.27,1.65-2.84,1.65s-2.83-.74-2.83-1.65v0C13.17,16.08,14.43,16.8,16,16.8Z"/><path class="cls-8" d="M70.63,44.39H65v4C65,49.26,66.24,50,67.8,50s2.83-.74,2.83-1.65v0h0Z"/><path class="cls-9" d="M65,44.4c0,.91,1.27,1.65,2.83,1.65s2.83-.74,2.83-1.65-1.26-1.65-2.83-1.65S65,43.49,65,44.4Z"/><path class="cls-10" d="M67.8,46.05c-1.55,0-2.8-.73-2.83-1.62v0c0,.92,1.27,1.65,2.83,1.65s2.83-.73,2.83-1.65h0C70.61,45.32,69.35,46.05,67.8,46.05Z"/><polygon class="cls-11" points="52.24 24.43 52.24 27.18 48.63 25.09 48.63 22.3 52.24 24.43"/><polygon class="cls-12" points="52.24 24.43 52.24 27.18 70.33 15.62 70.33 13.9 52.24 24.43"/><polygon class="cls-13" points="70.33 13.9 52.24 24.43 48.63 22.3 66.73 11.79 70.33 13.9"/><polygon class="cls-14" points="31.61 24.43 31.61 27.18 35.22 25.09 35.22 22.3 31.61 24.43"/><polygon class="cls-15" points="31.62 24.43 31.62 27.18 13.53 15.62 13.53 13.9 31.62 24.43"/><polygon class="cls-16" points="13.53 13.9 31.62 24.43 35.22 22.3 17.13 11.79 13.53 13.9"/><path class="cls-17" d="M53.62,31.57H30.11v5.87c0,3.78,5.26,6.84,11.75,6.84s11.76-3.06,11.76-6.84c0,0,0-.06,0-.1h0Z"/><path class="cls-18" d="M55.27,26.92H28.46v6.69c0,4.32,6,7.81,13.4,7.81s13.41-3.49,13.41-7.81v-.1h0Z"/><ellipse class="cls-19" cx="41.86" cy="26.97" rx="13.41" ry="7.81"/><path class="cls-20" d="M41.86,34.75c-7.32,0-13.27-3.42-13.4-7.67v.14c0,4.31,6,7.81,13.4,7.81s13.41-3.5,13.41-7.81a.66.66,0,0,0,0-.14C55.14,31.33,49.19,34.75,41.86,34.75Z"/><ellipse class="cls-21" cx="42.88" cy="26.42" rx="6.78" ry="3.46"/><path class="cls-22" d="M47.23,24.39H36.5v2.12c0,1.73,2.4,3.13,5.36,3.13s5.37-1.4,5.37-3.13v0h0Z"/><path class="cls-23" d="M36.5,24.41c0,1.72,2.4,3.12,5.36,3.12s5.37-1.4,5.37-3.12-2.4-3.13-5.37-3.13S36.5,22.68,36.5,24.41Z"/><path class="cls-24" d="M39.48,24.46c0,.77,1.07,1.39,2.38,1.39s2.38-.62,2.38-1.39-1.06-1.38-2.38-1.38S39.48,23.7,39.48,24.46Z"/><path class="cls-25" d="M41.86,27.52c-2.93,0-5.31-1.37-5.36-3.07v.06c0,1.72,2.4,3.12,5.36,3.12s5.37-1.4,5.37-3.12v-.06C47.17,26.15,44.79,27.52,41.86,27.52Z"/><polygon class="cls-26" points="67.65 45.16 67.65 46.84 71.26 44.75 71.26 43.03 67.65 45.16"/><polygon class="cls-27" points="67.66 45.16 67.66 46.84 48.92 38.01 48.92 34.15 67.66 45.16"/><polygon class="cls-28" points="48.92 34.15 67.66 45.16 71.26 43.03 52.52 32.04 48.92 34.15"/><path class="cls-29" d="M70.35,38.77h-5.1v3.57c0,.82,1.14,1.49,2.55,1.49s2.55-.67,2.55-1.49h0Z"/><ellipse class="cls-30" cx="67.8" cy="38.78" rx="2.55" ry="1.49"/><path class="cls-31" d="M67.8,40.26c-1.39,0-2.53-.65-2.55-1.46v0c0,.83,1.14,1.5,2.55,1.5s2.55-.67,2.55-1.49v0C70.33,39.61,69.2,40.26,67.8,40.26Z"/><path class="cls-32" d="M69.17,36.65H66.44v1.9h0c0,.44.61.79,1.36.79s1.37-.35,1.37-.79h0Z"/><path class="cls-33" d="M66.44,36.66c0,.44.61.79,1.36.79s1.37-.35,1.37-.79-.61-.79-1.37-.79S66.44,36.22,66.44,36.66Z"/><path class="cls-34" d="M67.8,37.45c-.74,0-1.35-.35-1.36-.78v0c0,.43.61.79,1.36.79s1.37-.36,1.37-.79v0C69.15,37.1,68.55,37.45,67.8,37.45Z"/><g class="cls-35"><path class="cls-36" d="M51.83,38.55c0-5.14,7.15-9.3,16-9.3a22.76,22.76,0,0,1,11.44,2.81L56.52,45.13C53.62,43.45,51.83,41.12,51.83,38.55Z"/><path class="cls-37" d="M83.78,38.55c0,5.14-7.16,9.3-16,9.3a22.85,22.85,0,0,1-11.28-2.72L79.24,32.06C82,33.74,83.78,36,83.78,38.55Z"/></g><g class="cls-35"><path class="cls-36" d="M83.78,38.55c0-5.14-7.16-9.3-16-9.3a22.72,22.72,0,0,0-11.43,2.81L79.08,45.13C82,43.45,83.78,41.12,83.78,38.55Z"/><path class="cls-37" d="M51.83,38.55c0,5.14,7.15,9.3,16,9.3a22.82,22.82,0,0,0,11.28-2.72L56.37,32.06C53.56,33.74,51.83,36,51.83,38.55Z"/></g><path class="cls-38" d="M13.14,44.39h5.67v4c0,.91-1.27,1.65-2.84,1.65s-2.83-.74-2.83-1.65v0h0Z"/><path class="cls-39" d="M18.81,44.4c0,.91-1.27,1.65-2.84,1.65s-2.83-.74-2.83-1.65,1.27-1.65,2.83-1.65S18.81,43.49,18.81,44.4Z"/><path class="cls-40" d="M16,46.05c1.55,0,2.81-.73,2.83-1.62v0c0,.92-1.27,1.65-2.84,1.65s-2.83-.73-2.83-1.65h0C13.17,45.32,14.43,46.05,16,46.05Z"/><polygon class="cls-41" points="16.12 45.16 16.12 46.84 12.51 44.75 12.51 43.03 16.12 45.16"/><polygon class="cls-42" points="16.12 45.16 16.12 46.84 34.85 38.01 34.85 34.15 16.12 45.16"/><polygon class="cls-43" points="34.85 34.15 16.12 45.16 12.51 43.03 31.25 32.04 34.85 34.15"/><path class="cls-44" d="M13.42,38.77h5.11v3.57c0,.82-1.15,1.49-2.56,1.49s-2.55-.67-2.55-1.49h0Z"/><ellipse class="cls-45" cx="15.97" cy="38.78" rx="2.55" ry="1.49"/><path class="cls-46" d="M16,40.26c1.4,0,2.53-.65,2.56-1.46v0c0,.83-1.15,1.5-2.56,1.5s-2.55-.67-2.55-1.49v0C13.45,39.61,14.58,40.26,16,40.26Z"/><path class="cls-47" d="M14.61,36.65h2.73v1.9h0c0,.44-.61.79-1.37.79s-1.36-.35-1.36-.79h0Z"/><path class="cls-48" d="M17.34,36.66c0,.44-.61.79-1.37.79s-1.36-.35-1.36-.79.61-.79,1.36-.79S17.34,36.22,17.34,36.66Z"/><path class="cls-49" d="M16,37.45c.75,0,1.35-.35,1.37-.78v0c0,.43-.61.79-1.37.79s-1.36-.36-1.36-.79v0C14.62,37.1,15.23,37.45,16,37.45Z"/><g class="cls-35"><path class="cls-36" d="M32,38.55c0-5.14-7.15-9.3-16-9.3A22.72,22.72,0,0,0,4.54,32.06L27.25,45.13C30.15,43.45,32,41.12,32,38.55Z"/><path class="cls-37" d="M0,38.55c0,5.14,7.15,9.3,16,9.3a22.82,22.82,0,0,0,11.28-2.72L4.54,32.06C1.73,33.74,0,36,0,38.55Z"/></g><g class="cls-35"><path class="cls-36" d="M0,38.55c0-5.14,7.15-9.3,16-9.3a22.74,22.74,0,0,1,11.44,2.81L4.69,45.13C1.79,43.45,0,41.12,0,38.55Z"/><path class="cls-37" d="M32,38.55c0,5.14-7.15,9.3-16,9.3A22.85,22.85,0,0,1,4.69,45.13L27.41,32.06C30.21,33.74,32,36,32,38.55Z"/></g><path class="cls-50" d="M70.35,9.53h-5.1v3.56c0,.82,1.14,1.49,2.55,1.49s2.55-.67,2.55-1.49h0Z"/><path class="cls-51" d="M65.25,9.54c0,.82,1.14,1.48,2.55,1.48s2.55-.66,2.55-1.48S69.21,8.05,67.8,8.05,65.25,8.72,65.25,9.54Z"/><path class="cls-52" d="M67.8,11c-1.39,0-2.53-.65-2.55-1.46h0c0,.83,1.14,1.5,2.55,1.5s2.55-.67,2.55-1.49v0C70.33,10.37,69.2,11,67.8,11Z"/><path class="cls-53" d="M69.17,7.41H66.44V9.3h0c0,.44.61.8,1.36.8s1.37-.36,1.37-.8h0Z"/><path class="cls-54" d="M66.44,7.41c0,.44.61.8,1.36.8s1.37-.36,1.37-.8-.61-.79-1.37-.79S66.44,7,66.44,7.41Z"/><path class="cls-55" d="M67.8,8.2c-.74,0-1.35-.34-1.36-.78v0c0,.44.61.79,1.36.79s1.37-.35,1.37-.79v0C69.15,7.86,68.55,8.2,67.8,8.2Z"/><g class="cls-35"><path class="cls-36" d="M51.83,9.3C51.83,4.16,59,0,67.8,0A22.76,22.76,0,0,1,79.24,2.81L56.52,15.89C53.62,14.2,51.83,11.87,51.83,9.3Z"/><path class="cls-37" d="M83.78,9.3c0,5.14-7.16,9.3-16,9.3a22.85,22.85,0,0,1-11.28-2.71L79.24,2.81C82,4.49,83.78,6.78,83.78,9.3Z"/></g><g class="cls-35"><path class="cls-36" d="M83.78,9.3c0-5.14-7.16-9.3-16-9.3A22.72,22.72,0,0,0,56.37,2.81L79.08,15.89C82,14.2,83.78,11.87,83.78,9.3Z"/><path class="cls-37" d="M51.83,9.3c0,5.14,7.15,9.3,16,9.3a22.82,22.82,0,0,0,11.28-2.71L56.37,2.81C53.56,4.49,51.83,6.78,51.83,9.3Z"/></g><path class="cls-56" d="M13.42,9.53h5.11v3.56c0,.82-1.15,1.49-2.56,1.49s-2.55-.67-2.55-1.49h0Z"/><path class="cls-57" d="M18.53,9.54c0,.82-1.15,1.48-2.56,1.48s-2.55-.66-2.55-1.48S14.56,8.05,16,8.05,18.53,8.72,18.53,9.54Z"/><path class="cls-58" d="M16,11c1.4,0,2.53-.65,2.56-1.46h0c0,.83-1.15,1.5-2.56,1.5s-2.55-.67-2.55-1.49v0C13.45,10.37,14.58,11,16,11Z"/><path class="cls-59" d="M14.61,7.41h2.73V9.3h0c0,.44-.61.8-1.37.8s-1.36-.36-1.36-.8h0Z"/><path class="cls-60" d="M17.34,7.41c0,.44-.61.8-1.37.8s-1.36-.36-1.36-.8.61-.79,1.36-.79S17.34,7,17.34,7.41Z"/><path class="cls-61" d="M16,8.2c.75,0,1.35-.34,1.37-.78v0c0,.44-.61.79-1.37.79s-1.36-.35-1.36-.79v0C14.62,7.86,15.23,8.2,16,8.2Z"/><g class="cls-35"><path class="cls-36" d="M32,9.3C32,4.16,24.8,0,16,0A22.72,22.72,0,0,0,4.54,2.81L27.25,15.89C30.15,14.2,32,11.87,32,9.3Z"/><path class="cls-37" d="M0,9.3c0,5.14,7.15,9.3,16,9.3a22.82,22.82,0,0,0,11.28-2.71L4.54,2.81C1.73,4.49,0,6.78,0,9.3Z"/></g><g class="cls-35"><path class="cls-36" d="M0,9.3C0,4.16,7.15,0,16,0A22.74,22.74,0,0,1,27.41,2.81L4.69,15.89C1.79,14.2,0,11.87,0,9.3Z"/><path class="cls-37" d="M32,9.3c0,5.14-7.15,9.3-16,9.3A22.85,22.85,0,0,1,4.69,15.89L27.41,2.81C30.21,4.49,32,6.78,32,9.3Z"/></g></g></g></g></svg>