<svg id="Layer_5" enable-background="new 0 0 64 64" height="512" viewBox="0 0 64 64" width="512" xmlns="http://www.w3.org/2000/svg"><g><path d="m37 45h12v4h-12z"/><path d="m58.706 39.956-.125-.547c-.396-1.725-1.078-3.367-2.026-4.881l-.298-.476 1.083-2.168-3.223-3.223-2.168 1.083-.476-.298c-1.514-.949-3.156-1.63-4.881-2.026l-.547-.125-.766-2.295h-4.559l-.765 2.294-.547.125c-1.725.396-3.367 1.078-4.881 2.026l-.476.298-2.168-1.083-3.223 3.223 1.083 2.168-.298.476c-.949 1.514-1.63 3.156-2.026 4.881l-.125.547-2.294.766v4.559l2.294.765.125.547c.396 1.725 1.078 3.367 2.026 4.881l.298.476-1.083 2.168 3.223 3.223 2.168-1.083.476.298c1.514.949 3.156 1.63 4.881 2.026l.547.125.766 2.294h4.559l.765-2.294.547-.125c1.725-.396 3.367-1.078 4.881-2.026l.476-.298 2.168 1.083 3.223-3.223-1.083-2.168.298-.476c.949-1.514 1.63-3.156 2.026-4.881l.125-.547 2.294-.766v-4.559zm-3.706 15.044h-24v-24h24z"/><path d="m27.458 33.951-1.23-2.461 5.262-5.262 2.461 1.23c1.403-.819 2.899-1.44 4.46-1.851l.868-2.607h7.441l.869 2.606c1.561.411 3.057 1.032 4.46 1.852l2.462-1.231.489.488v-15.715h-52v31c0 .551.449 1 1 1h19v-3.721l2.606-.869c.412-1.56 1.032-3.056 1.852-4.459zm15.542-20.951h10v2h-10zm0 4h10v2h-10zm-38 18h2v2h-2zm16 6h-16v-2h16zm0-4h-12v-2h12zm-4.142-19c-.364 1.399-1.459 2.494-2.858 2.858v4.142h7v8h-16v-8h7v-4.142c-1.72-.447-3-2-3-3.858 0-2.206 1.794-4 4-4 1.858 0 3.411 1.28 3.858 3h8.142v-3h16v8h-16v-3z"/><circle cx="13" cy="17" r="2"/><path d="m27 15h12v4h-12z"/><path d="m55 4c0-.551-.449-1-1-1h-50c-.551 0-1 .449-1 1v5h52zm-48 3h-2v-2h2zm4 0h-2v-2h2zm4 0h-2v-2h2z"/><path d="m7 27h12v4h-12z"/><path d="m53 33h-20v20h20zm-18 2h2v2h-2zm16 16h-16v-8h16zm0-10h-16v-2h16zm0-4h-12v-2h12z"/></g></svg>