<svg xmlns="http://www.w3.org/2000/svg" xmlns:xlink="http://www.w3.org/1999/xlink" viewBox="0 0 54.69 77.16"><defs><style>.cls-1{isolation:isolate;}.cls-2{opacity:0.2;}.cls-3{opacity:0;}.cls-4{opacity:0.09;}.cls-5{opacity:0.18;}.cls-6{opacity:0.27;}.cls-7{opacity:0.36;}.cls-8{opacity:0.45;}.cls-9{opacity:0.55;}.cls-10{opacity:0.64;}.cls-11{opacity:0.73;}.cls-12,.cls-16{opacity:0.82;}.cls-13{opacity:0.91;}.cls-14{fill:url(#linear-gradient);}.cls-15{fill:url(#New_Gradient_Swatch_copy_34);}.cls-16,.cls-21{mix-blend-mode:multiply;}.cls-16{fill:url(#New_Gradient_Swatch_1);}.cls-17{fill:#fff;}.cls-18,.cls-24{mix-blend-mode:color-dodge;}.cls-18{fill:url(#radial-gradient);}.cls-19{fill:url(#New_Gradient_Swatch_copy_34-2);}.cls-20{fill:url(#linear-gradient-2);}.cls-21{fill:#bcbec0;}.cls-22{fill:url(#linear-gradient-3);}.cls-23{mix-blend-mode:screen;fill:url(#Radial_Gradient_1);}.cls-24{fill:url(#radial-gradient-2);}</style><linearGradient id="linear-gradient" x1="6451.34" y1="62.84" x2="6486.96" y2="62.84" gradientTransform="matrix(-1, 0, 0, 1, 6499.26, 0)" gradientUnits="userSpaceOnUse"><stop offset="0.06" stop-color="#9f79b8"/><stop offset="0.26" stop-color="#a17bba"/><stop offset="0.36" stop-color="#a783bf"/><stop offset="0.43" stop-color="#b290c9"/><stop offset="0.49" stop-color="#c1a1d5"/><stop offset="0.51" stop-color="#c4a5d7"/><stop offset="0.52" stop-color="#cdb3dd"/><stop offset="0.53" stop-color="#dbc8e7"/><stop offset="0.55" stop-color="#efe7f4"/><stop offset="0.56" stop-color="#fff"/><stop offset="0.57" stop-color="#ece0f3"/><stop offset="0.58" stop-color="#ddc8ea"/><stop offset="0.59" stop-color="#d4b9e5"/><stop offset="0.6" stop-color="#d1b4e3"/><stop offset="0.66" stop-color="#b395d6"/><stop offset="0.72" stop-color="#9c7dcb"/><stop offset="0.77" stop-color="#8e6ec5"/><stop offset="0.81" stop-color="#8969c3"/><stop offset="1" stop-color="#b086cc"/></linearGradient><linearGradient id="New_Gradient_Swatch_copy_34" x1="6461.48" y1="65.13" x2="6477.62" y2="56.2" gradientTransform="matrix(-1, 0, 0, 1, 6499.26, 0)" gradientUnits="userSpaceOnUse"><stop offset="0" stop-color="#9f79c8"/><stop offset="0.14" stop-color="#a27dca"/><stop offset="0.27" stop-color="#ac88cf"/><stop offset="0.4" stop-color="#bc9bd7"/><stop offset="0.52" stop-color="#d1b4e3"/><stop offset="0.65" stop-color="#dbc4e9"/><stop offset="0.9" stop-color="#f4edf8"/><stop offset="1" stop-color="#fff"/></linearGradient><linearGradient id="New_Gradient_Swatch_1" x1="6470.04" y1="60.91" x2="6473.21" y2="55.59" gradientTransform="matrix(-1, 0, 0, 1, 6499.26, 0)" gradientUnits="userSpaceOnUse"><stop offset="0" stop-color="#fff"/><stop offset="1"/></linearGradient><radialGradient id="radial-gradient" cx="7154.13" cy="2004.31" r="6.93" gradientTransform="matrix(-0.92, -0.38, -0.25, 0.61, 7149, 1560.79)" gradientUnits="userSpaceOnUse"><stop offset="0" stop-color="#972a74"/><stop offset="0.04" stop-color="#8a266a"/><stop offset="0.19" stop-color="#601b4a"/><stop offset="0.35" stop-color="#3d112f"/><stop offset="0.51" stop-color="#230a1b"/><stop offset="0.67" stop-color="#0f040c"/><stop offset="0.83" stop-color="#040103"/><stop offset="1"/></radialGradient><linearGradient id="New_Gradient_Swatch_copy_34-2" x1="83.49" y1="-11.58" x2="-3.8" y2="64.24" gradientTransform="matrix(1, 0, 0, 1, 0, 0)" xlink:href="#New_Gradient_Swatch_copy_34"/><linearGradient id="linear-gradient-2" x1="6491.03" y1="67.57" x2="6450.03" y2="4.01" gradientTransform="matrix(-1, 0, 0, 1, 6499.26, 0)" gradientUnits="userSpaceOnUse"><stop offset="0" stop-color="#2a0c5c"/><stop offset="0.69" stop-color="#5f27bd"/><stop offset="1" stop-color="#b4299a"/></linearGradient><linearGradient id="linear-gradient-3" x1="6507.75" y1="73.04" x2="6464.86" y2="4.5" xlink:href="#linear-gradient"/><radialGradient id="Radial_Gradient_1" cx="6495.71" cy="30.97" r="7.3" gradientTransform="matrix(-1, 0, 0, 1, 6499.26, 0)" xlink:href="#New_Gradient_Swatch_1"/><radialGradient id="radial-gradient-2" cx="2517.14" cy="339.06" r="4.39" gradientTransform="matrix(-0.38, 0.92, 0.61, 0.25, 751.76, -2383.73)" xlink:href="#radial-gradient"/></defs><g class="cls-1"><g id="Layer_2" data-name="Layer 2"><g id="Layer_1-2" data-name="Layer 1"><g class="cls-2"><path class="cls-3" d="M28.17,74.33a5.13,5.13,0,0,0,2.58-.63L48.68,63.29a2.73,2.73,0,0,0,1.49-2.36,3.17,3.17,0,0,0-1.79-2.68l-15.74-6a6.28,6.28,0,0,0-3.13-.8,5.11,5.11,0,0,0-2.58.62L14.87,59.08a2.75,2.75,0,0,0-1.48,2.36,3.17,3.17,0,0,0,1.79,2.68L25,73.53A6.42,6.42,0,0,0,28.17,74.33Z"/><path class="cls-4" d="M27,52.14l-11.93,7-.13.08a2.5,2.5,0,0,0-1.31,2.36,3.5,3.5,0,0,0,1.8,2.6l9.68,9.24a6,6,0,0,0,3.24.74,5.48,5.48,0,0,0,2.53-.67L48.62,63.17A2.6,2.6,0,0,0,50,60.92a3.07,3.07,0,0,0-1.72-2.55l-15.64-6a5.6,5.6,0,0,0-1.09-.47,6.44,6.44,0,0,0-2-.34A5.11,5.11,0,0,0,27,52.14Z"/><path class="cls-5" d="M27.06,52.26l-11.95,7-.13.08a2.29,2.29,0,0,0-1.13,2.35,3.94,3.94,0,0,0,1.82,2.53l9.5,9.07A5.81,5.81,0,0,0,28.5,74,6,6,0,0,0,31,73.25l17.56-10.2a2.46,2.46,0,0,0,1.34-2.14,2.9,2.9,0,0,0-1.65-2.42l-15.54-6A7.16,7.16,0,0,0,31.61,52a6.56,6.56,0,0,0-2-.36A4.93,4.93,0,0,0,27.06,52.26Z"/><path class="cls-6" d="M27.13,52.38l-12,7-.13.08a1.92,1.92,0,0,0-1,2.36,3.92,3.92,0,0,0,1.83,2.45l9.33,8.9a5.54,5.54,0,0,0,3.43.63A6.43,6.43,0,0,0,31.11,73L48.48,62.93a2.29,2.29,0,0,0,1.27-2,2.81,2.81,0,0,0-1.57-2.3L32.73,52.66a8.91,8.91,0,0,0-1.09-.46,6.44,6.44,0,0,0-2-.38A4.77,4.77,0,0,0,27.13,52.38Z"/><path class="cls-7" d="M27.2,52.5l-12,7-.14.08a1.73,1.73,0,0,0-.77,2.35,4.28,4.28,0,0,0,1.83,2.38l9.16,8.73a5.36,5.36,0,0,0,3.52.58,7.06,7.06,0,0,0,2.39-.83l17.19-10a2.18,2.18,0,0,0,1.21-1.92,2.68,2.68,0,0,0-1.51-2.17l-15.35-5.9a10.81,10.81,0,0,0-1.09-.46,6.27,6.27,0,0,0-2-.4A4.63,4.63,0,0,0,27.2,52.5Z"/><path class="cls-8" d="M27.27,52.61l-12,7-.13.09a1.6,1.6,0,0,0-.6,2.35c0,.57,1.23,1.94,1.85,2.3l9,8.57a5.23,5.23,0,0,0,3.62.51,8,8,0,0,0,2.34-.88l17-9.87a2,2,0,0,0,1.14-1.82,2.54,2.54,0,0,0-1.44-2L32.79,53a9.58,9.58,0,0,0-1.09-.45,6.11,6.11,0,0,0-1.93-.43A4.64,4.64,0,0,0,27.27,52.61Z"/><path class="cls-9" d="M27.34,52.73l-12,7-.13.08a1.49,1.49,0,0,0-.43,2.35c0,.48,1.35,1.93,1.86,2.23l8.8,8.4a5.11,5.11,0,0,0,3.73.46,9.27,9.27,0,0,0,2.29-.94l16.81-9.76a1.91,1.91,0,0,0,1.07-1.7A2.42,2.42,0,0,0,48,59L32.82,53.13c-.15-.09-.91-.38-1.08-.44a6.49,6.49,0,0,0-1.92-.45A4.48,4.48,0,0,0,27.34,52.73Z"/><path class="cls-10" d="M27.4,52.85l-12,7-.14.09A1.41,1.41,0,0,0,15,62.32a6.72,6.72,0,0,0,1.88,2.15l8.62,8.23a5,5,0,0,0,3.82.4,12,12,0,0,0,2.25-1L48.2,62.46a1.75,1.75,0,0,0,1-1.59,2.26,2.26,0,0,0-1.3-1.79l-15-5.79c-.12-.07-.94-.39-1.08-.44a6.31,6.31,0,0,0-1.9-.47A4.38,4.38,0,0,0,27.4,52.85Z"/><path class="cls-11" d="M27.47,53l-12,7a.67.67,0,0,0-.14.09,1.35,1.35,0,0,0-.08,2.34,8.72,8.72,0,0,0,1.89,2.08l8.45,8.06a4.89,4.89,0,0,0,3.92.35,15.28,15.28,0,0,0,2.2-1l16.44-9.55a1.63,1.63,0,0,0,.93-1.48,2.15,2.15,0,0,0-1.24-1.66L32.88,53.44c-.09,0-1-.39-1.08-.43a6.44,6.44,0,0,0-1.87-.49A4.41,4.41,0,0,0,27.47,53Z"/><path class="cls-12" d="M27.54,53.09l-12,7-.14.09c-.92.62-.87,1.61.1,2.35a12.76,12.76,0,0,0,1.91,2l8.27,7.89a4.8,4.8,0,0,0,4,.29,20.47,20.47,0,0,0,2.14-1.09l16.26-9.44a1.5,1.5,0,0,0,.86-1.37,2.06,2.06,0,0,0-1.16-1.53L32.91,53.6c-.06,0-1-.4-1.08-.43A6.34,6.34,0,0,0,30,52.66,4.27,4.27,0,0,0,27.54,53.09Z"/><path class="cls-13" d="M27.61,53.21l-12,7-.14.09c-.92.63-.81,1.63.27,2.34a24.94,24.94,0,0,0,1.92,1.93l8.1,7.72a4.71,4.71,0,0,0,4.11.23c.09,0,2-1.1,2.1-1.13L48,62.1a1.33,1.33,0,0,0,.79-1.26,1.94,1.94,0,0,0-1.09-1.41L32.94,53.76l-1.08-.42A6.16,6.16,0,0,0,30,52.8,4.12,4.12,0,0,0,27.61,53.21Z"/><path d="M30,72.4,47.93,62c1.08-.63,1-1.72-.3-2.44l-15.74-6a4.69,4.69,0,0,0-4.21-.18l-12,7.07c-1.08.62-1,1.71.3,2.43l9.86,9.41A4.69,4.69,0,0,0,30,72.4Z"/></g><path class="cls-14" d="M30,72.37,47.93,62a1.27,1.27,0,0,0,.73-1V59.57c0-.47-.36.35-1,0L31.89,53.47a4.69,4.69,0,0,0-4.21-.17l-12,7.06c-.36.21-.63-.67-.72-.39,0,.09,0,1.33,0,1.43a1.72,1.72,0,0,0,1,1.39l9.86,9.41A4.65,4.65,0,0,0,30,72.37Z"/><path class="cls-15" d="M30,71.05,47.93,60.63c1.08-.62,1-1.71-.3-2.43L31.89,52.14A4.69,4.69,0,0,0,27.68,52L15.63,59c-1.08.62-1,1.71.3,2.43l9.86,9.41A4.69,4.69,0,0,0,30,71.05Z"/><path class="cls-16" d="M15.63,59l12-7.06a4.69,4.69,0,0,1,4.21.17l7.93,3a1.21,1.21,0,0,1-.25.17L21.64,65.78a3.13,3.13,0,0,1-.86.32l-4.85-4.64C14.68,60.74,14.55,59.65,15.63,59Z"/><path class="cls-17" d="M15.93,61.24l9.86,9.4a4.69,4.69,0,0,0,4.21.18L47.93,60.4a1.27,1.27,0,0,0,.72-.95,1.2,1.2,0,0,1-.72,1.18L30,71.05a4.69,4.69,0,0,1-4.21-.18l-9.86-9.41c-.73-.42-1.08-1-1-1.47A1.82,1.82,0,0,0,15.93,61.24Z"/><path class="cls-18" d="M20.05,69.51c-1,2.36,1.12,5.44,4.66,6.9s7.2.73,8.16-1.62-1.12-5.44-4.66-6.9S21,67.16,20.05,69.51Z"/><path class="cls-19" d="M6.57,71.1l44-25.44c2.25-1.3,4.08-4.79,4.08-7.79V4.19c0-3-1.83-4.39-4.08-3.09l-44,25.45c-2.25,1.3-4.08,4.79-4.08,7.79V68C2.49,71,4.32,72.4,6.57,71.1Z"/><path class="cls-20" d="M6.05,68.76,49.47,43.67a6.93,6.93,0,0,0,2.93-5.8V4a.73.73,0,0,0-1.09-.62l-.13.08L7.72,28.53a6.29,6.29,0,0,0-2.94,5.81v33.8A.78.78,0,0,0,6,68.81Z"/><path class="cls-21" d="M4.78,34.34v33.8A.78.78,0,0,0,6,68.81l.1,0L49.47,43.67a6.93,6.93,0,0,0,2.93-5.8V4a.73.73,0,0,0-1.09-.62l-.13.08L7.72,28.53A6.29,6.29,0,0,0,4.78,34.34Zm.46,0A5.9,5.9,0,0,1,8,28.93L51.54,3.74a.22.22,0,0,1,.13,0,.27.27,0,0,1,.27.26V37.87a6.47,6.47,0,0,1-2.7,5.41L5.72,68.41a.3.3,0,0,1-.15,0,.33.33,0,0,1-.33-.32Z"/><path class="cls-22" d="M5.42,25.94,49.46.49A2.72,2.72,0,0,1,51.84.14c.09,0,1.22.64,1.3.68h0a2.71,2.71,0,0,0-2.54.28l-44,25.45c-2.25,1.3-4.08,4.79-4.08,7.79V68c0,1.87.72,3.12,1.8,3.47a.74.74,0,0,1-.36-.12L2.6,70.61a3.76,3.76,0,0,1-1.26-3.2V33.73C1.34,30.72,3.16,27.24,5.42,25.94Z"/><path class="cls-23" d="M6.38,26.45,50.42,1A2.69,2.69,0,0,1,52.87.69a3.06,3.06,0,0,0-2,.46L6.86,26.6c-2.25,1.3-4.07,4.79-4.07,7.79V68.07c0,1.77.64,3,1.62,3.4C3.15,71.27,2.3,70,2.3,67.92V34.24C2.3,31.24,4.12,27.75,6.38,26.45Z"/><path class="cls-24" d="M1.5,34C3,34.59,5,33.27,5.87,31s.46-4.56-1-5.17S1.4,26.57.48,28.81,0,33.37,1.5,34Z"/></g></g></g></svg>