<svg id="Layer_35" enable-background="new 0 0 63.125 62" height="512" viewBox="0 0 63.125 62" width="512" xmlns="http://www.w3.org/2000/svg" xmlns:xlink="http://www.w3.org/1999/xlink"><linearGradient id="SVGID_1_" gradientUnits="userSpaceOnUse" x1="31.563" x2="31.563" y1="62" y2="0"><stop offset="0" stop-color="#9f2fff"/><stop offset="1" stop-color="#0bb1d3"/></linearGradient><path d="m28.563 28c0 1.103.897 2 2 2h2c2.206 0 4 1.794 4 4s-1.794 4-4 4v2h-2v-2c-2.206 0-4-1.794-4-4h2c0 1.103.897 2 2 2h2c1.103 0 2-.897 2-2s-.897-2-2-2h-2c-2.206 0-4-1.794-4-4s1.794-4 4-4v-2h2v2c2.206 0 4 1.794 4 4h-2c0-1.103-.897-2-2-2h-2c-1.103 0-2 .897-2 2zm17.265-1.605 2.734.876v7.459l-2.734.876c-.249.774-.557 1.521-.919 2.229l1.312 2.549-5.274 5.273-2.549-1.311c-.708.362-1.455.67-2.229.919l-.877 2.735h-7.459l-.876-2.734c-.774-.249-1.521-.557-2.229-.919l-2.549 1.311-5.274-5.273 1.312-2.549c-.362-.709-.67-1.455-.919-2.229l-2.734-.876v-7.459l2.734-.876c.249-.773.557-1.52.919-2.229l-1.312-2.549 5.274-5.274 2.549 1.312c.71-.362 1.456-.67 2.229-.919l.876-2.737h7.459l.876 2.734c.773.249 1.52.557 2.229.919l2.549-1.312 5.274 5.274-1.312 2.549c.363.711.671 1.457.92 2.231zm.735 2.334-2.356-.754-.146-.517c-.279-.988-.667-1.93-1.153-2.797l-.262-.469 1.13-2.194-3.212-3.212-2.194 1.13-.47-.261c-.867-.486-1.809-.874-2.797-1.153l-.517-.146-.753-2.356h-4.541l-.754 2.356-.517.146c-.988.279-1.93.667-2.797 1.153l-.469.262-2.194-1.13-3.212 3.212 1.13 2.194-.262.469c-.486.867-.874 1.809-1.153 2.797l-.146.517-2.356.754v4.541l2.356.754.146.517c.28.99.668 1.931 1.152 2.797l.263.468-1.13 2.195 3.212 3.211 2.195-1.129.468.263c.866.484 1.807.872 2.797 1.152l.517.146.754 2.355h4.541l.754-2.356.517-.146c.99-.28 1.931-.668 2.797-1.152l.468-.263 2.195 1.129 3.212-3.211-1.13-2.195.263-.468c.484-.866.872-1.807 1.152-2.797l.146-.517 2.356-.754zm8-17.864 8.562 7.135-8.562 7.135v-3.135h-2v40h-42v-14h-2v3.135l-8.563-7.135 8.563-7.135v3.135h2v-29.414l10.585-10.586h31.414v14h2v-3.135zm-40.586-.865h6.586v-6.586zm42.586 6h-10v-2h4v-12h-28v10h-10v28h2v2h-8v-.865l-3.438 2.865 3.438 2.865v-.865h10v2h-4v12h38v-38h-2v-2h8v.865l3.437-2.865-3.437-2.865zm-42 34h8v8h-8zm2 6h4v-4h-4zm8-6h8v8h-8zm2 6h4v-4h-4zm8-4v2h2v-2zm4 2h10v-2h-10zm-4 4h14v-2h-14zm-8-54h-2v2h2zm8 0h-2v2h2zm4 0h-2v2h2zm-8 0h-2v2h2zm14 10h-2v2h2zm-26 32v2h2v-2z" fill="url(#SVGID_1_)"/></svg>