<svg id="Capa_1" enable-background="new 0 0 512 512" height="512" viewBox="0 0 512 512" width="512" xmlns="http://www.w3.org/2000/svg" xmlns:xlink="http://www.w3.org/1999/xlink"><linearGradient id="SVGID_1_" gradientUnits="userSpaceOnUse" x1="0" x2="512" y1="256" y2="256"><stop offset="0" stop-color="#9dd6fc"/><stop offset=".0056" stop-color="#9dd6fc"/><stop offset="1" stop-color="#d17ff7"/></linearGradient><g><g><path d="m256 0c-143.551 0-256 112.449-256 256s112.449 256 256 256 256-112.449 256-256-112.449-256-256-256zm0 40c19.877 0 40 12.366 40 36 0 22.056-17.944 40-40 40-55.904 0-104.252 32.941-126.674 80.429-14.164-12.692-32.856-20.429-53.326-20.429-7.797 0-15.341 1.143-22.472 3.323 30.315-82.188 108.486-139.323 202.472-139.323zm100 216c0 55.14-44.86 100-100 100s-100-44.86-100-100 44.86-100 100-100 100 44.86 100 100zm-176.677 202.472c-82.188-30.315-139.323-108.486-139.323-202.472 0-19.877 12.366-40 36-40 22.056 0 40 17.944 40 40 0 55.904 32.941 104.252 80.429 126.674-12.692 14.164-20.429 32.856-20.429 53.326 0 7.797 1.143 15.341 3.323 22.472zm76.677 13.528c-19.877 0-40-12.366-40-36 0-22.056 17.944-40 40-40 55.904 0 104.252-32.941 126.674-80.429 14.164 12.692 32.856 20.429 53.326 20.429 7.797 0 15.341-1.143 22.472-3.323-30.315 82.188-108.486 139.323-202.472 139.323zm180-176c-22.056 0-40-17.944-40-40 0-55.904-32.941-104.252-80.429-126.674 12.692-14.164 20.429-32.856 20.429-53.326 0-7.797-1.143-15.341-3.323-22.472 82.188 30.315 139.323 108.486 139.323 202.472 0 19.877-12.366 40-36 40z" fill="url(#SVGID_1_)"/></g></g></svg>