<svg xmlns="http://www.w3.org/2000/svg" xmlns:xlink="http://www.w3.org/1999/xlink" viewBox="0 0 36.73 67.25"><defs><style>.cls-1{isolation:isolate;}.cls-2{opacity:0.2;}.cls-3{opacity:0;}.cls-4{opacity:0.09;}.cls-5{opacity:0.18;}.cls-6{opacity:0.27;}.cls-7{opacity:0.36;}.cls-8{opacity:0.45;}.cls-9{opacity:0.55;}.cls-10{opacity:0.64;}.cls-11{opacity:0.73;}.cls-12{opacity:0.82;}.cls-13{opacity:0.91;}.cls-14{fill:url(#linear-gradient);}.cls-15{opacity:0.6;mix-blend-mode:screen;fill:url(#radial-gradient);}.cls-16{fill:#fff;}.cls-17{fill:url(#New_Gradient_Swatch_copy_34);}.cls-18{fill:url(#New_Gradient_Swatch_copy_25);}.cls-19{fill:url(#linear-gradient-2);}.cls-20{fill:#bcbec0;}.cls-20,.cls-21{mix-blend-mode:multiply;}.cls-21{fill:#8969c3;}</style><linearGradient id="linear-gradient" x1="-934.48" y1="1.37" x2="-912.04" y2="40.23" gradientTransform="translate(933.61)" gradientUnits="userSpaceOnUse"><stop offset="0.06" stop-color="#9f79b8"/><stop offset="0.26" stop-color="#a17bba"/><stop offset="0.36" stop-color="#a783bf"/><stop offset="0.43" stop-color="#b290c9"/><stop offset="0.49" stop-color="#c1a1d5"/><stop offset="0.51" stop-color="#c4a5d7"/><stop offset="0.52" stop-color="#cdb3dd"/><stop offset="0.53" stop-color="#dbc8e7"/><stop offset="0.55" stop-color="#efe7f4"/><stop offset="0.56" stop-color="#fff"/><stop offset="0.57" stop-color="#ece0f3"/><stop offset="0.58" stop-color="#ddc8ea"/><stop offset="0.59" stop-color="#d4b9e5"/><stop offset="0.6" stop-color="#d1b4e3"/><stop offset="0.66" stop-color="#b395d6"/><stop offset="0.72" stop-color="#9c7dcb"/><stop offset="0.77" stop-color="#8e6ec5"/><stop offset="0.81" stop-color="#8969c3"/><stop offset="1" stop-color="#b086cc"/></linearGradient><radialGradient id="radial-gradient" cx="-905.46" cy="14.53" r="24.25" gradientTransform="translate(933.61)" gradientUnits="userSpaceOnUse"><stop offset="0" stop-color="#af8afc"/><stop offset="1" stop-color="#10054d"/></radialGradient><linearGradient id="New_Gradient_Swatch_copy_34" x1="-17.66" y1="50.48" x2="30.74" y2="24.67" gradientUnits="userSpaceOnUse"><stop offset="0" stop-color="#9f79c8"/><stop offset="0.14" stop-color="#a27dca"/><stop offset="0.27" stop-color="#ac88cf"/><stop offset="0.4" stop-color="#bc9bd7"/><stop offset="0.52" stop-color="#d1b4e3"/><stop offset="0.65" stop-color="#dbc4e9"/><stop offset="0.9" stop-color="#f4edf8"/><stop offset="1" stop-color="#fff"/></linearGradient><linearGradient id="New_Gradient_Swatch_copy_25" x1="-930.45" y1="30.67" x2="-906.07" y2="30.67" gradientTransform="translate(933.61)" gradientUnits="userSpaceOnUse"><stop offset="0" stop-color="#25054d"/><stop offset="1" stop-color="#45108a"/></linearGradient><linearGradient id="linear-gradient-2" x1="-930.87" y1="6.62" x2="-899.56" y2="66.32" gradientTransform="translate(933.61)" gradientUnits="userSpaceOnUse"><stop offset="0.01" stop-color="#9f19ab"/><stop offset="0.43" stop-color="#5f27bd"/><stop offset="0.9" stop-color="#3d065f"/></linearGradient></defs><g class="cls-1"><g id="Layer_2" data-name="Layer 2"><g id="Layer_1-2" data-name="Layer 1"><g class="cls-2"><path class="cls-3" d="M27.23,67.25a7.11,7.11,0,0,1-3.58-.87l-10.8-6.23L2.05,53.91a3.81,3.81,0,0,1-2-3.27,4.39,4.39,0,0,1,2.47-3.71l2.69-1.59A8.7,8.7,0,0,1,9.5,44.23a7.24,7.24,0,0,1,3.58.86l10.8,6.24,10.8,6.24a3.78,3.78,0,0,1,2,3.27,4.41,4.41,0,0,1-2.47,3.71l-2.69,1.59A8.83,8.83,0,0,1,27.23,67.25Z"/><path class="cls-4" d="M2.57,47.09l.55-.31s2-1.2,2.1-1.21a8.62,8.62,0,0,1,4.27-1l.6,0A7.71,7.71,0,0,1,13,45.5l10.6,6.13,10.6,6.12a4.31,4.31,0,0,1,2,2.38,3.69,3.69,0,0,1,.12.74A4.07,4.07,0,0,1,34,64.52l-.55.31s-2,1.2-2.1,1.21A8.65,8.65,0,0,1,27,67c-.2,0-.39,0-.59,0a7.6,7.6,0,0,1-2.89-.88L13,60,2.35,53.86a4.27,4.27,0,0,1-2-2.38,3.69,3.69,0,0,1-.12-.74A4.07,4.07,0,0,1,2.57,47.09Z"/><path class="cls-5" d="M2.66,47.26l.55-.3c.1-.06,2-1.13,2.07-1.16a8.42,8.42,0,0,1,4.2-.86c.2,0,.39,0,.58.06a8.21,8.21,0,0,1,2.82.91l10.41,6,10.39,6a4.65,4.65,0,0,1,2,2.27,4.2,4.2,0,0,1,.17.7,3.76,3.76,0,0,1-2.19,3.58l-.55.3c-.1.06-2,1.13-2.08,1.16a8.48,8.48,0,0,1-4.2.86c-.19,0-.38,0-.57-.06a8.21,8.21,0,0,1-2.82-.91L13,59.82l-10.39-6a4.65,4.65,0,0,1-2-2.27,4.2,4.2,0,0,1-.17-.7A3.76,3.76,0,0,1,2.66,47.26Z"/><path class="cls-6" d="M2.76,47.42l.54-.28c.15-.09,1.87-1.07,2.05-1.1a8.17,8.17,0,0,1,4.13-.74c.19,0,.37.05.56.07a9.33,9.33,0,0,1,2.74.94L23,52.22l10.19,5.89a5.17,5.17,0,0,1,2,2.16,4,4,0,0,1,.2.67c.24,1.29-.49,2.62-2,3.51l-.55.28c-.15.09-1.87,1.07-2,1.1a8.26,8.26,0,0,1-4.13.75l-.56-.08a9.05,9.05,0,0,1-2.74-.94L13.13,59.65,2.94,53.77a5.29,5.29,0,0,1-2-2.16,4.26,4.26,0,0,1-.2-.67C.47,49.64,1.2,48.32,2.76,47.42Z"/><path class="cls-7" d="M2.85,47.58l.54-.26a21.46,21.46,0,0,1,2-1,8,8,0,0,1,4.06-.62c.19,0,.37.07.54.09a10.61,10.61,0,0,1,2.66,1l10,5.79,10,5.78a5.94,5.94,0,0,1,2.06,2.05A4.8,4.8,0,0,1,35,61c.31,1.25-.36,2.56-1.91,3.45l-.54.26a21.46,21.46,0,0,1-2,1,8,8,0,0,1-4.06.62c-.18,0-.36-.06-.54-.09a9.89,9.89,0,0,1-2.66-1l-10-5.79-10-5.77a6.12,6.12,0,0,1-2.06-2A5.55,5.55,0,0,1,.94,51C.63,49.79,1.31,48.48,2.85,47.58Z"/><path class="cls-8" d="M2.94,47.75l.54-.25a17.56,17.56,0,0,1,2-1,7.8,7.8,0,0,1,4-.51l.53.11a12.39,12.39,0,0,1,2.58,1l9.84,5.68,9.79,5.65a7.48,7.48,0,0,1,2.08,1.94c.09.21.21.4.28.6.39,1.2-.24,2.5-1.77,3.39l-.54.24a15.42,15.42,0,0,1-2,1,7.9,7.9,0,0,1-4,.5L25.74,66a12,12,0,0,1-2.58-1l-9.84-5.68L3.54,53.67a7.08,7.08,0,0,1-2.08-1.94,5.38,5.38,0,0,1-.28-.6C.78,49.93,1.41,48.64,2.94,47.75Z"/><path class="cls-9" d="M3,47.91l.53-.23a13.21,13.21,0,0,1,2-.94,7.6,7.6,0,0,1,3.91-.38c.18,0,.35.09.52.12a14.45,14.45,0,0,1,2.5,1.06l9.64,5.57,9.59,5.53c.47.28,2,1.38,2.1,1.83a2.44,2.44,0,0,1,.32.56c.48,1.15-.1,2.44-1.63,3.32l-.52.24a14.85,14.85,0,0,1-2,.94,7.74,7.74,0,0,1-3.92.38c-.18,0-.34-.1-.51-.13a14.53,14.53,0,0,1-2.51-1l-9.64-5.57L3.83,53.62c-.47-.27-2-1.37-2.1-1.83a2.25,2.25,0,0,1-.32-.56C.94,50.08,1.51,48.8,3,47.91Z"/><path class="cls-10" d="M3.13,48.08l.53-.22A11.41,11.41,0,0,1,5.6,47a7.43,7.43,0,0,1,3.84-.26c.18,0,.34.11.5.15a19.2,19.2,0,0,1,2.43,1.08l9.45,5.46,9.39,5.42c.37.22,2,1.36,2.12,1.72a2.48,2.48,0,0,1,.36.53c.56,1.1,0,2.37-1.49,3.25l-.52.22a11,11,0,0,1-1.94.88,7.46,7.46,0,0,1-3.85.26l-.5-.14A17.91,17.91,0,0,1,23,64.45L13.51,59,4.13,53.58c-.38-.22-2-1.36-2.13-1.73a2.16,2.16,0,0,1-.35-.52C1.09,50.23,1.61,49,3.13,48.08Z"/><path class="cls-11" d="M3.23,48.24l.52-.2a9.35,9.35,0,0,1,1.91-.83,7.07,7.07,0,0,1,3.78-.14c.16,0,.32.12.48.16a25.51,25.51,0,0,1,2.35,1.12l9.26,5.35L30.71,59a11.38,11.38,0,0,1,2.15,1.61,2.47,2.47,0,0,1,.39.49c.65,1,.17,2.31-1.34,3.19l-.52.2a9.68,9.68,0,0,1-1.92.83,7.14,7.14,0,0,1-3.77.14c-.17,0-.32-.12-.48-.16s-2.13-1-2.36-1.12l-9.25-5.35-9.18-5.3a11.46,11.46,0,0,1-2.16-1.61,2.89,2.89,0,0,1-.39-.49C1.24,50.38,1.71,49.12,3.23,48.24Z"/><path class="cls-12" d="M3.32,48.41l.51-.19a8.74,8.74,0,0,1,1.89-.78,7,7,0,0,1,3.71,0,3.14,3.14,0,0,1,.46.18,22.16,22.16,0,0,1,2.28,1.16L21.23,54l9,5.19a16.38,16.38,0,0,1,2.18,1.5,2.59,2.59,0,0,1,.43.45c.73,1,.3,2.25-1.21,3.13l-.51.18a8.35,8.35,0,0,1-1.89.78,6.94,6.94,0,0,1-3.7,0,3.8,3.8,0,0,1-.47-.18,24.41,24.41,0,0,1-2.28-1.16L13.7,58.67l-9-5.19A16.25,16.25,0,0,1,2.55,52a2,2,0,0,1-.43-.45C1.38,50.54,1.81,49.28,3.32,48.41Z"/><path class="cls-13" d="M3.42,48.57l.5-.16a6.93,6.93,0,0,1,1.87-.73,6.54,6.54,0,0,1,3.63.1,3,3,0,0,1,.45.19c.1,0,2.13,1.15,2.2,1.19l8.87,5.13,8.78,5.07c.09,0,2.18,1.3,2.2,1.39a3.21,3.21,0,0,1,.47.41c.82.94.43,2.19-1.07,3.06l-.51.17a7.43,7.43,0,0,1-1.86.73A6.72,6.72,0,0,1,25.32,65a3,3,0,0,1-.45-.19c-.11,0-2.13-1.15-2.2-1.19L13.8,58.5,5,53.43c-.1,0-2.18-1.3-2.2-1.39a2.76,2.76,0,0,1-.47-.41C1.53,50.69,1.91,49.44,3.42,48.57Z"/><path d="M24.69,64.58l-10.8-6.24L3.09,52.1c-1.49-.86-1.3-2.37.42-3.37l.5-.14a6.47,6.47,0,0,1,5.84-.24l10.8,6.23,10.79,6.24c1.5.87,1.31,2.37-.41,3.37l-.5.15A6.53,6.53,0,0,1,24.69,64.58Z"/></g><path class="cls-14" d="M26.88,63.94,6.93,52.34A7.94,7.94,0,0,1,3.62,46V2.85c0-1.24-1-1.51-.4-2,0,0,1.44-.66,1.47-.67A2.37,2.37,0,0,1,6.93.35l20,11.6a7.92,7.92,0,0,1,3.31,6.32V61.44a3,3,0,0,1-1.08,2.64l-1.8.85C26.72,65.13,27.68,64.4,26.88,63.94Z"/><path class="cls-15" d="M25.62,64.51l-20-11.6a7.92,7.92,0,0,1-3.31-6.32V3.43C2.36,1,3.84-.13,5.67.92l20,11.6a7.94,7.94,0,0,1,3.31,6.33V62C28.93,64.45,27.45,65.57,25.62,64.51Z"/><path class="cls-16" d="M25.33,64.67,5.38,53.07a7.94,7.94,0,0,1-3.31-6.33V3.58c0-2.44,1.48-3.56,3.31-2.5l20,11.6A7.94,7.94,0,0,1,28.64,19V62.17C28.64,64.6,27.16,65.72,25.33,64.67Z"/><path class="cls-17" d="M2.52,47V3.82c0-2.14,1.3-3.12,2.9-2.2L25.29,13.17a7,7,0,0,1,2.9,5.55V61.93c0,2.14-1.3,3.12-2.9,2.2L5.42,52.57A6.93,6.93,0,0,1,2.52,47Z"/><path class="cls-18" d="M3.17,42.89V4.3c0-1.79,1.08-2.61,2.42-1.84L25.12,13.81a5.85,5.85,0,0,1,2.43,4.65V57.05c0,1.79-1.09,2.61-2.43,1.84L5.59,47.53A5.8,5.8,0,0,1,3.17,42.89Z"/><path class="cls-19" d="M5.78,2.94c-1.27-.73-2.29-.15-2.29,1.3V43.32a5,5,0,0,0,2.29,4L24.94,58.41c1.26.73,2.29.15,2.29-1.3V18a5.06,5.06,0,0,0-2.29-4Z"/><path class="cls-20" d="M24.94,14.08,5.78,2.94c-1.27-.73-2.29-.15-2.29,1.3V43.32a5,5,0,0,0,2.29,4L24.94,58.41c1.26.73,2.29.15,2.29-1.3V18A5.06,5.06,0,0,0,24.94,14.08Zm2.09,43a1.7,1.7,0,0,1-.31,1.07.94.94,0,0,1-.76.35h0a1.86,1.86,0,0,1-.92-.29L5.88,47.1a4.83,4.83,0,0,1-2.19-3.78V4.24c0-.87.4-1.42,1.06-1.42a1.92,1.92,0,0,1,.93.29L24.84,14.25A4.86,4.86,0,0,1,27,18Z"/><path class="cls-21" d="M16.54,56.56c0,.85-.6,1.19-1.34.76A3,3,0,0,1,13.86,55c0-.85.6-1.19,1.34-.77A3,3,0,0,1,16.54,56.56Z"/><path class="cls-16" d="M14.6,54.06a1.24,1.24,0,0,1,.6.18,3,3,0,0,1,1.34,2.32c0,.6-.3.94-.73.94a1.28,1.28,0,0,1-.61-.18A3,3,0,0,1,13.86,55c0-.6.3-.95.74-.95Zm0-.29c-.61,0-1,.5-1,1.24a3.2,3.2,0,0,0,1.49,2.56,1.48,1.48,0,0,0,.75.23c.61,0,1-.5,1-1.24A3.25,3.25,0,0,0,15.35,54a1.49,1.49,0,0,0-.75-.22Z"/></g></g></g></svg>