<svg width="20" height="20" viewBox="0 0 20 20" fill="none" xmlns="http://www.w3.org/2000/svg">
<path d="M6.66675 10.166H12.5001" stroke="#A0A0A0" stroke-width="1.25" stroke-miterlimit="10" stroke-linecap="round" stroke-linejoin="round"/>
<path d="M6.66675 13.499H10.3167" stroke="#A0A0A0" stroke-width="1.25" stroke-miterlimit="10" stroke-linecap="round" stroke-linejoin="round"/>
<path d="M8.33341 5.00033H11.6667C13.3334 5.00033 13.3334 4.16699 13.3334 3.33366C13.3334 1.66699 12.5001 1.66699 11.6667 1.66699H8.33341C7.50008 1.66699 6.66675 1.66699 6.66675 3.33366C6.66675 5.00033 7.50008 5.00033 8.33341 5.00033Z" stroke="#A0A0A0" stroke-width="1.25" stroke-miterlimit="10" stroke-linecap="round" stroke-linejoin="round"/>
<path d="M13.3333 3.34961C16.1083 3.49961 17.5 4.52461 17.5 8.33294V13.3329C17.5 16.6663 16.6667 18.3329 12.5 18.3329H7.5C3.33333 18.3329 2.5 16.6663 2.5 13.3329V8.33294C2.5 4.53294 3.89167 3.49961 6.66667 3.34961" stroke="#A0A0A0" stroke-width="1.25" stroke-miterlimit="10" stroke-linecap="round" stroke-linejoin="round"/>
</svg>
