<svg id="Layer_35" enable-background="new 0 0 62 62" height="512" viewBox="0 0 62 62" width="512" xmlns="http://www.w3.org/2000/svg" xmlns:xlink="http://www.w3.org/1999/xlink"><linearGradient id="SVGID_1_" gradientUnits="userSpaceOnUse" x1="31" x2="31" y1="62" y2="0"><stop offset="0" stop-color="#9f2fff"/><stop offset="1" stop-color="#0bb1d3"/></linearGradient><path d="m29 39c0 .552.449 1 1 1h2c1.654 0 3 1.346 3 3s-1.346 3-3 3v2h-2v-2c-1.654 0-3-1.346-3-3h2c0 .552.449 1 1 1h2c.551 0 1-.448 1-1s-.449-1-1-1h-2c-1.654 0-3-1.346-3-3s1.346-3 3-3v-2h2v2c1.654 0 3 1.346 3 3h-2c0-.552-.449-1-1-1h-2c-.551 0-1 .448-1 1zm17.878-6.848c.227.771.14 1.582-.245 2.285-.525.964-1.534 1.563-2.634 1.563-.343 0-.677-.08-.999-.195v16.195h-24v-16.192c-.312.112-.648.192-.999.192-1.1 0-2.109-.6-2.635-1.564-.384-.701-.471-1.513-.245-2.282.227-.769.739-1.403 1.441-1.787l12.102-5.833c1.446-.697 3.223-.698 4.67.001l12.057 5.809c.749.406 1.26 1.041 1.487 1.808zm-5.878 17.848v-15.113l-10-4.779-10 4.781v15.111zm3.959-17.282c-.075-.256-.246-.468-.48-.596l-12.012-5.786c-.91-.439-2.024-.438-2.933-.001l-12.058 5.811c-.189.104-.36.316-.436.573-.075.255-.046.525.082.759.255.469.889.657 1.357.4l12.521-5.987 12.474 5.963c.621.334 1.149.094 1.404-.374.128-.236.157-.506.081-.762zm10.041 10.531c0 2.569-.316 5.138-.939 7.632l-.385 1.54c-.38 1.521-.1 3.141.77 4.444.362.544.554 1.178.554 1.832 0 1.822-1.481 3.303-3.303 3.303-.653 0-1.287-.191-1.832-.555-1.419-.945-3.069-1.445-4.773-1.445h-28.184c-1.704 0-3.354.5-4.773 1.445-.545.364-1.179.555-1.832.555-1.822 0-3.303-1.481-3.303-3.303 0-.654.192-1.288.555-1.832.869-1.304 1.15-2.924.77-4.444l-.385-1.54c-.624-2.494-.94-5.063-.94-7.632 0-10.228 5.075-19.887 13.374-25.735-.825-.535-1.374-1.46-1.374-2.514 0-1.492 1.098-2.723 2.527-2.952-.991-2.379-2.408-4.515-4.234-6.341l-.4-.4.167-.67c.683-2.731 3.125-4.637 5.939-4.637h.535l1.547 2.319c1.44-1.471 3.421-2.319 5.524-2.319h.789c2.103 0 4.083.848 5.524 2.318l1.545-2.318h.536c2.815 0 5.259 1.908 5.942 4.64l.168.666-.401.401c-1.826 1.826-3.242 3.962-4.233 6.341 1.427.229 2.525 1.46 2.525 2.952 0 1.054-.549 1.979-1.374 2.514 8.299 5.848 13.374 15.508 13.374 25.735zm-35.877-38.529c1.887 1.992 3.36 4.293 4.382 6.849l.172.431h2.936l-1.561-4.684 1.897-.633 1.772 5.317h5.432l.861-5.164 1.973.328-.807 4.836h2.143l.173-.432c1.021-2.556 2.494-4.856 4.381-6.848-.528-1.461-1.829-2.498-3.364-2.688l-2.513 3.771-.833-1.248c-1.065-1.6-2.85-2.555-4.772-2.555h-.789c-1.922 0-3.707.955-4.773 2.555l-.833 1.247-2.516-3.77c-1.534.191-2.835 1.228-3.361 2.688zm1.877 10.28c0 .552.449 1 1 1h.723 16.554.723c.551 0 1-.448 1-1s-.449-1-1-1h-18c-.551 0-1 .448-1 1zm30.735 36.937.385-1.54c.584-2.337.88-4.742.88-7.148 0-10.279-5.47-19.951-14.277-25.249h-15.446c-8.807 5.298-14.277 14.97-14.277 25.249 0 2.406.296 4.811.88 7.147l.385 1.54c.517 2.065.135 4.267-1.046 6.038-.143.215-.219.465-.219.723 0 .719.584 1.303 1.303 1.303.258 0 .508-.076.723-.219 1.748-1.165 3.782-1.781 5.882-1.781h28.184c2.1 0 4.134.616 5.883 1.781.214.143.464.219.722.219.719 0 1.303-.584 1.303-1.303 0-.258-.076-.508-.219-.723-1.181-1.771-1.562-3.972-1.046-6.037zm-2.199 1.135-1.995-.145c-.053.728-.036 1.464.049 2.188l1.986-.232c-.071-.599-.084-1.208-.04-1.811zm-1.521-16.796c.653 2.274.985 4.62.985 6.973 0 2.079-.256 4.157-.761 6.178l-.333 1.331 1.94.484.333-1.331c.544-2.178.82-4.42.82-6.662 0-2.54-.358-5.071-1.063-7.525zm-46.015 16.724h-2v2h2zm4 2v-2h-2v2zm-2-4h-2v2h2zm-2 6h2v-2h-2zm9-43v2h2v-2zm6 2v-2h-2v2zm-4-4v2h2v-2zm0 6h2v-2h-2zm-10-13v2h2v-2zm6 2v-2h-2v2zm-4-4v2h2v-2zm0 6h2v-2h-2zm-1 19c1.654 0 3 1.346 3 3s-1.346 3-3 3-3-1.346-3-3 1.346-3 3-3zm-1 3c0 .552.449 1 1 1s1-.448 1-1-.449-1-1-1-1 .448-1 1zm57 24h2v-2h-2zm-4-2v2h2v-2zm4-2h-2v2h2zm-2 6h2v-2h-2zm-7-41v-2h-2v2zm-6-2v2h2v-2zm2-2v2h2v-2zm0 6h2v-2h-2zm12-11v-2h-2v2zm-6-2v2h2v-2zm2-2v2h2v-2zm0 6h2v-2h-2zm3 19c1.654 0 3 1.346 3 3s-1.346 3-3 3-3-1.346-3-3 1.346-3 3-3zm0 2c-.551 0-1 .448-1 1s.449 1 1 1 1-.448 1-1-.449-1-1-1z" fill="url(#SVGID_1_)"/></svg>