<svg id="Layer_5" enable-background="new 0 0 64 64" height="512" viewBox="0 0 64 64" width="512" xmlns="http://www.w3.org/2000/svg" xmlns:xlink="http://www.w3.org/1999/xlink"><linearGradient id="SVGID_1_" gradientUnits="userSpaceOnUse" x1="32" x2="32" y1="63" y2="1"><stop offset="0" stop-color="#9f2fff"/><stop offset="1" stop-color="#0bb1d3"/></linearGradient><path d="m48 9v2c0 1.103.897 2 2 2 2.206 0 4 1.794 4 4v4h-3v2h-2v-2.142c-1.721-.447-3-1.999-3-3.858h2c0 1.103.897 2 2 2h2v-2c0-1.103-.897-2-2-2-2.206 0-4-1.794-4-4v-4h3v-2h2v2.142c1.721.447 3 1.999 3 3.858h-2c0-1.103-.897-2-2-2zm15 5c0 4.59-2.398 8.623-6 10.937v35.063c0 1.654-1.346 3-3 3h-50c-1.654 0-3-1.346-3-3v-44c0-1.654 1.346-3 3-3h33.051c.514-6.701 6.119-12 12.949-12 7.168 0 13 5.832 13 13zm-60 2v5h36.063c-1.129-1.758-1.844-3.802-2.013-6h-33.05c-.552 0-1 .448-1 1zm52 9.997c-1.54.644-3.229 1.003-5 1.003-3.225 0-6.173-1.187-8.447-3.139l-19.553 19.553-5.816-5.816c-1.169.876-2.614 1.402-4.184 1.402-3.859 0-7-3.141-7-7s3.141-7 7-7 7 3.141 7 7c0 1.57-.526 3.015-1.402 4.184l4.402 4.402 17.586-17.586h-36.586v37c0 .552.448 1 1 1h50c.552 0 1-.448 1-1zm-38 6.003c0-2.757-2.243-5-5-5s-5 2.243-5 5 2.243 5 5 5 5-2.243 5-5zm44-18c0-6.065-4.935-11-11-11s-11 4.935-11 11 4.935 11 11 11 11-4.935 11-11zm-54 3h-2v2h2zm4 0h-2v2h2zm4 0h-2v2h2zm0 15c0 1.654-1.346 3-3 3s-3-1.346-3-3 1.346-3 3-3 3 1.346 3 3zm-2 0c0-.552-.448-1-1-1s-1 .448-1 1 .448 1 1 1 1-.448 1-1zm-8 9h6v18h-6zm2 16h2v-14h-2zm6-12h6v14h-6zm2 12h2v-10h-2zm6-8h6v10h-6zm2 8h2v-6h-2zm8-16h22v18h-22zm2 16h18v-14h-18zm6-26h14v-2h-14zm0 4h14v-2h-14zm10 2h-10v2h10zm2 2h2v-2h-2z" fill="url(#SVGID_1_)"/></svg>