<svg id="Layer_35" enable-background="new 0 0 62 62" height="512" viewBox="0 0 62 62" width="512" xmlns="http://www.w3.org/2000/svg" xmlns:xlink="http://www.w3.org/1999/xlink"><linearGradient id="SVGID_1_" gradientUnits="userSpaceOnUse" x1="31" x2="31" y1="62" y2="0"><stop offset="0" stop-color="#9f2fff"/><stop offset="1" stop-color="#0bb1d3"/></linearGradient><path d="m50 57c0-.552.448-1 1-1s1 .448 1 1-.448 1-1 1-1-.448-1-1zm-3 1c.552 0 1-.448 1-1s-.448-1-1-1-1 .448-1 1 .448 1 1 1zm15-55v24c0 1.654-1.346 3-3 3h-5v22h4v3c0 3.859-3.14 7-7 7h-40c-3.86 0-7-3.141-7-7v-3h4v-22h-1.871c-2.304 0-4.251-1.649-4.63-3.923l-1.435-8.611c-.043-.255-.064-.513-.064-.772 0-2.589 2.106-4.694 4.694-4.694h18.611c2.589 0 4.695 2.105 4.695 4.694 0 .259-.021.517-.064.772l-.089.534h4.153v-15c0-1.654 1.346-3 3-3h24c1.654 0 3 1.346 3 3zm-20 28.586v-1.586h-7c-1.654 0-3-1.346-3-3v-3h-5.153l-.346 2.077c-.379 2.274-2.326 3.923-4.63 3.923h-1.871v1.586c0 1.331-1.083 2.414-2.414 2.414-.635 0-1.257-.258-1.707-.706l-1.879-1.88v16.586h1 1.051c.518-7.805 7.016-14 14.949-14s14.431 6.195 14.949 14h1.051 1v-16.586l-1.879 1.879c-.45.449-1.072.707-1.707.707-1.331 0-2.414-1.083-2.414-2.414zm-11 4.414c-1.544 0-3.199 2.287-4.165 6h8.33c-.966-3.713-2.621-6-4.165-6zm6.239 6h4.698c-1.595-2.484-4.007-4.39-6.859-5.335.914 1.358 1.654 3.179 2.161 5.335zm-10.317-5.335c-2.852.945-5.264 2.851-6.859 5.335h4.698c.507-2.156 1.247-3.977 2.161-5.335zm-8.871 11.335h5.971c.039-1.405.16-2.744.354-4h-5.373c-.522 1.247-.844 2.593-.952 4zm7.97 0h9.957c-.044-1.431-.178-2.772-.386-4h-9.185c-.208 1.228-.342 2.569-.386 4zm17.928 0c-.108-1.407-.431-2.753-.952-4h-5.373c.195 1.256.315 2.595.354 4zm-16.435-28-.333 2h4.819v-2zm-21.385 8h7.285l3.879 3.879c.238.239.707.045.707-.293v-3.586h3.871c1.323 0 2.44-.947 2.658-2.251l1.435-8.611c.024-.148.036-.296.036-.444 0-1.485-1.208-2.694-2.694-2.694h-18.612c-1.486 0-2.694 1.209-2.694 2.694 0 .147.012.296.037.442l1.435 8.612c.217 1.305 1.335 2.252 2.657 2.252zm49.871 26h-17v1c0 1.654-1.346 3-3 3h-10c-1.654 0-3-1.346-3-3v-1h-17v1c0 2.757 2.243 5 5 5h40c2.757 0 5-2.243 5-5zm-31 1c0 .552.449 1 1 1h10c.551 0 1-.448 1-1v-1h-12zm27-25h-2v18c0 1.103-.897 2-2 2h-1-32-1c-1.103 0-2-.897-2-2v-18h-2v22h42zm8-27c0-.552-.449-1-1-1h-24c-.551 0-1 .448-1 1v24c0 .552.449 1 1 1h9v3.586c0 .338.468.533.708.292l3.878-3.878h10.414c.551 0 1-.448 1-1zm-22 11h-2v-7c0-1.654 1.346-3 3-3s3 1.346 3 3v7h-2v-2h-2zm0-7v3h2v-3c0-.552-.449-1-1-1s-1 .448-1 1zm10.929-2.629-1.857-.742-4 10 1.857.742zm6.071 1.629h3v6h-3v2h-2v-2h-3v-6h3v-2h2zm-2 4v-2h-1v2zm2-2v2h1v-2zm-17 8h-2v2h2zm2 2h18v-2h-18zm-4 4h22v-2h-22zm0 4h22v-2h-22zm-24-4h-6v-6h6zm-2-4h-2v2h2zm-4 8h2v-2h-2zm16-2h-12v2h12zm0-4h-8v2h8zm0-4h-8v2h8z" fill="url(#SVGID_1_)"/></svg>