<?xml version="1.0"?>
<svg xmlns="http://www.w3.org/2000/svg" xmlns:xlink="http://www.w3.org/1999/xlink" xmlns:svgjs="http://svgjs.com/svgjs" version="1.1" width="512" height="512" x="0" y="0" viewBox="0 0 982.3 982.3" style="enable-background:new 0 0 512 512" xml:space="preserve" class=""><g>
<g xmlns="http://www.w3.org/2000/svg">
	<path d="M982.3,130.74c0-34.5-29-61.8-63.5-59.899C713.6,82.24,603,148.44,545.9,203.24c-11.7,11.3-18.301,26.9-18.301,43.101   v635.1c0,24.8,28.4,38.899,48.2,23.899c63.8-48.699,171.7-98.5,349.601-107.3c31.899-1.6,56.899-28,56.899-59.899V130.74   L982.3,130.74z" fill="#5968cd" data-original="#000000" style="" class=""/>
	<path d="M56.8,798.04c177.9,8.8,285.8,58.5,349.601,107.3c19.699,15.101,48.199,1,48.199-23.899v-635.1   c0-16.301-6.6-31.9-18.3-43.101c-57.1-54.8-167.7-121-372.8-132.399C29,68.841,0,96.141,0,130.74v607.5   C0,770.04,25,796.54,56.8,798.04z" fill="#5968cd" data-original="#000000" style="" class=""/>
</g>
<g xmlns="http://www.w3.org/2000/svg">
</g>
<g xmlns="http://www.w3.org/2000/svg">
</g>
<g xmlns="http://www.w3.org/2000/svg">
</g>
<g xmlns="http://www.w3.org/2000/svg">
</g>
<g xmlns="http://www.w3.org/2000/svg">
</g>
<g xmlns="http://www.w3.org/2000/svg">
</g>
<g xmlns="http://www.w3.org/2000/svg">
</g>
<g xmlns="http://www.w3.org/2000/svg">
</g>
<g xmlns="http://www.w3.org/2000/svg">
</g>
<g xmlns="http://www.w3.org/2000/svg">
</g>
<g xmlns="http://www.w3.org/2000/svg">
</g>
<g xmlns="http://www.w3.org/2000/svg">
</g>
<g xmlns="http://www.w3.org/2000/svg">
</g>
<g xmlns="http://www.w3.org/2000/svg">
</g>
<g xmlns="http://www.w3.org/2000/svg">
</g>
</g></svg>
