<svg width="20" height="20" viewBox="0 0 20 20" fill="none" xmlns="http://www.w3.org/2000/svg">
<path d="M15.034 11.2918C14.684 11.6335 14.484 12.1252 14.534 12.6502C14.609 13.5502 15.434 14.2085 16.334 14.2085H17.9173V15.2002C17.9173 16.9252 16.509 18.3335 14.784 18.3335H5.21732C3.49232 18.3335 2.08398 16.9252 2.08398 15.2002V9.59184C2.08398 7.86684 3.49232 6.4585 5.21732 6.4585H14.784C16.509 6.4585 17.9173 7.86684 17.9173 9.59184V10.7918H16.234C15.7673 10.7918 15.3423 10.9752 15.034 11.2918Z" stroke="#C97EF5" stroke-width="1.25" stroke-linecap="round" stroke-linejoin="round"/>
<path d="M2.08398 10.3416V6.5333C2.08398 5.54163 2.69232 4.65826 3.61732 4.30826L10.234 1.80826C11.2673 1.41659 12.3757 2.18329 12.3757 3.29162V6.45828" stroke="#C97EF5" stroke-width="1.25" stroke-linecap="round" stroke-linejoin="round"/>
<path d="M18.7987 11.642V13.3587C18.7987 13.817 18.432 14.192 17.9653 14.2086H16.332C15.432 14.2086 14.607 13.5503 14.532 12.6503C14.482 12.1253 14.682 11.6336 15.032 11.292C15.3404 10.9753 15.7653 10.792 16.232 10.792H17.9653C18.432 10.8087 18.7987 11.1836 18.7987 11.642Z" stroke="#C97EF5" stroke-width="1.25" stroke-linecap="round" stroke-linejoin="round"/>
<path d="M5.83301 10H11.6663" stroke="#C97EF5" stroke-width="1.25" stroke-linecap="round" stroke-linejoin="round"/>
</svg>
