<svg width="20" height="20" viewBox="0 0 20 20" fill="none" xmlns="http://www.w3.org/2000/svg">
<path d="M15.0335 11.2914C14.6835 11.633 14.4835 12.1247 14.5335 12.6497C14.6085 13.5497 15.4335 14.208 16.3335 14.208H17.9168V15.1997C17.9168 16.9247 16.5085 18.3331 14.7835 18.3331H5.21683C3.49183 18.3331 2.0835 16.9247 2.0835 15.1997V9.59135C2.0835 7.86635 3.49183 6.45801 5.21683 6.45801H14.7835C16.5085 6.45801 17.9168 7.86635 17.9168 9.59135V10.7914H16.2335C15.7668 10.7914 15.3418 10.9747 15.0335 11.2914Z" stroke="#C97EF5" stroke-width="1.25" stroke-linecap="round" stroke-linejoin="round"/>
<path d="M2.0835 10.3411V6.5328C2.0835 5.54114 2.69183 4.65777 3.61683 4.30777L10.2335 1.80777C11.2668 1.4161 12.3752 2.18279 12.3752 3.29113V6.45779" stroke="#C97EF5" stroke-width="1.25" stroke-linecap="round" stroke-linejoin="round"/>
<path d="M18.7992 11.642V13.3587C18.7992 13.8171 18.4325 14.192 17.9658 14.2087H16.3325C15.4325 14.2087 14.6075 13.5504 14.5325 12.6504C14.4825 12.1254 14.6825 11.6337 15.0325 11.292C15.3408 10.9754 15.7658 10.792 16.2325 10.792H17.9658C18.4325 10.8087 18.7992 11.1837 18.7992 11.642Z" stroke="#C97EF5" stroke-width="1.25" stroke-linecap="round" stroke-linejoin="round"/>
<path d="M5.8335 10H11.6668" stroke="#C97EF5" stroke-width="1.25" stroke-linecap="round" stroke-linejoin="round"/>
</svg>
