<svg xmlns="http://www.w3.org/2000/svg" xmlns:xlink="http://www.w3.org/1999/xlink" viewBox="0 0 60.76 70.42"><defs><style>.cls-1{isolation:isolate;}.cls-2{fill:url(#New_Gradient_Swatch_copy_23);}.cls-3{fill:url(#New_Gradient_Swatch_copy_35);}.cls-4{fill:url(#New_Gradient_Swatch_copy_23-2);}.cls-13,.cls-19,.cls-22,.cls-43,.cls-44,.cls-47,.cls-5,.cls-51,.cls-54,.cls-58,.cls-61,.cls-65,.cls-68,.cls-7,.cls-71{mix-blend-mode:color-dodge;}.cls-5{fill:url(#Radial_Gradient_1);}.cls-6{fill:url(#New_Gradient_Swatch_copy_35-2);}.cls-7{fill:url(#radial-gradient);}.cls-8{fill:url(#New_Gradient_Swatch_copy_23-3);}.cls-9{fill:url(#New_Gradient_Swatch_copy_23-4);}.cls-10{fill:url(#New_Gradient_Swatch_copy_35-3);}.cls-11{fill:url(#New_Gradient_Swatch_copy_35-4);}.cls-12,.cls-28,.cls-39,.cls-42,.cls-48{mix-blend-mode:multiply;}.cls-12{fill:url(#linear-gradient);}.cls-13{fill:url(#Radial_Gradient_1-2);}.cls-14{fill:url(#New_Gradient_Swatch_copy_35-5);}.cls-15{fill:url(#New_Gradient_Swatch_copy_35-6);}.cls-16{fill:url(#New_Gradient_Swatch_copy_35-7);}.cls-17{fill:url(#New_Gradient_Swatch_copy_35-8);}.cls-18{fill:url(#New_Gradient_Swatch_copy_34);}.cls-19{fill:url(#Radial_Gradient_1-3);}.cls-20{fill:url(#New_Gradient_Swatch_copy_35-9);}.cls-21{fill:url(#New_Gradient_Swatch_copy_35-10);}.cls-22{fill:url(#Radial_Gradient_1-4);}.cls-23{fill:url(#New_Gradient_Swatch_copy_61);}.cls-24{fill:url(#New_Gradient_Swatch_copy_23-5);}.cls-25{fill:url(#New_Gradient_Swatch_copy_23-6);}.cls-26{fill:url(#New_Gradient_Swatch_copy_35-11);}.cls-27{fill:url(#New_Gradient_Swatch_copy_23-7);}.cls-28{fill:url(#linear-gradient-2);}.cls-29{fill:url(#New_Gradient_Swatch_copy_35-12);}.cls-30{fill:#e6e7e8;mix-blend-mode:screen;}.cls-31{fill:url(#New_Gradient_Swatch_copy_35-13);}.cls-32{fill:url(#New_Gradient_Swatch_copy_35-14);}.cls-33{fill:url(#New_Gradient_Swatch_copy_35-15);}.cls-34{fill:url(#New_Gradient_Swatch_copy_35-16);}.cls-35{fill:url(#New_Gradient_Swatch_copy_35-17);}.cls-36{fill:url(#New_Gradient_Swatch_copy_35-18);}.cls-37{fill:url(#linear-gradient-3);}.cls-38{fill:url(#New_Gradient_Swatch_copy_23-8);}.cls-39{fill:url(#linear-gradient-4);}.cls-40{fill:url(#New_Gradient_Swatch_copy_35-19);}.cls-41{fill:url(#New_Gradient_Swatch_copy_23-9);}.cls-42{fill:url(#linear-gradient-5);}.cls-43{fill:url(#radial-gradient-2);}.cls-44{fill:url(#radial-gradient-3);}.cls-45{fill:url(#New_Gradient_Swatch_copy_35-20);}.cls-46{fill:url(#New_Gradient_Swatch_copy_35-21);}.cls-47{fill:url(#Radial_Gradient_1-5);}.cls-48{fill:#b086cc;}.cls-49{fill:url(#New_Gradient_Swatch_copy_23-10);}.cls-50{fill:url(#New_Gradient_Swatch_copy_35-22);}.cls-51{fill:url(#radial-gradient-4);}.cls-52{fill:url(#New_Gradient_Swatch_copy_23-11);}.cls-53{fill:url(#New_Gradient_Swatch_copy_35-23);}.cls-54{fill:url(#radial-gradient-5);}.cls-55{fill:url(#New_Gradient_Swatch_copy_35-24);}.cls-56{fill:url(#New_Gradient_Swatch_copy_35-25);}.cls-57{fill:url(#New_Gradient_Swatch_copy_35-26);}.cls-58{fill:url(#Radial_Gradient_1-6);}.cls-59{fill:url(#New_Gradient_Swatch_copy_35-27);}.cls-60{fill:url(#New_Gradient_Swatch_copy_34-2);}.cls-61{fill:url(#Radial_Gradient_1-7);}.cls-62{fill:#45108a;}.cls-63{fill:url(#New_Gradient_Swatch_copy_23-12);}.cls-64{fill:url(#New_Gradient_Swatch_copy_35-28);}.cls-65{fill:url(#radial-gradient-6);}.cls-66{fill:url(#New_Gradient_Swatch_copy_23-13);}.cls-67{fill:url(#New_Gradient_Swatch_copy_35-29);}.cls-68{fill:url(#radial-gradient-7);}.cls-69{fill:url(#New_Gradient_Swatch_copy_23-14);}.cls-70{fill:url(#New_Gradient_Swatch_copy_35-30);}.cls-71{fill:url(#radial-gradient-8);}</style><linearGradient id="New_Gradient_Swatch_copy_23" x1="7667.41" y1="65.54" x2="7691.35" y2="65.54" gradientTransform="matrix(-1, 0, 0, 1, 7704.44, 0)" gradientUnits="userSpaceOnUse"><stop offset="0.01" stop-color="#c1a1d5"/><stop offset="0.05" stop-color="#c8abda"/><stop offset="0.11" stop-color="#dac6e6"/><stop offset="0.2" stop-color="#f7f2f9"/><stop offset="0.22" stop-color="#fff"/><stop offset="0.25" stop-color="#f9f5fb"/><stop offset="0.3" stop-color="#e9dbf2"/><stop offset="0.36" stop-color="#d1b4e3"/><stop offset="0.43" stop-color="#b395d6"/><stop offset="0.49" stop-color="#9c7dcb"/><stop offset="0.56" stop-color="#8e6ec5"/><stop offset="0.61" stop-color="#8969c3"/><stop offset="0.76" stop-color="#9471c6"/><stop offset="1" stop-color="#b086cc"/></linearGradient><linearGradient id="New_Gradient_Swatch_copy_35" x1="7665.17" y1="45.64" x2="7684.44" y2="66.3" gradientTransform="matrix(-1, 0, 0, 1, 7704.44, 0)" gradientUnits="userSpaceOnUse"><stop offset="0" stop-color="#9f79c8"/><stop offset="0.14" stop-color="#a580cb"/><stop offset="0.33" stop-color="#b492d3"/><stop offset="0.55" stop-color="#cdb0e1"/><stop offset="0.58" stop-color="#d1b4e3"/><stop offset="0.76" stop-color="#dbc4e9"/><stop offset="1" stop-color="#ebdef3"/></linearGradient><linearGradient id="New_Gradient_Swatch_copy_23-2" x1="7668.43" y1="55.61" x2="7690.35" y2="55.61" xlink:href="#New_Gradient_Swatch_copy_23"/><radialGradient id="Radial_Gradient_1" cx="7679.46" cy="44.99" r="9.11" gradientTransform="matrix(-1, 0, 0, 1, 7704.44, 0)" gradientUnits="userSpaceOnUse"><stop offset="0" stop-color="#fff"/><stop offset="1"/></radialGradient><linearGradient id="New_Gradient_Swatch_copy_35-2" x1="7666.38" y1="30.66" x2="7684.02" y2="49.58" xlink:href="#New_Gradient_Swatch_copy_35"/><radialGradient id="radial-gradient" cx="3794.57" cy="12693.64" r="3.72" gradientTransform="matrix(-0.01, -1.66, -0.45, 0, 5833.51, 6314.81)" gradientUnits="userSpaceOnUse"><stop offset="0" stop-color="#dc3daa"/><stop offset="0.07" stop-color="#bd3492"/><stop offset="0.2" stop-color="#8b276b"/><stop offset="0.33" stop-color="#601b4a"/><stop offset="0.46" stop-color="#3e1130"/><stop offset="0.59" stop-color="#230a1b"/><stop offset="0.72" stop-color="#0f040c"/><stop offset="0.86" stop-color="#040103"/><stop offset="1"/></radialGradient><linearGradient id="New_Gradient_Swatch_copy_23-3" x1="7700.53" y1="2.97" x2="7703.5" y2="7.9" xlink:href="#New_Gradient_Swatch_copy_23"/><linearGradient id="New_Gradient_Swatch_copy_23-4" x1="7697.8" y1="3.42" x2="7701.85" y2="10.16" xlink:href="#New_Gradient_Swatch_copy_23"/><linearGradient id="New_Gradient_Swatch_copy_35-3" x1="7666.25" y1="55.09" x2="7686.23" y2="4.67" xlink:href="#New_Gradient_Swatch_copy_35"/><linearGradient id="New_Gradient_Swatch_copy_35-4" x1="7839.29" y1="526.3" x2="7869.73" y2="517.19" gradientTransform="matrix(-0.79, 0.02, 0.36, 1.26, 6019.3, -819.4)" xlink:href="#New_Gradient_Swatch_copy_35"/><linearGradient id="linear-gradient" x1="7679.5" y1="21.5" x2="7677.9" y2="41.9" gradientTransform="matrix(-1, 0, 0, 1, 7704.44, 0)" gradientUnits="userSpaceOnUse"><stop offset="0.01" stop-color="#c1a1d5"/><stop offset="0.13" stop-color="#c8abda"/><stop offset="0.33" stop-color="#dac6e6"/><stop offset="0.6" stop-color="#f7f2f9"/><stop offset="0.67" stop-color="#fff"/></linearGradient><radialGradient id="Radial_Gradient_1-2" cx="7672.96" cy="3.59" r="12.37" xlink:href="#Radial_Gradient_1"/><linearGradient id="New_Gradient_Swatch_copy_35-5" x1="7681.63" y1="44.27" x2="7698.75" y2="39.15" xlink:href="#New_Gradient_Swatch_copy_35"/><linearGradient id="New_Gradient_Swatch_copy_35-6" x1="7665.42" y1="46.35" x2="7687.82" y2="41.33" xlink:href="#New_Gradient_Swatch_copy_35"/><linearGradient id="New_Gradient_Swatch_copy_35-7" x1="7685.18" y1="28.12" x2="7677.78" y2="42.22" xlink:href="#New_Gradient_Swatch_copy_35"/><linearGradient id="New_Gradient_Swatch_copy_35-8" x1="-2156.95" y1="24.13" x2="-2114.14" y2="11.31" gradientTransform="translate(2193.26)" xlink:href="#New_Gradient_Swatch_copy_35"/><linearGradient id="New_Gradient_Swatch_copy_34" x1="-2157.21" y1="8.32" x2="-2141.31" y2="35.49" gradientTransform="translate(2193.26)" gradientUnits="userSpaceOnUse"><stop offset="0" stop-color="#9f79c8"/><stop offset="0.14" stop-color="#a27dca"/><stop offset="0.27" stop-color="#ac88cf"/><stop offset="0.4" stop-color="#bc9bd7"/><stop offset="0.52" stop-color="#d1b4e3"/><stop offset="0.65" stop-color="#dbc4e9"/><stop offset="0.9" stop-color="#f4edf8"/><stop offset="1" stop-color="#fff"/></linearGradient><radialGradient id="Radial_Gradient_1-3" cx="-2147.3" cy="22.18" r="11.75" gradientTransform="translate(2193.26)" xlink:href="#Radial_Gradient_1"/><linearGradient id="New_Gradient_Swatch_copy_35-9" x1="7644.26" y1="43.75" x2="7650.47" y2="28.09" xlink:href="#New_Gradient_Swatch_copy_35"/><linearGradient id="New_Gradient_Swatch_copy_35-10" x1="7806.95" y1="533.96" x2="7819.38" y2="530.24" gradientTransform="matrix(-0.79, 0.02, 0.36, 1.26, 6019.3, -819.4)" xlink:href="#New_Gradient_Swatch_copy_35"/><radialGradient id="Radial_Gradient_1-4" cx="7646.2" cy="27.98" r="3.86" xlink:href="#Radial_Gradient_1"/><linearGradient id="New_Gradient_Swatch_copy_61" x1="-2186.8" y1="52.21" x2="-2186.07" y2="52.21" gradientTransform="translate(2241.58)" gradientUnits="userSpaceOnUse"><stop offset="0" stop-color="#703ed1"/><stop offset="0.62" stop-color="#5a78e0"/><stop offset="1" stop-color="#4c9de9"/></linearGradient><linearGradient id="New_Gradient_Swatch_copy_23-5" x1="8336.67" y1="47.35" x2="8339.47" y2="47.35" gradientTransform="matrix(-1, 0, 0, 1, 8393.23, 0)" xlink:href="#New_Gradient_Swatch_copy_23"/><linearGradient id="New_Gradient_Swatch_copy_23-6" x1="8335.55" y1="42.22" x2="8340.58" y2="42.22" gradientTransform="matrix(-1, 0, 0, 1, 8393.23, 0)" xlink:href="#New_Gradient_Swatch_copy_23"/><linearGradient id="New_Gradient_Swatch_copy_35-11" x1="-2189.43" y1="35.34" x2="-2185.38" y2="39.68" gradientTransform="translate(2241.58)" xlink:href="#New_Gradient_Swatch_copy_35"/><linearGradient id="New_Gradient_Swatch_copy_23-7" x1="7650.98" y1="38.54" x2="7647.45" y2="38.54" xlink:href="#New_Gradient_Swatch_copy_23"/><linearGradient id="linear-gradient-2" x1="7649.29" y1="39.63" x2="7649.29" y2="37.64" xlink:href="#linear-gradient"/><linearGradient id="New_Gradient_Swatch_copy_35-12" x1="-2497.94" y1="41.6" x2="-2493.94" y2="40.4" gradientTransform="translate(2549.4)" xlink:href="#New_Gradient_Swatch_copy_35"/><linearGradient id="New_Gradient_Swatch_copy_35-13" x1="7689.45" y1="13.94" x2="7726.86" y2="2.74" xlink:href="#New_Gradient_Swatch_copy_35"/><linearGradient id="New_Gradient_Swatch_copy_35-14" x1="7667.5" y1="18.47" x2="7694.31" y2="12.46" xlink:href="#New_Gradient_Swatch_copy_35"/><linearGradient id="New_Gradient_Swatch_copy_35-15" x1="7704.2" y1="-23.28" x2="7687.35" y2="8.83" xlink:href="#New_Gradient_Swatch_copy_35"/><linearGradient id="New_Gradient_Swatch_copy_35-16" x1="7678.63" y1="19.65" x2="7697.43" y2="14.02" xlink:href="#New_Gradient_Swatch_copy_35"/><linearGradient id="New_Gradient_Swatch_copy_35-17" x1="7662.82" y1="21.99" x2="7684.43" y2="17.15" xlink:href="#New_Gradient_Swatch_copy_35"/><linearGradient id="New_Gradient_Swatch_copy_35-18" x1="7684.27" y1="0.18" x2="7676.48" y2="15.01" xlink:href="#New_Gradient_Swatch_copy_35"/><linearGradient id="linear-gradient-3" x1="7673.65" y1="19.42" x2="7675.75" y2="17.17" gradientTransform="matrix(-1, 0, 0, 1, 7704.44, 0)" gradientUnits="userSpaceOnUse"><stop offset="0" stop-color="#65318a"/><stop offset="1" stop-color="#b086cc"/></linearGradient><linearGradient id="New_Gradient_Swatch_copy_23-8" x1="7661.32" y1="22.49" x2="7665.58" y2="29.57" xlink:href="#New_Gradient_Swatch_copy_23"/><linearGradient id="linear-gradient-4" x1="7672.84" y1="27.69" x2="7648.18" y2="22.72" xlink:href="#linear-gradient"/><linearGradient id="New_Gradient_Swatch_copy_35-19" x1="5473.51" y1="33.18" x2="5486.31" y2="30.31" gradientTransform="matrix(-1, 0, 0, 1, 5532.05, 0)" xlink:href="#New_Gradient_Swatch_copy_35"/><linearGradient id="New_Gradient_Swatch_copy_23-9" x1="7653.42" y1="33.82" x2="7650.89" y2="29.68" xlink:href="#New_Gradient_Swatch_copy_23"/><linearGradient id="linear-gradient-5" x1="7653.13" y1="31.17" x2="7650.74" y2="32.67" xlink:href="#linear-gradient"/><radialGradient id="radial-gradient-2" cx="5481.05" cy="30.73" r="2.44" gradientTransform="matrix(-1, 0, 0, 1, 5532.05, 0)" gradientUnits="userSpaceOnUse"><stop offset="0" stop-color="#fff"/><stop offset="0.02" stop-color="#f7f7f7"/><stop offset="0.13" stop-color="#bebebe"/><stop offset="0.25" stop-color="#8b8b8b"/><stop offset="0.37" stop-color="#606060"/><stop offset="0.49" stop-color="#3e3e3e"/><stop offset="0.62" stop-color="#232323"/><stop offset="0.74" stop-color="#0f0f0f"/><stop offset="0.87" stop-color="#040404"/><stop offset="1"/></radialGradient><radialGradient id="radial-gradient-3" cx="4110.5" cy="3743.54" r="1.95" gradientTransform="matrix(-3.44, -2, -0.23, 0.39, 15038.68, 6794.93)" xlink:href="#radial-gradient"/><linearGradient id="New_Gradient_Swatch_copy_35-20" x1="7675.05" y1="59.89" x2="7695.03" y2="9.47" xlink:href="#New_Gradient_Swatch_copy_35"/><linearGradient id="New_Gradient_Swatch_copy_35-21" x1="7852.08" y1="529.88" x2="7882.52" y2="520.76" gradientTransform="matrix(-0.79, 0.02, 0.36, 1.26, 6019.3, -819.4)" xlink:href="#New_Gradient_Swatch_copy_35"/><radialGradient id="Radial_Gradient_1-5" cx="7684.16" cy="13.06" r="12.39" xlink:href="#Radial_Gradient_1"/><linearGradient id="New_Gradient_Swatch_copy_23-10" x1="-2903.77" y1="11.64" x2="-2901.03" y2="16.2" gradientTransform="translate(2913.75)" xlink:href="#New_Gradient_Swatch_copy_23"/><linearGradient id="New_Gradient_Swatch_copy_35-22" x1="-5080.09" y1="14.99" x2="-5071.16" y2="12.98" gradientTransform="translate(5086.14)" xlink:href="#New_Gradient_Swatch_copy_35"/><radialGradient id="radial-gradient-4" cx="-5074.83" cy="13.28" r="1.7" gradientTransform="translate(5086.14)" xlink:href="#radial-gradient-2"/><linearGradient id="New_Gradient_Swatch_copy_23-11" x1="-2894.05" y1="43.94" x2="-2891.31" y2="48.5" gradientTransform="translate(2913.75)" xlink:href="#New_Gradient_Swatch_copy_23"/><linearGradient id="New_Gradient_Swatch_copy_35-23" x1="-5070.37" y1="47.29" x2="-5061.44" y2="45.29" gradientTransform="translate(5086.14)" xlink:href="#New_Gradient_Swatch_copy_35"/><radialGradient id="radial-gradient-5" cx="-5065.11" cy="45.58" r="1.7" gradientTransform="translate(5086.14)" xlink:href="#radial-gradient-2"/><linearGradient id="New_Gradient_Swatch_copy_35-24" x1="-2500.62" y1="33.32" x2="-2496.62" y2="32.12" gradientTransform="translate(2549.4)" xlink:href="#New_Gradient_Swatch_copy_35"/><linearGradient id="New_Gradient_Swatch_copy_35-25" x1="7649.9" y1="46.91" x2="7656.11" y2="31.24" xlink:href="#New_Gradient_Swatch_copy_35"/><linearGradient id="New_Gradient_Swatch_copy_35-26" x1="7815.17" y1="536.32" x2="7827.61" y2="532.59" gradientTransform="matrix(-0.79, 0.02, 0.36, 1.26, 6019.3, -819.4)" xlink:href="#New_Gradient_Swatch_copy_35"/><radialGradient id="Radial_Gradient_1-6" cx="7651.84" cy="31.13" r="3.86" xlink:href="#Radial_Gradient_1"/><linearGradient id="New_Gradient_Swatch_copy_35-27" x1="-2163.84" y1="28.1" x2="-2121.02" y2="15.28" gradientTransform="translate(2193.26)" xlink:href="#New_Gradient_Swatch_copy_35"/><linearGradient id="New_Gradient_Swatch_copy_34-2" x1="-2164.1" y1="12.29" x2="-2148.2" y2="39.46" xlink:href="#New_Gradient_Swatch_copy_34"/><radialGradient id="Radial_Gradient_1-7" cx="-2154.19" cy="26.15" r="11.75" gradientTransform="translate(2193.26)" xlink:href="#Radial_Gradient_1"/><linearGradient id="New_Gradient_Swatch_copy_23-12" x1="-2866.57" y1="32.43" x2="-2865.02" y2="35" gradientTransform="translate(2913.75)" xlink:href="#New_Gradient_Swatch_copy_23"/><linearGradient id="New_Gradient_Swatch_copy_35-28" x1="-5041.17" y1="34.32" x2="-5036.14" y2="33.19" gradientTransform="translate(5086.14)" xlink:href="#New_Gradient_Swatch_copy_35"/><radialGradient id="radial-gradient-6" cx="-5038.21" cy="33.35" r="0.96" gradientTransform="translate(5086.14)" xlink:href="#radial-gradient-2"/><linearGradient id="New_Gradient_Swatch_copy_23-13" x1="-2863.04" y1="40.88" x2="-2861.5" y2="43.45" gradientTransform="translate(2913.75)" xlink:href="#New_Gradient_Swatch_copy_23"/><linearGradient id="New_Gradient_Swatch_copy_35-29" x1="-5037.65" y1="42.77" x2="-5032.62" y2="41.64" gradientTransform="translate(5086.14)" xlink:href="#New_Gradient_Swatch_copy_35"/><radialGradient id="radial-gradient-7" cx="-5034.68" cy="41.81" r="0.96" gradientTransform="translate(5086.14)" xlink:href="#radial-gradient-2"/><linearGradient id="New_Gradient_Swatch_copy_23-14" x1="-2891.18" y1="18.01" x2="-2889.64" y2="20.58" gradientTransform="translate(2913.75)" xlink:href="#New_Gradient_Swatch_copy_23"/><linearGradient id="New_Gradient_Swatch_copy_35-30" x1="-5065.78" y1="19.9" x2="-5060.75" y2="18.77" gradientTransform="translate(5086.14)" xlink:href="#New_Gradient_Swatch_copy_35"/><radialGradient id="radial-gradient-8" cx="-5062.82" cy="18.94" r="0.96" gradientTransform="translate(5086.14)" xlink:href="#radial-gradient-2"/></defs><g class="cls-1"><g id="Layer_2" data-name="Layer 2"><g id="Layer_1-2" data-name="Layer 1"><path class="cls-2" d="M12.82,60.65H37.14v2.59h0v.1c0,3.91-5.44,7.08-12.16,7.08s-12.16-3.17-12.16-7.08v-.1h0Z"/><ellipse class="cls-3" cx="24.98" cy="60.95" rx="12.16" ry="7.08"/><path class="cls-4" d="M13.84,44.64H36.12V60h0s0,.06,0,.09c0,3.58-5,6.49-11.14,6.49s-11.14-2.91-11.14-6.49c0,0,0-.06,0-.09h0Z"/><ellipse class="cls-5" cx="24.98" cy="44.99" rx="11.14" ry="6.49"/><ellipse class="cls-6" cx="24.98" cy="44.68" rx="11.14" ry="6.49"/><path class="cls-7" d="M31.89,48.51c-.93,0-1.66,2.79-1.63,6.21s.81,6.18,1.74,6.17,1.66-2.78,1.63-6.2S32.82,48.5,31.89,48.51Z"/><path class="cls-8" d="M0,5.51A1.18,1.18,0,0,0,.48,6.59L3,8.07c.3.17.11-.22.57-.48a3.77,3.77,0,0,0,1.7-2.94c0-.53.5-.54.2-.71L2.89,2.44a1.23,1.23,0,0,0-1.19.14A3.73,3.73,0,0,0,0,5.51Z"/><path class="cls-9" d="M1.3,6.89A1.62,1.62,0,0,0,2,8.36l3.45,2c.42.24.15-.3.78-.67a5.1,5.1,0,0,0,2.33-4c0-.73.67-.74.26-1l-3.52-2a1.68,1.68,0,0,0-1.62.18A5.12,5.12,0,0,0,1.3,6.89Z"/><path class="cls-10" d="M17.87,4.42l-.1-.25.64-.33a1.73,1.73,0,0,1,.51-.25l.1,0v0a2.1,2.1,0,0,1,.72-.07h0c2,.11,4.38,2.49,5.3,5.33l9.08,31.12c.73,2.29.3,4.17-1,4.75l-.61.35-.07-.17a2,2,0,0,1-.35,0h0c-2-.11-4.38-2.5-5.29-5.33L17.76,8.42A4.89,4.89,0,0,1,17.87,4.42Z"/><path class="cls-11" d="M31.37,45.28h0c2,.11,2.9-2.1,2-4.93L24.28,9.23C23.36,6.39,21,4,19,3.9h0c-2-.12-2.9,2.09-2,4.93L26.08,40C27,42.78,29.36,45.17,31.37,45.28Z"/><path class="cls-12" d="M31.37,45.28h0c2,.11,2.9-2.1,2-4.93L24.28,9.23C23.36,6.39,21,4,19,3.9h0c-2-.12-2.9,2.09-2,4.93L26.08,40C27,42.78,29.36,45.17,31.37,45.28Z"/><path class="cls-13" d="M33.27,40.46,24.19,9.34C23.27,6.51,20.9,4.12,18.89,4a2.06,2.06,0,0,0-1.3.33,2,2,0,0,1,1.53-.51c2,.11,4.38,2.5,5.29,5.33l9.08,31.12c.68,2.12.36,3.89-.68,4.6C33.67,44.08,33.9,42.42,33.27,40.46Z"/><polygon class="cls-14" points="24.79 42.48 24.79 49.15 18.22 45.34 18.22 38.62 24.79 42.48"/><polygon class="cls-15" points="24.78 42.48 24.78 49.15 31.32 45.36 31.32 38.63 24.78 42.48"/><polygon class="cls-16" points="31.32 38.63 24.78 42.48 18.22 38.62 24.78 34.79 31.32 38.63"/><path class="cls-17" d="M55.59,27.5l-25.9-15c-.83-.47-1.5,0-1.5,1.14v.52A3.61,3.61,0,0,0,29.69,17l25.9,15c.83.48,1.5,0,1.5-1.14v-.51A3.59,3.59,0,0,0,55.59,27.5Z"/><path class="cls-18" d="M56.37,27,30.47,12a1,1,0,0,0-.94-.1h0l-.82.48h0a1,1,0,0,1,1,.07L55.59,27.5a3.59,3.59,0,0,1,1.5,2.87v.51A1.49,1.49,0,0,1,56.68,32l.45-.31a1.34,1.34,0,0,0,.74-1.29v-.52A3.61,3.61,0,0,0,56.37,27Z"/><path class="cls-19" d="M55.68,27.43l-25.9-15a1,1,0,0,0-1.06,0,1,1,0,0,1,.87.13l25.9,15A3.61,3.61,0,0,1,57,30.39v.52a1.43,1.43,0,0,1-.45,1.17,1.26,1.26,0,0,0,.63-1.27V30.3A3.58,3.58,0,0,0,55.68,27.43Z"/><path class="cls-20" d="M53.19,28.35l-.06-.13.33-.16a4.53,4.53,0,0,1,.6-.26l0,0h0a1.05,1.05,0,0,1,.36,0h0c1,.06,2.25,1.28,2.72,2.73l2.4,7.39c.38,1.18.16,2.14-.49,2.44l-.65.31,0-.1h-.17c-1-.06-2.25-1.28-2.72-2.73l-2.4-7.4A2.48,2.48,0,0,1,53.19,28.35Z"/><path class="cls-21" d="M57.86,40.74h0c1,0,1.48-1.08,1-2.53l-2.4-7.39c-.47-1.46-1.69-2.68-2.72-2.73h0c-1-.06-1.48,1.07-1,2.52L55.14,38C55.61,39.46,56.83,40.68,57.86,40.74Z"/><path class="cls-22" d="M58.83,38.27l-2.41-7.4c-.47-1.45-1.68-2.67-2.71-2.73a1.12,1.12,0,0,0-.67.17,1,1,0,0,1,.78-.26c1,.06,2.25,1.28,2.72,2.73l2.4,7.4c.35,1.08.19,2-.35,2.35A2.21,2.21,0,0,0,58.83,38.27Z"/><path class="cls-23" d="M55.53,47.88h-.75v8.44h0c0,.12.17.22.37.22s.38-.1.38-.22h0Z"/><path class="cls-24" d="M53.73,44.74h2.84v4.38h0c0,.46-.63.83-1.42.83s-1.42-.37-1.42-.82v0h0Z"/><path class="cls-25" d="M52.6,38.55h5.11v5.82h0v0c0,.82-1.15,1.49-2.56,1.49s-2.55-.67-2.55-1.49v0h0Z"/><path class="cls-26" d="M57.71,38.56c0,.82-1.15,1.49-2.56,1.49s-2.55-.67-2.55-1.49,1.14-1.49,2.55-1.49S57.71,37.74,57.71,38.56Z"/><ellipse class="cls-27" cx="55.15" cy="38.54" rx="1.83" ry="1.06"/><ellipse class="cls-28" cx="55.15" cy="38.54" rx="1.83" ry="1.06"/><path class="cls-29" d="M53.32,42.16c0,.8-.57,1.12-1.27.72a2.79,2.79,0,0,1-1.27-2.19c0-.8.57-1.12,1.27-.72A2.79,2.79,0,0,1,53.32,42.16Z"/><path class="cls-30" d="M52.11,39.94a.92.92,0,0,0-.86-.11A1,1,0,0,1,52,40a2.82,2.82,0,0,1,1.27,2.19.85.85,0,0,1-.4.83.81.81,0,0,0,.51-.87A2.79,2.79,0,0,0,52.11,39.94Z"/><polygon class="cls-31" points="20.07 13.14 20.07 22.07 4.21 12.9 4.21 4.12 20.07 13.14"/><polygon class="cls-32" points="20.06 13.14 20.06 22.07 27.56 18.01 27.56 8.99 20.06 13.14"/><polygon class="cls-33" points="27.56 8.99 20.06 13.14 4.21 4.12 11.74 0 27.56 8.99"/><polygon class="cls-34" points="28.02 17.7 28.02 24.89 20.74 20.64 20.74 13.56 28.02 17.7"/><polygon class="cls-35" points="28.01 17.7 28.01 24.89 34.06 21.62 34.06 14.35 28.01 17.7"/><polygon class="cls-36" points="34.06 14.35 28.01 17.7 20.74 13.56 26.81 10.24 34.06 14.35"/><path class="cls-37" d="M28.45,21.33c0,1.69,1.2,2.37,2.67,1.52a5.86,5.86,0,0,0,2.67-4.6c0-1.7-1.19-2.38-2.67-1.53A5.91,5.91,0,0,0,28.45,21.33Z"/><path class="cls-38" d="M29,21.07a1.6,1.6,0,0,0,.63,1.44l21,12c.4.23.14-.29.76-.65A5,5,0,0,0,53.62,30c0-.7.66-.71.26-.95L32.81,17a1.61,1.61,0,0,0-1.58.18A5,5,0,0,0,29,21.07Z"/><path class="cls-39" d="M29,21.07a1.6,1.6,0,0,0,.63,1.44l21,12c.4.23.14-.29.76-.65A5,5,0,0,0,53.62,30c0-.7.66-.71.26-.95L32.81,17a1.61,1.61,0,0,0-1.58.18A5,5,0,0,0,29,21.07Z"/><path class="cls-40" d="M50,33.08c0,1.44,1,2,2.26,1.29a5,5,0,0,0,2.26-3.9c0-1.43-1-2-2.26-1.28A5,5,0,0,0,50,33.08Z"/><path class="cls-41" d="M50.74,32.66c0,1,.68,1.36,1.53.87a3.39,3.39,0,0,0,1.53-2.64c0-1-.69-1.37-1.53-.88A3.37,3.37,0,0,0,50.74,32.66Z"/><path class="cls-42" d="M50.74,32.66c0,1,.68,1.36,1.53.87a3.39,3.39,0,0,0,1.53-2.64c0-1-.69-1.37-1.53-.88A3.37,3.37,0,0,0,50.74,32.66Z"/><path class="cls-43" d="M52.17,29.13a1.66,1.66,0,0,1,1.55-.19,1.81,1.81,0,0,0-1.35.27,5,5,0,0,0-2.26,3.89,1.53,1.53,0,0,0,.71,1.48c-.55-.15-.91-.7-.91-1.55A5,5,0,0,1,52.17,29.13Z"/><path class="cls-44" d="M42,24.32c-.29.5-2.94-.65,1.43,1.89s8.14,4.2,8.43,3.71-3-3-7.39-5.51S42.29,23.82,42,24.32Z"/><path class="cls-45" d="M9.08,9.22,9,9l.63-.32a2,2,0,0,1,.51-.26l.1-.05v0a2.07,2.07,0,0,1,.71-.07h0c2,.11,4.39,2.5,5.3,5.33l9.08,31.12c.74,2.29.3,4.17-.95,4.75l-.62.36-.07-.18h-.34c-2-.11-4.39-2.49-5.3-5.33L9,13.22A4.84,4.84,0,0,1,9.08,9.22Z"/><path class="cls-46" d="M22.58,50.08h0c2,.11,2.89-2.1,2-4.93L15.48,14c-.91-2.84-3.29-5.22-5.3-5.33h0c-2-.11-2.89,2.09-2,4.93l9.08,31.12C18.19,47.58,20.57,50,22.58,50.08Z"/><path class="cls-47" d="M24.47,45.26,15.39,14.14c-.91-2.83-3.28-5.22-5.29-5.33a2,2,0,0,0-1.3.33,2,2,0,0,1,1.52-.51c2,.11,4.38,2.5,5.3,5.33l9.07,31.12c.69,2.12.36,3.89-.68,4.6C24.87,48.88,25.1,47.22,24.47,45.26Z"/><path class="cls-48" d="M23.09,46.79c0,1.22-.86,1.71-1.92,1.1a4.22,4.22,0,0,1-1.92-3.31c0-1.21.86-1.7,1.92-1.09A4.22,4.22,0,0,1,23.09,46.79Z"/><ellipse class="cls-48" cx="11.42" cy="13.41" rx="1.56" ry="2.7" transform="translate(-5.21 7.6) rotate(-30.31)"/><path class="cls-49" d="M12.83,14.44a1.13,1.13,0,0,1-.44,1l-.8.47c-.29.16-.1-.2-.54-.45a3.5,3.5,0,0,1-1.57-2.73c0-.49-.46-.49-.18-.66l.85-.48a1.13,1.13,0,0,1,1.1.13A3.48,3.48,0,0,1,12.83,14.44Z"/><path class="cls-50" d="M12,14.92c0,1-.71,1.4-1.58.9A3.48,3.48,0,0,1,8.84,13.1c0-1,.7-1.41,1.57-.9A3.48,3.48,0,0,1,12,14.92Z"/><path class="cls-51" d="M10.49,12.16A1.15,1.15,0,0,0,9.41,12a1.22,1.22,0,0,1,.94.18,3.49,3.49,0,0,1,1.58,2.72,1.09,1.09,0,0,1-.5,1,1,1,0,0,0,.64-1.09A3.48,3.48,0,0,0,10.49,12.16Z"/><path class="cls-52" d="M22.55,46.74a1.1,1.1,0,0,1-.44,1l-.8.47c-.29.16-.1-.2-.54-.45A3.48,3.48,0,0,1,19.19,45c0-.49-.45-.5-.17-.66l.85-.48A1.15,1.15,0,0,1,21,44,3.49,3.49,0,0,1,22.55,46.74Z"/><path class="cls-53" d="M21.71,47.23c0,1-.71,1.4-1.58.89a3.46,3.46,0,0,1-1.57-2.72c0-1,.7-1.4,1.57-.9A3.51,3.51,0,0,1,21.71,47.23Z"/><path class="cls-54" d="M20.21,44.47a1.15,1.15,0,0,0-1.08-.14,1.27,1.27,0,0,1,.94.19,3.48,3.48,0,0,1,1.58,2.72,1.06,1.06,0,0,1-.5,1,1,1,0,0,0,.64-1.08A3.48,3.48,0,0,0,20.21,44.47Z"/><path class="cls-55" d="M50.64,33.87c0,.81-.57,1.13-1.27.73a2.82,2.82,0,0,1-1.27-2.19c0-.8.57-1.13,1.27-.72A2.78,2.78,0,0,1,50.64,33.87Z"/><path class="cls-30" d="M49.43,31.66a.92.92,0,0,0-.87-.11,1,1,0,0,1,.76.15,2.78,2.78,0,0,1,1.27,2.18.87.87,0,0,1-.4.83c.31-.08.51-.39.51-.87A2.78,2.78,0,0,0,49.43,31.66Z"/><path class="cls-56" d="M47.55,31.51l0-.13.32-.16a4.14,4.14,0,0,1,.61-.26l0,0h0a1.09,1.09,0,0,1,.37,0h0c1,.05,2.24,1.28,2.71,2.73L54,41c.38,1.17.16,2.14-.48,2.44l-.66.3,0-.09h-.17c-1-.06-2.25-1.28-2.71-2.74l-2.41-7.39A2.52,2.52,0,0,1,47.55,31.51Z"/><path class="cls-57" d="M52.22,43.89h0c1,.06,1.48-1.07,1-2.52L50.83,34c-.47-1.46-1.68-2.68-2.71-2.74h0c-1,0-1.49,1.08-1,2.53l2.41,7.39C50,42.61,51.19,43.84,52.22,43.89Z"/><path class="cls-58" d="M53.19,41.42,50.79,34c-.47-1.45-1.69-2.67-2.72-2.73a1.09,1.09,0,0,0-.66.17,1,1,0,0,1,.78-.26c1,.06,2.24,1.28,2.71,2.73l2.4,7.39c.35,1.09.19,2-.35,2.36A2.2,2.2,0,0,0,53.19,41.42Z"/><path class="cls-59" d="M48.7,31.46l-25.89-15c-.83-.48-1.51,0-1.51,1.14v.51a3.6,3.6,0,0,0,1.51,2.87L48.7,36c.83.47,1.51,0,1.51-1.14v-.52A3.61,3.61,0,0,0,48.7,31.46Z"/><path class="cls-60" d="M49.48,31,23.58,16a1,1,0,0,0-.94-.1h0l-.82.48h0a1,1,0,0,1,1,.07l25.89,15a3.61,3.61,0,0,1,1.51,2.87v.52A1.42,1.42,0,0,1,49.79,36l.46-.3A1.35,1.35,0,0,0,51,34.4v-.52A3.59,3.59,0,0,0,49.48,31Z"/><path class="cls-61" d="M48.79,31.39l-25.9-15a.93.93,0,0,0-1.06,0,1,1,0,0,1,.88.13l25.9,15a3.61,3.61,0,0,1,1.5,2.87v.52A1.38,1.38,0,0,1,49.66,36c.38-.14.63-.59.63-1.26v-.52A3.61,3.61,0,0,0,48.79,31.39Z"/><path class="cls-48" d="M49.14,34.06c0,.68-.48.95-1.06.61A2.35,2.35,0,0,1,47,32.83c0-.67.48-.94,1.07-.6A2.36,2.36,0,0,1,49.14,34.06Z"/><path class="cls-62" d="M54.4,39.5h1.44c0-2,1.38-3.19,2.71-4.32s3.15-2.69,1.6-5a2.9,2.9,0,0,0-2-1.44c-1.29-.17-2.4.83-3.38,1.72-.38.33-1.26,1.12-1.46,1a8.17,8.17,0,0,1-1.7-.76l-1,1.06a7.67,7.67,0,0,0,2.17,1c1,.39,2-.48,2.94-1.32.74-.67,1.59-1.44,2.23-1.36a1.57,1.57,0,0,1,1,.81c.78,1.17.31,1.72-1.33,3.11C56.18,35.29,54.4,36.81,54.4,39.5Z"/><path class="cls-63" d="M48.79,34a.63.63,0,0,1-.25.56l-.45.26c-.16.09-.06-.11-.3-.25a2,2,0,0,1-.89-1.53c0-.28-.26-.28-.1-.38l.48-.26a.64.64,0,0,1,.62.06A2,2,0,0,1,48.79,34Z"/><path class="cls-64" d="M48.31,34.28c0,.56-.39.79-.88.5a1.94,1.94,0,0,1-.89-1.53c0-.56.4-.79.89-.5A2,2,0,0,1,48.31,34.28Z"/><path class="cls-65" d="M47.47,32.72a.66.66,0,0,0-.61-.07.72.72,0,0,1,.53.1,2,2,0,0,1,.89,1.54.61.61,0,0,1-.28.58.57.57,0,0,0,.36-.61A2,2,0,0,0,47.47,32.72Z"/><path class="cls-48" d="M52.67,42.52c0,.67-.48.95-1.07.61a2.35,2.35,0,0,1-1.06-1.84c0-.68.47-.95,1.06-.61A2.35,2.35,0,0,1,52.67,42.52Z"/><path class="cls-66" d="M52.31,42.46a.61.61,0,0,1-.25.56l-.44.27c-.17.09-.06-.12-.31-.26a2,2,0,0,1-.89-1.53c0-.28-.25-.28-.1-.37l.48-.27a.62.62,0,0,1,.62.07A1.93,1.93,0,0,1,52.31,42.46Z"/><path class="cls-67" d="M51.84,42.73c0,.56-.4.79-.89.51a2,2,0,0,1-.89-1.53c0-.57.4-.79.89-.51A2,2,0,0,1,51.84,42.73Z"/><path class="cls-68" d="M51,41.18a.62.62,0,0,0-.6-.08.69.69,0,0,1,.53.11,2,2,0,0,1,.89,1.53.61.61,0,0,1-.28.58.57.57,0,0,0,.35-.61A2,2,0,0,0,51,41.18Z"/><path class="cls-48" d="M24.53,19.65c0,.67-.48.94-1.07.6a2.36,2.36,0,0,1-1.06-1.83c0-.68.48-1,1.06-.61A2.35,2.35,0,0,1,24.53,19.65Z"/><path class="cls-69" d="M24.18,19.59a.63.63,0,0,1-.25.56l-.45.26c-.16.1-.06-.11-.31-.25a2,2,0,0,1-.88-1.53c0-.28-.26-.28-.1-.37,0,0,.47-.27.47-.27a.64.64,0,0,1,.63.07A2,2,0,0,1,24.18,19.59Z"/><path class="cls-70" d="M23.7,19.86c0,.56-.39.79-.89.51a2,2,0,0,1-.88-1.54c0-.56.39-.79.88-.5A1.93,1.93,0,0,1,23.7,19.86Z"/><path class="cls-71" d="M22.86,18.31a.64.64,0,0,0-.61-.08.69.69,0,0,1,.53.11,2,2,0,0,1,.89,1.53.61.61,0,0,1-.28.58.57.57,0,0,0,.36-.61A2,2,0,0,0,22.86,18.31Z"/></g></g></g></svg>