<svg width="20" height="20" viewBox="0 0 20 20" fill="none" xmlns="http://www.w3.org/2000/svg">
<path d="M13.2996 9.0249H10.7496L10.1162 10.9332H12.0245C12.7245 10.9332 13.2996 11.4999 13.2996 12.2082C13.2996 12.9082 12.7329 13.4832 12.0245 13.4832H10.1162" stroke="#E0E0E0" stroke-width="1.25" stroke-linecap="round" stroke-linejoin="round"/>
<path d="M7.9502 13.4749V9.0249L6.7002 10.4166" stroke="#E0E0E0" stroke-width="1.25" stroke-linecap="round" stroke-linejoin="round"/>
<path d="M11.65 3.72481L10 1.6665" stroke="#E0E0E0" stroke-width="1.25" stroke-linecap="round" stroke-linejoin="round"/>
<path d="M15.9085 6.49995C16.8335 7.73328 17.4085 9.25828 17.4085 10.9249C17.4085 15.0166 14.0918 18.3333 10.0001 18.3333C5.90848 18.3333 2.5918 15.0166 2.5918 10.9249C2.5918 6.83328 5.90848 3.5166 10.0001 3.5166C10.5668 3.5166 11.1168 3.59164 11.6501 3.71664" stroke="#E0E0E0" stroke-width="1.25" stroke-linecap="round" stroke-linejoin="round"/>
</svg>
