<svg xmlns="http://www.w3.org/2000/svg" xmlns:xlink="http://www.w3.org/1999/xlink" viewBox="0 0 46.34 68.04"><defs><style>.cls-1{isolation:isolate;}.cls-2,.cls-26{mix-blend-mode:multiply;}.cls-2{fill:url(#radial-gradient);}.cls-3{fill:url(#New_Gradient_Swatch_copy_23);}.cls-4{fill:url(#New_Gradient_Swatch_copy_35);}.cls-10,.cls-15,.cls-20,.cls-25,.cls-31,.cls-5{mix-blend-mode:color-dodge;}.cls-5{fill:url(#Radial_Gradient_1);}.cls-6{fill:url(#linear-gradient);}.cls-7{fill:url(#linear-gradient-2);}.cls-8{fill:url(#New_Gradient_Swatch_copy_23-2);}.cls-9{fill:url(#New_Gradient_Swatch_copy_35-2);}.cls-10{fill:url(#Radial_Gradient_1-2);}.cls-11{fill:url(#linear-gradient-3);}.cls-12{fill:url(#linear-gradient-4);}.cls-13{fill:url(#New_Gradient_Swatch_copy_23-3);}.cls-14{fill:url(#New_Gradient_Swatch_copy_35-3);}.cls-15{fill:url(#Radial_Gradient_1-3);}.cls-16{fill:url(#linear-gradient-5);}.cls-17{fill:url(#linear-gradient-6);}.cls-18{fill:url(#New_Gradient_Swatch_copy_23-4);}.cls-19{fill:url(#New_Gradient_Swatch_copy_35-4);}.cls-20{fill:url(#Radial_Gradient_1-4);}.cls-21{fill:url(#linear-gradient-7);}.cls-22{fill:url(#linear-gradient-8);}.cls-23{fill:url(#New_Gradient_Swatch_copy_23-5);}.cls-24{fill:url(#New_Gradient_Swatch_copy_35-5);}.cls-25{fill:url(#Radial_Gradient_1-5);}.cls-26{fill:url(#radial-gradient-2);}.cls-27{fill:url(#New_Gradient_Swatch_copy_23-6);}.cls-28{fill:url(#New_Gradient_Swatch_copy_35-6);}.cls-29{fill:url(#linear-gradient-9);}.cls-30{fill:url(#New_Gradient_Swatch_copy_23-7);}.cls-31{fill:url(#Radial_Gradient_1-6);}</style><radialGradient id="radial-gradient" cx="799.51" cy="-3339.07" r="19.62" gradientTransform="translate(-921.05 2067.01) scale(1.18 0.6)" gradientUnits="userSpaceOnUse"><stop offset="0.19" stop-color="#5f5c5d"/><stop offset="1" stop-color="#fff"/></radialGradient><linearGradient id="New_Gradient_Swatch_copy_23" x1="56.7" y1="59.51" x2="93.55" y2="59.51" gradientTransform="translate(-54.82)" gradientUnits="userSpaceOnUse"><stop offset="0.01" stop-color="#c1a1d5"/><stop offset="0.05" stop-color="#c8abda"/><stop offset="0.11" stop-color="#dac6e6"/><stop offset="0.2" stop-color="#f7f2f9"/><stop offset="0.22" stop-color="#fff"/><stop offset="0.25" stop-color="#f9f5fb"/><stop offset="0.3" stop-color="#e9dbf2"/><stop offset="0.36" stop-color="#d1b4e3"/><stop offset="0.43" stop-color="#b395d6"/><stop offset="0.49" stop-color="#9c7dcb"/><stop offset="0.56" stop-color="#8e6ec5"/><stop offset="0.61" stop-color="#8969c3"/><stop offset="0.76" stop-color="#9471c6"/><stop offset="1" stop-color="#b086cc"/></linearGradient><linearGradient id="New_Gradient_Swatch_copy_35" x1="4642.89" y1="27.67" x2="4672.54" y2="59.47" gradientTransform="matrix(-1, 0, 0, 1, 4685.29, 0)" gradientUnits="userSpaceOnUse"><stop offset="0" stop-color="#9f79c8"/><stop offset="0.14" stop-color="#a580cb"/><stop offset="0.33" stop-color="#b492d3"/><stop offset="0.55" stop-color="#cdb0e1"/><stop offset="0.58" stop-color="#d1b4e3"/><stop offset="0.76" stop-color="#dbc4e9"/><stop offset="1" stop-color="#ebdef3"/></linearGradient><radialGradient id="Radial_Gradient_1" cx="14.42" cy="60.64" r="13.81" gradientUnits="userSpaceOnUse"><stop offset="0" stop-color="#fff"/><stop offset="1"/></radialGradient><linearGradient id="linear-gradient" x1="57.98" y1="52.91" x2="92.29" y2="52.91" gradientTransform="translate(-54.82)" gradientUnits="userSpaceOnUse"><stop offset="0" stop-color="#25054d"/><stop offset="0.22" stop-color="#45108a"/><stop offset="0.42" stop-color="#25054d"/><stop offset="0.56" stop-color="#270651"/><stop offset="0.7" stop-color="#2e085e"/><stop offset="0.84" stop-color="#390c73"/><stop offset="0.96" stop-color="#45108a"/></linearGradient><linearGradient id="linear-gradient-2" x1="57.98" y1="52.08" x2="92.29" y2="52.08" gradientTransform="translate(-54.82)" gradientUnits="userSpaceOnUse"><stop offset="0" stop-color="#7c1dc9"/><stop offset="0.05" stop-color="#6e41d2"/><stop offset="0.16" stop-color="#4c9be8"/><stop offset="0.26" stop-color="#2af6ff"/><stop offset="0.33" stop-color="#37d3f6"/><stop offset="0.49" stop-color="#5093e6"/><stop offset="0.62" stop-color="#6360da"/><stop offset="0.74" stop-color="#703bd1"/><stop offset="0.84" stop-color="#7925cb"/><stop offset="0.9" stop-color="#7c1dc9"/></linearGradient><linearGradient id="New_Gradient_Swatch_copy_23-2" x1="56.7" y1="49.26" x2="93.55" y2="49.26" xlink:href="#New_Gradient_Swatch_copy_23"/><linearGradient id="New_Gradient_Swatch_copy_35-2" x1="4642.89" y1="17.43" x2="4672.54" y2="49.23" xlink:href="#New_Gradient_Swatch_copy_35"/><radialGradient id="Radial_Gradient_1-2" cx="14.42" cy="50.4" r="13.81" xlink:href="#Radial_Gradient_1"/><linearGradient id="linear-gradient-3" x1="57.98" y1="42.66" x2="92.29" y2="42.66" xlink:href="#linear-gradient"/><linearGradient id="linear-gradient-4" x1="57.98" y1="41.84" x2="92.29" y2="41.84" xlink:href="#linear-gradient-2"/><linearGradient id="New_Gradient_Swatch_copy_23-3" x1="56.7" y1="39.3" x2="93.55" y2="39.3" xlink:href="#New_Gradient_Swatch_copy_23"/><linearGradient id="New_Gradient_Swatch_copy_35-3" x1="4642.89" y1="7.47" x2="4672.54" y2="39.27" xlink:href="#New_Gradient_Swatch_copy_35"/><radialGradient id="Radial_Gradient_1-3" cx="14.42" cy="40.44" r="13.81" xlink:href="#Radial_Gradient_1"/><linearGradient id="linear-gradient-5" x1="57.98" y1="32.7" x2="92.29" y2="32.7" xlink:href="#linear-gradient"/><linearGradient id="linear-gradient-6" x1="57.98" y1="31.88" x2="92.29" y2="31.88" xlink:href="#linear-gradient-2"/><linearGradient id="New_Gradient_Swatch_copy_23-4" x1="56.7" y1="29.23" x2="93.55" y2="29.23" xlink:href="#New_Gradient_Swatch_copy_23"/><linearGradient id="New_Gradient_Swatch_copy_35-4" x1="4642.89" y1="-2.6" x2="4672.54" y2="29.2" xlink:href="#New_Gradient_Swatch_copy_35"/><radialGradient id="Radial_Gradient_1-4" cx="14.42" cy="30.37" r="13.81" xlink:href="#Radial_Gradient_1"/><linearGradient id="linear-gradient-7" x1="57.98" y1="22.63" x2="92.29" y2="22.63" xlink:href="#linear-gradient"/><linearGradient id="linear-gradient-8" x1="57.98" y1="21.81" x2="92.29" y2="21.81" xlink:href="#linear-gradient-2"/><linearGradient id="New_Gradient_Swatch_copy_23-5" x1="56.7" y1="19.16" x2="93.55" y2="19.16" xlink:href="#New_Gradient_Swatch_copy_23"/><linearGradient id="New_Gradient_Swatch_copy_35-5" x1="4642.89" y1="-12.67" x2="4672.54" y2="19.13" xlink:href="#New_Gradient_Swatch_copy_35"/><radialGradient id="Radial_Gradient_1-5" cx="14.42" cy="20.3" r="13.81" xlink:href="#Radial_Gradient_1"/><radialGradient id="radial-gradient-2" cx="798.39" cy="-3415.63" r="8.02" xlink:href="#radial-gradient"/><linearGradient id="New_Gradient_Swatch_copy_23-6" x1="67.82" y1="10.96" x2="82.57" y2="10.96" xlink:href="#New_Gradient_Swatch_copy_23"/><linearGradient id="New_Gradient_Swatch_copy_35-6" x1="4656.07" y1="-2.11" x2="4667.94" y2="10.61" xlink:href="#New_Gradient_Swatch_copy_35"/><linearGradient id="linear-gradient-9" x1="25.9" y1="7.34" x2="14.32" y2="7.34" gradientTransform="matrix(1, 0, 0, 1, 0, 0)" xlink:href="#linear-gradient"/><linearGradient id="New_Gradient_Swatch_copy_23-7" x1="25.9" y1="6.62" x2="14.32" y2="6.62" gradientTransform="matrix(1, 0, 0, 1, 0, 0)" xlink:href="#New_Gradient_Swatch_copy_23"/><radialGradient id="Radial_Gradient_1-6" cx="18.02" cy="11.08" r="5.52" xlink:href="#Radial_Gradient_1"/></defs><g class="cls-1"><g id="Layer_2" data-name="Layer 2"><g id="Layer_1-2" data-name="Layer 1"><ellipse class="cls-2" cx="23.17" cy="56.23" rx="23.17" ry="11.81"/><path class="cls-3" d="M39.14,51.17H1.7v5.77c0,6,8.39,10.9,18.72,10.9S39.14,63,39.14,56.94v-.15h0Z"/><ellipse class="cls-4" cx="20.42" cy="51.24" rx="18.72" ry="10.9"/><path class="cls-5" d="M20.42,62.1C10.2,62.1,1.89,57.33,1.71,51.4c0,.06,0,.13,0,.19,0,6,8.39,10.9,18.72,10.9s18.72-4.88,18.72-10.9a1.21,1.21,0,0,0,0-.19C39,57.33,30.65,62.1,20.42,62.1Z"/><path class="cls-6" d="M37.86,45.38H3v4.76H3s0,.1,0,.14c0,5.61,7.81,10.16,17.43,10.16s17.44-4.55,17.44-10.16c0,0,0-.09,0-.14h0Z"/><path class="cls-7" d="M37.86,44.56H3v4.76H3s0,.09,0,.14c0,5.61,7.81,10.15,17.43,10.15s17.44-4.54,17.44-10.15c0-.05,0-.09,0-.14h0Z"/><path class="cls-8" d="M39.14,40.92H1.7V46.7c0,6,8.39,10.9,18.72,10.9s18.72-4.88,18.72-10.9v-.15h0Z"/><ellipse class="cls-9" cx="20.42" cy="41" rx="18.72" ry="10.9"/><path class="cls-10" d="M20.42,51.86c-10.22,0-18.53-4.78-18.71-10.71,0,.07,0,.13,0,.2,0,6,8.39,10.9,18.72,10.9s18.72-4.88,18.72-10.9a1.34,1.34,0,0,0,0-.2C39,47.08,30.65,51.86,20.42,51.86Z"/><path class="cls-11" d="M37.86,35.14H3V39.9H3C3,40,3,40,3,40c0,5.61,7.81,10.15,17.43,10.15S37.86,45.65,37.86,40c0,0,0-.09,0-.14h0Z"/><path class="cls-12" d="M37.86,34.31H3v4.77H3s0,.09,0,.14c0,5.6,7.81,10.15,17.43,10.15s17.44-4.55,17.44-10.15c0,0,0-.1,0-.14h0Z"/><path class="cls-13" d="M39.14,31H1.7v5.78c0,6,8.39,10.9,18.72,10.9s18.72-4.88,18.72-10.9v-.15h0Z"/><ellipse class="cls-14" cx="20.42" cy="31.04" rx="18.72" ry="10.9"/><path class="cls-15" d="M20.42,41.9C10.2,41.9,1.89,37.12,1.71,31.19c0,.07,0,.13,0,.2,0,6,8.39,10.9,18.72,10.9s18.72-4.88,18.72-10.9a1.34,1.34,0,0,0,0-.2C39,37.12,30.65,41.9,20.42,41.9Z"/><path class="cls-16" d="M37.86,25.18H3v4.76H3s0,.09,0,.14c0,5.61,7.81,10.15,17.43,10.15s17.44-4.54,17.44-10.15c0,0,0-.09,0-.14h0Z"/><path class="cls-17" d="M37.86,24.35H3v4.77H3s0,.09,0,.14c0,5.6,7.81,10.15,17.43,10.15s17.44-4.55,17.44-10.15c0-.05,0-.1,0-.14h0Z"/><path class="cls-18" d="M39.14,20.9H1.7v5.77c0,6,8.39,10.9,18.72,10.9s18.72-4.88,18.72-10.9v-.15h0Z"/><ellipse class="cls-19" cx="20.42" cy="20.97" rx="18.72" ry="10.9"/><path class="cls-20" d="M20.42,31.83c-10.22,0-18.53-4.78-18.71-10.71,0,.07,0,.13,0,.2,0,6,8.39,10.9,18.72,10.9s18.72-4.88,18.72-10.9a1.34,1.34,0,0,0,0-.2C39,27.05,30.65,31.83,20.42,31.83Z"/><path class="cls-21" d="M37.86,15.11H3v4.76H3C3,19.92,3,20,3,20c0,5.61,7.81,10.15,17.43,10.15S37.86,25.62,37.86,20c0-.05,0-.09,0-.14h0Z"/><path class="cls-22" d="M37.86,14.28H3v4.77H3s0,.09,0,.14c0,5.6,7.81,10.15,17.43,10.15s17.44-4.55,17.44-10.15c0-.05,0-.1,0-.14h0Z"/><path class="cls-23" d="M39.14,10.83H1.7V16.6c0,6,8.39,10.9,18.72,10.9s18.72-4.88,18.72-10.9v-.15h0Z"/><ellipse class="cls-24" cx="20.42" cy="10.9" rx="18.72" ry="10.9"/><path class="cls-25" d="M20.42,21.76C10.2,21.76,1.89,17,1.71,11.05c0,.07,0,.13,0,.2,0,6,8.39,10.9,18.72,10.9s18.72-4.88,18.72-10.9a1.34,1.34,0,0,0,0-.2C39,17,30.65,21.76,20.42,21.76Z"/><ellipse class="cls-26" cx="21.85" cy="10.12" rx="9.47" ry="4.83"/><path class="cls-27" d="M27.91,7.29h-15v3c0,2.41,3.36,4.36,7.49,4.36s7.49-1.95,7.49-4.36V10.2h0Z"/><path class="cls-28" d="M12.93,7.32c0,2.41,3.36,4.36,7.49,4.36s7.49-1.95,7.49-4.36S24.56,3,20.42,3,12.93,4.91,12.93,7.32Z"/><path class="cls-29" d="M15.71,7.34c0,1.51,2.11,2.74,4.71,2.74s4.72-1.23,4.72-2.74S23,4.59,20.42,4.59,15.71,5.82,15.71,7.34Z"/><path class="cls-30" d="M20.42,7.19a5.77,5.77,0,0,1,4.15,1.45,1.92,1.92,0,0,0,.57-1.3c0-1.52-2.11-2.75-4.72-2.75s-4.71,1.23-4.71,2.75a1.91,1.91,0,0,0,.56,1.3A5.81,5.81,0,0,1,20.42,7.19Z"/><path class="cls-31" d="M20.42,11.66c-4.09,0-7.41-1.91-7.48-4.28,0,0,0,0,0,.08,0,2.41,3.36,4.36,7.49,4.36s7.49-2,7.49-4.36V7.38C27.84,9.75,24.52,11.66,20.42,11.66Z"/></g></g></g></svg>