<svg xmlns="http://www.w3.org/2000/svg" xmlns:xlink="http://www.w3.org/1999/xlink" viewBox="0 0 60.1 54.27"><defs><style>.cls-1{isolation:isolate;}.cls-2,.cls-35,.cls-8{mix-blend-mode:multiply;}.cls-2{fill:url(#linear-gradient);}.cls-3{fill:url(#New_Gradient_Swatch_copy_36);}.cls-4{fill:url(#New_Gradient_Swatch_copy_35);}.cls-5{fill:url(#New_Gradient_Swatch_copy_35-2);}.cls-6{fill:#d1b4e3;}.cls-7{fill:url(#New_Gradient_Swatch_copy_36-2);}.cls-8{fill:#e6e7e8;}.cls-9{fill:url(#New_Gradient_Swatch_copy_35-3);}.cls-10{fill:url(#New_Gradient_Swatch_copy_36-3);}.cls-11{fill:#f1e8f6;}.cls-12{fill:url(#New_Gradient_Swatch_copy_35-4);}.cls-13{fill:url(#New_Gradient_Swatch_copy_35-5);}.cls-14{fill:url(#New_Gradient_Swatch_copy_61);}.cls-15,.cls-16,.cls-21,.cls-23,.cls-25,.cls-26,.cls-29{opacity:0.5;}.cls-15{fill:url(#New_Gradient_Swatch_copy_61-2);}.cls-16{fill:url(#New_Gradient_Swatch_copy_36-4);}.cls-17{fill:url(#New_Gradient_Swatch_copy_35-6);}.cls-18{fill:url(#New_Gradient_Swatch_copy_61-3);}.cls-19{fill:url(#New_Gradient_Swatch_copy_61-4);}.cls-20{fill:url(#New_Gradient_Swatch_copy_61-5);}.cls-21{fill:url(#New_Gradient_Swatch_copy_61-6);}.cls-22{fill:url(#New_Gradient_Swatch_copy_61-7);}.cls-23{fill:url(#New_Gradient_Swatch_copy_36-5);}.cls-24{fill:url(#New_Gradient_Swatch_copy_61-8);}.cls-25{fill:url(#New_Gradient_Swatch_copy_36-6);}.cls-26{fill:url(#New_Gradient_Swatch_copy_36-7);}.cls-27{fill:url(#New_Gradient_Swatch_copy_36-8);}.cls-28{fill:url(#New_Gradient_Swatch_copy_61-9);}.cls-29{fill:url(#New_Gradient_Swatch_copy_36-9);}.cls-30{fill:url(#New_Gradient_Swatch_copy_36-10);}.cls-31{fill:url(#New_Gradient_Swatch_copy_35-7);}.cls-32{fill:url(#New_Gradient_Swatch_copy_35-8);}.cls-33{fill:url(#New_Gradient_Swatch_copy_35-9);}.cls-34{fill:url(#linear-gradient-2);}.cls-35{fill:url(#linear-gradient-3);}.cls-36{fill:url(#New_Gradient_Swatch_copy_35-10);}</style><linearGradient id="linear-gradient" x1="59.17" y1="59.44" x2="2.76" y2="14.72" gradientUnits="userSpaceOnUse"><stop offset="0" stop-color="#fff"/><stop offset="1" stop-color="#939598"/></linearGradient><linearGradient id="New_Gradient_Swatch_copy_36" x1="34.28" y1="16.67" x2="43.79" y2="4.95" gradientUnits="userSpaceOnUse"><stop offset="0.1" stop-color="#45108a"/><stop offset="1" stop-color="#7c1dc9"/></linearGradient><linearGradient id="New_Gradient_Swatch_copy_35" x1="50.99" y1="40.47" x2="67.23" y2="76.91" gradientUnits="userSpaceOnUse"><stop offset="0" stop-color="#9f79c8"/><stop offset="0.14" stop-color="#a580cb"/><stop offset="0.33" stop-color="#b492d3"/><stop offset="0.55" stop-color="#cdb0e1"/><stop offset="0.58" stop-color="#d1b4e3"/><stop offset="0.76" stop-color="#dbc4e9"/><stop offset="1" stop-color="#ebdef3"/></linearGradient><linearGradient id="New_Gradient_Swatch_copy_35-2" x1="19.86" y1="22.21" x2="40.57" y2="33.56" xlink:href="#New_Gradient_Swatch_copy_35"/><linearGradient id="New_Gradient_Swatch_copy_36-2" x1="42.36" y1="39.26" x2="73.61" y2="23.71" xlink:href="#New_Gradient_Swatch_copy_36"/><linearGradient id="New_Gradient_Swatch_copy_35-3" x1="9.26" y1="15.51" x2="17.08" y2="56.7" xlink:href="#New_Gradient_Swatch_copy_35"/><linearGradient id="New_Gradient_Swatch_copy_36-3" x1="14.12" y1="56.97" x2="21.78" y2="3.78" xlink:href="#New_Gradient_Swatch_copy_36"/><linearGradient id="New_Gradient_Swatch_copy_35-4" x1="25.48" y1="38.64" x2="58.66" y2="19.37" xlink:href="#New_Gradient_Swatch_copy_35"/><linearGradient id="New_Gradient_Swatch_copy_35-5" x1="16.89" y1="35.52" x2="38.78" y2="13.72" xlink:href="#New_Gradient_Swatch_copy_35"/><linearGradient id="New_Gradient_Swatch_copy_61" x1="-4.36" y1="35.27" x2="14.81" y2="30.97" gradientUnits="userSpaceOnUse"><stop offset="0" stop-color="#703ed1"/><stop offset="0.62" stop-color="#5a78e0"/><stop offset="1" stop-color="#4c9de9"/></linearGradient><linearGradient id="New_Gradient_Swatch_copy_61-2" x1="11.32" y1="21.59" x2="3.1" y2="31.99" xlink:href="#New_Gradient_Swatch_copy_61"/><linearGradient id="New_Gradient_Swatch_copy_36-4" x1="-4.36" y1="35.27" x2="14.81" y2="30.97" xlink:href="#New_Gradient_Swatch_copy_36"/><linearGradient id="New_Gradient_Swatch_copy_35-6" x1="0.96" y1="31.39" x2="21.12" y2="35.59" xlink:href="#New_Gradient_Swatch_copy_35"/><linearGradient id="New_Gradient_Swatch_copy_61-3" x1="2.24" y1="41.25" x2="21.41" y2="36.95" xlink:href="#New_Gradient_Swatch_copy_61"/><linearGradient id="New_Gradient_Swatch_copy_61-4" x1="4.62" y1="30.25" x2="13.57" y2="41.64" xlink:href="#New_Gradient_Swatch_copy_61"/><linearGradient id="New_Gradient_Swatch_copy_61-5" x1="13.06" y1="45.18" x2="32.23" y2="40.88" xlink:href="#New_Gradient_Swatch_copy_61"/><linearGradient id="New_Gradient_Swatch_copy_61-6" x1="28.61" y1="25.65" x2="18.83" y2="45.26" xlink:href="#New_Gradient_Swatch_copy_61"/><linearGradient id="New_Gradient_Swatch_copy_61-7" x1="4.49" y1="27.82" x2="19.05" y2="24.56" xlink:href="#New_Gradient_Swatch_copy_61"/><linearGradient id="New_Gradient_Swatch_copy_36-5" x1="13.06" y1="45.18" x2="32.23" y2="40.88" xlink:href="#New_Gradient_Swatch_copy_36"/><linearGradient id="New_Gradient_Swatch_copy_61-8" x1="5.98" y1="26.34" x2="13.89" y2="23.65" xlink:href="#New_Gradient_Swatch_copy_61"/><linearGradient id="New_Gradient_Swatch_copy_36-6" x1="4.49" y1="27.82" x2="19.05" y2="24.56" xlink:href="#New_Gradient_Swatch_copy_36"/><linearGradient id="New_Gradient_Swatch_copy_36-7" x1="2.24" y1="41.25" x2="21.41" y2="36.95" xlink:href="#New_Gradient_Swatch_copy_36"/><linearGradient id="New_Gradient_Swatch_copy_36-8" x1="30.86" y1="42.73" x2="47.41" y2="37.77" xlink:href="#New_Gradient_Swatch_copy_36"/><linearGradient id="New_Gradient_Swatch_copy_61-9" x1="32.61" y1="29.9" x2="42.09" y2="27.06" xlink:href="#New_Gradient_Swatch_copy_61"/><linearGradient id="New_Gradient_Swatch_copy_36-9" x1="32.61" y1="29.9" x2="42.09" y2="27.06" xlink:href="#New_Gradient_Swatch_copy_36"/><linearGradient id="New_Gradient_Swatch_copy_36-10" x1="19.76" y1="47.98" x2="16.45" y2="9.48" xlink:href="#New_Gradient_Swatch_copy_36"/><linearGradient id="New_Gradient_Swatch_copy_35-7" x1="35.34" y1="51.13" x2="36.78" y2="54.35" xlink:href="#New_Gradient_Swatch_copy_35"/><linearGradient id="New_Gradient_Swatch_copy_35-8" x1="21.33" y1="24.78" x2="28.27" y2="55.47" xlink:href="#New_Gradient_Swatch_copy_35"/><linearGradient id="New_Gradient_Swatch_copy_35-9" x1="45.04" y1="28.37" x2="31.84" y2="53.53" xlink:href="#New_Gradient_Swatch_copy_35"/><linearGradient id="linear-gradient-2" x1="36.13" y1="39.7" x2="31.55" y2="42.49" gradientUnits="userSpaceOnUse"><stop offset="0.02" stop-color="#45108a"/><stop offset="0.29" stop-color="#3d065f"/><stop offset="1" stop-color="#12054e"/><stop offset="1" stop-color="#10054d"/></linearGradient><linearGradient id="linear-gradient-3" x1="25.66" y1="26.52" x2="19.91" y2="21.97" gradientUnits="userSpaceOnUse"><stop offset="0" stop-color="#fff"/><stop offset="1" stop-color="#bcbec0"/></linearGradient><linearGradient id="New_Gradient_Swatch_copy_35-10" x1="34.27" y1="38.72" x2="33.9" y2="53.73" xlink:href="#New_Gradient_Swatch_copy_35"/></defs><g class="cls-1"><g id="Layer_2" data-name="Layer 2"><g id="Layer_1-2" data-name="Layer 1"><polygon class="cls-2" points="0 37.81 6.78 41.7 6.83 43.89 15.83 49.13 28.77 54.27 53.5 48.37 51.33 47.36 60.1 34.25 33.17 18.02 0 37.81"/><polygon class="cls-3" points="15.04 6.28 41.22 21.52 56.27 23.66 30.08 8.73 15.04 6.28"/><polygon class="cls-4" points="41.21 21.52 41.21 47.21 43.92 45.68 43.92 45.11 53.54 39.42 54.13 39.64 56.27 38.37 56.27 23.66 41.21 21.52"/><polygon class="cls-5" points="41.22 21.52 41.22 47.21 15.04 31.97 15.04 6.28 41.22 21.52"/><polygon class="cls-6" points="43.3 32.5 54.76 25.62 54.76 39.27 54.13 39.64 53.54 39.42 43.92 45.11 43.92 45.68 43.3 46.04 43.3 32.5"/><polygon class="cls-7" points="53.54 39.42 53.54 27.07 43.92 32.85 43.92 45.11 53.54 39.42"/><polygon class="cls-8" points="53.54 28.01 53.54 27.07 43.92 32.85 43.92 33.7 53.54 28.01"/><polygon class="cls-8" points="53.54 28.19 53.54 27.69 43.92 33.47 43.92 33.89 53.54 28.19"/><polygon class="cls-8" points="53.54 29.17 53.54 28.66 43.92 34.44 43.92 34.86 53.54 29.17"/><polygon class="cls-8" points="53.54 30.14 53.54 29.64 43.92 35.42 43.92 35.83 53.54 30.14"/><polygon class="cls-8" points="53.54 31.11 53.54 30.61 43.92 36.39 43.92 36.81 53.54 31.11"/><polygon class="cls-8" points="53.54 32.09 53.54 31.59 43.92 37.37 43.92 37.78 53.54 32.09"/><polygon class="cls-8" points="53.54 33.06 53.54 32.56 43.92 38.34 43.92 38.76 53.54 33.06"/><polygon class="cls-8" points="53.54 34.03 53.54 33.53 43.92 39.31 43.92 39.73 53.54 34.03"/><polygon class="cls-8" points="53.54 35.01 53.54 34.51 43.92 40.29 43.92 40.7 53.54 35.01"/><polygon class="cls-8" points="53.54 35.98 53.54 35.48 43.92 41.26 43.92 41.68 53.54 35.98"/><polygon class="cls-8" points="53.54 36.95 53.54 36.45 43.92 42.23 43.92 42.65 53.54 36.95"/><polygon class="cls-8" points="53.54 37.93 53.54 37.43 43.92 43.21 43.92 43.62 53.54 37.93"/><polygon class="cls-8" points="53.54 38.9 53.54 38.4 43.92 44.18 43.92 44.6 53.54 38.9"/><polygon class="cls-9" points="26.79 36.74 26.79 53.1 0 37.81 0 21.36 26.79 36.74"/><polygon class="cls-10" points="26.79 36.9 39.35 15.29 12.56 0 0 21.52 26.79 36.9"/><polygon class="cls-11" points="1.87 38.81 1.87 24.48 7.59 27.83 7.59 42.14 1.87 38.81"/><polygon class="cls-6" points="6.97 28.18 6.97 41.06 2.5 38.45 2.5 25.56 6.97 28.18"/><polygon class="cls-12" points="26.79 53.1 26.79 36.9 39.3 15.13 39.3 46.1 26.79 53.1"/><polygon class="cls-13" points="27.41 16.48 15.83 23.25 15.83 49.13 17.72 48.03 17.72 31.65 27.41 16.48"/><polygon class="cls-14" points="3.06 38.17 6.97 40.44 6.97 28.18 3.06 25.89 3.06 38.17"/><polygon class="cls-15" points="3.06 38.17 6.97 28.18 3.06 25.89 3.06 38.17"/><path class="cls-16" d="M3.06,25.89V38.17L7,40.44V28.18Zm3.6,14L3.37,38V26.43l3.29,1.93Z"/><polygon class="cls-17" points="15.83 23.25 15.83 49.13 6.83 43.89 6.83 17.97 15.83 23.25"/><polygon class="cls-11" points="8.47 44.79 8.47 30.45 14.19 33.8 14.19 48.12 8.47 44.79"/><polygon class="cls-6" points="13.57 34.16 13.57 47.04 9.09 44.43 9.09 31.54 13.57 34.16"/><polygon class="cls-11" points="19.3 48.72 19.3 34.38 25.02 37.74 25.02 52.05 19.3 48.72"/><polygon class="cls-6" points="24.4 38.09 24.4 50.97 19.92 48.36 19.92 35.47 24.4 38.09"/><polygon class="cls-11" points="8.47 28.57 8.47 20.83 14.19 24.18 14.19 31.89 8.47 28.57"/><polygon class="cls-6" points="13.57 24.54 13.57 30.82 9.09 28.21 9.09 21.91 13.57 24.54"/><polygon class="cls-18" points="9.66 44.15 13.57 46.42 13.57 34.16 9.66 31.87 9.66 44.15"/><polygon class="cls-19" points="9.66 44.15 13.57 34.16 9.66 31.87 9.66 44.15"/><polygon class="cls-20" points="20.49 48.08 24.4 50.35 24.4 38.09 20.49 35.8 20.49 48.08"/><polygon class="cls-21" points="20.49 48.08 24.4 38.09 20.49 35.8 20.49 48.08"/><polygon class="cls-22" points="9.66 27.93 13.57 30.2 13.57 24.54 9.66 22.25 9.66 27.93"/><path class="cls-23" d="M20.49,35.8V48.08l3.91,2.27V38.09Zm3.6,14L20.8,47.9V36.34l3.29,1.93Z"/><polygon class="cls-24" points="9.66 27.93 13.57 24.54 9.66 22.25 9.66 27.93"/><path class="cls-25" d="M9.66,22.24v5.69l3.91,2.27V24.54Zm3.6,7.42L10,27.75v-5l3.29,1.92Z"/><path class="cls-26" d="M9.66,31.87V44.15l3.91,2.27V34.16Zm3.6,14L10,44V32.41l3.29,1.93Z"/><polygon class="cls-6" points="30.14 35.18 31.13 34.61 36.89 31.26 36.89 22.89 30.14 35.18"/><polygon class="cls-11" points="31.79 33.51 36.27 30.9 36.27 25.38 31.79 33.51"/><polygon class="cls-6" points="30.25 36.88 36.89 33.08 36.89 47.41 30.25 51.19 30.25 36.88"/><polygon class="cls-11" points="30.87 37.24 30.87 50.11 36.27 47.06 36.27 34.16 30.87 37.24"/><polygon class="cls-27" points="35.75 46.77 35.75 34.47 30.87 37.24 30.87 49.53 35.75 46.77"/><path class="cls-8" d="M30.87,37.24V49.53l4.88-2.76V34.47Zm4.57,9.35L31.18,49V37.42L35.44,35Z"/><polygon class="cls-28" points="35.75 26.32 32.27 32.65 35.75 30.62 35.75 26.32"/><path class="cls-29" d="M32.27,32.65l3.48-2v-4.3Zm3.17-2.21-2.36,1.37,2.36-4.29Z"/><polygon class="cls-30" points="15.83 23.25 27.41 16.48 18.4 11.24 6.83 17.97 15.83 23.25"/><polygon class="cls-31" points="28.77 53.52 28.77 54.27 41.23 47.2 41.23 46.44 28.77 53.52"/><polygon class="cls-32" points="28.77 53.52 28.77 54.27 26.78 53.1 26.78 52.35 28.77 53.52"/><polygon class="cls-33" points="26.78 52.35 28.77 53.52 41.23 46.44 39.29 45.31 26.78 52.35"/><path class="cls-34" d="M32,42.23a.71.71,0,0,1-.31.55c-.18.1-.32,0-.32-.18a.69.69,0,0,1,.32-.55C31.85,42,32,42,32,42.23Z"/><polygon class="cls-35" points="17.72 31.65 27.41 16.48 20.44 33.21 17.72 31.65"/><polygon class="cls-36" points="26.78 52.35 41.23 46.44 39.29 45.31 26.78 52.35"/><polygon class="cls-11" points="53.54 27.07 53.54 39.42 54.13 39.64 54.13 26.75 53.54 27.07"/></g></g></g></svg>