<svg xmlns="http://www.w3.org/2000/svg" xmlns:xlink="http://www.w3.org/1999/xlink" viewBox="0 0 37.76 69.83"><defs><style>.cls-1{isolation:isolate;}.cls-2{fill:url(#New_Gradient_Swatch_copy_35);}.cls-3{fill:url(#New_Gradient_Swatch_copy_35-2);}.cls-4{fill:url(#New_Gradient_Swatch_copy_35-3);}.cls-5{fill:#b086cc;opacity:0.5;mix-blend-mode:multiply;}.cls-6{fill:url(#New_Gradient_Swatch_copy_35-4);}.cls-7{fill:url(#New_Gradient_Swatch_copy_35-5);}.cls-8{fill:url(#New_Gradient_Swatch_copy_35-6);}.cls-9{fill:url(#New_Gradient_Swatch_copy_35-7);}.cls-10{fill:url(#New_Gradient_Swatch_copy_35-8);}.cls-11{fill:url(#New_Gradient_Swatch_copy_35-9);}.cls-12{fill:url(#New_Gradient_Swatch_copy_25);}.cls-13{fill:url(#New_Gradient_Swatch_copy_25-2);}.cls-14{fill:url(#New_Gradient_Swatch_copy_25-3);}.cls-15{fill:url(#New_Gradient_Swatch_copy_35-10);}.cls-16{fill:url(#New_Gradient_Swatch_copy_35-11);}.cls-17{fill:url(#New_Gradient_Swatch_copy_35-12);}.cls-18{fill:url(#New_Gradient_Swatch_copy_10);}.cls-19{fill:url(#New_Gradient_Swatch_copy_10-2);}.cls-20{fill:url(#New_Gradient_Swatch_copy_10-3);}.cls-21{fill:url(#New_Gradient_Swatch_copy_35-13);}.cls-22{fill:url(#New_Gradient_Swatch_copy_35-14);}.cls-23{fill:url(#New_Gradient_Swatch_copy_35-15);}.cls-24{fill:url(#New_Gradient_Swatch_copy_25-4);}.cls-25{fill:url(#New_Gradient_Swatch_copy_25-5);}.cls-26{fill:url(#New_Gradient_Swatch_copy_25-6);}.cls-27{fill:url(#New_Gradient_Swatch_copy_25-7);}.cls-28{fill:url(#New_Gradient_Swatch_copy_21);}.cls-29{fill:url(#New_Gradient_Swatch_copy_25-8);}.cls-30{fill:url(#New_Gradient_Swatch_copy_10-4);}.cls-31{fill:url(#New_Gradient_Swatch_copy_10-5);}.cls-32{fill:url(#New_Gradient_Swatch_copy_10-6);}.cls-33{fill:url(#New_Gradient_Swatch_copy_35-16);}.cls-34{fill:url(#New_Gradient_Swatch_copy_35-17);}.cls-35{fill:url(#New_Gradient_Swatch_copy_35-18);}.cls-36{fill:url(#New_Gradient_Swatch_copy_25-9);}.cls-37{fill:url(#New_Gradient_Swatch_copy_25-10);}.cls-38{fill:url(#New_Gradient_Swatch_copy_25-11);}.cls-39{fill:url(#New_Gradient_Swatch_copy_25-12);}.cls-40{fill:url(#New_Gradient_Swatch_copy_25-13);}.cls-41{fill:url(#New_Gradient_Swatch_copy_25-14);}.cls-42{fill:url(#New_Gradient_Swatch_copy_35-19);}.cls-43{fill:url(#New_Gradient_Swatch_copy_35-20);}.cls-44{fill:url(#New_Gradient_Swatch_copy_25-15);}.cls-45{fill:url(#New_Gradient_Swatch_copy_25-16);}.cls-46{fill:url(#New_Gradient_Swatch_copy_25-17);}.cls-47{fill:url(#New_Gradient_Swatch_copy_25-18);}.cls-48{fill:url(#New_Gradient_Swatch_copy_25-19);}.cls-49{fill:url(#New_Gradient_Swatch_copy_25-20);}.cls-50{fill:url(#New_Gradient_Swatch_copy_25-21);}.cls-51{fill:url(#New_Gradient_Swatch_copy_25-22);}.cls-52{fill:url(#New_Gradient_Swatch_copy_25-23);}.cls-53{fill:url(#New_Gradient_Swatch_copy_10-7);}.cls-54{fill:url(#New_Gradient_Swatch_copy_10-8);}.cls-55{fill:url(#New_Gradient_Swatch_copy_10-9);}.cls-56,.cls-94,.cls-95,.cls-96,.cls-97,.cls-98{mix-blend-mode:color-dodge;}.cls-56{fill:url(#Radial_Gradient_1);}.cls-57{fill:url(#New_Gradient_Swatch_copy_10-10);}.cls-58{fill:url(#New_Gradient_Swatch_copy_10-11);}.cls-59{fill:url(#New_Gradient_Swatch_copy_10-12);}.cls-60{fill:url(#New_Gradient_Swatch_copy_35-21);}.cls-61{fill:url(#New_Gradient_Swatch_copy_35-22);}.cls-62{fill:url(#New_Gradient_Swatch_copy_35-23);}.cls-63{fill:url(#New_Gradient_Swatch_copy_25-24);}.cls-64{fill:url(#New_Gradient_Swatch_copy_25-25);}.cls-65{fill:url(#New_Gradient_Swatch_copy_25-26);}.cls-66{fill:url(#New_Gradient_Swatch_copy_25-27);}.cls-67{fill:url(#New_Gradient_Swatch_copy_25-28);}.cls-68{fill:url(#New_Gradient_Swatch_copy_25-29);}.cls-69{fill:url(#New_Gradient_Swatch_copy_25-30);}.cls-70{fill:url(#New_Gradient_Swatch_copy_25-31);}.cls-71{fill:url(#New_Gradient_Swatch_copy_25-32);}.cls-72{fill:url(#New_Gradient_Swatch_copy_25-33);}.cls-73{fill:url(#New_Gradient_Swatch_copy_25-34);}.cls-74{fill:url(#New_Gradient_Swatch_copy_25-35);}.cls-75{fill:url(#New_Gradient_Swatch_copy_10-13);}.cls-76{fill:url(#New_Gradient_Swatch_copy_10-14);}.cls-77{fill:url(#New_Gradient_Swatch_copy_10-15);}.cls-78{fill:url(#New_Gradient_Swatch_copy_25-36);}.cls-79{fill:url(#New_Gradient_Swatch_copy_25-37);}.cls-80{fill:url(#New_Gradient_Swatch_copy_25-38);}.cls-81{fill:url(#New_Gradient_Swatch_copy_35-24);}.cls-82{fill:url(#New_Gradient_Swatch_copy_35-25);}.cls-83{fill:url(#New_Gradient_Swatch_copy_35-26);}.cls-84{fill:url(#New_Gradient_Swatch_copy_25-39);}.cls-85{fill:url(#New_Gradient_Swatch_copy_25-40);}.cls-86{fill:url(#New_Gradient_Swatch_copy_25-41);}.cls-87{fill:url(#New_Gradient_Swatch_copy_25-42);}.cls-88{fill:url(#New_Gradient_Swatch_copy_25-43);}.cls-89{fill:url(#New_Gradient_Swatch_copy_25-44);}.cls-90{fill:url(#New_Gradient_Swatch_copy_25-45);}.cls-91{fill:url(#New_Gradient_Swatch_copy_25-46);}.cls-92{fill:url(#New_Gradient_Swatch_copy_25-47);}.cls-93{fill:url(#New_Gradient_Swatch_copy_25-48);}.cls-94{fill:url(#Radial_Gradient_1-2);}.cls-95{fill:url(#Radial_Gradient_1-3);}.cls-96{fill:url(#Radial_Gradient_1-4);}.cls-97{fill:url(#Radial_Gradient_1-5);}.cls-98{fill:url(#Radial_Gradient_1-6);}</style><linearGradient id="New_Gradient_Swatch_copy_35" x1="2.44" y1="27.53" x2="39.7" y2="16.37" gradientUnits="userSpaceOnUse"><stop offset="0" stop-color="#9f79c8"/><stop offset="0.14" stop-color="#a580cb"/><stop offset="0.33" stop-color="#b492d3"/><stop offset="0.55" stop-color="#cdb0e1"/><stop offset="0.58" stop-color="#d1b4e3"/><stop offset="0.76" stop-color="#dbc4e9"/><stop offset="1" stop-color="#ebdef3"/></linearGradient><linearGradient id="New_Gradient_Swatch_copy_35-2" x1="-16.77" y1="32.09" x2="20.96" y2="23.63" xlink:href="#New_Gradient_Swatch_copy_35"/><linearGradient id="New_Gradient_Swatch_copy_35-3" x1="10.32" y1="-8.89" x2="4.09" y2="2.98" xlink:href="#New_Gradient_Swatch_copy_35"/><linearGradient id="New_Gradient_Swatch_copy_35-4" x1="34.03" y1="50.05" x2="39.53" y2="48.4" xlink:href="#New_Gradient_Swatch_copy_35"/><linearGradient id="New_Gradient_Swatch_copy_35-5" x1="20.17" y1="50.77" x2="41.08" y2="46.08" xlink:href="#New_Gradient_Swatch_copy_35"/><linearGradient id="New_Gradient_Swatch_copy_35-6" x1="33" y1="42.34" x2="31.03" y2="46.1" xlink:href="#New_Gradient_Swatch_copy_35"/><linearGradient id="New_Gradient_Swatch_copy_35-7" x1="4.42" y1="50.23" x2="24" y2="44.36" xlink:href="#New_Gradient_Swatch_copy_35"/><linearGradient id="New_Gradient_Swatch_copy_35-8" x1="-3.07" y1="52.58" x2="5.02" y2="50.77" xlink:href="#New_Gradient_Swatch_copy_35"/><linearGradient id="New_Gradient_Swatch_copy_35-9" x1="13.25" y1="31.28" x2="4.4" y2="48.15" xlink:href="#New_Gradient_Swatch_copy_35"/><linearGradient id="New_Gradient_Swatch_copy_25" x1="4.56" y1="48.18" x2="22.26" y2="42.88" gradientUnits="userSpaceOnUse"><stop offset="0" stop-color="#25054d"/><stop offset="1" stop-color="#45108a"/></linearGradient><linearGradient id="New_Gradient_Swatch_copy_25-2" x1="-1.85" y1="50.3" x2="3.75" y2="49.05" xlink:href="#New_Gradient_Swatch_copy_25"/><linearGradient id="New_Gradient_Swatch_copy_25-3" x1="13.25" y1="31.06" x2="4.4" y2="47.93" xlink:href="#New_Gradient_Swatch_copy_25"/><linearGradient id="New_Gradient_Swatch_copy_35-10" x1="28.82" y1="65.04" x2="43.22" y2="60.72" xlink:href="#New_Gradient_Swatch_copy_35"/><linearGradient id="New_Gradient_Swatch_copy_35-11" x1="-14.48" y1="66.93" x2="46.65" y2="53.23" xlink:href="#New_Gradient_Swatch_copy_35"/><linearGradient id="New_Gradient_Swatch_copy_35-12" x1="26.43" y1="43.27" x2="18.21" y2="58.93" xlink:href="#New_Gradient_Swatch_copy_35"/><linearGradient id="New_Gradient_Swatch_copy_10" x1="9.34" y1="16.34" x2="15.92" y2="14.37" gradientUnits="userSpaceOnUse"><stop offset="0.04" stop-color="#9d9eb3"/><stop offset="0.58" stop-color="#d4d1d8"/><stop offset="1" stop-color="#eeebf2"/></linearGradient><linearGradient id="New_Gradient_Swatch_copy_10-2" x1="1.61" y1="17.19" x2="14.6" y2="14.28" xlink:href="#New_Gradient_Swatch_copy_10"/><linearGradient id="New_Gradient_Swatch_copy_10-3" x1="9.63" y1="9.26" x2="8.43" y2="11.55" xlink:href="#New_Gradient_Swatch_copy_10"/><linearGradient id="New_Gradient_Swatch_copy_35-13" x1="30.89" y1="65.54" x2="50.47" y2="59.68" xlink:href="#New_Gradient_Swatch_copy_35"/><linearGradient id="New_Gradient_Swatch_copy_35-14" x1="23.4" y1="67.9" x2="31.5" y2="66.08" xlink:href="#New_Gradient_Swatch_copy_35"/><linearGradient id="New_Gradient_Swatch_copy_35-15" x1="39.72" y1="46.59" x2="30.87" y2="63.46" xlink:href="#New_Gradient_Swatch_copy_35"/><linearGradient id="New_Gradient_Swatch_copy_25-4" x1="31.03" y1="63.38" x2="48.73" y2="58.08" xlink:href="#New_Gradient_Swatch_copy_25"/><linearGradient id="New_Gradient_Swatch_copy_25-5" x1="24.62" y1="65.51" x2="30.22" y2="64.25" xlink:href="#New_Gradient_Swatch_copy_25"/><linearGradient id="New_Gradient_Swatch_copy_25-6" x1="39.72" y1="46.26" x2="30.87" y2="63.13" xlink:href="#New_Gradient_Swatch_copy_25"/><linearGradient id="New_Gradient_Swatch_copy_25-7" x1="8.12" y1="26.28" x2="6.93" y2="26.28" xlink:href="#New_Gradient_Swatch_copy_25"/><linearGradient id="New_Gradient_Swatch_copy_21" x1="17.75" y1="31.18" x2="16.87" y2="31.18" gradientUnits="userSpaceOnUse"><stop offset="0.04" stop-color="#6b24d6"/><stop offset="0.2" stop-color="#7733dc"/><stop offset="0.5" stop-color="#975ced"/><stop offset="0.63" stop-color="#a56ef4"/><stop offset="0.87" stop-color="#6b24d6"/></linearGradient><linearGradient id="New_Gradient_Swatch_copy_25-8" x1="18.42" y1="27.93" x2="16.12" y2="27.93" xlink:href="#New_Gradient_Swatch_copy_25"/><linearGradient id="New_Gradient_Swatch_copy_10-4" x1="7.8" y1="17.16" x2="19.26" y2="13.73" xlink:href="#New_Gradient_Swatch_copy_10"/><linearGradient id="New_Gradient_Swatch_copy_10-5" x1="2.07" y1="18.54" x2="10.88" y2="16.57" xlink:href="#New_Gradient_Swatch_copy_10"/><linearGradient id="New_Gradient_Swatch_copy_10-6" x1="11.59" y1="5.84" x2="7.83" y2="12.99" xlink:href="#New_Gradient_Swatch_copy_10"/><linearGradient id="New_Gradient_Swatch_copy_35-16" x1="32.64" y1="21.16" x2="40.51" y2="18.8" xlink:href="#New_Gradient_Swatch_copy_35"/><linearGradient id="New_Gradient_Swatch_copy_35-17" x1="-21.01" y1="22.43" x2="58.06" y2="4.7" xlink:href="#New_Gradient_Swatch_copy_35"/><linearGradient id="New_Gradient_Swatch_copy_35-18" x1="23.23" y1="3.41" x2="18.83" y2="11.81" xlink:href="#New_Gradient_Swatch_copy_35"/><linearGradient id="New_Gradient_Swatch_copy_25-9" x1="-796.58" y1="18.75" x2="-773.85" y2="11.94" gradientTransform="matrix(-1, 0, 0, 1, -780.89, 0)" xlink:href="#New_Gradient_Swatch_copy_25"/><linearGradient id="New_Gradient_Swatch_copy_25-10" x1="-801.6" y1="21.38" x2="-799.54" y2="20.91" gradientTransform="matrix(-1, 0, 0, 1, -780.89, 0)" xlink:href="#New_Gradient_Swatch_copy_25"/><linearGradient id="New_Gradient_Swatch_copy_25-11" x1="-784.47" y1="-2.62" x2="-795.97" y2="19.29" gradientTransform="matrix(-1, 0, 0, 1, -780.89, 0)" xlink:href="#New_Gradient_Swatch_copy_25"/><linearGradient id="New_Gradient_Swatch_copy_25-12" x1="-796.58" y1="22.18" x2="-773.85" y2="15.37" gradientTransform="matrix(-1, 0, 0, 1, -780.89, 0)" xlink:href="#New_Gradient_Swatch_copy_25"/><linearGradient id="New_Gradient_Swatch_copy_25-13" x1="-801.6" y1="24.81" x2="-799.54" y2="24.34" gradientTransform="matrix(-1, 0, 0, 1, -780.89, 0)" xlink:href="#New_Gradient_Swatch_copy_25"/><linearGradient id="New_Gradient_Swatch_copy_25-14" x1="-784.47" y1="0.81" x2="-795.97" y2="22.72" gradientTransform="matrix(-1, 0, 0, 1, -780.89, 0)" xlink:href="#New_Gradient_Swatch_copy_25"/><linearGradient id="New_Gradient_Swatch_copy_35-19" x1="17.09" y1="59.76" x2="73.27" y2="42.94" xlink:href="#New_Gradient_Swatch_copy_35"/><linearGradient id="New_Gradient_Swatch_copy_35-20" x1="44.61" y1="4.45" x2="15.59" y2="59.76" xlink:href="#New_Gradient_Swatch_copy_35"/><linearGradient id="New_Gradient_Swatch_copy_25-15" x1="-540.77" y1="56.12" x2="-484.77" y2="39.35" gradientTransform="translate(553.41)" xlink:href="#New_Gradient_Swatch_copy_25"/><linearGradient id="New_Gradient_Swatch_copy_25-16" x1="-551.38" y1="62.67" x2="-549.2" y2="62.18" gradientTransform="translate(553.41)" xlink:href="#New_Gradient_Swatch_copy_25"/><linearGradient id="New_Gradient_Swatch_copy_25-17" x1="-510.24" y1="3.64" x2="-538.85" y2="58.17" gradientTransform="translate(553.41)" xlink:href="#New_Gradient_Swatch_copy_25"/><linearGradient id="New_Gradient_Swatch_copy_25-18" x1="-538.29" y1="57.56" x2="-482.28" y2="40.79" gradientTransform="translate(553.41)" xlink:href="#New_Gradient_Swatch_copy_25"/><linearGradient id="New_Gradient_Swatch_copy_25-19" x1="-548.89" y1="64.11" x2="-546.71" y2="63.62" gradientTransform="translate(553.41)" xlink:href="#New_Gradient_Swatch_copy_25"/><linearGradient id="New_Gradient_Swatch_copy_25-20" x1="-507.75" y1="5.08" x2="-536.36" y2="59.61" gradientTransform="translate(553.41)" xlink:href="#New_Gradient_Swatch_copy_25"/><linearGradient id="New_Gradient_Swatch_copy_25-21" x1="22.93" y1="60.48" x2="56.4" y2="50.46" xlink:href="#New_Gradient_Swatch_copy_25"/><linearGradient id="New_Gradient_Swatch_copy_25-22" x1="-12.88" y1="64.62" x2="32.44" y2="54.46" xlink:href="#New_Gradient_Swatch_copy_25"/><linearGradient id="New_Gradient_Swatch_copy_25-23" x1="33.73" y1="23.16" x2="16.01" y2="56.92" xlink:href="#New_Gradient_Swatch_copy_25"/><linearGradient id="New_Gradient_Swatch_copy_10-7" x1="22.93" y1="59.63" x2="56.4" y2="49.61" xlink:href="#New_Gradient_Swatch_copy_10"/><linearGradient id="New_Gradient_Swatch_copy_10-8" x1="-12.88" y1="63.77" x2="32.44" y2="53.61" xlink:href="#New_Gradient_Swatch_copy_10"/><linearGradient id="New_Gradient_Swatch_copy_10-9" x1="33.73" y1="22.32" x2="16.01" y2="56.08" xlink:href="#New_Gradient_Swatch_copy_10"/><radialGradient id="Radial_Gradient_1" cx="13.03" cy="62.13" r="11.92" gradientUnits="userSpaceOnUse"><stop offset="0" stop-color="#fff"/><stop offset="1"/></radialGradient><linearGradient id="New_Gradient_Swatch_copy_10-10" x1="22.6" y1="25.5" x2="33.66" y2="22.19" xlink:href="#New_Gradient_Swatch_copy_10"/><linearGradient id="New_Gradient_Swatch_copy_10-11" x1="7.4" y1="26.91" x2="29.75" y2="21.9" xlink:href="#New_Gradient_Swatch_copy_10"/><linearGradient id="New_Gradient_Swatch_copy_10-12" x1="24.17" y1="12.5" x2="19.86" y2="20.71" xlink:href="#New_Gradient_Swatch_copy_10"/><linearGradient id="New_Gradient_Swatch_copy_35-21" x1="6.99" y1="66.14" x2="12.5" y2="64.49" xlink:href="#New_Gradient_Swatch_copy_35"/><linearGradient id="New_Gradient_Swatch_copy_35-22" x1="-6.86" y1="66.87" x2="14.05" y2="62.18" xlink:href="#New_Gradient_Swatch_copy_35"/><linearGradient id="New_Gradient_Swatch_copy_35-23" x1="5.96" y1="58.44" x2="3.99" y2="62.2" xlink:href="#New_Gradient_Swatch_copy_35"/><linearGradient id="New_Gradient_Swatch_copy_25-24" x1="7.12" y1="63.7" x2="10.95" y2="62.55" xlink:href="#New_Gradient_Swatch_copy_25"/><linearGradient id="New_Gradient_Swatch_copy_25-25" x1="-5.78" y1="64.22" x2="12.91" y2="60.03" xlink:href="#New_Gradient_Swatch_copy_25"/><linearGradient id="New_Gradient_Swatch_copy_25-26" x1="5.96" y1="57.62" x2="3.99" y2="61.38" xlink:href="#New_Gradient_Swatch_copy_25"/><linearGradient id="New_Gradient_Swatch_copy_25-27" x1="34.15" y1="47.34" x2="37.99" y2="46.2" xlink:href="#New_Gradient_Swatch_copy_25"/><linearGradient id="New_Gradient_Swatch_copy_25-28" x1="21.26" y1="47.86" x2="39.95" y2="43.67" xlink:href="#New_Gradient_Swatch_copy_25"/><linearGradient id="New_Gradient_Swatch_copy_25-29" x1="33" y1="41.26" x2="31.03" y2="45.02" xlink:href="#New_Gradient_Swatch_copy_25"/><linearGradient id="New_Gradient_Swatch_copy_25-30" x1="-811.79" y1="27.54" x2="-787.12" y2="20.15" gradientTransform="matrix(-1, 0, 0, 1, -780.89, 0)" xlink:href="#New_Gradient_Swatch_copy_25"/><linearGradient id="New_Gradient_Swatch_copy_25-31" x1="-817.12" y1="30.42" x2="-815.06" y2="29.96" gradientTransform="matrix(-1, 0, 0, 1, -780.89, 0)" xlink:href="#New_Gradient_Swatch_copy_25"/><linearGradient id="New_Gradient_Swatch_copy_25-32" x1="-798.56" y1="4.28" x2="-811.1" y2="28.18" gradientTransform="matrix(-1, 0, 0, 1, -780.89, 0)" xlink:href="#New_Gradient_Swatch_copy_25"/><linearGradient id="New_Gradient_Swatch_copy_25-33" x1="-811.79" y1="30.97" x2="-787.12" y2="23.58" gradientTransform="matrix(-1, 0, 0, 1, -780.89, 0)" xlink:href="#New_Gradient_Swatch_copy_25"/><linearGradient id="New_Gradient_Swatch_copy_25-34" x1="-817.12" y1="33.85" x2="-815.06" y2="33.39" gradientTransform="matrix(-1, 0, 0, 1, -780.89, 0)" xlink:href="#New_Gradient_Swatch_copy_25"/><linearGradient id="New_Gradient_Swatch_copy_25-35" x1="-798.56" y1="7.71" x2="-811.1" y2="31.61" gradientTransform="matrix(-1, 0, 0, 1, -780.89, 0)" xlink:href="#New_Gradient_Swatch_copy_25"/><linearGradient id="New_Gradient_Swatch_copy_10-13" x1="18.26" y1="27.86" x2="26.13" y2="25.5" xlink:href="#New_Gradient_Swatch_copy_10"/><linearGradient id="New_Gradient_Swatch_copy_10-14" x1="9.93" y1="28.82" x2="21.66" y2="26.19" xlink:href="#New_Gradient_Swatch_copy_10"/><linearGradient id="New_Gradient_Swatch_copy_10-15" x1="20.19" y1="19.16" x2="16.9" y2="25.43" xlink:href="#New_Gradient_Swatch_copy_10"/><linearGradient id="New_Gradient_Swatch_copy_25-36" x1="18.34" y1="26.61" x2="25.1" y2="24.59" xlink:href="#New_Gradient_Swatch_copy_25"/><linearGradient id="New_Gradient_Swatch_copy_25-37" x1="10.65" y1="27.44" x2="20.9" y2="25.14" xlink:href="#New_Gradient_Swatch_copy_25"/><linearGradient id="New_Gradient_Swatch_copy_25-38" x1="20.19" y1="18.99" x2="16.9" y2="25.27" xlink:href="#New_Gradient_Swatch_copy_25"/><linearGradient id="New_Gradient_Swatch_copy_35-24" x1="32.08" y1="44.48" x2="69.34" y2="33.33" xlink:href="#New_Gradient_Swatch_copy_35"/><linearGradient id="New_Gradient_Swatch_copy_35-25" x1="12.87" y1="49.05" x2="50.61" y2="40.59" xlink:href="#New_Gradient_Swatch_copy_35"/><linearGradient id="New_Gradient_Swatch_copy_35-26" x1="39.96" y1="8.07" x2="33.74" y2="19.93" xlink:href="#New_Gradient_Swatch_copy_35"/><linearGradient id="New_Gradient_Swatch_copy_25-39" x1="1.83" y1="63.06" x2="2.73" y2="63.06" xlink:href="#New_Gradient_Swatch_copy_25"/><linearGradient id="New_Gradient_Swatch_copy_25-40" x1="4" y1="64.3" x2="4.9" y2="64.3" xlink:href="#New_Gradient_Swatch_copy_25"/><linearGradient id="New_Gradient_Swatch_copy_25-41" x1="4670.3" y1="21.09" x2="4671.2" y2="21.09" gradientTransform="matrix(-1, 0, 0, 1, 4706.71, 0)" xlink:href="#New_Gradient_Swatch_copy_25"/><linearGradient id="New_Gradient_Swatch_copy_25-42" x1="4672.08" y1="22.14" x2="4672.97" y2="22.14" gradientTransform="matrix(-1, 0, 0, 1, 4706.71, 0)" xlink:href="#New_Gradient_Swatch_copy_25"/><linearGradient id="New_Gradient_Swatch_copy_25-43" x1="4670.3" y1="23.24" x2="4671.2" y2="23.24" gradientTransform="matrix(-1, 0, 0, 1, 4706.71, 0)" xlink:href="#New_Gradient_Swatch_copy_25"/><linearGradient id="New_Gradient_Swatch_copy_25-44" x1="4672.08" y1="24.29" x2="4672.97" y2="24.29" gradientTransform="matrix(-1, 0, 0, 1, 4706.71, 0)" xlink:href="#New_Gradient_Swatch_copy_25"/><linearGradient id="New_Gradient_Swatch_copy_25-45" x1="4670.3" y1="63.05" x2="4671.2" y2="63.05" gradientTransform="matrix(-1, 0, 0, 1, 4706.71, 0)" xlink:href="#New_Gradient_Swatch_copy_25"/><linearGradient id="New_Gradient_Swatch_copy_25-46" x1="4672.08" y1="64.1" x2="4672.97" y2="64.1" gradientTransform="matrix(-1, 0, 0, 1, 4706.71, 0)" xlink:href="#New_Gradient_Swatch_copy_25"/><linearGradient id="New_Gradient_Swatch_copy_25-47" x1="4670.3" y1="65.2" x2="4671.2" y2="65.2" gradientTransform="matrix(-1, 0, 0, 1, 4706.71, 0)" xlink:href="#New_Gradient_Swatch_copy_25"/><linearGradient id="New_Gradient_Swatch_copy_25-48" x1="4672.08" y1="66.25" x2="4672.97" y2="66.25" gradientTransform="matrix(-1, 0, 0, 1, 4706.71, 0)" xlink:href="#New_Gradient_Swatch_copy_25"/><radialGradient id="Radial_Gradient_1-2" cx="32.57" cy="18.98" r="6.39" xlink:href="#Radial_Gradient_1"/><radialGradient id="Radial_Gradient_1-3" cx="17.87" cy="19.58" r="1.61" xlink:href="#Radial_Gradient_1"/><radialGradient id="Radial_Gradient_1-4" cx="15.83" cy="26.94" r="2.94" xlink:href="#Radial_Gradient_1"/><radialGradient id="Radial_Gradient_1-5" cx="3.87" cy="63.81" r="4.07" xlink:href="#Radial_Gradient_1"/><radialGradient id="Radial_Gradient_1-6" cx="2.92" cy="2.24" r="4.58" xlink:href="#Radial_Gradient_1"/></defs><g class="cls-1"><g id="Layer_2" data-name="Layer 2"><g id="Layer_1-2" data-name="Layer 1"><polygon class="cls-2" points="2.42 4.27 2.42 52.49 8.12 49.09 8.12 0.86 2.42 4.27"/><polygon class="cls-3" points="2.43 4.27 2.43 52.49 0.94 51.63 0.94 3.42 2.43 4.27"/><polygon class="cls-4" points="0.94 3.42 2.43 4.27 8.12 0.86 6.62 0 0.94 3.42"/><path class="cls-5" d="M8.5,11.37,6.63,12.46V5.93H5.46v7.22L5,13.39v8.15l.42-.24V45.63h0c0,.19.26.34.59.34s.58-.15.58-.34h0v-25L8.5,19.52Z"/><polygon class="cls-6" points="33.67 48.19 33.67 52.56 35.22 51.66 35.22 47.28 33.67 48.19"/><polygon class="cls-7" points="33.69 48.19 33.69 52.56 27.11 48.76 27.11 44.4 33.69 48.19"/><polygon class="cls-8" points="27.11 44.4 33.69 48.19 35.22 47.28 28.61 43.47 27.11 44.4"/><polygon class="cls-9" points="1.76 49.85 1.76 54.52 10.04 49.71 10.04 45.04 1.76 49.85"/><polygon class="cls-10" points="1.77 49.85 1.77 54.52 0 53.53 0 48.87 1.77 49.85"/><polygon class="cls-11" points="0 48.87 1.77 49.85 10.04 45.04 8.26 44.06 0 48.87"/><polygon class="cls-12" points="1.76 49.63 1.76 50.73 10.04 45.92 10.04 44.83 1.76 49.63"/><polygon class="cls-13" points="1.77 49.63 1.77 50.73 0 49.74 0 48.66 1.77 49.63"/><polygon class="cls-14" points="0 48.66 1.77 49.63 10.04 44.83 8.26 43.84 0 48.66"/><polygon class="cls-15" points="26.55 66.17 26.55 67.11 33.29 63.25 33.29 62.31 26.55 66.17"/><polygon class="cls-16" points="26.55 66.17 26.55 67.11 4.29 54.28 4.29 53.34 26.55 66.17"/><polygon class="cls-17" points="4.29 53.34 26.55 66.17 33.29 62.31 11.01 49.48 4.29 53.34"/><polygon class="cls-5" points="29.15 59.92 11.01 49.48 4.29 53.34 22.41 63.79 29.15 59.92"/><polygon class="cls-18" points="9.28 12.42 9.28 20.57 10.4 19.97 10.4 11.82 9.28 12.42"/><polygon class="cls-19" points="9.3 12.42 9.3 20.57 6.63 19.09 6.63 10.96 9.3 12.42"/><polygon class="cls-20" points="6.63 10.96 9.3 12.42 10.4 11.82 7.7 10.34 6.63 10.96"/><polygon class="cls-21" points="28.24 65.17 28.24 69.83 36.52 65.03 36.52 60.36 28.24 65.17"/><polygon class="cls-22" points="28.24 65.17 28.24 69.83 26.47 68.85 26.47 64.19 28.24 65.17"/><polygon class="cls-23" points="26.47 64.19 28.24 65.17 36.52 60.36 34.73 59.37 26.47 64.19"/><polygon class="cls-24" points="28.24 64.84 28.24 65.93 36.52 61.12 36.52 60.03 28.24 64.84"/><polygon class="cls-25" points="28.24 64.84 28.24 65.93 26.47 64.94 26.47 63.86 28.24 64.84"/><polygon class="cls-26" points="26.47 63.86 28.24 64.84 36.52 60.03 34.73 59.04 26.47 63.86"/><path class="cls-27" d="M8.15,6.8H7V45.41H7c0,.19.26.35.59.35s.59-.16.59-.35h0Z"/><path class="cls-28" d="M17.77,30H16.9v2.13h0c0,.14.19.25.43.25s.44-.11.44-.25h0Z"/><path class="cls-29" d="M18.46,24.83H16.21v5.54h0c0,.36.5.66,1.12.66s1.13-.3,1.13-.66h0Z"/><polygon class="cls-30" points="6.94 13.84 6.94 21.99 10.4 19.97 10.4 11.82 6.94 13.84"/><polygon class="cls-31" points="6.95 13.84 6.95 21.99 5.8 21.3 5.8 13.16 6.95 13.84"/><polygon class="cls-32" points="5.8 13.16 6.95 13.84 10.4 11.82 9.21 11.12 5.8 13.16"/><polygon class="cls-33" points="31.77 20.14 31.77 23.52 34.72 21.82 34.72 18.44 31.77 20.14"/><polygon class="cls-34" points="31.77 20.14 31.77 23.52 3.56 7.37 3.56 4 31.77 20.14"/><polygon class="cls-35" points="3.56 4 31.77 20.14 34.72 18.44 6.48 2.29 3.56 4"/><polygon class="cls-36" points="19.39 21.03 19.39 21.63 8.53 15.44 8.53 14.83 19.39 21.03"/><polygon class="cls-37" points="19.39 21.03 19.39 21.63 20 21.27 20 20.67 19.39 21.03"/><polygon class="cls-38" points="20 20.67 19.39 21.03 8.53 14.83 9.13 14.47 20 20.67"/><polygon class="cls-39" points="19.39 24.46 19.39 25.06 8.53 18.86 8.53 18.26 19.39 24.46"/><polygon class="cls-40" points="19.39 24.46 19.39 25.06 20 24.7 20 24.1 19.39 24.46"/><polygon class="cls-41" points="20 24.1 19.39 24.46 8.53 18.26 9.13 17.89 20 24.1"/><polygon class="cls-42" points="7.9 65.84 7.9 66.78 34.83 51.12 34.83 50.18 7.9 65.84"/><polygon class="cls-43" points="0.44 61.55 7.9 65.84 34.83 50.18 27.36 45.89 0.44 61.55"/><polygon class="cls-5" points="12.21 63.34 34.83 50.18 27.36 45.89 4.74 59.05 12.21 63.34"/><polygon class="cls-44" points="3.42 62.3 3.42 62.94 30.37 47.39 30.37 46.75 3.42 62.3"/><polygon class="cls-45" points="3.42 62.3 3.42 62.94 2.78 62.56 2.78 61.92 3.42 62.3"/><polygon class="cls-46" points="2.78 61.92 3.42 62.3 30.37 46.75 29.72 46.37 2.78 61.92"/><polygon class="cls-47" points="5.9 63.74 5.9 64.38 32.85 48.83 32.85 48.19 5.9 63.74"/><polygon class="cls-48" points="5.91 63.74 5.91 64.38 5.26 64 5.26 63.36 5.91 63.74"/><polygon class="cls-49" points="5.26 63.36 5.91 63.74 32.85 48.19 32.21 47.8 5.26 63.36"/><polygon class="cls-50" points="17.5 63.88 17.5 64.82 33.45 55.56 33.45 54.62 17.5 63.88"/><polygon class="cls-51" points="17.5 63.88 17.5 64.82 1.07 55.41 1.07 54.48 17.5 63.88"/><polygon class="cls-52" points="1.07 54.48 17.5 63.88 33.45 54.62 17.01 45.21 1.07 54.48"/><polygon class="cls-53" points="17.5 63.03 17.5 63.97 33.45 54.71 33.45 53.77 17.5 63.03"/><polygon class="cls-54" points="17.5 63.03 17.5 63.97 1.07 54.57 1.07 53.63 17.5 63.03"/><polygon class="cls-55" points="1.07 53.63 17.5 63.03 33.45 53.77 17.01 44.36 1.07 53.63"/><polygon class="cls-56" points="1.07 53.63 17.5 63.03 33.45 53.77 17.56 62.69 1.07 53.63"/><polygon class="cls-57" points="21.6 23.13 21.6 29.57 25.29 27.37 25.29 20.93 21.6 23.13"/><polygon class="cls-58" points="21.61 23.13 21.61 29.57 15.04 25.76 15.04 19.34 21.61 23.13"/><polygon class="cls-59" points="15.04 19.34 21.61 23.13 25.29 20.93 18.68 17.12 15.04 19.34"/><polygon class="cls-60" points="6.64 64.28 6.64 68.66 8.18 67.75 8.18 63.38 6.64 64.28"/><polygon class="cls-61" points="6.65 64.28 6.65 68.66 0.08 64.85 0.08 60.49 6.65 64.28"/><polygon class="cls-62" points="0.08 60.49 6.65 64.28 8.18 63.38 1.58 59.57 0.08 60.49"/><polygon class="cls-63" points="6.64 63.46 6.64 64.67 8.18 63.76 8.18 62.56 6.64 63.46"/><polygon class="cls-64" points="6.65 63.46 6.65 64.67 0.08 60.86 0.08 59.67 6.65 63.46"/><polygon class="cls-65" points="0.08 59.67 6.65 63.46 8.18 62.56 1.58 58.75 0.08 59.67"/><polygon class="cls-66" points="33.67 47.11 33.67 48.31 35.22 47.41 35.22 46.2 33.67 47.11"/><polygon class="cls-67" points="33.69 47.11 33.69 48.31 27.11 44.5 27.11 43.31 33.69 47.11"/><polygon class="cls-68" points="27.11 43.31 33.69 47.11 35.22 46.2 28.61 42.39 27.11 43.31"/><polygon class="cls-69" points="34.91 30.07 34.91 30.68 23.12 23.88 23.12 23.27 34.91 30.07"/><polygon class="cls-70" points="34.91 30.07 34.91 30.68 35.52 30.32 35.52 29.71 34.91 30.07"/><polygon class="cls-71" points="35.52 29.71 34.91 30.07 23.12 23.27 23.73 22.91 35.52 29.71"/><polygon class="cls-72" points="34.91 33.5 34.91 34.11 23.12 27.31 23.12 26.7 34.91 33.5"/><polygon class="cls-73" points="34.91 33.5 34.91 34.11 35.52 33.75 35.52 33.14 34.91 33.5"/><polygon class="cls-74" points="35.52 33.14 34.91 33.5 23.12 26.7 23.73 26.34 35.52 33.14"/><polygon class="cls-75" points="17.38 26.84 17.38 30.22 20.33 28.52 20.33 25.14 17.38 26.84"/><polygon class="cls-76" points="17.39 26.84 17.39 30.22 13.94 28.22 13.94 24.84 17.39 26.84"/><polygon class="cls-77" points="13.94 24.84 17.39 26.84 20.33 25.14 16.86 23.14 13.94 24.84"/><polygon class="cls-78" points="17.38 26.67 17.38 27.94 20.33 26.24 20.33 24.97 17.38 26.67"/><polygon class="cls-79" points="17.39 26.67 17.39 27.94 13.94 25.94 13.94 24.68 17.39 26.67"/><polygon class="cls-80" points="13.94 24.68 17.39 26.67 20.33 24.97 16.86 22.97 13.94 24.68"/><polygon class="cls-81" points="32.06 21.23 32.06 69.45 37.76 66.04 37.76 17.82 32.06 21.23"/><polygon class="cls-82" points="32.07 21.23 32.07 69.45 30.59 68.59 30.59 20.37 32.07 21.23"/><polygon class="cls-83" points="30.59 20.37 32.07 21.23 37.76 17.82 36.26 16.96 30.59 20.37"/><path class="cls-84" d="M2.73,63.31c0,.29-.2.4-.45.26a1,1,0,0,1-.45-.77c0-.29.2-.4.45-.26A1,1,0,0,1,2.73,63.31Z"/><path class="cls-85" d="M4.9,64.55c0,.29-.21.4-.45.26A1,1,0,0,1,4,64c0-.29.2-.4.45-.26A1,1,0,0,1,4.9,64.55Z"/><path class="cls-86" d="M35.52,21.35c0,.28.2.4.44.25a1,1,0,0,0,.45-.77c0-.28-.2-.4-.45-.25A1,1,0,0,0,35.52,21.35Z"/><path class="cls-87" d="M33.74,22.4c0,.28.2.4.45.25a1,1,0,0,0,.44-.77c0-.28-.2-.4-.44-.25A1,1,0,0,0,33.74,22.4Z"/><path class="cls-88" d="M35.52,23.5c0,.28.2.4.44.26a1,1,0,0,0,.45-.78c0-.28-.2-.39-.45-.25A1,1,0,0,0,35.52,23.5Z"/><path class="cls-89" d="M33.74,24.55c0,.28.2.4.45.25a1,1,0,0,0,.44-.77c0-.28-.2-.4-.44-.25A1,1,0,0,0,33.74,24.55Z"/><path class="cls-90" d="M35.52,63.31c0,.28.2.4.44.25a1,1,0,0,0,.45-.77c0-.28-.2-.39-.45-.25A1,1,0,0,0,35.52,63.31Z"/><path class="cls-91" d="M33.74,64.36c0,.28.2.4.45.25a1,1,0,0,0,.44-.77c0-.28-.2-.4-.44-.25A1,1,0,0,0,33.74,64.36Z"/><path class="cls-92" d="M35.52,65.46c0,.28.2.4.44.26a1,1,0,0,0,.45-.78c0-.28-.2-.39-.45-.25A1,1,0,0,0,35.52,65.46Z"/><path class="cls-93" d="M33.74,66.51c0,.28.2.4.45.25a1,1,0,0,0,.44-.77c0-.28-.2-.4-.44-.25A1,1,0,0,0,33.74,66.51Z"/><polygon class="cls-94" points="37.76 17.82 32.09 21.01 30.59 20.37 31.89 21.36 32.05 68.05 32.22 21.34 37.76 17.82"/><polygon class="cls-95" points="25.29 20.93 21.66 22.95 15.04 19.34 21.46 23.3 21.63 29.55 21.79 23.28 25.29 20.93"/><polygon class="cls-96" points="20.33 24.97 17.43 26.45 13.94 24.68 17.23 26.8 17.4 30.22 17.56 26.78 20.33 24.97"/><polygon class="cls-97" points="8.17 62.59 6.66 63.29 0.15 59.68 6.46 63.63 6.66 68.54 6.79 63.62 8.17 62.59"/><polygon class="cls-98" points="8.11 0.86 2.44 4.05 0.93 3.42 2.24 4.4 2.4 51.09 2.56 4.38 8.11 0.86"/></g></g></g></svg>