<svg width="28" height="28" viewBox="0 0 28 28" fill="none" xmlns="http://www.w3.org/2000/svg">
<g clip-path="url(#clip0_3398_42)">
<path d="M9.97461 22.0479H18.0166C19.3086 22.0479 19.9941 21.3447 19.9941 19.9561V13.9004C19.9941 12.6875 19.4668 11.9932 18.4561 11.8438V9.7168C18.4561 6.41211 16.2939 4.8125 13.9912 4.8125C11.6973 4.8125 9.53516 6.41211 9.53516 9.7168V11.8438C8.5332 11.9932 7.99707 12.6787 7.99707 13.9004V19.9561C7.99707 21.3447 8.68262 22.0479 9.97461 22.0479ZM10.9326 9.53223C10.9326 7.30859 12.3477 6.13965 13.9912 6.13965C15.6348 6.13965 17.0674 7.30859 17.0674 9.53223V11.8174H10.9326V9.53223ZM10.0186 20.7207C9.64062 20.7207 9.4209 20.4834 9.4209 20.0527V13.8037C9.4209 13.373 9.64062 13.1445 10.0186 13.1445H17.9727C18.3594 13.1445 18.5703 13.373 18.5703 13.8037V20.0527C18.5703 20.4834 18.3594 20.7207 17.9727 20.7207H10.0186Z" fill="#A0A0A0"/>
</g>
<defs>
<clipPath id="clip0_3398_42">
<rect width="28" height="28" fill="white"/>
</clipPath>
</defs>
</svg>
