<svg width="28" height="28" viewBox="0 0 28 28" fill="none" xmlns="http://www.w3.org/2000/svg">
<g clip-path="url(#clip0_3398_40)">
<path d="M6.93359 22.0479H14.9756C16.2676 22.0479 16.9531 21.3447 16.9531 19.9561V13.9004C16.9531 12.7227 16.4521 12.0371 15.5117 11.8613V9.54102C15.5117 7.31738 16.9355 6.14844 18.5791 6.14844C20.2227 6.14844 21.6465 7.31738 21.6465 9.54102V11.4922C21.6465 12.0107 21.9541 12.2744 22.3496 12.2744C22.7275 12.2744 23.0439 12.0371 23.0439 11.4922V9.72559C23.0439 6.4209 20.873 4.82129 18.5791 4.82129C16.2764 4.82129 14.123 6.4209 14.123 9.72559V11.8174H6.93359C5.6416 11.8174 4.95605 12.5205 4.95605 13.9004V19.9561C4.95605 21.3447 5.6416 22.0479 6.93359 22.0479Z" fill="#A0A0A0"/>
</g>
<defs>
<clipPath id="clip0_3398_40">
<rect width="28" height="28" fill="white"/>
</clipPath>
</defs>
</svg>
