<svg width="19" height="12" viewBox="0 0 19 12" fill="none" xmlns="http://www.w3.org/2000/svg">
<path d="M0.799805 2.22266H17.3584C17.8066 2.22266 18.167 1.85352 18.167 1.41406C18.167 0.957031 17.8066 0.605469 17.3584 0.605469H0.799805C0.351562 0.605469 0 0.96582 0 1.41406C0 1.85352 0.351562 2.22266 0.799805 2.22266ZM0.799805 6.82812H17.3584C17.8066 6.82812 18.167 6.45898 18.167 6.01953C18.167 5.57129 17.8066 5.21094 17.3584 5.21094H0.799805C0.351562 5.21094 0 5.57129 0 6.01953C0 6.45898 0.351562 6.82812 0.799805 6.82812ZM7.93652 11.4336H17.3584C17.8066 11.4336 18.167 11.0645 18.167 10.625C18.167 10.1768 17.8066 9.81641 17.3584 9.81641H7.93652C7.48828 9.81641 7.13672 10.1768 7.13672 10.625C7.13672 11.0645 7.48828 11.4336 7.93652 11.4336Z" fill="white"/>
</svg>
