<svg width="20" height="11" viewBox="0 0 20 11" fill="none" xmlns="http://www.w3.org/2000/svg">
<path d="M1.71191 1.65798H18.2705C18.7188 1.65798 19.0791 1.30206 19.0791 0.878258C19.0791 0.43758 18.7188 0.0986328 18.2705 0.0986328H1.71191C1.26367 0.0986328 0.912109 0.446065 0.912109 0.878258C0.912109 1.30206 1.26367 1.65798 1.71191 1.65798ZM1.71191 6.099H18.2705C18.7188 6.099 19.0791 5.74308 19.0791 5.31928C19.0791 4.8786 18.7188 4.53955 18.2705 4.53955H1.71191C1.26367 4.53955 0.912109 4.88708 0.912109 5.31928C0.912109 5.74308 1.26367 6.099 1.71191 6.099ZM1.71191 10.54H18.2705C18.7188 10.54 19.0791 10.184 19.0791 9.76029C19.0791 9.32801 18.7188 8.98057 18.2705 8.98057H1.71191C1.26367 8.98057 0.912109 9.32801 0.912109 9.76029C0.912109 10.184 1.26367 10.54 1.71191 10.54Z" fill="white"/>
</svg>
