<svg width="19" height="11" viewBox="0 0 19 11" fill="none" xmlns="http://www.w3.org/2000/svg">
<path d="M0.7998 1.55935H17.3584C17.8067 1.55935 18.167 1.20343 18.167 0.779625C18.167 0.338947 17.8067 0 17.3584 0H0.7998C0.35156 0 0 0.347432 0 0.779625C0 1.20343 0.35156 1.55935 0.7998 1.55935ZM0.7998 6.00036H17.3584C17.8067 6.00036 18.167 5.64445 18.167 5.22064C18.167 4.77996 17.8067 4.44092 17.3584 4.44092H0.7998C0.35156 4.44092 0 4.78845 0 5.22064C0 5.64445 0.35156 6.00036 0.7998 6.00036ZM0.7998 10.4414H17.3584C17.8067 10.4414 18.167 10.0854 18.167 9.66166C18.167 9.22937 17.8067 8.88194 17.3584 8.88194H0.7998C0.35156 8.88194 0 9.22937 0 9.66166C0 10.0854 0.35156 10.4414 0.7998 10.4414Z" fill="white"/>
</svg>
