<svg xmlns="http://www.w3.org/2000/svg" width="157.22" height="35.89" viewBox="0 0 157.22 35.89"><title>moonlight</title><path d="M157.23,12.43h0V11h0Z" transform="translate(-0.02 -0.11)" style="fill:#cecdd8"/><path d="M57.69,15.46l-.08.16-2,4.53c-.69,1.54-1.38,3.09-2.06,4.63a.54.54,0,0,1-.58.37c-.28,0-.56,0-.85,0a.51.51,0,0,1-.54-.34c-.4-.92-.82-1.83-1.23-2.74l-1.9-4.25-1-2.23s0-.08-.09-.15a.67.67,0,0,0,0,.12c0,.07,0,.14,0,.21q0,4.47,0,8.95c0,.3,0,.44-.44.43s-1.05,0-1.58,0c-.27,0-.35-.08-.35-.35s0-.5,0-.75q0-6.41,0-12.82c0-.07,0-.14,0-.21a.26.26,0,0,1,.26-.27h1.88a.56.56,0,0,1,.58.37C48.3,12.57,49,14,49.6,15.44l2.33,5.21.48,1.08,0,.07c.07.12.15.13.22,0s.18-.39.26-.58l1.77-4,2.05-4.59c.23-.51.46-1,.69-1.54a.52.52,0,0,1,.54-.35h1.75c.33,0,.4.07.4.4q0,3.91,0,7.82,0,2.86,0,5.71c0,.06,0,.11,0,.17s-.1.29-.29.29H58a.26.26,0,0,1-.29-.28c0-.06,0-.13,0-.19q0-4.48,0-9v-.24Z" transform="translate(-0.02 -0.11)" style="fill:#060239"/><path d="M132.4,14.88h-2.82a.3.3,0,0,1-.3-.15,3.25,3.25,0,0,0-.78-.88,5.44,5.44,0,0,0-1.4-.86,4.1,4.1,0,0,0-2-.27,4.71,4.71,0,0,0-2.27.77,4.6,4.6,0,0,0-1.74,2.16,6.47,6.47,0,0,0-.32,3.36,5,5,0,0,0,.41,1.38,4.51,4.51,0,0,0,2.23,2.27,4.79,4.79,0,0,0,4.14,0,5,5,0,0,0,1.69-1.22,4.39,4.39,0,0,0,1-2c.07-.33.05-.35-.29-.35h-4.87a.27.27,0,0,1-.28-.3q0-.62,0-1.24c0-.2.1-.29.3-.3h7.31a.5.5,0,0,1,.54.49,5.57,5.57,0,0,1,0,1.12,7.1,7.1,0,0,1-1.75,3.84,6.88,6.88,0,0,1-4.16,2.43,8.18,8.18,0,0,1-2.64.06,6.7,6.7,0,0,1-2.62-.93,7.47,7.47,0,0,1-2.46-2.41,6.79,6.79,0,0,1-.92-2.46,8.63,8.63,0,0,1-.06-2.56,6.91,6.91,0,0,1,2.39-4.48,7.23,7.23,0,0,1,5-1.85,6.92,6.92,0,0,1,2.27.38,9,9,0,0,1,1.7.84A7.27,7.27,0,0,1,131.93,14c.13.2.24.41.36.62A2.26,2.26,0,0,1,132.4,14.88Z" transform="translate(-0.02 -0.11)" style="fill:#070339"/><path d="M102.32,21.3c0-.09,0-.18,0-.27q0-3,0-6.07,0-1.89,0-3.78c0-.05,0-.1,0-.15a.28.28,0,0,1,.31-.3h1.75a.27.27,0,0,1,.3.28s0,.1,0,.15q0,6.78,0,13.55c0,.37-.06.43-.42.43h-1.56a.64.64,0,0,1-.59-.32L100,21.57l-2.67-4-1.86-2.8c0-.06-.1-.12-.17-.21a1,1,0,0,0,0,.15c0,.06,0,.13,0,.19q0,4.93,0,9.87c0,.31-.06.44-.43.43s-1,0-1.54,0h-.15a.25.25,0,0,1-.24-.24,1.69,1.69,0,0,1,0-.17q0-6.8,0-13.59s0-.05,0-.08c0-.25.09-.34.34-.34h1.62a.68.68,0,0,1,.64.35c.28.44.58.88.87,1.32l3.18,4.79,2.65,4,.11.14Z" transform="translate(-0.02 -0.11)" style="fill:#060239"/><path d="M91.68,17.82a8.31,8.31,0,0,1-.45,2.8,6.89,6.89,0,0,1-1.82,2.72,7,7,0,0,1-3.2,1.74,8.36,8.36,0,0,1-2.74.17,6.88,6.88,0,0,1-3.15-1.06,7,7,0,0,1-3.09-4.09A8.24,8.24,0,0,1,77,17.38a7.46,7.46,0,0,1,.43-2.15,6.87,6.87,0,0,1,1.77-2.67,7.3,7.3,0,0,1,2-1.34,7.09,7.09,0,0,1,1.75-.54,8.32,8.32,0,0,1,2.15-.1A7.05,7.05,0,0,1,88.83,12a7.44,7.44,0,0,1,1.59,1.64,6.76,6.76,0,0,1,1.09,2.56c.06.29.1.58.13.87S91.67,17.65,91.68,17.82Zm-2.26.2a5.7,5.7,0,0,0-.5-2.59,4.54,4.54,0,0,0-3.57-2.65,5.38,5.38,0,0,0-2,0,4.56,4.56,0,0,0-3.58,3.32,6.18,6.18,0,0,0-.22,2.33,5.33,5.33,0,0,0,.63,2.24,4.56,4.56,0,0,0,2.6,2.18,5.33,5.33,0,0,0,2.49.2,4.55,4.55,0,0,0,3.76-3A5.44,5.44,0,0,0,89.42,18Z" transform="translate(-0.02 -0.11)" style="fill:#060239"/><path d="M68.78,10.56a8.17,8.17,0,0,1,2.23.31,6.89,6.89,0,0,1,2.57,1.4A7.44,7.44,0,0,1,75,13.91,6.76,6.76,0,0,1,76,16.33a8.73,8.73,0,0,1,0,3,6.83,6.83,0,0,1-2.16,4.07,7,7,0,0,1-3.18,1.73,8.4,8.4,0,0,1-2.73.18,6.86,6.86,0,0,1-2.52-.7,7.21,7.21,0,0,1-3.34-3.34,6.91,6.91,0,0,1-.63-2.27,8.81,8.81,0,0,1,0-2.4,6.77,6.77,0,0,1,1.82-3.7,7.47,7.47,0,0,1,1.77-1.38,6.81,6.81,0,0,1,2.28-.79c.21,0,.42-.07.63-.09ZM64,17.93a5.89,5.89,0,0,0,.47,2.43,4.57,4.57,0,0,0,2.75,2.53,5.51,5.51,0,0,0,2.71.18,4.29,4.29,0,0,0,1.56-.57,4.73,4.73,0,0,0,2.25-3.29,6.72,6.72,0,0,0-.06-2.83,4.74,4.74,0,0,0-1.14-2.17,4.53,4.53,0,0,0-2.76-1.44,5.82,5.82,0,0,0-2,0,4.49,4.49,0,0,0-1.63.65A4.65,4.65,0,0,0,64.29,16,6.24,6.24,0,0,0,64,17.93Z" transform="translate(-0.02 -0.11)" style="fill:#060239"/><path d="M134.24,17.95q0-3.38,0-6.77c0-.37.06-.43.42-.43h1.69a.26.26,0,0,1,.25.24,1.45,1.45,0,0,1,0,.19c0,1.79,0,3.57,0,5.36,0,.27,0,.43.43.43h6a.28.28,0,0,0,.31-.31c0-.06,0-.13,0-.19q0-2.6,0-5.21c0-.06,0-.11,0-.17,0-.25.09-.34.34-.34h1.67c.26,0,.35.09.35.35,0,.51,0,1,0,1.54q0,6,0,12c0,.06,0,.13,0,.19a.27.27,0,0,1-.31.3H143.7c-.22,0-.31-.09-.31-.31,0-.4,0-.8,0-1.2q0-2.21,0-4.42c0-.36-.06-.42-.43-.42H137c-.37,0-.43.06-.43.42q0,2.74,0,5.47c0,.06,0,.11,0,.17a.27.27,0,0,1-.3.29h-1.79a.26.26,0,0,1-.28-.28c0-.06,0-.13,0-.19Q134.24,21.31,134.24,17.95Z" transform="translate(-0.02 -0.11)" style="fill:#070339"/><path d="M157.2,11v1.47a.37.37,0,0,1-.37.18h-3c-.31,0-.42.09-.42.42q0,5.85,0,11.69c0,.37-.09.45-.45.44s-1,0-1.52,0c-.29,0-.4-.1-.4-.4q0-5.84,0-11.67c0-.07,0-.14,0-.21a.26.26,0,0,0-.27-.27H147.4a.26.26,0,0,1-.25-.26q0-.67,0-1.33a.24.24,0,0,1,.22-.24h9.43C157,10.75,157.14,10.76,157.2,11Z" transform="translate(-0.02 -0.11)" style="fill:#07033a"/><path d="M106.33,17.95q0-3.38,0-6.77c0-.37.06-.43.42-.43h1.62c.23,0,.32.1.32.32,0,.06,0,.11,0,.17q0,5.79,0,11.58c0,.08,0,.15,0,.23a.28.28,0,0,0,.3.3h4.29a.26.26,0,0,1,.28.28c0,.18,0,.36,0,.55s0,.44,0,.66a.27.27,0,0,1-.3.31h-6.52c-.34,0-.42-.11-.42-.42Q106.33,21.34,106.33,17.95Z" transform="translate(-0.02 -0.11)" style="fill:#060239"/><path d="M117.11,17.93q0,3.39,0,6.78c0,.06,0,.11,0,.17a.26.26,0,0,1-.25.26h-.13c-.53,0-1.07,0-1.6,0-.27,0-.39-.09-.39-.39q0-6.31,0-12.63c0-.34,0-.68,0-1s.13-.37.37-.37h1.77a.27.27,0,0,1,.23.26c0,.06,0,.11,0,.17Q117.11,14.56,117.11,17.93Z" transform="translate(-0.02 -0.11)" style="fill:#060238"/><path d="M89.42,18A5.44,5.44,0,0,1,89,20.14a4.55,4.55,0,0,1-3.76,3,5.33,5.33,0,0,1-2.49-.2,4.56,4.56,0,0,1-2.6-2.18,5.33,5.33,0,0,1-.63-2.24,6.18,6.18,0,0,1,.22-2.33,4.56,4.56,0,0,1,3.58-3.32,5.38,5.38,0,0,1,2,0,4.54,4.54,0,0,1,3.57,2.65A5.7,5.7,0,0,1,89.42,18Z" transform="translate(-0.02 -0.11)" style="fill:#fefefe"/><path d="M64,17.93a6.23,6.23,0,0,1,.29-2,4.65,4.65,0,0,1,1.91-2.5,4.49,4.49,0,0,1,1.63-.65,5.82,5.82,0,0,1,2,0,4.53,4.53,0,0,1,2.76,1.44,4.74,4.74,0,0,1,1.14,2.17,6.72,6.72,0,0,1,.06,2.83,4.73,4.73,0,0,1-2.25,3.29,4.29,4.29,0,0,1-1.56.57,5.51,5.51,0,0,1-2.71-.18,4.57,4.57,0,0,1-2.75-2.53A5.89,5.89,0,0,1,64,17.93Z" transform="translate(-0.02 -0.11)" style="fill:#fefefe"/><circle cx="17.94" cy="17.94" r="17.94" style="fill:#2755f6"/><circle cx="17.94" cy="17.94" r="14.11" style="fill:#f6f9fc"/><rect x="9.88" y="2.69" width="3.79" height="31.06" style="fill:#2755f6"/></svg>