<svg width="20" height="20" viewBox="0 0 20 20" fill="none" xmlns="http://www.w3.org/2000/svg">
<path d="M6.66699 1.6665V4.1665" stroke="#C97EF5" stroke-width="1.25" stroke-miterlimit="10" stroke-linecap="round" stroke-linejoin="round"/>
<path d="M13.333 1.6665V4.1665" stroke="#C97EF5" stroke-width="1.25" stroke-miterlimit="10" stroke-linecap="round" stroke-linejoin="round"/>
<path d="M17.5 7.08317V11.3582C16.7583 10.7665 15.8167 10.4165 14.7917 10.4165C13.7667 10.4165 12.8083 10.7748 12.0583 11.3831C11.05 12.1748 10.4167 13.4165 10.4167 14.7915C10.4167 15.6082 10.65 16.3915 11.05 17.0415C11.3583 17.5498 11.7583 17.9915 12.2333 18.3332H6.66667C3.75 18.3332 2.5 16.6665 2.5 14.1665V7.08317C2.5 4.58317 3.75 2.9165 6.66667 2.9165H13.3333C16.25 2.9165 17.5 4.58317 17.5 7.08317Z" stroke="#C97EF5" stroke-width="1.25" stroke-miterlimit="10" stroke-linecap="round" stroke-linejoin="round"/>
<path d="M5.83301 9.1665H10.833" stroke="#C97EF5" stroke-width="1.25" stroke-miterlimit="10" stroke-linecap="round" stroke-linejoin="round"/>
<path d="M5.83301 13.3335H8.01634" stroke="#C97EF5" stroke-width="1.25" stroke-miterlimit="10" stroke-linecap="round" stroke-linejoin="round"/>
<path d="M19.167 14.7915C19.167 15.6082 18.9337 16.3915 18.5337 17.0415C18.3003 17.4415 18.0087 17.7915 17.667 18.0748C16.9003 18.7582 15.9003 19.1665 14.792 19.1665C13.8337 19.1665 12.9503 18.8582 12.2337 18.3332C11.7587 17.9915 11.3587 17.5498 11.0503 17.0415C10.6503 16.3915 10.417 15.6082 10.417 14.7915C10.417 13.4165 11.0503 12.1748 12.0587 11.3831C12.8087 10.7748 13.767 10.4165 14.792 10.4165C15.817 10.4165 16.7587 10.7665 17.5003 11.3582C18.517 12.1582 19.167 13.3998 19.167 14.7915Z" stroke="#C97EF5" stroke-width="1.25" stroke-miterlimit="10" stroke-linecap="round" stroke-linejoin="round"/>
<path d="M14.7913 16.8752C14.7913 15.7252 15.7247 14.7918 16.8747 14.7918C15.7247 14.7918 14.7913 13.8585 14.7913 12.7085C14.7913 13.8585 13.858 14.7918 12.708 14.7918C13.858 14.7918 14.7913 15.7252 14.7913 16.8752Z" stroke="#C97EF5" stroke-width="1.25" stroke-linecap="round" stroke-linejoin="round"/>
</svg>
