<svg id="Capa_1" enable-background="new 0 0 512 512" height="512" viewBox="0 0 512 512" width="512" xmlns="http://www.w3.org/2000/svg" xmlns:xlink="http://www.w3.org/1999/xlink"><linearGradient id="SVGID_1_" gradientUnits="userSpaceOnUse" x1="0" x2="512" y1="256" y2="256"><stop offset="0" stop-color="#9dd6fc"/><stop offset=".0056" stop-color="#9dd6fc"/><stop offset="1" stop-color="#d17ff7"/></linearGradient><g><g><path d="m412 116h80c11.046 0 20-8.954 20-20s-8.954-20-20-20h-80c-11.046 0-20 8.954-20 20s8.954 20 20 20zm80 120h-132.766c-10.17-133.388-121.704-236-259.234-236-11.046 0-20 8.954-20 20v138.011c-45.589 9.291-80 49.696-80 97.989s34.411 88.698 80 97.989v138.011c0 11.046 8.954 20 20 20 137.538 0 249.064-102.62 259.234-236h132.766c11.046 0 20-8.954 20-20s-8.954-20-20-20zm-372-195.159c66.323 5.618 123.341 38.972 159.335 88.526l-104.528 60.349c-14.111-15.908-33.201-27.303-54.807-31.706zm-80 215.159c0-33.084 26.916-60 60-60s60 26.916 60 60-26.916 60-60 60-60-26.916-60-60zm80 215.159v-117.17c21.605-4.403 40.695-15.798 54.807-31.706l104.528 60.349c-35.994 49.555-93.012 82.91-159.335 88.527zm140-195.159h59.1c-2.303 25.732-9.02 50.031-19.422 72.19l-104.821-60.519c3.333-9.957 5.143-20.606 5.143-31.671s-1.81-21.714-5.143-31.671l104.822-60.519c10.402 22.16 17.119 46.458 19.422 72.19h-59.101c-11.046 0-20 8.954-20 20s8.954 20 20 20zm232-120h-80c-11.046 0-20 8.954-20 20s8.954 20 20 20h80c11.046 0 20-8.954 20-20s-8.954-20-20-20z" fill="url(#SVGID_1_)"/></g></g></svg>