<svg width="20" height="20" viewBox="0 0 20 20" fill="none" xmlns="http://www.w3.org/2000/svg">
<path d="M15.8916 15.8917C19.1499 12.6334 19.1499 7.3584 15.8916 4.1084" stroke="#A0A0A0" stroke-width="1.25" stroke-linecap="round" stroke-linejoin="round"/>
<path d="M4.1083 4.1084C0.849967 7.36673 0.849967 12.6417 4.1083 15.8917" stroke="#A0A0A0" stroke-width="1.25" stroke-linecap="round" stroke-linejoin="round"/>
<path d="M7.25 17.8416C8.14167 18.1499 9.06666 18.2999 9.99999 18.2999C10.9333 18.2916 11.8583 18.1499 12.75 17.8416" stroke="#A0A0A0" stroke-width="1.25" stroke-linecap="round" stroke-linejoin="round"/>
<path d="M7.25 2.15833C8.14167 1.84999 9.06666 1.69995 9.99999 1.69995C10.9333 1.69995 11.8583 1.84999 12.75 2.15833" stroke="#A0A0A0" stroke-width="1.25" stroke-linecap="round" stroke-linejoin="round"/>
<path d="M7.28369 10V8.60838C7.28369 6.87505 8.50871 6.1667 10.0087 7.03337L11.217 7.73339L12.4254 8.43336C13.9254 9.30003 13.9254 10.7167 12.4254 11.5834L11.217 12.2834L10.0087 12.9834C8.50871 13.85 7.28369 13.1417 7.28369 11.4084V10Z" stroke="#A0A0A0" stroke-width="1.25" stroke-miterlimit="10" stroke-linecap="round" stroke-linejoin="round"/>
</svg>
