<svg width="20" height="20" viewBox="0 0 20 20" fill="none" xmlns="http://www.w3.org/2000/svg">
<path opacity="0.4" d="M7.39998 3.83359C6.73331 0.950261 2.39165 0.941928 1.72498 3.83359C1.33331 5.52526 2.40831 6.9586 3.34165 7.85026C4.02498 8.49193 5.09998 8.49193 5.78331 7.85026C6.71665 6.9586 7.78331 5.52526 7.39998 3.83359ZM4.59165 5.16693C4.13331 5.16693 3.75831 4.79193 3.75831 4.33359C3.75831 3.87526 4.12498 3.50026 4.58331 3.50026H4.59165C5.05831 3.50026 5.42498 3.87526 5.42498 4.33359C5.42498 4.79193 5.05831 5.16693 4.59165 5.16693Z" fill="#C97EF5"/>
<path d="M5.42485 4.33333C5.42485 4.79167 5.05818 5.16667 4.59151 5.16667C4.13318 5.16667 3.75818 4.79167 3.75818 4.33333C3.75818 3.875 4.12485 3.5 4.58318 3.5H4.59151C5.05818 3.5 5.42485 3.875 5.42485 4.33333Z" fill="#C97EF5"/>
<path opacity="0.4" d="M18.2583 13.8336C17.5917 10.9503 13.2333 10.9419 12.5583 13.8336C12.1667 15.5253 13.2417 16.9586 14.1833 17.8503C14.8667 18.4919 15.95 18.4919 16.6333 17.8503C17.575 16.9586 18.65 15.5253 18.2583 13.8336ZM15.4417 15.1669C14.9833 15.1669 14.6083 14.7919 14.6083 14.3336C14.6083 13.8753 14.975 13.5003 15.4333 13.5003H15.4417C15.9 13.5003 16.275 13.8753 16.275 14.3336C16.275 14.7919 15.9 15.1669 15.4417 15.1669Z" fill="#C97EF5"/>
<path d="M16.2752 14.3333C16.2752 14.7917 15.9002 15.1667 15.4419 15.1667C14.9835 15.1667 14.6085 14.7917 14.6085 14.3333C14.6085 13.875 14.9752 13.5 15.4335 13.5H15.4419C15.9002 13.5 16.2752 13.875 16.2752 14.3333Z" fill="#C97EF5"/>
<path d="M10.0004 16.4587H7.76706C6.8004 16.4587 5.95873 15.8753 5.6254 14.9753C5.28373 14.0753 5.53373 13.0837 6.25873 12.442L12.9171 6.61699C13.3171 6.26699 13.3254 5.79199 13.2087 5.46699C13.0837 5.14199 12.7671 4.79199 12.2337 4.79199H10.0004C9.65873 4.79199 9.3754 4.50866 9.3754 4.16699C9.3754 3.82533 9.65873 3.54199 10.0004 3.54199H12.2337C13.2004 3.54199 14.0421 4.12533 14.3754 5.02533C14.7171 5.92533 14.4671 6.91699 13.7421 7.55866L7.08373 13.3837C6.68373 13.7337 6.6754 14.2087 6.79206 14.5337C6.91706 14.8587 7.23373 15.2087 7.76706 15.2087H10.0004C10.3421 15.2087 10.6254 15.492 10.6254 15.8337C10.6254 16.1753 10.3421 16.4587 10.0004 16.4587Z" fill="#C97EF5"/>
</svg>
