<svg width="20" height="20" viewBox="0 0 20 20" fill="none" xmlns="http://www.w3.org/2000/svg">
<path opacity="0.4" d="M7.40035 3.83334C6.73368 0.950002 2.39201 0.941669 1.72535 3.83334C1.33368 5.525 2.40868 6.95834 3.34201 7.85C4.02535 8.49167 5.10035 8.49167 5.78368 7.85C6.71701 6.95834 7.78368 5.525 7.40035 3.83334ZM4.59201 5.16667C4.13368 5.16667 3.75868 4.79167 3.75868 4.33334C3.75868 3.875 4.12535 3.5 4.58368 3.5H4.59201C5.05868 3.5 5.42535 3.875 5.42535 4.33334C5.42535 4.79167 5.05868 5.16667 4.59201 5.16667Z" fill="#121212"/>
<path d="M5.42448 4.33333C5.42448 4.79167 5.05781 5.16667 4.59115 5.16667C4.13281 5.16667 3.75781 4.79167 3.75781 4.33333C3.75781 3.875 4.12448 3.5 4.58281 3.5H4.59115C5.05781 3.5 5.42448 3.875 5.42448 4.33333Z" fill="#121212"/>
<path opacity="0.4" d="M18.2583 13.8333C17.5917 10.95 13.2333 10.9417 12.5583 13.8333C12.1667 15.525 13.2417 16.9583 14.1833 17.85C14.8667 18.4917 15.95 18.4917 16.6333 17.85C17.575 16.9583 18.65 15.525 18.2583 13.8333ZM15.4417 15.1667C14.9833 15.1667 14.6083 14.7917 14.6083 14.3333C14.6083 13.875 14.975 13.5 15.4333 13.5H15.4417C15.9 13.5 16.275 13.875 16.275 14.3333C16.275 14.7917 15.9 15.1667 15.4417 15.1667Z" fill="#121212"/>
<path d="M16.2751 14.3333C16.2751 14.7917 15.9001 15.1667 15.4417 15.1667C14.9834 15.1667 14.6084 14.7917 14.6084 14.3333C14.6084 13.875 14.9751 13.5 15.4334 13.5H15.4417C15.9001 13.5 16.2751 13.875 16.2751 14.3333Z" fill="#121212"/>
<path d="M10.0005 16.4583H7.76719C6.80052 16.4583 5.95885 15.875 5.62552 14.975C5.28385 14.075 5.53385 13.0833 6.25885 12.4417L12.9172 6.61666C13.3172 6.26666 13.3255 5.79166 13.2089 5.46666C13.0839 5.14166 12.7672 4.79166 12.2339 4.79166H10.0005C9.65885 4.79166 9.37552 4.50833 9.37552 4.16666C9.37552 3.825 9.65885 3.54166 10.0005 3.54166H12.2339C13.2005 3.54166 14.0422 4.125 14.3755 5.025C14.7172 5.925 14.4672 6.91666 13.7422 7.55833L7.08385 13.3833C6.68385 13.7333 6.67552 14.2083 6.79219 14.5333C6.91719 14.8583 7.23385 15.2083 7.76719 15.2083H10.0005C10.3422 15.2083 10.6255 15.4917 10.6255 15.8333C10.6255 16.175 10.3422 16.4583 10.0005 16.4583Z" fill="#121212"/>
</svg>
