<svg id="Capa_1" enable-background="new 0 0 512 512" height="512" viewBox="0 0 512 512" width="512" xmlns="http://www.w3.org/2000/svg" xmlns:xlink="http://www.w3.org/1999/xlink"><linearGradient id="SVGID_1_" gradientUnits="userSpaceOnUse" x1="0" x2="512" y1="256" y2="256"><stop offset="0" stop-color="#9dd6fc"/><stop offset=".0056" stop-color="#9dd6fc"/><stop offset="1" stop-color="#d17ff7"/></linearGradient><g><g><path d="m20 40h80c11.046 0 20-8.954 20-20s-8.954-20-20-20h-80c-11.046 0-20 8.954-20 20s8.954 20 20 20zm432 116h40c11.046 0 20-8.954 20-20s-8.954-20-20-20h-40c-11.046 0-20 8.954-20 20s8.954 20 20 20zm40 40h-97.448c-8.757-60.125-56.568-106.404-118.552-114.671v-61.329c0-11.046-8.954-20-20-20-48.293 0-88.698 34.411-97.989 80h-138.011c-11.046 0-20 8.954-20 20s8.954 20 20 20h138.011c7.974 39.125 38.864 70.016 77.989 77.989v35.445c-61.221 8.796-109.769 57.345-118.565 118.566h-97.435c-11.046 0-20 8.954-20 20s8.954 20 20 20h97.435c9.735 67.755 68.159 120 138.565 120 48.293 0 88.698-34.411 97.989-80h138.011c11.046 0 20-8.954 20-20s-8.954-20-20-20h-138.011c-4.462-21.893-16.099-41.205-32.339-55.369 38.848-19.616 66.456-56.371 72.902-100.631h97.448c11.046 0 20-8.954 20-20s-8.954-20-20-20zm-256 273.989c-45.589-9.291-80-49.697-80-97.989s34.411-88.698 80-97.989zm0-313.429c-23.278-8.256-40-30.487-40-56.56s16.722-48.304 40-56.56zm40 312v-113.12c23.278 8.256 40 30.487 40 56.56s-16.722 48.304-40 56.56zm0-158.406v-188.308c46.175 8.664 80 46.917 80 94.154s-33.825 85.49-80 94.154zm216 5.846h-80c-11.046 0-20 8.954-20 20s8.954 20 20 20h80c11.046 0 20-8.954 20-20s-8.954-20-20-20zm-472-4h40c11.046 0 20-8.954 20-20s-8.954-20-20-20h-40c-11.046 0-20 8.954-20 20s8.954 20 20 20z" fill="url(#SVGID_1_)"/></g></g></svg>