<svg xmlns="http://www.w3.org/2000/svg" xmlns:xlink="http://www.w3.org/1999/xlink" viewBox="0 0 75.54 53.88"><defs><style>.cls-1{isolation:isolate;}.cls-2,.cls-48{fill:#16032e;}.cls-2{opacity:0.2;}.cls-3{fill:#1b2b69;}.cls-4{fill:url(#linear-gradient);}.cls-5{fill:url(#linear-gradient-2);}.cls-11,.cls-17,.cls-22,.cls-38,.cls-47,.cls-49,.cls-50,.cls-51,.cls-52,.cls-55,.cls-56,.cls-6{mix-blend-mode:screen;}.cls-6{fill:url(#Radial_Gradient_1);}.cls-12,.cls-16,.cls-24,.cls-26,.cls-39,.cls-45,.cls-46,.cls-53,.cls-7{mix-blend-mode:multiply;}.cls-7{fill:url(#linear-gradient-3);}.cls-8{fill:url(#linear-gradient-4);}.cls-9{fill:url(#linear-gradient-5);}.cls-10{fill:url(#linear-gradient-6);}.cls-11{fill:url(#Radial_Gradient_1-2);}.cls-12{fill:url(#linear-gradient-7);}.cls-13{fill:url(#linear-gradient-8);}.cls-14{fill:url(#New_Gradient_Swatch_copy_19);}.cls-15{fill:url(#New_Gradient_Swatch_copy_19-2);}.cls-16{fill:#e6e7e8;}.cls-17{fill:url(#Radial_Gradient_1-3);}.cls-18{fill:url(#New_Gradient_Swatch_copy_26);}.cls-19{fill:#271273;}.cls-20{fill:url(#New_Gradient_Swatch_copy_26-2);}.cls-21{fill:url(#New_Gradient_Swatch_copy_61);}.cls-22{fill:url(#Radial_Gradient_1-4);}.cls-23{fill:url(#linear-gradient-9);}.cls-24{fill:url(#linear-gradient-10);}.cls-25{fill:url(#linear-gradient-11);}.cls-26{fill:url(#linear-gradient-12);}.cls-27{fill:url(#New_Gradient_Swatch_copy_20);}.cls-28{fill:url(#linear-gradient-13);}.cls-29{fill:url(#linear-gradient-14);}.cls-30{fill:url(#linear-gradient-15);}.cls-31{fill:url(#linear-gradient-16);}.cls-32{fill:url(#radial-gradient);}.cls-33{fill:url(#radial-gradient-2);}.cls-34{fill:url(#linear-gradient-17);}.cls-35{fill:url(#linear-gradient-18);}.cls-36{fill:url(#linear-gradient-19);}.cls-37{fill:url(#linear-gradient-20);}.cls-38{fill:url(#linear-gradient-21);}.cls-40{fill:url(#linear-gradient-22);}.cls-41{fill:url(#linear-gradient-23);}.cls-42{fill:url(#linear-gradient-24);}.cls-43{fill:url(#New_Gradient_Swatch_copy_19-3);}.cls-44{mix-blend-mode:color-dodge;fill:url(#radial-gradient-3);}.cls-45{fill:url(#linear-gradient-25);}.cls-46{fill:url(#linear-gradient-26);}.cls-47{fill:url(#linear-gradient-27);}.cls-49{fill:url(#linear-gradient-28);}.cls-50{fill:url(#Radial_Gradient_1-5);}.cls-51{fill:url(#linear-gradient-29);}.cls-52{fill:url(#linear-gradient-30);}.cls-53{fill:url(#linear-gradient-31);}.cls-54{fill:url(#New_Gradient_Swatch_copy_19-4);}.cls-55{fill:url(#linear-gradient-32);}.cls-56{fill:url(#linear-gradient-33);}</style><linearGradient id="linear-gradient" x1="6138.36" y1="49.79" x2="6130.99" y2="39.91" gradientTransform="matrix(-1, 0, 0, 1, 6164.79, 0)" gradientUnits="userSpaceOnUse"><stop offset="0" stop-color="#010002"/><stop offset="0.03" stop-color="#030106"/><stop offset="0.19" stop-color="#0f0419"/><stop offset="0.36" stop-color="#170524"/><stop offset="0.54" stop-color="#190628"/><stop offset="0.7" stop-color="#0b0312"/><stop offset="0.86" stop-color="#030105"/><stop offset="1"/></linearGradient><linearGradient id="linear-gradient-2" x1="6128.49" y1="46.14" x2="6136.9" y2="46.14" gradientTransform="matrix(-1, 0, 0, 1, 6164.79, 0)" gradientUnits="userSpaceOnUse"><stop offset="0" stop-color="#100221"/><stop offset="1" stop-color="#10054d"/></linearGradient><radialGradient id="Radial_Gradient_1" cx="6133.56" cy="46" r="4.54" gradientTransform="matrix(-1, 0, 0, 1, 6164.79, 0)" gradientUnits="userSpaceOnUse"><stop offset="0" stop-color="#fff"/><stop offset="1"/></radialGradient><linearGradient id="linear-gradient-3" x1="6129.6" y1="46.21" x2="6136.07" y2="46.21" gradientTransform="matrix(-1, 0, 0, 1, 6164.79, 0)" gradientUnits="userSpaceOnUse"><stop offset="0" stop-color="#bcbec0"/><stop offset="1" stop-color="#e6e7e8"/></linearGradient><linearGradient id="linear-gradient-4" x1="6129.4" y1="46.29" x2="6135.87" y2="46.29" xlink:href="#linear-gradient-3"/><linearGradient id="linear-gradient-5" x1="6103.05" y1="29.95" x2="6095.68" y2="20.07" xlink:href="#linear-gradient"/><linearGradient id="linear-gradient-6" x1="6093.18" y1="26.31" x2="6101.59" y2="26.31" xlink:href="#linear-gradient-2"/><radialGradient id="Radial_Gradient_1-2" cx="6098.25" cy="26.17" r="4.54" xlink:href="#Radial_Gradient_1"/><linearGradient id="linear-gradient-7" x1="6094.29" y1="26.38" x2="6100.76" y2="26.38" xlink:href="#linear-gradient-3"/><linearGradient id="linear-gradient-8" x1="6094.09" y1="26.46" x2="6100.56" y2="26.46" xlink:href="#linear-gradient-3"/><radialGradient id="New_Gradient_Swatch_copy_19" cx="6145.95" cy="16.01" r="3.77" gradientTransform="matrix(-1, 0, 0, 1, 6164.79, 0)" gradientUnits="userSpaceOnUse"><stop offset="0" stop-color="#a56ef4"/><stop offset="1" stop-color="#6b24d6"/></radialGradient><radialGradient id="New_Gradient_Swatch_copy_19-2" cx="6131.69" cy="10.5" r="44.21" xlink:href="#New_Gradient_Swatch_copy_19"/><radialGradient id="Radial_Gradient_1-3" cx="6117.96" cy="29.75" r="23.75" xlink:href="#Radial_Gradient_1"/><linearGradient id="New_Gradient_Swatch_copy_26" x1="6105.72" y1="-5.5" x2="6109.72" y2="19.42" gradientTransform="matrix(-1, 0, 0, 1, 6164.79, 0)" gradientUnits="userSpaceOnUse"><stop offset="0.03" stop-color="#7c1dc9"/><stop offset="0.21" stop-color="#6e41d2"/><stop offset="0.62" stop-color="#4c9be8"/><stop offset="1" stop-color="#2af6ff"/></linearGradient><linearGradient id="New_Gradient_Swatch_copy_26-2" x1="6126.5" y1="35.57" x2="6151.47" y2="3.3" xlink:href="#New_Gradient_Swatch_copy_26"/><linearGradient id="New_Gradient_Swatch_copy_61" x1="6102.59" y1="17.46" x2="6134.97" y2="26.01" gradientTransform="matrix(-1, 0, 0, 1, 6164.79, 0)" gradientUnits="userSpaceOnUse"><stop offset="0" stop-color="#703ed1"/><stop offset="0.62" stop-color="#5a78e0"/><stop offset="1" stop-color="#4c9de9"/></linearGradient><radialGradient id="Radial_Gradient_1-4" cx="6155.81" cy="40.55" r="5.54" xlink:href="#Radial_Gradient_1"/><linearGradient id="linear-gradient-9" x1="6145.02" y1="42.98" x2="6144.61" y2="46.6" xlink:href="#linear-gradient-3"/><linearGradient id="linear-gradient-10" x1="6144.91" y1="45.87" x2="6144.83" y2="40.26" gradientTransform="matrix(-1, 0, 0, 1, 6164.79, 0)" gradientUnits="userSpaceOnUse"><stop offset="0" stop-color="#9c9c9c"/><stop offset="0" stop-color="#9d9d9d"/><stop offset="0.31" stop-color="#c7c7c7"/><stop offset="0.59" stop-color="#e6e6e6"/><stop offset="0.83" stop-color="#f8f8f8"/><stop offset="1" stop-color="#fff"/></linearGradient><linearGradient id="linear-gradient-11" x1="6161.96" y1="35.98" x2="6164.35" y2="35.88" xlink:href="#linear-gradient-3"/><linearGradient id="linear-gradient-12" x1="6163.43" y1="31.72" x2="6162.03" y2="38.1" xlink:href="#linear-gradient-10"/><radialGradient id="New_Gradient_Swatch_copy_20" cx="6091.52" cy="9.09" r="2.35" gradientTransform="matrix(-1, 0, 0, 1, 6164.79, 0)" gradientUnits="userSpaceOnUse"><stop offset="0" stop-color="#feeca8"/><stop offset="1" stop-color="#ffa98c"/></radialGradient><linearGradient id="linear-gradient-13" x1="6144.28" y1="45.03" x2="6147.28" y2="45.03" xlink:href="#linear-gradient-3"/><linearGradient id="linear-gradient-14" x1="-6283.24" y1="45.25" x2="-6281.9" y2="45.25" gradientTransform="translate(6300.47)" gradientUnits="userSpaceOnUse"><stop offset="0" stop-color="#bcbec0"/><stop offset="0.69" stop-color="#e9eaea"/><stop offset="1" stop-color="#fff"/></linearGradient><linearGradient id="linear-gradient-15" x1="6142.37" y1="44.99" x2="6145.39" y2="44.99" xlink:href="#linear-gradient-3"/><linearGradient id="linear-gradient-16" x1="-6281.36" y1="45.21" x2="-6280.01" y2="45.21" xlink:href="#linear-gradient-14"/><radialGradient id="radial-gradient" cx="6142.57" cy="43.94" r="1.17" gradientTransform="matrix(-1, 0, 0, 1, 6164.79, 0)" gradientUnits="userSpaceOnUse"><stop offset="0.16" stop-color="#f90"/><stop offset="0.34" stop-color="#fd9500"/><stop offset="0.52" stop-color="#f68900"/><stop offset="0.69" stop-color="#ea7600"/><stop offset="0.87" stop-color="#db5a00"/><stop offset="0.99" stop-color="#cc4100"/></radialGradient><radialGradient id="radial-gradient-2" cx="-6279.24" cy="44.13" r="0.69" gradientTransform="translate(6300.47)" xlink:href="#radial-gradient"/><linearGradient id="linear-gradient-17" x1="6162" y1="36.19" x2="6163.44" y2="36.19" xlink:href="#linear-gradient-3"/><linearGradient id="linear-gradient-18" x1="-6299.37" y1="36.26" x2="-6298.18" y2="36.26" xlink:href="#linear-gradient-14"/><linearGradient id="linear-gradient-19" x1="6162.64" y1="34.84" x2="6163.83" y2="34.84" xlink:href="#linear-gradient-3"/><linearGradient id="linear-gradient-20" x1="-6299.71" y1="34.82" x2="-6298.79" y2="34.82" xlink:href="#linear-gradient-14"/><linearGradient id="linear-gradient-21" x1="6114.7" y1="24.8" x2="6112.31" y2="28.82" gradientTransform="matrix(-1, 0, 0, 1, 6164.79, 0)" gradientUnits="userSpaceOnUse"><stop offset="0" stop-color="#7c1dc9"/><stop offset="0.17" stop-color="#5e1699"/><stop offset="0.38" stop-color="#3d0e63"/><stop offset="0.57" stop-color="#230838"/><stop offset="0.75" stop-color="#100419"/><stop offset="0.9" stop-color="#040107"/><stop offset="1"/></linearGradient><linearGradient id="linear-gradient-22" x1="6089.8" y1="23.61" x2="6092.04" y2="18.83" xlink:href="#linear-gradient-10"/><linearGradient id="linear-gradient-23" x1="6145.22" y1="53.39" x2="6147.46" y2="48.61" xlink:href="#linear-gradient-10"/><linearGradient id="linear-gradient-24" x1="6112.9" y1="36.67" x2="6115.54" y2="32.09" xlink:href="#linear-gradient-10"/><radialGradient id="New_Gradient_Swatch_copy_19-3" cx="6152.43" cy="40.32" r="10.75" xlink:href="#New_Gradient_Swatch_copy_19"/><radialGradient id="radial-gradient-3" cx="6159.5" cy="46.55" r="10.43" gradientTransform="matrix(-1, 0, 0, 1, 6164.79, 0)" gradientUnits="userSpaceOnUse"><stop offset="0" stop-color="#ffe4a7"/><stop offset="1"/></radialGradient><linearGradient id="linear-gradient-25" x1="6152.91" y1="52.1" x2="6151.88" y2="45.18" xlink:href="#linear-gradient-10"/><linearGradient id="linear-gradient-26" x1="6145.72" y1="54.91" x2="6148.26" y2="50.58" xlink:href="#linear-gradient-10"/><linearGradient id="linear-gradient-27" x1="6147.48" y1="5.18" x2="6133.96" y2="24.09" gradientTransform="matrix(-1, 0, 0, 1, 6164.79, 0)" gradientUnits="userSpaceOnUse"><stop offset="0" stop-color="#9c9c9c"/><stop offset="0.01" stop-color="#999"/><stop offset="0.26" stop-color="#636363"/><stop offset="0.49" stop-color="#383838"/><stop offset="0.7" stop-color="#191919"/><stop offset="0.88" stop-color="#070707"/><stop offset="1"/></linearGradient><linearGradient id="linear-gradient-28" x1="6170.9" y1="37.38" x2="6136.89" y2="29.82" gradientTransform="matrix(-1, 0, 0, 1, 6164.79, 0)" gradientUnits="userSpaceOnUse"><stop offset="0" stop-color="#e0c95e"/><stop offset="0.01" stop-color="#dcc55c"/><stop offset="0.22" stop-color="#9a8a41"/><stop offset="0.42" stop-color="#635929"/><stop offset="0.6" stop-color="#383218"/><stop offset="0.76" stop-color="#19170b"/><stop offset="0.9" stop-color="#070603"/><stop offset="1"/></linearGradient><radialGradient id="Radial_Gradient_1-5" cx="6143.88" cy="43.58" r="2.49" xlink:href="#Radial_Gradient_1"/><linearGradient id="linear-gradient-29" x1="6135.43" y1="22.66" x2="6105.4" y2="-7.59" gradientTransform="matrix(-1, 0, 0, 1, 6164.79, 0)" gradientUnits="userSpaceOnUse"><stop offset="0" stop-color="#b4299a"/><stop offset="0.1" stop-color="#992383"/><stop offset="0.33" stop-color="#631755"/><stop offset="0.54" stop-color="#380d30"/><stop offset="0.73" stop-color="#190616"/><stop offset="0.89" stop-color="#070206"/><stop offset="1"/></linearGradient><linearGradient id="linear-gradient-30" x1="6122.49" y1="19.39" x2="6103.25" y2="42.74" xlink:href="#linear-gradient-21"/><linearGradient id="linear-gradient-31" x1="6126.49" y1="31.1" x2="6119.77" y2="33.2" gradientTransform="matrix(-1, 0, 0, 1, 6164.79, 0)" gradientUnits="userSpaceOnUse"><stop offset="0" stop-color="#696969"/><stop offset="0.24" stop-color="#9c9c9c"/><stop offset="0.48" stop-color="#c7c7c7"/><stop offset="0.69" stop-color="#e6e6e6"/><stop offset="0.87" stop-color="#f8f8f8"/><stop offset="1" stop-color="#fff"/></linearGradient><radialGradient id="New_Gradient_Swatch_copy_19-4" cx="6123.69" cy="28.42" r="3.73" xlink:href="#New_Gradient_Swatch_copy_19"/><linearGradient id="linear-gradient-32" x1="6123.63" y1="28.18" x2="6123.93" y2="30.9" xlink:href="#linear-gradient-27"/><linearGradient id="linear-gradient-33" x1="6114.66" y1="4.87" x2="6104.63" y2="18.91" xlink:href="#linear-gradient-27"/></defs><g class="cls-1"><g id="Layer_2" data-name="Layer 2"><g id="Layer_1-2" data-name="Layer 1"><path class="cls-2" d="M73.68,27.77,33.1,50.93a22.47,22.47,0,0,1-22.34,0L1.29,45.41a1.45,1.45,0,0,1,0-2.5L52.05,13.5a1.42,1.42,0,0,1,1.45,0L73.7,25.27A1.45,1.45,0,0,1,73.68,27.77Z"/><path class="cls-3" d="M72,24.12,67.2,21.38l2.16-2.83s3.53,3.42,3.42,3.7S72,24.12,72,24.12Z"/><path class="cls-3" d="M36.62,44.47l-7.26-4.23s5-2.58,5.21-2.58,3.25,2,3.25,2Z"/><path class="cls-4" d="M25.46,47.19a3,3,0,0,0,1.18,2.67L29,51.21c.75.42.27-.54,1.42-1.21a9.28,9.28,0,0,0,4.21-7.25c0-1.32,1.21-1.33.47-1.77l-2.48-1.36a3,3,0,0,0-2.93.32A9.27,9.27,0,0,0,25.46,47.19Z"/><path class="cls-5" d="M27.89,48.57c0,2.66,1.88,3.74,4.21,2.4a9.27,9.27,0,0,0,4.2-7.25c0-2.67-1.88-3.74-4.2-2.4A9.25,9.25,0,0,0,27.89,48.57Z"/><path class="cls-6" d="M31.89,41.22a3,3,0,0,1,2.88-.35,3.3,3.3,0,0,0-2.51.49,9.28,9.28,0,0,0-4.21,7.25,2.85,2.85,0,0,0,1.33,2.75c-1-.29-1.69-1.31-1.69-2.89A9.27,9.27,0,0,1,31.89,41.22Z"/><path class="cls-7" d="M28.72,48.08c0,2.05,1.45,2.88,3.24,1.85a7.16,7.16,0,0,0,3.23-5.59c0-2.05-1.45-2.87-3.23-1.84A7.12,7.12,0,0,0,28.72,48.08Zm2.14-1.29a.18.18,0,0,0,0,.12.61.61,0,0,1-.14.36l-1,1.24c-.16.19-.35.21-.4,0a2.93,2.93,0,0,1-.09-.76,4.46,4.46,0,0,1,.09-.88c.05-.22.24-.42.4-.41l1,.09C30.81,46.6,30.86,46.67,30.86,46.79ZM30,45.13a6.08,6.08,0,0,1,1.24-1.54c.17-.15.33-.1.33.11V45a.56.56,0,0,1-.14.36l-.09.11a.35.35,0,0,1-.28.17l-1-.09C29.93,45.56,29.9,45.34,30,45.13Zm2.63-2.34a1.62,1.62,0,0,1,1.24.1c.12.07.09.33-.06.52l-1,1.24a.36.36,0,0,1-.28.16h-.09c-.09,0-.14-.08-.14-.2V43.28A.54.54,0,0,1,32.65,42.79Zm1.94,1.08a3,3,0,0,1,.09.77,4.53,4.53,0,0,1-.09.88c-.05.22-.24.42-.39.4l-1-.08c-.08,0-.14-.08-.13-.2v-.12a.59.59,0,0,1,.13-.36l1-1.24C34.35,43.73,34.54,43.71,34.59,43.87Zm-.7,3.43a6.21,6.21,0,0,1-1.24,1.53c-.17.15-.33.1-.33-.1V47.4a.61.61,0,0,1,.14-.36l.09-.11a.33.33,0,0,1,.28-.16l1,.08C34,46.87,34,47.09,33.89,47.3Zm-2.63,2.34A1.57,1.57,0,0,1,30,49.53c-.12-.07-.09-.32.06-.51l1-1.24a.36.36,0,0,1,.28-.16h.09c.09,0,.14.08.14.19v1.33A.56.56,0,0,1,31.26,49.64Z"/><path class="cls-8" d="M28.92,48.16c0,2.05,1.45,2.88,3.24,1.85a7.14,7.14,0,0,0,3.23-5.58c0-2.06-1.45-2.88-3.23-1.85A7.12,7.12,0,0,0,28.92,48.16Zm2.14-1.29V47a.61.61,0,0,1-.14.36l-1,1.24c-.15.19-.35.21-.39,0a2.54,2.54,0,0,1-.1-.76,3.83,3.83,0,0,1,.1-.88c0-.22.24-.42.39-.41l1,.09C31,46.68,31.06,46.75,31.06,46.87Zm-.84-1.66a6.26,6.26,0,0,1,1.24-1.54c.17-.15.33-.1.33.11V45.1a.56.56,0,0,1-.14.36l-.09.11a.35.35,0,0,1-.28.17l-1-.09C30.13,45.64,30.1,45.42,30.22,45.21Zm2.64-2.34a1.59,1.59,0,0,1,1.23.1c.12.07.09.33-.06.52l-1,1.24a.35.35,0,0,1-.28.16h-.09c-.09,0-.14-.08-.14-.2V43.36A.56.56,0,0,1,32.86,42.87ZM34.79,44a3,3,0,0,1,.09.77,4.53,4.53,0,0,1-.09.88c0,.22-.24.42-.39.4l-1-.08c-.08,0-.14-.08-.13-.2V45.6a.59.59,0,0,1,.13-.36l1-1.24C34.55,43.81,34.74,43.79,34.79,44Zm-.7,3.43a6.17,6.17,0,0,1-1.23,1.53c-.17.15-.34.1-.34-.1V47.48a.61.61,0,0,1,.14-.36l.09-.11a.35.35,0,0,1,.28-.16l1,.08C34.18,47,34.21,47.17,34.09,47.38Zm-2.63,2.34a1.57,1.57,0,0,1-1.24-.11c-.12-.07-.09-.32.06-.51l1-1.24a.36.36,0,0,1,.28-.16h.09c.09,0,.14.08.14.19v1.33A.56.56,0,0,1,31.46,49.72Z"/><path class="cls-9" d="M60.77,27.35A3,3,0,0,0,62,30l2.32,1.35c.76.42.28-.54,1.43-1.21a9.25,9.25,0,0,0,4.2-7.24c0-1.32,1.22-1.33.48-1.77L67.9,19.78A3,3,0,0,0,65,20.1,9.27,9.27,0,0,0,60.77,27.35Z"/><path class="cls-10" d="M63.2,28.73c0,2.67,1.88,3.74,4.2,2.4a9.28,9.28,0,0,0,4.21-7.25c0-2.66-1.89-3.73-4.21-2.39A9.25,9.25,0,0,0,63.2,28.73Z"/><path class="cls-11" d="M67.2,21.38A3.07,3.07,0,0,1,70.08,21a3.34,3.34,0,0,0-2.52.5,9.25,9.25,0,0,0-4.2,7.24,2.84,2.84,0,0,0,1.33,2.75c-1-.28-1.69-1.3-1.69-2.89A9.27,9.27,0,0,1,67.2,21.38Z"/><path class="cls-12" d="M64,28.25c0,2.05,1.45,2.87,3.23,1.84a7.12,7.12,0,0,0,3.24-5.58c0-2.05-1.45-2.88-3.24-1.85A7.16,7.16,0,0,0,64,28.25ZM66.16,27v.12a.59.59,0,0,1-.13.36l-1,1.24c-.15.19-.34.21-.39,0a3,3,0,0,1-.09-.77,4.53,4.53,0,0,1,.09-.88c.05-.22.24-.42.39-.4l1,.08C66.11,26.76,66.17,26.83,66.16,27Zm-.83-1.66a6.21,6.21,0,0,1,1.24-1.53c.16-.15.33-.1.33.1v1.33a.61.61,0,0,1-.14.36l-.09.11a.35.35,0,0,1-.28.16l-1-.08C65.24,25.72,65.21,25.5,65.33,25.29ZM68,23a1.57,1.57,0,0,1,1.24.11c.12.07.09.32-.06.51l-1,1.24a.36.36,0,0,1-.28.16h-.09c-.09,0-.14-.08-.14-.19V23.44A.56.56,0,0,1,68,23ZM69.89,24a2.54,2.54,0,0,1,.1.76,3.83,3.83,0,0,1-.1.88c0,.22-.24.42-.39.41l-1-.09c-.09,0-.14-.08-.14-.2s0,0,0-.06,0,0,0-.06a.56.56,0,0,1,.14-.35l1-1.25C69.65,23.89,69.85,23.87,69.89,24Zm-.69,3.42A6.08,6.08,0,0,1,68,29c-.17.15-.33.1-.33-.11V27.57a.56.56,0,0,1,.14-.36l.09-.11a.35.35,0,0,1,.28-.17l1,.09C69.29,27,69.32,27.25,69.2,27.46ZM66.57,29.8a1.62,1.62,0,0,1-1.24-.1c-.12-.07-.09-.33.06-.52l1-1.24a.36.36,0,0,1,.28-.16h.09c.09,0,.14.08.14.2v1.32A.55.55,0,0,1,66.57,29.8Z"/><path class="cls-13" d="M64.23,28.33c0,2.05,1.45,2.87,3.24,1.84a7.14,7.14,0,0,0,3.23-5.58c0-2.05-1.45-2.88-3.23-1.85A7.16,7.16,0,0,0,64.23,28.33ZM66.37,27a.18.18,0,0,0,0,.12.61.61,0,0,1-.14.36l-1,1.24c-.15.19-.35.22-.39.05a2.61,2.61,0,0,1-.1-.77,3.9,3.9,0,0,1,.1-.88c0-.21.24-.42.39-.4l1,.08C66.32,26.84,66.37,26.92,66.37,27Zm-.84-1.66a6.21,6.21,0,0,1,1.24-1.53c.17-.15.33-.1.33.1v1.33a.61.61,0,0,1-.14.36l-.09.11a.33.33,0,0,1-.28.16l-1-.08C65.44,25.8,65.41,25.58,65.53,25.37ZM68.16,23a1.57,1.57,0,0,1,1.24.11c.12.07.09.32-.06.51l-1,1.25a.38.38,0,0,1-.28.15H68c-.09,0-.14-.08-.14-.19V23.52A.56.56,0,0,1,68.16,23Zm1.94,1.09a2.93,2.93,0,0,1,.09.76,4.46,4.46,0,0,1-.09.88c0,.22-.24.42-.39.41l-1-.09c-.08,0-.14-.08-.13-.2v-.12a.54.54,0,0,1,.13-.35l1-1.25C69.86,24,70.05,24,70.1,24.12Zm-.7,3.42a6.08,6.08,0,0,1-1.24,1.54c-.17.15-.33.1-.33-.1V27.65a.56.56,0,0,1,.14-.36l.09-.11a.38.38,0,0,1,.28-.17l1,.09C69.49,27.11,69.52,27.33,69.4,27.54Zm-2.63,2.34a1.57,1.57,0,0,1-1.24-.1c-.12-.07-.09-.33.06-.52l1-1.24a.36.36,0,0,1,.28-.16H67c.09,0,.14.08.14.2v1.32A.54.54,0,0,1,66.77,29.88Z"/><path class="cls-14" d="M18.32,17.21s-.86-2.4-1.7-1.42-.44,4.56-.44,4.56Z"/><path class="cls-15" d="M1.62,33C3,30.49,17,18.11,24.43,12.28a83.83,83.83,0,0,1,20-11C46.79.45,53.37-.07,56.7,0c3.85.09,15.22,7.5,16.72,8.76,0,0,2.12,8.4,2.12,9.3A13.17,13.17,0,0,1,72,24.12c0-.14,0-.27,0-.41,0-3.09-2.18-4.34-4.88-2.78a10.78,10.78,0,0,0-4.88,8.42c0,.17,0,.33,0,.49C54.82,34.13,44.44,40,36.62,44.47a7.46,7.46,0,0,0,.2-1.67c0-3.09-2.19-4.34-4.88-2.78a10.73,10.73,0,0,0-4.89,8.42,5.24,5.24,0,0,0,.17,1.37l-1.32.74c-4,2.23-12-1-19.85-5.38C-1.57,40.92.28,35.53,1.62,33Z"/><path class="cls-16" d="M33.28,33.4c3.58-3.64,6-9.52,9.08-14.23S56.59,9.81,58.88,9.48c2.11-.31,10.49,0,14.51-.74l0,0s2.12,8.4,2.12,9.3A13.17,13.17,0,0,1,72,24.12c0-.14,0-.27,0-.41,0-3.09-2.18-4.34-4.88-2.78a10.78,10.78,0,0,0-4.88,8.42c0,.17,0,.33,0,.49C54.82,34.13,44.44,40,36.62,44.47a7.46,7.46,0,0,0,.2-1.67c0-3.09-2.19-4.34-4.88-2.78a10.73,10.73,0,0,0-4.89,8.42,5.24,5.24,0,0,0,.17,1.37l-1.32.74a7.44,7.44,0,0,1-4.39.66c-.2-2.3-.29-5.63.73-6.83C23.87,42.48,29.69,37,33.28,33.4Z"/><path class="cls-17" d="M21.69,44.13c1.62-1.91,7.45-7.34,11-11s6.44-9.83,9.52-14.54S56,9.56,58.33,9.22c2.1-.31,10.49,0,14.5-.74,0,0-11.19.61-13.08.89-2.3.33-13.49,4.57-16.57,9.27S37.69,29.23,34.1,32.87s-9.37,9.5-11,11.41c-1,1.18-.93,4.43-.73,6.73A11.64,11.64,0,0,1,21,51C20.75,48.65,20.66,45.32,21.69,44.13Z"/><path class="cls-18" d="M59.3,8.26,47.45,1.52a19.38,19.38,0,0,1,10.43.19C63,3.44,67.64,6.94,67.42,7.83S60.58,8.6,59.3,8.26Z"/><path class="cls-19" d="M56.15,1.68a16.91,16.91,0,0,0-3.7-.79,16.61,16.61,0,0,1,5.43.82C63,3.44,67.64,6.94,67.42,7.83c0,.18-.35.32-.81.42C66.45,7.1,61.58,3.5,56.15,1.68Z"/><path class="cls-19" d="M40,19.71C39.53,18,28,11.83,26.89,11.77s-12.44,8.75-12,10.87S28,33,32.25,31.3C36.94,29.4,40.31,21.15,40,19.71Z"/><path class="cls-20" d="M39.48,19.86c-.41-1.66-11.61-7.66-12.7-7.71s-12.09,8.5-11.71,10.57S27.87,32.79,32,31.13C36.55,29.28,39.83,21.27,39.48,19.86Z"/><path class="cls-19" d="M16.63,19.8a1.62,1.62,0,0,0-.31,1c.4,2.19,13.21,10.49,18,9.21a7.69,7.69,0,0,1-2,1.28C28,33,15.24,24.77,14.84,22.64,14.74,22.07,15.47,21,16.63,19.8Z"/><path class="cls-19" d="M37.65,31.67,67.81,14.09s-6.74-4.39-11.89-2.6S43,18.72,41.63,22,37.65,31.67,37.65,31.67Z"/><path class="cls-21" d="M38.47,31,67,14.37s-6.37-4.15-11.25-2.45-12.18,6.83-13.51,9.91S38.47,31,38.47,31Z"/><path class="cls-3" d="M16.62,42.87s-1.56,2.83-2.35,2.86-2.88-.7-7-3.11C4.6,41.08,3.42,40,3.16,39.17s.4-3.81.4-3.81a23,23,0,0,0,5.83,4.26A50.47,50.47,0,0,0,16.62,42.87Z"/><path class="cls-22" d="M3.56,35.36s.08.1.25.27a10.69,10.69,0,0,0-.28,3.26c.26.84,1.43,1.91,4.08,3.45,4.15,2.41,6.23,3.14,7,3.11a.55.55,0,0,0,.23-.07,1.07,1.07,0,0,1-.59.35c-.8,0-2.88-.7-7-3.11C4.6,41.08,3.42,40,3.16,39.17S3.56,35.36,3.56,35.36Z"/><path class="cls-23" d="M17.72,43.06l-2,3.17a19,19,0,0,0,4.22.51,4.64,4.64,0,0,0,3.55-2.11,7.2,7.2,0,0,0,.64-2.54,17,17,0,0,1-3.62,1.16A6.57,6.57,0,0,1,17.72,43.06Z"/><path class="cls-24" d="M17.72,43.06l-2,3.17a18.61,18.61,0,0,0,5.18-1.53,9,9,0,0,0,3.23-2.61,17,17,0,0,1-3.62,1.16A6.57,6.57,0,0,1,17.72,43.06Z"/><path class="cls-25" d="M2.86,35.15l-.38,3.52s-1.91-1.53-2-2.8a4.69,4.69,0,0,1,.91-2.65A4.78,4.78,0,0,0,2.86,35.15Z"/><path class="cls-26" d="M2.86,35.15l-.38,3.52a13.89,13.89,0,0,1-1-3.31,16.48,16.48,0,0,1-.06-2.14A4.78,4.78,0,0,0,2.86,35.15Z"/><path class="cls-27" d="M72.71,8.06A3.19,3.19,0,0,1,73.94,9a39.58,39.58,0,0,1,.75,5.08s-2.61-4.28-2.81-4.7S72.71,8.06,72.71,8.06Z"/><path class="cls-28" d="M17.51,44.44l.8,1.68s2.43-1.5,2.18-2S17.51,44.44,17.51,44.44Z"/><path class="cls-29" d="M18.57,45.63c0,.43-.3.6-.67.38a1.47,1.47,0,0,1-.67-1.15c0-.43.3-.6.67-.38A1.47,1.47,0,0,1,18.57,45.63Z"/><path class="cls-30" d="M19.4,44.39l.8,1.7s2.45-1.51,2.2-2S19.4,44.39,19.4,44.39Z"/><path class="cls-31" d="M20.46,45.6c0,.42-.3.6-.67.38a1.47,1.47,0,0,1-.68-1.16c0-.43.3-.61.68-.39A1.5,1.5,0,0,1,20.46,45.6Z"/><path class="cls-32" d="M20.89,43.41l.71,1.5s2.15-1.34,1.94-1.8S20.89,43.41,20.89,43.41Z"/><path class="cls-33" d="M21.83,44.47c0,.38-.27.53-.6.34a1.3,1.3,0,0,1-.59-1c0-.37.26-.53.59-.34A1.35,1.35,0,0,1,21.83,44.47Z"/><path class="cls-34" d="M1.35,35.54,2.06,37s.91-1,.7-1.49S1.35,35.54,1.35,35.54Z"/><path class="cls-35" d="M2.29,36.6c0,.38-.26.53-.59.34a1.31,1.31,0,0,1-.6-1c0-.38.27-.53.6-.34A1.3,1.3,0,0,1,2.29,36.6Z"/><path class="cls-36" d="M1,34.27l.54,1.15s.79-.56.63-.91S1,34.27,1,34.27Z"/><path class="cls-37" d="M1.68,35.09c0,.29-.2.41-.46.26a1,1,0,0,1-.46-.79c0-.29.21-.41.46-.26A1,1,0,0,1,1.68,35.09Z"/><polygon class="cls-38" points="67.74 14.42 37.22 31.94 31.78 37.66 32.34 38.22 37.05 36.59 71.38 16.96 67.74 14.42"/><g class="cls-39"><path class="cls-40" d="M72,24.12c0-.14,0-.27,0-.41,0-1.85-.78-3-2-3.36l5.38-3.13a5.75,5.75,0,0,1,.12.85A13.17,13.17,0,0,1,72,24.12Z"/><path class="cls-41" d="M.89,40A54.51,54.51,0,0,0,6,44.33c3.59,2.61,12.51,5.44,15.84,3.81.6-.3,2.82-1.55,6.05-3.39a9.33,9.33,0,0,0-.87,3.69,5.24,5.24,0,0,0,.17,1.37l-1.32.74c-4,2.23-12-1-19.85-5.38C3.11,43.53,1.58,41.72.89,40Z"/><path class="cls-42" d="M36.62,44.47a7.46,7.46,0,0,0,.2-1.67A3.85,3.85,0,0,0,36,40.13c8.72-5,19.77-11.46,28.25-16.39a10.39,10.39,0,0,0-1.95,5.61c0,.17,0,.33,0,.49C54.82,34.13,44.44,40,36.62,44.47Z"/></g><path class="cls-43" d="M24.93,45s-3.64,2.2-5.15,2.24c-2.36.05-7.07-1.1-11.81-4C.65,38.65.39,35.76.39,35.76a25.6,25.6,0,0,0-.34,5.15C.28,42.57,1.73,44.68,8.12,48c6.15,3.22,11.15,3.86,13.56,3.58a16.64,16.64,0,0,0,4.22-1.06Z"/><path class="cls-44" d="M19.51,47.67c-2.35.06-7.06-1.1-11.8-4C2.09,40.18.63,37.67.26,36.7c.07-.57.13-.94.13-.94S.65,38.65,8,43.16c4.74,2.93,9.45,4.08,11.81,4,1.51,0,5.15-2.24,5.15-2.24l.08.44C23.4,46.24,20.57,47.65,19.51,47.67Z"/><path class="cls-45" d="M.05,40.91a11.08,11.08,0,0,1,0-1.76,60.14,60.14,0,0,0,6,5.18c3.59,2.61,12.51,5.44,15.84,3.81.41-.2,1.57-.85,3.3-1.82l.73,4.23a16.64,16.64,0,0,1-4.22,1.06c-2.41.28-7.41-.36-13.56-3.58C1.73,44.68.28,42.57.05,40.91Z"/><path class="cls-46" d="M.05,40.91a11.08,11.08,0,0,1,0-1.76,60.14,60.14,0,0,0,6,5.18c3.59,2.61,12.51,5.44,15.84,3.81.41-.2,1.57-.85,3.3-1.82l.73,4.23a16.64,16.64,0,0,1-4.22,1.06c-2.41.28-7.41-.36-13.56-3.58C1.73,44.68.28,42.57.05,40.91Z"/><path class="cls-19" d="M41.14,29.63l-3.49,2s1.44-3.6,2.75-6.78Z"/><path class="cls-19" d="M58.84,11.07c4.47.09,9,3,9,3L62,17.48c-.13-.71-.32-1.66-.53-2.59C61.13,13.43,59.49,11.7,58.84,11.07Z"/><path class="cls-47" d="M38.33,18.07c-8.29,2.45-17,2.38-22.08,2.14,3-3.37,9.79-8.48,10.64-8.44S35,15.61,38.33,18.07Z"/><path class="cls-48" d="M8.94,47.91c-5.64-2.8-8-5.18-8.25-6s.24-.06,1.34.78a53.27,53.27,0,0,0,7.36,4.4c6.19,3.26,10.24,3.07,10.42,3.44S17.18,52,8.94,47.91Z"/><path class="cls-49" d="M13.37,23S2.54,31.57,4.09,33.79s12,9.12,16.06,7.84S30.54,33,30.54,33,23.21,31.24,18.48,28,13.37,23,13.37,23Z"/><path class="cls-50" d="M17.72,43.06s1,3,4.73,1.67c1-.35,1.66-2.64,1.66-2.64a17,17,0,0,1-3.62,1.16A6.57,6.57,0,0,1,17.72,43.06Z"/><path class="cls-51" d="M40.32,17.78s-11.82-6.61-11.94-7,15.3-8.85,17.37-8.85S56.68,8,56.23,8.48s-7.3,3.25-9.52,4.65A45.82,45.82,0,0,0,40.32,17.78Z"/><polygon class="cls-19" points="53.28 22.55 50.14 24.34 49.06 15.08 50.78 14 53.28 22.55"/><path class="cls-52" d="M37.58,31.84a18.1,18.1,0,0,1,1,5.23c.13,2.3.16,4.09.17,4.84l13.08-7.54a86.45,86.45,0,0,0-.23-9.11,62.46,62.46,0,0,0-2.06-10.49l.43-.13a62.3,62.3,0,0,1,2.08,10.58c.32,3.94.27,7.59.24,8.88l7.48-4.31c.22-.46,1.53-3.32,3-6.51a8,8,0,0,0,.26-6.2l.41-.19a8.34,8.34,0,0,1-.26,6.57c-1.55,3.48-3,6.55-3,6.58l0,.07L38.32,42.68v-.39s0-2.16-.17-5.2a17.36,17.36,0,0,0-1-5.08Z"/><path class="cls-53" d="M37.93,31.5s3.89,3.16,5.91,2.1S40,30.15,40,30.15Z"/><path class="cls-54" d="M40.32,28.48c.59-.06,3.42.18,3.89,1.42S38,31.84,37.77,31.57,39,28.6,40.32,28.48Z"/><path class="cls-55" d="M40.42,28.69c.47,0,2.69.1,3,1s-4.9,1.44-5.07,1.25S39.41,28.79,40.42,28.69Z"/><path class="cls-56" d="M66.36,14a66.71,66.71,0,0,1-18,1.91,33.52,33.52,0,0,1,7.43-4C59.69,10.55,64.63,13,66.36,14Z"/></g></g></g></svg>