<svg width="20" height="20" viewBox="0 0 20 20" fill="none" xmlns="http://www.w3.org/2000/svg">
<path d="M18.3334 12.5003V7.50033C18.3334 3.33366 16.6667 1.66699 12.5001 1.66699H7.50008C3.33341 1.66699 1.66675 3.33366 1.66675 7.50033V12.5003C1.66675 16.667 3.33341 18.3337 7.50008 18.3337H12.5001C16.6667 18.3337 18.3334 16.667 18.3334 12.5003Z" stroke="#E0E0E0" stroke-width="1.25" stroke-linecap="round" stroke-linejoin="round"/>
<path d="M2.09961 5.9248H17.8996" stroke="#E0E0E0" stroke-width="1.25" stroke-linecap="round" stroke-linejoin="round"/>
<path d="M7.09961 1.75781V5.80781" stroke="#E0E0E0" stroke-width="1.25" stroke-linecap="round" stroke-linejoin="round"/>
<path d="M12.9004 1.75781V5.43281" stroke="#E0E0E0" stroke-width="1.25" stroke-linecap="round" stroke-linejoin="round"/>
<path d="M8.125 12.0421V11.0421C8.125 9.75875 9.03333 9.23376 10.1417 9.87542L11.0083 10.3754L11.875 10.8754C12.9833 11.5171 12.9833 12.5671 11.875 13.2088L11.0083 13.7088L10.1417 14.2088C9.03333 14.8504 8.125 14.3254 8.125 13.0421V12.0421V12.0421Z" stroke="#E0E0E0" stroke-width="1.25" stroke-miterlimit="10" stroke-linecap="round" stroke-linejoin="round"/>
</svg>
