<svg xmlns="http://www.w3.org/2000/svg" xmlns:xlink="http://www.w3.org/1999/xlink" width="150" height="25" viewBox="0 0 150 25"><defs><mask id="a" x="0" y="0.56" width="31.32" height="23.08" maskUnits="userSpaceOnUse"><path d="M4,11.66a.62.62,0,0,0,0,.88l7.09,7.09a.62.62,0,0,0,.88,0l7.09-7.09a.62.62,0,0,0,0-.88L12,4.58a.62.62,0,0,0-.88,0ZM.36,11.23A1.24,1.24,0,0,0,.36,13l10.3,10.3a1.24,1.24,0,0,0,1.75,0L22.71,13a1.24,1.24,0,0,0,0-1.75L12.41.93a1.24,1.24,0,0,0-1.75,0Z" style="fill:#fff"/></mask><mask id="b" x="35.85" y="3.14" width="20.18" height="17.63" maskUnits="userSpaceOnUse"><polygon points="35.85 3.14 56.03 3.14 56.03 20.77 35.85 20.77 35.85 3.14" style="fill:#fff"/></mask><mask id="c" x="70.31" y="3.04" width="3.42" height="17.73" maskUnits="userSpaceOnUse"><polygon points="70.31 3.04 73.73 3.04 73.73 20.77 70.31 20.77 70.31 3.04" style="fill:#fff"/></mask><mask id="d" x="107.71" y="3.04" width="3.42" height="17.73" maskUnits="userSpaceOnUse"><polygon points="107.72 3.04 111.14 3.04 111.14 20.77 107.72 20.77 107.72 3.04" style="fill:#fff"/></mask><mask id="e" x="124.65" y="8.04" width="11.16" height="12.88" maskUnits="userSpaceOnUse"><polygon points="124.66 8.04 135.82 8.04 135.82 20.92 124.66 20.92 124.66 8.04" style="fill:#fff"/></mask></defs><title>whimsical_logo</title><rect width="150" height="25" style="fill:none"/><path d="M22.71,11.23,12.41.93a1.24,1.24,0,0,0-1.75,0L.36,11.23A1.24,1.24,0,0,0,.36,13l10.3,10.3a1.24,1.24,0,0,0,1.75,0L22.71,13A1.24,1.24,0,0,0,22.71,11.23Zm-3.65,1.31L12,19.63a.62.62,0,0,1-.88,0L4,12.54a.62.62,0,0,1,0-.88L11.1,4.58a.62.62,0,0,1,.88,0l7.09,7.09A.62.62,0,0,1,19.06,12.54Z" style="fill:#9187f6"/><g style="mask:url(#a)"><path d="M8.6,13a1.24,1.24,0,0,1,0-1.75L18.9.93a1.24,1.24,0,0,1,1.75,0L31,11.23A1.24,1.24,0,0,1,31,13l-10.3,10.3a1.24,1.24,0,0,1-1.75,0Z" style="fill-opacity:0.009999999776482582"/></g><path d="M8.6,13a1.24,1.24,0,0,1,0-1.75L18.9.93a1.24,1.24,0,0,1,1.75,0L31,11.23A1.24,1.24,0,0,1,31,13l-10.3,10.3a1.24,1.24,0,0,1-1.75,0Z" style="fill:#8313dd"/><g style="mask:url(#b)"><path d="M52.18,19.18a2.56,2.56,0,0,1-.61,1.23,1.4,1.4,0,0,1-1,.36,1.38,1.38,0,0,1-1-.37A2.63,2.63,0,0,1,49,19.18L46,8.51h0l-3,10.68a2.63,2.63,0,0,1-.61,1.21,1.38,1.38,0,0,1-1,.37,1.36,1.36,0,0,1-1-.36,2.8,2.8,0,0,1-.63-1.23l-3.78-14a2.42,2.42,0,0,1-.08-.59,1.44,1.44,0,0,1,.38-1,1.4,1.4,0,0,1,1.07-.41,1.36,1.36,0,0,1,.92.31,2.08,2.08,0,0,1,.56,1l2.66,10.76h0l3-10.76q.38-1.35,1.48-1.35t1.48,1.35l3,10.76h.05l2.6-10.76a1.9,1.9,0,0,1,.55-1,1.38,1.38,0,0,1,.91-.31,1.4,1.4,0,0,1,1.07.41,1.44,1.44,0,0,1,.38,1,2.31,2.31,0,0,1-.08.59Z" style="fill:#303395"/></g><path d="M66.84,20.77a1.4,1.4,0,0,1-1-.4,1.5,1.5,0,0,1-.4-1.11v-6a3.08,3.08,0,0,0-.57-1.94,2.08,2.08,0,0,0-1.75-.74,2.12,2.12,0,0,0-1.75.74,3,3,0,0,0-.6,1.94v6a1.5,1.5,0,0,1-.4,1.11,1.55,1.55,0,0,1-2.07,0,1.5,1.5,0,0,1-.4-1.11V4.65a1.5,1.5,0,0,1,.4-1.11,1.55,1.55,0,0,1,2.07,0,1.5,1.5,0,0,1,.4,1.11V9.48h0a3.3,3.3,0,0,1,1.31-1A4.58,4.58,0,0,1,64,8a4.33,4.33,0,0,1,1.78.35,4,4,0,0,1,1.34,1A4.12,4.12,0,0,1,68,10.79a5.39,5.39,0,0,1,.3,1.83v6.64a1.5,1.5,0,0,1-.4,1.11A1.4,1.4,0,0,1,66.84,20.77Z" style="fill:#303395"/><g style="mask:url(#c)"><path d="M72,20.77a1.4,1.4,0,0,1-1-.4,1.5,1.5,0,0,1-.4-1.11V9.71A1.5,1.5,0,0,1,71,8.59a1.55,1.55,0,0,1,2.07,0,1.5,1.5,0,0,1,.4,1.11v9.56a1.5,1.5,0,0,1-.4,1.11A1.4,1.4,0,0,1,72,20.77Zm-1.71-16a1.71,1.71,0,1,1,3.42,0A1.69,1.69,0,0,1,72,6.46a1.7,1.7,0,0,1-1.71-1.71Z" style="fill:#303395"/></g><path d="M75.91,9.71a1.5,1.5,0,0,1,.4-1.11,1.41,1.41,0,0,1,1-.4,1.3,1.3,0,0,1,1,.36,1.75,1.75,0,0,1,.45.92h0a3.3,3.3,0,0,1,1.21-1,4.93,4.93,0,0,1,4,0,3.76,3.76,0,0,1,1.42,1.21h0a5.27,5.27,0,0,1,1.66-1.2A5.42,5.42,0,0,1,89.37,8a4.94,4.94,0,0,1,1.9.35,3.94,3.94,0,0,1,2.27,2.4,5.39,5.39,0,0,1,.3,1.83v6.64a1.5,1.5,0,0,1-.4,1.11,1.41,1.41,0,0,1-1,.4,1.39,1.39,0,0,1-1-.4,1.49,1.49,0,0,1-.4-1.11v-6a3,3,0,0,0-.59-1.94,2.09,2.09,0,0,0-1.74-.74,2.12,2.12,0,0,0-1.73.74,2.93,2.93,0,0,0-.61,1.94v6a1.5,1.5,0,0,1-.4,1.11,1.55,1.55,0,0,1-2.07,0,1.5,1.5,0,0,1-.4-1.11v-6a3,3,0,0,0-.59-1.94,2.09,2.09,0,0,0-1.74-.74,2.12,2.12,0,0,0-1.73.74,2.93,2.93,0,0,0-.61,1.94v6a1.5,1.5,0,0,1-.4,1.11,1.55,1.55,0,0,1-2.07,0,1.5,1.5,0,0,1-.4-1.11Zm24.91,11.22a8.41,8.41,0,0,1-2.58-.37,7.75,7.75,0,0,1-1.92-.88A1.31,1.31,0,0,1,96,17.61a1.21,1.21,0,0,1,.94-.4,1.82,1.82,0,0,1,.89.28,9,9,0,0,0,1.44.72,4.7,4.7,0,0,0,1.7.28,3.11,3.11,0,0,0,1.67-.38,1.2,1.2,0,0,0,.6-1.07,1.08,1.08,0,0,0-.42-.89,3.38,3.38,0,0,0-1.62-.46l-1.33-.13A4.64,4.64,0,0,1,97,14.43a3.36,3.36,0,0,1-.94-2.5A3.55,3.55,0,0,1,97.32,9.1,5.28,5.28,0,0,1,100.87,8a7.86,7.86,0,0,1,2,.26,7.53,7.53,0,0,1,1.7.66,2,2,0,0,1,.65.51,1.06,1.06,0,0,1,.22.66,1.26,1.26,0,0,1-.33.89,1.13,1.13,0,0,1-.87.36,2,2,0,0,1-.89-.28,7.74,7.74,0,0,0-1.28-.47,5.11,5.11,0,0,0-1.38-.19,2.22,2.22,0,0,0-1.42.37,1.14,1.14,0,0,0-.45.91,1,1,0,0,0,.42.86,3.45,3.45,0,0,0,1.6.45l1.33.13a4.58,4.58,0,0,1,2.89,1.15,3.4,3.4,0,0,1,.92,2.48,3.78,3.78,0,0,1-1.33,3A5.74,5.74,0,0,1,100.82,20.92Z" style="fill:#303395"/><g style="mask:url(#d)"><path d="M109.43,20.77a1.39,1.39,0,0,1-1-.4,1.49,1.49,0,0,1-.4-1.11V9.71a1.49,1.49,0,0,1,.4-1.11,1.55,1.55,0,0,1,2.07,0,1.5,1.5,0,0,1,.4,1.11v9.56a1.5,1.5,0,0,1-.4,1.11A1.4,1.4,0,0,1,109.43,20.77Zm-1.71-16a1.71,1.71,0,1,1,3.42,0,1.71,1.71,0,1,1-3.42,0Z" style="fill:#303395"/></g><path d="M118.47,20.92a5.71,5.71,0,0,1-3.19-.87,4.61,4.61,0,0,1-1.86-2.53,9.86,9.86,0,0,1-.38-3,9.87,9.87,0,0,1,.38-3,4.62,4.62,0,0,1,1.86-2.53A5.71,5.71,0,0,1,118.47,8a5.56,5.56,0,0,1,2.3.45,4.55,4.55,0,0,1,1.59,1.11,2.19,2.19,0,0,1,.4.58,1.35,1.35,0,0,1,.12.55A1.22,1.22,0,0,1,121.61,12a1.19,1.19,0,0,1-.61-.17,2.85,2.85,0,0,1-.56-.45,2.33,2.33,0,0,0-.82-.57,2.9,2.9,0,0,0-1.12-.19,2.51,2.51,0,0,0-1.42.4,2.25,2.25,0,0,0-.88,1.21,4.41,4.41,0,0,0-.21,1q0,.55,0,1.27t0,1.26a4.41,4.41,0,0,0,.21,1,2.25,2.25,0,0,0,.88,1.21,2.51,2.51,0,0,0,1.42.4,2.91,2.91,0,0,0,1.12-.19,2.34,2.34,0,0,0,.82-.58,2.89,2.89,0,0,1,.56-.45,1.19,1.19,0,0,1,.61-.17,1.22,1.22,0,0,1,1.25,1.25,1.35,1.35,0,0,1-.12.55,2.19,2.19,0,0,1-.4.58,4.56,4.56,0,0,1-1.59,1.11A5.56,5.56,0,0,1,118.47,20.92Z" style="fill:#303395"/><g style="mask:url(#e)"><path d="M129.53,18.6a3.54,3.54,0,0,0,2-.49,1.64,1.64,0,0,0,.73-1.46v-1.1a.13.13,0,0,0-.15-.15h-2a3.83,3.83,0,0,0-2,.41,1.4,1.4,0,0,0-.61,1.25Q127.39,18.6,129.53,18.6Zm6.05,0a1.76,1.76,0,0,1,.23.84,1.23,1.23,0,0,1-.41,1,1.47,1.47,0,0,1-1,.37,1.37,1.37,0,0,1-1.2-.59l-.41-.61h0a3.51,3.51,0,0,1-1.45,1,6,6,0,0,1-2.17.36,5,5,0,0,1-3.33-1,3.44,3.44,0,0,1-1.14-2.75,3.46,3.46,0,0,1,1.3-3,5.92,5.92,0,0,1,3.6-1h2.53a.13.13,0,0,0,.15-.15V12.8a2.16,2.16,0,0,0-.65-1.67,3.05,3.05,0,0,0-2.11-.6,4.94,4.94,0,0,0-1.25.15,5.17,5.17,0,0,0-1,.36,2,2,0,0,1-.74.15,1.16,1.16,0,0,1-.84-.32,1.13,1.13,0,0,1-.33-.86,1.27,1.27,0,0,1,.16-.61,1.3,1.3,0,0,1,.55-.51,5.7,5.7,0,0,1,1.53-.6A9,9,0,0,1,129.79,8a5.38,5.38,0,0,1,3.9,1.24A4.74,4.74,0,0,1,135,12.82v3.88a3.18,3.18,0,0,0,.06.73,2.65,2.65,0,0,0,.19.5Z" style="fill:#303395"/></g><path d="M141,20.79a3.22,3.22,0,0,1-2.63-.92,4.19,4.19,0,0,1-.74-2.68V4.65a1.5,1.5,0,0,1,.4-1.11,1.4,1.4,0,0,1,1-.4,1.42,1.42,0,0,1,1,.4,1.48,1.48,0,0,1,.41,1.11V17a1.43,1.43,0,0,0,.23.93,1.19,1.19,0,0,0,.77.34,1.34,1.34,0,0,1,.92.42,1.38,1.38,0,0,1-.08,1.76,1.51,1.51,0,0,1-1.12.37Z" style="fill:#303395"/></svg>